  0
SECTION
  2
HEADER
  9
$ACADVER
  1
AC1009
  9
$ACADMAINTVER
 70
   0
  9
$DWGCODEPAGE
  3
ANSI_932
  9
$INSBASE
 10
0.0
 20
0.0
 30
0.0
  9
$EXTMIN
 10
0.000000
 20
0.000000
 30
0.0
  9
$EXTMAX
 10
20.000000
 20
5.500000
 30
0.0
  9
$LIMMIN
 10
0.0
 20
0.0
  9
$LIMMAX
 10
12.0
 20
9.0
  9
$ORTHOMODE
 70
	0
  9
$REGENMODE
 70
	1
  9
$FILLMODE
 70
	1
  9
$QTEXTMODE
 70
	0
  9
$MIRRTEXT
 70
	1
  9
$DRAGMODE
 70
	2
  9
$LTSCALE
 40
1.0
  9
$OSMODE
 70
	0
  9
$ATTMODE
 70
	1
  9
$TEXTSIZE
 40
0.2
  9
$TRACEWID
 40
0.05
  9
$TEXTSTYLE
  7
STANDARD
  9
$CLAYER
  8
0
  9
$CELTYPE
  6
BYLAYER
  9
$CECOLOR
 62
	256
  9
$CELTSCALE
 40
1.0
  9
$DELOBJ
 70
	1
  9
$DISPSILH
 70
	0
  9
$LUNITS
 70
	2
  9
$LUPREC
 70
	6
  9
$SKETCHINC
 40
0.1
  9
$FILLETRAD
 40
0.5
  9
$AUNITS
 70
	0
  9
$AUPREC
 70
	6
  9
$MENU
  1
acad
  9
$ELEVATION
 40
0.0
  9
$PELEVATION
 40
0.0
  9
$THICKNESS
 40
0.0
  9
$LIMCHECK
 70
	0
  9
$BLIPMODE
 70
	0
  9
$CHAMFERA
 40
0.5
  9
$CHAMFERB
 40
0.5
  9
$CHAMFERC
 40
1.0
  9
$CHAMFERD
 40
0.0
  9
$SKPOLY
 70
	0
  9
$TDCREATE
 40
0.0
  9
$TDUPDATE
 40
0.0
  9
$TDINDWG
 40
0.0
  9
$TDUSRTIMER
 40
0.0
  9
$USRTIMER
 70
	0
  9
$ANGBASE
 50
0.0
  9
$ANGDIR
 70
	0
  9
$PDMODE
 70
	0
  9
$PDSIZE
 40
0.0
  9
$PLINEWID
 40
0.0
  9
$COORDS
 70
	1
  9
$SPLFRAME
 70
	0
  9
$SPLINETYPE
 70
	6
  9
$SPLINESEGS
 70
	8
  9
$ATTDIA
 70
	0
  9
$ATTREQ
 70
	1
  9
$HANDLING
 70
   1
  0
ENDSEC
  0
SECTION
  2
TABLES
  0
TABLE
  2
LAYER
 70
16
  0
LAYER
  2
0
 70
   0
 62
  7
  6
CONTINUOUS
  0
LAYER
  2
Outline
 70
   0
 62
  7
  6
CONTINUOUS
  0
LAYER
  2
Silk-A
 70
   0
 62
  140
  6
CONTINUOUS
  0
LAYER
  2
MetalMask-A
 70
   0
 62
  176
  6
CONTINUOUS
  0
LAYER
  2
Hole
 70
   0
 62
  1
  6
CONTINUOUS
  0
LAYER
  2
L1
 70
   0
 62
  3
  6
CONTINUOUS
  0
LAYER
  2
MetalMask-B
 70
   0
 62
  176
  6
CONTINUOUS
  0
LAYER
  2
Resist-A
 70
   0
 62
  2
  6
CONTINUOUS
  0
LAYER
  2
L2
 70
   0
 62
  3
  6
CONTINUOUS
  0
LAYER
  2
L3
 70
   0
 62
  3
  6
CONTINUOUS
  0
LAYER
  2
Resist-B
 70
   0
 62
  2
  6
CONTINUOUS
  0
LAYER
  2
L4
 70
   0
 62
  3
  6
CONTINUOUS
  0
LAYER
  2
PartsArea-A
 70
   0
 62
  111
  6
CONTINUOUS
  0
LAYER
  2
PartsArea-B
 70
   0
 62
  111
  6
CONTINUOUS
  0
LAYER
  2
PartsSilk-B
 70
   0
 62
  221
  6
CONTINUOUS
  0
LAYER
  2
Silk-B
 70
   0
 62
  140
  6
CONTINUOUS
  0
LAYER
  2
PartsSilk-A
 70
   0
 62
  221
  6
CONTINUOUS
  0
ENDTAB
  0
TABLE
  2
LTYPE
 70
1
  0
ENDTAB
  0
TABLE
  2
STYLE
 70
1
  0
STYLE
  2
STANDARD
 70
0
 40
0.0
 41
1.0
 50
0.0
 71
0
 42
1.0
  3
txt
  4
EXTFONT
  0
ENDTAB
  0
ENDSEC
  0
SECTION
  2
BLOCKS
  0
ENDSEC
  0
SECTION
  2
ENTITIES
  0
ARC
  8
Outline
 10
0.000000
 20
1.000000
 30
0.0
 40
0.500000
 50
-90.000000
 51
90.000000
  0
LINE
  8
Outline
 10
0.000000
 20
1.500000
 30
0.0
 11
0.000000
 21
4.500000
 31
0.0
  0
ARC
  8
Outline
 10
1.000000
 20
4.500000
 30
0.0
 40
1.000000
 50
90.000000
 51
180.000000
  0
LINE
  8
Outline
 10
1.000000
 20
5.500000
 30
0.0
 11
1.200000
 21
5.500000
 31
0.0
  0
ARC
  8
Outline
 10
1.575000
 20
5.500000
 30
0.0
 40
0.375000
 50
180.000000
 51
0.000000
  0
LINE
  8
Outline
 10
1.950000
 20
5.500000
 30
0.0
 11
4.950000
 21
5.500000
 31
0.0
  0
ARC
  8
Outline
 10
5.325000
 20
5.500000
 30
0.0
 40
0.375000
 50
180.000000
 51
0.000000
  0
LINE
  8
Outline
 10
5.700000
 20
5.500000
 30
0.0
 11
14.300000
 21
5.500000
 31
0.0
  0
ARC
  8
Outline
 10
14.675000
 20
5.500000
 30
0.0
 40
0.375000
 50
180.000000
 51
0.000000
  0
LINE
  8
Outline
 10
15.050000
 20
5.500000
 30
0.0
 11
18.050000
 21
5.500000
 31
0.0
  0
ARC
  8
Outline
 10
18.425000
 20
5.500000
 30
0.0
 40
0.375000
 50
180.000000
 51
0.000000
  0
LINE
  8
Outline
 10
18.800000
 20
5.500000
 30
0.0
 11
19.000000
 21
5.500000
 31
0.0
  0
ARC
  8
Outline
 10
19.000000
 20
4.500000
 30
0.0
 40
1.000000
 50
0.000000
 51
90.000000
  0
LINE
  8
Outline
 10
20.000000
 20
4.500000
 30
0.0
 11
20.000000
 21
1.500000
 31
0.0
  0
ARC
  8
Outline
 10
20.000000
 20
1.000000
 30
0.0
 40
0.500000
 50
90.000000
 51
-90.000000
  0
ARC
  8
Outline
 10
19.500000
 20
0.500000
 30
0.0
 40
0.500000
 50
-90.000000
 51
0.000000
  0
LINE
  8
Outline
 10
19.500000
 20
0.000000
 30
0.0
 11
12.625000
 21
0.000000
 31
0.0
  0
ARC
  8
Outline
 10
12.250000
 20
0.000000
 30
0.0
 40
0.375000
 50
0.000000
 51
180.000000
  0
LINE
  8
Outline
 10
11.875000
 20
0.000000
 30
0.0
 11
8.125000
 21
0.000000
 31
0.0
  0
ARC
  8
Outline
 10
7.750000
 20
0.000000
 30
0.0
 40
0.375000
 50
0.000000
 51
180.000000
  0
LINE
  8
Outline
 10
7.375000
 20
0.000000
 30
0.0
 11
0.500000
 21
0.000000
 31
0.0
  0
ARC
  8
Outline
 10
0.500000
 20
0.500000
 30
0.0
 40
0.500000
 50
180.000000
 51
-90.000000
  0
ARC
  8
PartsSilk-B
 10
15.800000
 20
2.572220
 30
0.0
 40
0.100000
 50
-159.145542
 51
20.854597
  0
LINE
  8
PartsSilk-B
 10
15.706550
 20
2.536620
 30
0.0
 11
15.474070
 21
3.146880
 31
0.0
  0
LINE
  8
PartsSilk-B
 10
15.474070
 20
3.146880
 30
0.0
 11
15.241600
 21
2.536620
 31
0.0
  0
ARC
  8
PartsSilk-B
 10
15.148150
 20
2.572220
 30
0.0
 40
0.100000
 50
159.145542
 51
-20.854012
  0
LINE
  8
PartsSilk-B
 10
15.054700
 20
2.607820
 30
0.0
 11
15.380620
 21
3.463380
 31
0.0
  0
ARC
  8
PartsSilk-B
 10
15.474070
 20
3.427780
 30
0.0
 40
0.100000
 50
20.854458
 51
159.145542
  0
LINE
  8
PartsSilk-B
 10
15.567520
 20
3.463380
 30
0.0
 11
15.893450
 21
2.607820
 31
0.0
  0
ARC
  8
PartsSilk-B
 10
15.703700
 20
2.838890
 30
0.0
 40
0.100000
 50
-90.000000
 51
90.000000
  0
LINE
  8
PartsSilk-B
 10
15.703700
 20
2.738890
 30
0.0
 11
15.244440
 21
2.738890
 31
0.0
  0
ARC
  8
PartsSilk-B
 10
15.244440
 20
2.838890
 30
0.0
 40
0.100000
 50
90.000000
 51
-90.000000
  0
LINE
  8
PartsSilk-B
 10
15.244440
 20
2.938890
 30
0.0
 11
15.703700
 21
2.938890
 31
0.0
  0
ARC
  8
PartsSilk-B
 10
14.800000
 20
2.572220
 30
0.0
 40
0.100000
 50
-142.696920
 51
37.303726
  0
LINE
  8
PartsSilk-B
 10
14.720460
 20
2.511620
 30
0.0
 11
14.068610
 21
3.367180
 31
0.0
  0
ARC
  8
PartsSilk-B
 10
14.148150
 20
3.427780
 30
0.0
 40
0.100000
 50
37.303080
 51
-142.696274
  0
LINE
  8
PartsSilk-B
 10
14.227690
 20
3.488380
 30
0.0
 11
14.879540
 21
2.632820
 31
0.0
  0
ARC
  8
PartsSilk-B
 10
14.800000
 20
3.427780
 30
0.0
 40
0.100000
 50
-37.303080
 51
142.696274
  0
LINE
  8
PartsSilk-B
 10
14.879540
 20
3.367180
 30
0.0
 11
14.227690
 21
2.511620
 31
0.0
  0
ARC
  8
PartsSilk-B
 10
14.148150
 20
2.572220
 30
0.0
 40
0.100000
 50
142.696920
 51
-37.303726
  0
LINE
  8
PartsSilk-B
 10
14.068610
 20
2.632820
 30
0.0
 11
14.720460
 21
3.488380
 31
0.0
  0
ARC
  8
PartsSilk-B
 10
13.718520
 20
3.127780
 30
0.0
 40
0.100000
 50
0.000000
 51
180.000000
  0
LINE
  8
PartsSilk-B
 10
13.818520
 20
3.127780
 30
0.0
 11
13.818520
 21
2.872220
 31
0.0
  0
ARC
  8
PartsSilk-B
 10
13.718520
 20
2.872220
 30
0.0
 40
0.100000
 50
-12.526943
 51
0.000000
  0
LINE
  8
PartsSilk-B
 10
13.816140
 20
2.850530
 30
0.0
 11
13.786510
 21
2.717200
 31
0.0
  0
ARC
  8
PartsSilk-B
 10
13.688890
 20
2.738890
 30
0.0
 40
0.100000
 50
-23.960744
 51
-12.529263
  0
LINE
  8
PartsSilk-B
 10
13.780270
 20
2.698280
 30
0.0
 11
13.750640
 21
2.631610
 31
0.0
  0
ARC
  8
PartsSilk-B
 10
13.659260
 20
2.672220
 30
0.0
 40
0.100000
 50
-45.004051
 51
-23.961692
  0
LINE
  8
PartsSilk-B
 10
13.729970
 20
2.601500
 30
0.0
 11
13.663300
 21
2.534840
 31
0.0
  0
ARC
  8
PartsSilk-B
 10
13.592590
 20
2.605560
 30
0.0
 40
0.100000
 50
-60.638189
 51
-45.004297
  0
LINE
  8
PartsSilk-B
 10
13.641620
 20
2.518410
 30
0.0
 11
13.582360
 21
2.485070
 31
0.0
  0
ARC
  8
PartsSilk-B
 10
13.533330
 20
2.572220
 30
0.0
 40
0.100000
 50
-90.000000
 51
-60.637656
  0
LINE
  8
PartsSilk-B
 10
13.533330
 20
2.472220
 30
0.0
 11
13.414810
 21
2.472220
 31
0.0
  0
ARC
  8
PartsSilk-B
 10
13.414810
 20
2.572220
 30
0.0
 40
0.100000
 50
-122.739702
 51
-90.000000
  0
LINE
  8
PartsSilk-B
 10
13.360730
 20
2.488110
 30
0.0
 11
13.308880
 21
2.521450
 31
0.0
  0
ARC
  8
PartsSilk-B
 10
13.362960
 20
2.605560
 30
0.0
 40
0.100000
 50
-135.000000
 51
-122.741369
  0
LINE
  8
PartsSilk-B
 10
13.292250
 20
2.534850
 30
0.0
 11
13.225590
 21
2.601510
 31
0.0
  0
ARC
  8
PartsSilk-B
 10
13.296300
 20
2.672220
 30
0.0
 40
0.100000
 50
-156.039256
 51
-135.000000
  0
LINE
  8
PartsSilk-B
 10
13.204920
 20
2.631610
 30
0.0
 11
13.175290
 21
2.698280
 31
0.0
  0
ARC
  8
PartsSilk-B
 10
13.266670
 20
2.738890
 30
0.0
 40
0.100000
 50
-167.473057
 51
-156.038308
  0
LINE
  8
PartsSilk-B
 10
13.169050
 20
2.717200
 30
0.0
 11
13.139420
 21
2.850530
 31
0.0
  0
ARC
  8
PartsSilk-B
 10
13.237040
 20
2.872220
 30
0.0
 40
0.100000
 50
180.000000
 51
-167.470737
  0
LINE
  8
PartsSilk-B
 10
13.137040
 20
2.872220
 30
0.0
 11
13.137040
 21
3.127780
 31
0.0
  0
ARC
  8
PartsSilk-B
 10
13.237040
 20
3.127780
 30
0.0
 40
0.100000
 50
167.473057
 51
180.000000
  0
LINE
  8
PartsSilk-B
 10
13.139420
 20
3.149470
 30
0.0
 11
13.169050
 21
3.282800
 31
0.0
  0
ARC
  8
PartsSilk-B
 10
13.266670
 20
3.261110
 30
0.0
 40
0.100000
 50
156.039256
 51
167.470737
  0
LINE
  8
PartsSilk-B
 10
13.175290
 20
3.301720
 30
0.0
 11
13.204920
 21
3.368390
 31
0.0
  0
ARC
  8
PartsSilk-B
 10
13.296300
 20
3.327780
 30
0.0
 40
0.100000
 50
135.000000
 51
156.038308
  0
LINE
  8
PartsSilk-B
 10
13.225590
 20
3.398490
 30
0.0
 11
13.292250
 21
3.465150
 31
0.0
  0
ARC
  8
PartsSilk-B
 10
13.362960
 20
3.394440
 30
0.0
 40
0.100000
 50
122.739702
 51
135.000000
  0
LINE
  8
PartsSilk-B
 10
13.308880
 20
3.478550
 30
0.0
 11
13.360730
 21
3.511890
 31
0.0
  0
ARC
  8
PartsSilk-B
 10
13.414810
 20
3.427780
 30
0.0
 40
0.100000
 50
90.000000
 51
122.741369
  0
LINE
  8
PartsSilk-B
 10
13.414810
 20
3.527780
 30
0.0
 11
13.533330
 21
3.527780
 31
0.0
  0
ARC
  8
PartsSilk-B
 10
13.533330
 20
3.427780
 30
0.0
 40
0.100000
 50
60.638189
 51
90.000000
  0
LINE
  8
PartsSilk-B
 10
13.582360
 20
3.514930
 30
0.0
 11
13.641620
 21
3.481590
 31
0.0
  0
ARC
  8
PartsSilk-B
 10
13.592590
 20
3.394440
 30
0.0
 40
0.100000
 50
45.004051
 51
60.637656
  0
LINE
  8
PartsSilk-B
 10
13.663300
 20
3.465160
 30
0.0
 11
13.729970
 21
3.398500
 31
0.0
  0
ARC
  8
PartsSilk-B
 10
13.659260
 20
3.327780
 30
0.0
 40
0.100000
 50
23.960744
 51
45.004297
  0
LINE
  8
PartsSilk-B
 10
13.750640
 20
3.368390
 30
0.0
 11
13.780270
 21
3.301720
 31
0.0
  0
ARC
  8
PartsSilk-B
 10
13.688890
 20
3.261110
 30
0.0
 40
0.100000
 50
12.526943
 51
23.961692
  0
LINE
  8
PartsSilk-B
 10
13.786510
 20
3.282800
 30
0.0
 11
13.816140
 21
3.149470
 31
0.0
  0
ARC
  8
PartsSilk-B
 10
13.718520
 20
3.127780
 30
0.0
 40
0.100000
 50
-167.473057
 51
12.529263
  0
LINE
  8
PartsSilk-B
 10
13.620900
 20
3.106090
 30
0.0
 11
13.593440
 21
3.229640
 31
0.0
  0
LINE
  8
PartsSilk-B
 10
13.593440
 20
3.229640
 30
0.0
 11
13.575420
 21
3.270200
 31
0.0
  0
LINE
  8
PartsSilk-B
 10
13.575420
 20
3.270200
 30
0.0
 11
13.531590
 21
3.314020
 31
0.0
  0
LINE
  8
PartsSilk-B
 10
13.531590
 20
3.314020
 30
0.0
 11
13.507130
 21
3.327780
 31
0.0
  0
LINE
  8
PartsSilk-B
 10
13.507130
 20
3.327780
 30
0.0
 11
13.444190
 21
3.327780
 31
0.0
  0
LINE
  8
PartsSilk-B
 10
13.444190
 20
3.327780
 30
0.0
 11
13.426080
 21
3.316140
 31
0.0
  0
LINE
  8
PartsSilk-B
 10
13.426080
 20
3.316140
 30
0.0
 11
13.380140
 21
3.270200
 31
0.0
  0
LINE
  8
PartsSilk-B
 10
13.380140
 20
3.270200
 30
0.0
 11
13.362120
 21
3.229640
 31
0.0
  0
LINE
  8
PartsSilk-B
 10
13.362120
 20
3.229640
 30
0.0
 11
13.337040
 21
3.116800
 31
0.0
  0
LINE
  8
PartsSilk-B
 10
13.337040
 20
3.116800
 30
0.0
 11
13.337040
 21
2.883200
 31
0.0
  0
LINE
  8
PartsSilk-B
 10
13.337040
 20
2.883200
 30
0.0
 11
13.362120
 21
2.770360
 31
0.0
  0
LINE
  8
PartsSilk-B
 10
13.362120
 20
2.770360
 30
0.0
 11
13.380140
 21
2.729800
 31
0.0
  0
LINE
  8
PartsSilk-B
 10
13.380140
 20
2.729800
 30
0.0
 11
13.426080
 21
2.683860
 31
0.0
  0
LINE
  8
PartsSilk-B
 10
13.426080
 20
2.683860
 30
0.0
 11
13.444190
 21
2.672220
 31
0.0
  0
LINE
  8
PartsSilk-B
 10
13.444190
 20
2.672220
 30
0.0
 11
13.507130
 21
2.672220
 31
0.0
  0
LINE
  8
PartsSilk-B
 10
13.507130
 20
2.672220
 30
0.0
 11
13.531590
 21
2.685980
 31
0.0
  0
LINE
  8
PartsSilk-B
 10
13.531590
 20
2.685980
 30
0.0
 11
13.575420
 21
2.729800
 31
0.0
  0
LINE
  8
PartsSilk-B
 10
13.575420
 20
2.729800
 30
0.0
 11
13.593440
 21
2.770360
 31
0.0
  0
LINE
  8
PartsSilk-B
 10
13.593440
 20
2.770360
 30
0.0
 11
13.618520
 21
2.883200
 31
0.0
  0
LINE
  8
PartsSilk-B
 10
13.618520
 20
2.883200
 30
0.0
 11
13.618520
 21
3.127780
 31
0.0
  0
ARC
  8
PartsSilk-B
 10
12.400000
 20
3.427780
 30
0.0
 40
0.100000
 50
30.139308
 51
-149.858655
  0
LINE
  8
PartsSilk-B
 10
12.486480
 20
3.477990
 30
0.0
 11
12.886480
 21
2.789100
 31
0.0
  0
ARC
  8
PartsSilk-B
 10
12.800000
 20
2.738890
 30
0.0
 40
0.100000
 50
-90.000000
 51
30.141345
  0
LINE
  8
PartsSilk-B
 10
12.800000
 20
2.638890
 30
0.0
 11
12.148150
 21
2.638890
 31
0.0
  0
ARC
  8
PartsSilk-B
 10
12.148150
 20
2.738890
 30
0.0
 40
0.100000
 50
90.000000
 51
-90.000000
  0
LINE
  8
PartsSilk-B
 10
12.148150
 20
2.838890
 30
0.0
 11
12.626300
 21
2.838890
 31
0.0
  0
LINE
  8
PartsSilk-B
 10
12.626300
 20
2.838890
 30
0.0
 11
12.313520
 21
3.377570
 31
0.0
  0
ARC
  8
PartsSilk-B
 10
12.333330
 20
2.905560
 30
0.0
 40
0.100000
 50
0.000000
 51
180.000000
  0
LINE
  8
PartsSilk-B
 10
12.433330
 20
2.905560
 30
0.0
 11
12.433330
 21
2.572220
 31
0.0
  0
ARC
  8
PartsSilk-B
 10
12.333330
 20
2.572220
 30
0.0
 40
0.100000
 50
180.000000
 51
0.000000
  0
LINE
  8
PartsSilk-B
 10
12.233330
 20
2.572220
 30
0.0
 11
12.233330
 21
2.905560
 31
0.0
  0
ARC
  8
PartsSilk-B
 10
11.800000
 20
2.572220
 30
0.0
 40
0.100000
 50
-159.145542
 51
20.854597
  0
LINE
  8
PartsSilk-B
 10
11.706550
 20
2.536620
 30
0.0
 11
11.474070
 21
3.146880
 31
0.0
  0
LINE
  8
PartsSilk-B
 10
11.474070
 20
3.146880
 30
0.0
 11
11.241600
 21
2.536620
 31
0.0
  0
ARC
  8
PartsSilk-B
 10
11.148150
 20
2.572220
 30
0.0
 40
0.100000
 50
159.145542
 51
-20.854012
  0
LINE
  8
PartsSilk-B
 10
11.054700
 20
2.607820
 30
0.0
 11
11.380620
 21
3.463380
 31
0.0
  0
ARC
  8
PartsSilk-B
 10
11.474070
 20
3.427780
 30
0.0
 40
0.100000
 50
20.854458
 51
159.145542
  0
LINE
  8
PartsSilk-B
 10
11.567520
 20
3.463380
 30
0.0
 11
11.893450
 21
2.607820
 31
0.0
  0
ARC
  8
PartsSilk-B
 10
11.703700
 20
2.838890
 30
0.0
 40
0.100000
 50
-90.000000
 51
90.000000
  0
LINE
  8
PartsSilk-B
 10
11.703700
 20
2.738890
 30
0.0
 11
11.244440
 21
2.738890
 31
0.0
  0
ARC
  8
PartsSilk-B
 10
11.244440
 20
2.838890
 30
0.0
 40
0.100000
 50
90.000000
 51
-90.000000
  0
LINE
  8
PartsSilk-B
 10
11.244440
 20
2.938890
 30
0.0
 11
11.703700
 21
2.938890
 31
0.0
  0
ARC
  8
PartsSilk-B
 10
9.222220
 20
3.327780
 30
0.0
 40
0.100000
 50
129.286182
 51
-50.712891
  0
LINE
  8
PartsSilk-B
 10
9.158900
 20
3.405180
 30
0.0
 11
9.240380
 21
3.471840
 31
0.0
  0
ARC
  8
PartsSilk-B
 10
9.303700
 20
3.394440
 30
0.0
 40
0.100000
 50
102.098759
 51
129.287109
  0
LINE
  8
PartsSilk-B
 10
9.282740
 20
3.492220
 30
0.0
 11
9.438300
 21
3.525560
 31
0.0
  0
ARC
  8
PartsSilk-B
 10
9.459260
 20
3.427780
 30
0.0
 40
0.100000
 50
90.000000
 51
102.096769
  0
LINE
  8
PartsSilk-B
 10
9.459260
 20
3.527780
 30
0.0
 11
9.533330
 21
3.527780
 31
0.0
  0
ARC
  8
PartsSilk-B
 10
9.533330
 20
3.427780
 30
0.0
 40
0.100000
 50
74.287570
 51
90.000000
  0
LINE
  8
PartsSilk-B
 10
9.560410
 20
3.524040
 30
0.0
 11
9.678930
 21
3.490700
 31
0.0
  0
ARC
  8
PartsSilk-B
 10
9.651850
 20
3.394440
 30
0.0
 40
0.100000
 50
48.019601
 51
74.288562
  0
LINE
  8
PartsSilk-B
 10
9.718740
 20
3.468780
 30
0.0
 11
9.755780
 21
3.435450
 31
0.0
  0
ARC
  8
PartsSilk-B
 10
9.688890
 20
3.361110
 30
0.0
 40
0.100000
 50
20.323336
 51
48.017916
  0
LINE
  8
PartsSilk-B
 10
9.782660
 20
3.395840
 30
0.0
 11
9.819700
 21
3.295840
 31
0.0
  0
ARC
  8
PartsSilk-B
 10
9.725930
 20
3.261110
 30
0.0
 40
0.100000
 50
0.000000
 51
20.324630
  0
LINE
  8
PartsSilk-B
 10
9.825930
 20
3.261110
 30
0.0
 11
9.825930
 21
3.194440
 31
0.0
  0
ARC
  8
PartsSilk-B
 10
9.725930
 20
3.194440
 30
0.0
 40
0.100000
 50
-29.059056
 51
0.000000
  0
LINE
  8
PartsSilk-B
 10
9.813340
 20
3.145870
 30
0.0
 11
9.776300
 21
3.079210
 31
0.0
  0
ARC
  8
PartsSilk-B
 10
9.688890
 20
3.127780
 30
0.0
 40
0.100000
 50
-67.746396
 51
-29.058983
  0
LINE
  8
PartsSilk-B
 10
9.726760
 20
3.035230
 30
0.0
 11
9.645280
 21
3.001890
 31
0.0
  0
ARC
  8
PartsSilk-B
 10
9.607410
 20
3.094440
 30
0.0
 40
0.100000
 50
-77.320175
 51
-67.746596
  0
LINE
  8
PartsSilk-B
 10
9.629360
 20
2.996880
 30
0.0
 11
9.483790
 21
2.964130
 31
0.0
  0
LINE
  8
PartsSilk-B
 10
9.483790
 20
2.964130
 30
0.0
 11
9.375730
 21
2.933740
 31
0.0
  0
LINE
  8
PartsSilk-B
 10
9.375730
 20
2.933740
 30
0.0
 11
9.301770
 21
2.899070
 31
0.0
  0
LINE
  8
PartsSilk-B
 10
9.301770
 20
2.899070
 30
0.0
 11
9.285190
 21
2.854300
 31
0.0
  0
LINE
  8
PartsSilk-B
 10
9.285190
 20
2.854300
 30
0.0
 11
9.285190
 21
2.823480
 31
0.0
  0
LINE
  8
PartsSilk-B
 10
9.285190
 20
2.823480
 30
0.0
 11
9.306570
 21
2.765750
 31
0.0
  0
LINE
  8
PartsSilk-B
 10
9.306570
 20
2.765750
 30
0.0
 11
9.356090
 21
2.725240
 31
0.0
  0
LINE
  8
PartsSilk-B
 10
9.356090
 20
2.725240
 30
0.0
 11
9.479790
 21
2.672220
 31
0.0
  0
LINE
  8
PartsSilk-B
 10
9.479790
 20
2.672220
 30
0.0
 11
9.522730
 21
2.672220
 31
0.0
  0
LINE
  8
PartsSilk-B
 10
9.522730
 20
2.672220
 30
0.0
 11
9.641830
 21
2.697750
 31
0.0
  0
LINE
  8
PartsSilk-B
 10
9.641830
 20
2.697750
 30
0.0
 11
9.733100
 21
2.779890
 31
0.0
  0
ARC
  8
PartsSilk-B
 10
9.800000
 20
2.705560
 30
0.0
 40
0.100000
 50
-48.011510
 51
131.987497
  0
LINE
  8
PartsSilk-B
 10
9.866900
 20
2.631230
 30
0.0
 11
9.755790
 21
2.531230
 31
0.0
  0
ARC
  8
PartsSilk-B
 10
9.688890
 20
2.605560
 30
0.0
 40
0.100000
 50
-77.901241
 51
-48.011510
  0
LINE
  8
PartsSilk-B
 10
9.709850
 20
2.507780
 30
0.0
 11
9.554290
 21
2.474440
 31
0.0
  0
ARC
  8
PartsSilk-B
 10
9.533330
 20
2.572220
 30
0.0
 40
0.100000
 50
-90.000000
 51
-77.901241
  0
LINE
  8
PartsSilk-B
 10
9.533330
 20
2.472220
 30
0.0
 11
9.459260
 21
2.472220
 31
0.0
  0
ARC
  8
PartsSilk-B
 10
9.459260
 20
2.572220
 30
0.0
 40
0.100000
 50
-113.198591
 51
-90.000000
  0
LINE
  8
PartsSilk-B
 10
9.419870
 20
2.480310
 30
0.0
 11
9.264310
 21
2.546980
 31
0.0
  0
ARC
  8
PartsSilk-B
 10
9.303700
 20
2.638890
 30
0.0
 40
0.100000
 50
-129.294244
 51
-113.198590
  0
LINE
  8
PartsSilk-B
 10
9.240370
 20
2.561500
 30
0.0
 11
9.158890
 21
2.628170
 31
0.0
  0
ARC
  8
PartsSilk-B
 10
9.222220
 20
2.705560
 30
0.0
 40
0.100000
 50
-159.678654
 51
-129.294244
  0
LINE
  8
PartsSilk-B
 10
9.128440
 20
2.670830
 30
0.0
 11
9.091410
 21
2.770830
 31
0.0
  0
ARC
  8
PartsSilk-B
 10
9.185190
 20
2.805560
 30
0.0
 40
0.100000
 50
180.000000
 51
-159.678654
  0
LINE
  8
PartsSilk-B
 10
9.085190
 20
2.805560
 30
0.0
 11
9.085190
 21
2.872220
 31
0.0
  0
ARC
  8
PartsSilk-B
 10
9.185190
 20
2.872220
 30
0.0
 40
0.100000
 50
159.678654
 51
180.000000
  0
LINE
  8
PartsSilk-B
 10
9.091410
 20
2.906950
 30
0.0
 11
9.128440
 21
3.006950
 31
0.0
  0
ARC
  8
PartsSilk-B
 10
9.222220
 20
2.972220
 30
0.0
 40
0.100000
 50
115.119699
 51
159.678654
  0
LINE
  8
PartsSilk-B
 10
9.179770
 20
3.062760
 30
0.0
 11
9.298290
 21
3.118320
 31
0.0
  0
ARC
  8
PartsSilk-B
 10
9.340740
 20
3.027780
 30
0.0
 40
0.100000
 50
105.705363
 51
115.119699
  0
LINE
  8
PartsSilk-B
 10
9.313670
 20
3.124050
 30
0.0
 11
9.432190
 21
3.157380
 31
0.0
  0
ARC
  8
PartsSilk-B
 10
9.459260
 20
3.061110
 30
0.0
 40
0.100000
 50
102.679825
 51
105.705363
  0
LINE
  8
PartsSilk-B
 10
9.437310
 20
3.158670
 30
0.0
 11
9.577290
 21
3.190160
 31
0.0
  0
LINE
  8
PartsSilk-B
 10
9.577290
 20
3.190160
 30
0.0
 11
9.618530
 21
3.207040
 31
0.0
  0
LINE
  8
PartsSilk-B
 10
9.618530
 20
3.207040
 30
0.0
 11
9.625930
 21
3.220360
 31
0.0
  0
LINE
  8
PartsSilk-B
 10
9.625930
 20
3.220360
 30
0.0
 11
9.625930
 21
3.243190
 31
0.0
  0
LINE
  8
PartsSilk-B
 10
9.625930
 20
3.243190
 30
0.0
 11
9.603680
 21
3.303260
 31
0.0
  0
LINE
  8
PartsSilk-B
 10
9.603680
 20
3.303260
 30
0.0
 11
9.602310
 21
3.304500
 31
0.0
  0
LINE
  8
PartsSilk-B
 10
9.602310
 20
3.304500
 30
0.0
 11
9.519530
 21
3.327780
 31
0.0
  0
LINE
  8
PartsSilk-B
 10
9.519530
 20
3.327780
 30
0.0
 11
9.469860
 21
3.327780
 31
0.0
  0
LINE
  8
PartsSilk-B
 10
9.469860
 20
3.327780
 30
0.0
 11
9.348300
 21
3.301730
 31
0.0
  0
LINE
  8
PartsSilk-B
 10
9.348300
 20
3.301730
 30
0.0
 11
9.285540
 21
3.250380
 31
0.0
  0
ARC
  8
PartsSilk-B
 10
8.733330
 20
3.094440
 30
0.0
 40
0.100000
 50
0.000000
 51
180.000000
  0
LINE
  8
PartsSilk-B
 10
8.833330
 20
3.094440
 30
0.0
 11
8.833330
 21
2.250000
 31
0.0
  0
ARC
  8
PartsSilk-B
 10
8.733330
 20
2.250000
 30
0.0
 40
0.100000
 50
180.000000
 51
0.000000
  0
LINE
  8
PartsSilk-B
 10
8.633330
 20
2.250000
 30
0.0
 11
8.633330
 21
3.094440
 31
0.0
  0
ARC
  8
PartsSilk-B
 10
8.733330
 20
3.027780
 30
0.0
 40
0.100000
 50
-135.000000
 51
45.000000
  0
LINE
  8
PartsSilk-B
 10
8.662620
 20
2.957070
 30
0.0
 11
8.605670
 21
3.014020
 31
0.0
  0
LINE
  8
PartsSilk-B
 10
8.605670
 20
3.014020
 30
0.0
 11
8.581210
 21
3.027780
 31
0.0
  0
LINE
  8
PartsSilk-B
 10
8.581210
 20
3.027780
 30
0.0
 11
8.497680
 21
3.027780
 31
0.0
  0
LINE
  8
PartsSilk-B
 10
8.497680
 20
3.027780
 30
0.0
 11
8.466650
 21
3.012260
 31
0.0
  0
LINE
  8
PartsSilk-B
 10
8.466650
 20
3.012260
 30
0.0
 11
8.428140
 21
2.973760
 31
0.0
  0
LINE
  8
PartsSilk-B
 10
8.428140
 20
2.973760
 30
0.0
 11
8.411110
 21
2.922660
 31
0.0
  0
LINE
  8
PartsSilk-B
 10
8.411110
 20
2.922660
 30
0.0
 11
8.411110
 21
2.820060
 31
0.0
  0
LINE
  8
PartsSilk-B
 10
8.411110
 20
2.820060
 30
0.0
 11
8.432330
 21
2.748460
 31
0.0
  0
LINE
  8
PartsSilk-B
 10
8.432330
 20
2.748460
 30
0.0
 11
8.471940
 21
2.689040
 31
0.0
  0
LINE
  8
PartsSilk-B
 10
8.471940
 20
2.689040
 30
0.0
 11
8.520520
 21
2.672220
 31
0.0
  0
LINE
  8
PartsSilk-B
 10
8.520520
 20
2.672220
 30
0.0
 11
8.553550
 21
2.672220
 31
0.0
  0
LINE
  8
PartsSilk-B
 10
8.553550
 20
2.672220
 30
0.0
 11
8.627790
 21
2.697920
 31
0.0
  0
LINE
  8
PartsSilk-B
 10
8.627790
 20
2.697920
 30
0.0
 11
8.688610
 21
2.728330
 31
0.0
  0
ARC
  8
PartsSilk-B
 10
8.733330
 20
2.638890
 30
0.0
 40
0.100000
 50
-63.434949
 51
116.565051
  0
LINE
  8
PartsSilk-B
 10
8.778050
 20
2.549450
 30
0.0
 11
8.711390
 21
2.516120
 31
0.0
  0
ARC
  8
PartsSilk-B
 10
8.666670
 20
2.605560
 30
0.0
 40
0.100000
 50
-70.901927
 51
-63.434949
  0
LINE
  8
PartsSilk-B
 10
8.699390
 20
2.511060
 30
0.0
 11
8.603090
 21
2.477720
 31
0.0
  0
ARC
  8
PartsSilk-B
 10
8.570370
 20
2.572220
 30
0.0
 40
0.100000
 50
-90.000000
 51
-70.901927
  0
LINE
  8
PartsSilk-B
 10
8.570370
 20
2.472220
 30
0.0
 11
8.503700
 21
2.472220
 31
0.0
  0
ARC
  8
PartsSilk-B
 10
8.503700
 20
2.572220
 30
0.0
 40
0.100000
 50
-109.098073
 51
-90.000000
  0
LINE
  8
PartsSilk-B
 10
8.470980
 20
2.477720
 30
0.0
 11
8.374690
 21
2.511060
 31
0.0
  0
ARC
  8
PartsSilk-B
 10
8.407410
 20
2.605560
 30
0.0
 40
0.100000
 50
-146.308343
 51
-109.098073
  0
LINE
  8
PartsSilk-B
 10
8.324210
 20
2.550090
 30
0.0
 11
8.257540
 21
2.650090
 31
0.0
  0
ARC
  8
PartsSilk-B
 10
8.340740
 20
2.705560
 30
0.0
 40
0.100000
 50
-163.495028
 51
-146.308343
  0
LINE
  8
PartsSilk-B
 10
8.244860
 20
2.677150
 30
0.0
 11
8.215230
 21
2.777150
 31
0.0
  0
ARC
  8
PartsSilk-B
 10
8.311110
 20
2.805560
 30
0.0
 40
0.100000
 50
180.000000
 51
-163.495028
  0
LINE
  8
PartsSilk-B
 10
8.211110
 20
2.805560
 30
0.0
 11
8.211110
 21
2.938890
 31
0.0
  0
ARC
  8
PartsSilk-B
 10
8.311110
 20
2.938890
 30
0.0
 40
0.100000
 50
161.566863
 51
180.000000
  0
LINE
  8
PartsSilk-B
 10
8.216240
 20
2.970510
 30
0.0
 11
8.245870
 21
3.059400
 31
0.0
  0
ARC
  8
PartsSilk-B
 10
8.340740
 20
3.027780
 30
0.0
 40
0.100000
 50
134.995949
 51
161.566863
  0
LINE
  8
PartsSilk-B
 10
8.270030
 20
3.098500
 30
0.0
 11
8.336700
 21
3.165160
 31
0.0
  0
ARC
  8
PartsSilk-B
 10
8.407410
 20
3.094440
 30
0.0
 40
0.100000
 50
116.570176
 51
134.995949
  0
LINE
  8
PartsSilk-B
 10
8.362680
 20
3.183880
 30
0.0
 11
8.429340
 21
3.217220
 31
0.0
  0
ARC
  8
PartsSilk-B
 10
8.474070
 20
3.127780
 30
0.0
 40
0.100000
 50
90.000000
 51
116.570176
  0
LINE
  8
PartsSilk-B
 10
8.474070
 20
3.227780
 30
0.0
 11
8.607410
 21
3.227780
 31
0.0
  0
ARC
  8
PartsSilk-B
 10
8.607410
 20
3.127780
 30
0.0
 40
0.100000
 50
60.638189
 51
90.000000
  0
LINE
  8
PartsSilk-B
 10
8.656440
 20
3.214930
 30
0.0
 11
8.715700
 21
3.181590
 31
0.0
  0
ARC
  8
PartsSilk-B
 10
8.666670
 20
3.094440
 30
0.0
 40
0.100000
 50
45.000000
 51
60.638189
  0
LINE
  8
PartsSilk-B
 10
8.737380
 20
3.165150
 30
0.0
 11
8.804040
 21
3.098490
 31
0.0
  0
ARC
  8
PartsSilk-B
 10
7.333330
 20
3.061110
 30
0.0
 40
0.100000
 50
135.000000
 51
-45.000000
  0
LINE
  8
PartsSilk-B
 10
7.262620
 20
3.131820
 30
0.0
 11
7.329290
 21
3.198490
 31
0.0
  0
ARC
  8
PartsSilk-B
 10
7.400000
 20
3.127780
 30
0.0
 40
0.100000
 50
106.697049
 51
135.000000
  0
LINE
  8
PartsSilk-B
 10
7.371270
 20
3.223560
 30
0.0
 11
7.482380
 21
3.256890
 31
0.0
  0
ARC
  8
PartsSilk-B
 10
7.511110
 20
3.161110
 30
0.0
 40
0.100000
 50
90.000000
 51
106.697825
  0
LINE
  8
PartsSilk-B
 10
7.511110
 20
3.261110
 30
0.0
 11
7.585190
 21
3.261110
 31
0.0
  0
ARC
  8
PartsSilk-B
 10
7.585190
 20
3.161110
 30
0.0
 40
0.100000
 50
73.302951
 51
90.000000
  0
LINE
  8
PartsSilk-B
 10
7.613920
 20
3.256890
 30
0.0
 11
7.725030
 21
3.223560
 31
0.0
  0
ARC
  8
PartsSilk-B
 10
7.696300
 20
3.127780
 30
0.0
 40
0.100000
 50
33.688478
 51
73.302175
  0
LINE
  8
PartsSilk-B
 10
7.779510
 20
3.183250
 30
0.0
 11
7.846170
 21
3.083250
 31
0.0
  0
ARC
  8
PartsSilk-B
 10
7.762960
 20
3.027780
 30
0.0
 40
0.100000
 50
16.858399
 51
33.687423
  0
LINE
  8
PartsSilk-B
 10
7.858660
 20
3.056780
 30
0.0
 11
7.895700
 21
2.934560
 31
0.0
  0
ARC
  8
PartsSilk-B
 10
7.800000
 20
2.905560
 30
0.0
 40
0.100000
 50
0.000000
 51
16.859960
  0
LINE
  8
PartsSilk-B
 10
7.900000
 20
2.905560
 30
0.0
 11
7.900000
 21
2.838890
 31
0.0
  0
ARC
  8
PartsSilk-B
 10
7.800000
 20
2.838890
 30
0.0
 40
0.100000
 50
-15.527485
 51
0.000000
  0
LINE
  8
PartsSilk-B
 10
7.896350
 20
2.812120
 30
0.0
 11
7.859310
 21
2.678790
 31
0.0
  0
ARC
  8
PartsSilk-B
 10
7.762960
 20
2.705560
 30
0.0
 40
0.100000
 50
-29.051265
 51
-15.525662
  0
LINE
  8
PartsSilk-B
 10
7.850380
 20
2.657000
 30
0.0
 11
7.813350
 21
2.590330
 31
0.0
  0
ARC
  8
PartsSilk-B
 10
7.725930
 20
2.638890
 30
0.0
 40
0.100000
 50
-63.437511
 51
-29.048766
  0
LINE
  8
PartsSilk-B
 10
7.770650
 20
2.549440
 30
0.0
 11
7.703980
 21
2.516110
 31
0.0
  0
ARC
  8
PartsSilk-B
 10
7.659260
 20
2.605560
 30
0.0
 40
0.100000
 50
-65.764679
 51
-63.438387
  0
LINE
  8
PartsSilk-B
 10
7.700310
 20
2.514370
 30
0.0
 11
7.626240
 21
2.481030
 31
0.0
  0
ARC
  8
PartsSilk-B
 10
7.585190
 20
2.572220
 30
0.0
 40
0.100000
 50
-90.000000
 51
-65.766787
  0
LINE
  8
PartsSilk-B
 10
7.585190
 20
2.472220
 30
0.0
 11
7.511110
 21
2.472220
 31
0.0
  0
ARC
  8
PartsSilk-B
 10
7.511110
 20
2.572220
 30
0.0
 40
0.100000
 50
-114.235321
 51
-90.000000
  0
LINE
  8
PartsSilk-B
 10
7.470060
 20
2.481030
 30
0.0
 11
7.395990
 21
2.514370
 31
0.0
  0
ARC
  8
PartsSilk-B
 10
7.437040
 20
2.605560
 30
0.0
 40
0.100000
 50
-116.562489
 51
-114.233213
  0
LINE
  8
PartsSilk-B
 10
7.392320
 20
2.516110
 30
0.0
 11
7.325650
 21
2.549440
 31
0.0
  0
ARC
  8
PartsSilk-B
 10
7.370370
 20
2.638890
 30
0.0
 40
0.100000
 50
-131.980399
 51
-116.561613
  0
LINE
  8
PartsSilk-B
 10
7.303480
 20
2.564550
 30
0.0
 11
7.266440
 21
2.597880
 31
0.0
  0
ARC
  8
PartsSilk-B
 10
7.333330
 20
2.672220
 30
0.0
 40
0.100000
 50
48.019601
 51
-131.982084
  0
LINE
  8
PartsSilk-B
 10
7.400220
 20
2.746560
 30
0.0
 11
7.427200
 21
2.722280
 31
0.0
  0
LINE
  8
PartsSilk-B
 10
7.427200
 20
2.722280
 30
0.0
 11
7.479940
 21
2.695910
 31
0.0
  0
LINE
  8
PartsSilk-B
 10
7.479940
 20
2.695910
 30
0.0
 11
7.532580
 21
2.672220
 31
0.0
  0
LINE
  8
PartsSilk-B
 10
7.532580
 20
2.672220
 30
0.0
 11
7.563720
 21
2.672220
 31
0.0
  0
LINE
  8
PartsSilk-B
 10
7.563720
 20
2.672220
 30
0.0
 11
7.616360
 21
2.695910
 31
0.0
  0
LINE
  8
PartsSilk-B
 10
7.616360
 20
2.695910
 30
0.0
 11
7.653530
 21
2.714500
 31
0.0
  0
LINE
  8
PartsSilk-B
 10
7.653530
 20
2.714500
 30
0.0
 11
7.669780
 21
2.743750
 31
0.0
  0
LINE
  8
PartsSilk-B
 10
7.669780
 20
2.743750
 30
0.0
 11
7.700000
 21
2.852520
 31
0.0
  0
LINE
  8
PartsSilk-B
 10
7.700000
 20
2.852520
 30
0.0
 11
7.700000
 21
2.890740
 31
0.0
  0
LINE
  8
PartsSilk-B
 10
7.700000
 20
2.890740
 30
0.0
 11
7.671550
 21
2.984620
 31
0.0
  0
LINE
  8
PartsSilk-B
 10
7.671550
 20
2.984620
 30
0.0
 11
7.633070
 21
3.042350
 31
0.0
  0
LINE
  8
PartsSilk-B
 10
7.633070
 20
3.042350
 30
0.0
 11
7.570510
 21
3.061110
 31
0.0
  0
LINE
  8
PartsSilk-B
 10
7.570510
 20
3.061110
 30
0.0
 11
7.525790
 21
3.061110
 31
0.0
  0
LINE
  8
PartsSilk-B
 10
7.525790
 20
3.061110
 30
0.0
 11
7.452880
 21
3.039240
 31
0.0
  0
LINE
  8
PartsSilk-B
 10
7.452880
 20
3.039240
 30
0.0
 11
7.404040
 21
2.990400
 31
0.0
  0
ARC
  8
PartsSilk-B
 10
7.333330
 20
3.127780
 30
0.0
 40
0.100000
 50
0.000000
 51
180.000000
  0
LINE
  8
PartsSilk-B
 10
7.433330
 20
3.127780
 30
0.0
 11
7.433330
 21
2.672220
 31
0.0
  0
ARC
  8
PartsSilk-B
 10
7.333330
 20
2.672220
 30
0.0
 40
0.100000
 50
-29.051265
 51
0.000000
  0
LINE
  8
PartsSilk-B
 10
7.420750
 20
2.623660
 30
0.0
 11
7.383720
 21
2.557000
 31
0.0
  0
ARC
  8
PartsSilk-B
 10
7.296300
 20
2.605560
 30
0.0
 40
0.100000
 50
-65.769903
 51
-29.052415
  0
LINE
  8
PartsSilk-B
 10
7.337340
 20
2.514370
 30
0.0
 11
7.263260
 21
2.481030
 31
0.0
  0
ARC
  8
PartsSilk-B
 10
7.222220
 20
2.572220
 30
0.0
 40
0.100000
 50
114.230097
 51
-65.769682
  0
LINE
  8
PartsSilk-B
 10
7.181180
 20
2.663410
 30
0.0
 11
7.225000
 21
2.683130
 31
0.0
  0
LINE
  8
PartsSilk-B
 10
7.225000
 20
2.683130
 30
0.0
 11
7.233330
 21
2.698130
 31
0.0
  0
LINE
  8
PartsSilk-B
 10
7.233330
 20
2.698130
 30
0.0
 11
7.233330
 21
3.127780
 31
0.0
  0
ARC
  8
PartsSilk-B
 10
6.296300
 20
3.061110
 30
0.0
 40
0.100000
 50
131.988490
 51
-48.009796
  0
LINE
  8
PartsSilk-B
 10
6.229400
 20
3.135440
 30
0.0
 11
6.303470
 21
3.202110
 31
0.0
  0
ARC
  8
PartsSilk-B
 10
6.370370
 20
3.127780
 30
0.0
 40
0.100000
 50
107.818889
 51
131.990204
  0
LINE
  8
PartsSilk-B
 10
6.339770
 20
3.222980
 30
0.0
 11
6.443470
 21
3.256310
 31
0.0
  0
ARC
  8
PartsSilk-B
 10
6.474070
 20
3.161110
 30
0.0
 40
0.100000
 50
90.000000
 51
107.817816
  0
LINE
  8
PartsSilk-B
 10
6.474070
 20
3.261110
 30
0.0
 11
6.555560
 21
3.261110
 31
0.0
  0
ARC
  8
PartsSilk-B
 10
6.555560
 20
3.161110
 30
0.0
 40
0.100000
 50
72.181111
 51
90.000000
  0
LINE
  8
PartsSilk-B
 10
6.586160
 20
3.256310
 30
0.0
 11
6.689860
 21
3.222980
 31
0.0
  0
ARC
  8
PartsSilk-B
 10
6.659260
 20
3.127780
 30
0.0
 40
0.100000
 50
33.691657
 51
72.182184
  0
LINE
  8
PartsSilk-B
 10
6.742460
 20
3.183250
 30
0.0
 11
6.809130
 21
3.083250
 31
0.0
  0
ARC
  8
PartsSilk-B
 10
6.725930
 20
3.027780
 30
0.0
 40
0.100000
 50
16.858399
 51
33.691390
  0
LINE
  8
PartsSilk-B
 10
6.821630
 20
3.056780
 30
0.0
 11
6.858660
 21
2.934560
 31
0.0
  0
ARC
  8
PartsSilk-B
 10
6.762960
 20
2.905560
 30
0.0
 40
0.100000
 50
0.000000
 51
16.855666
  0
LINE
  8
PartsSilk-B
 10
6.862960
 20
2.905560
 30
0.0
 11
6.862960
 21
2.838890
 31
0.0
  0
ARC
  8
PartsSilk-B
 10
6.762960
 20
2.838890
 30
0.0
 40
0.100000
 50
-15.521964
 51
0.000000
  0
LINE
  8
PartsSilk-B
 10
6.859310
 20
2.812130
 30
0.0
 11
6.822280
 21
2.678800
 31
0.0
  0
ARC
  8
PartsSilk-B
 10
6.725930
 20
2.705560
 30
0.0
 40
0.100000
 50
-23.960744
 51
-15.521673
  0
LINE
  8
PartsSilk-B
 10
6.817310
 20
2.664950
 30
0.0
 11
6.787680
 21
2.598280
 31
0.0
  0
ARC
  8
PartsSilk-B
 10
6.696300
 20
2.638890
 30
0.0
 40
0.100000
 50
-65.775129
 51
-23.961692
  0
LINE
  8
PartsSilk-B
 10
6.737330
 20
2.547700
 30
0.0
 11
6.665120
 21
2.515210
 31
0.0
  0
LINE
  8
PartsSilk-B
 10
6.665120
 20
2.515210
 30
0.0
 11
6.600290
 21
2.482780
 31
0.0
  0
ARC
  8
PartsSilk-B
 10
6.555560
 20
2.572220
 30
0.0
 40
0.100000
 50
-90.000000
 51
-63.428073
  0
LINE
  8
PartsSilk-B
 10
6.555560
 20
2.472220
 30
0.0
 11
6.437040
 21
2.472220
 31
0.0
  0
ARC
  8
PartsSilk-B
 10
6.437040
 20
2.572220
 30
0.0
 40
0.100000
 50
-116.570176
 51
-90.000000
  0
LINE
  8
PartsSilk-B
 10
6.392310
 20
2.482780
 30
0.0
 11
6.325640
 21
2.516120
 31
0.0
  0
ARC
  8
PartsSilk-B
 10
6.370370
 20
2.605560
 30
0.0
 40
0.100000
 50
-131.984231
 51
-116.568489
  0
LINE
  8
PartsSilk-B
 10
6.303480
 20
2.531230
 30
0.0
 11
6.229410
 21
2.597890
 31
0.0
  0
ARC
  8
PartsSilk-B
 10
6.296300
 20
2.672220
 30
0.0
 40
0.100000
 50
48.015769
 51
-131.985930
  0
LINE
  8
PartsSilk-B
 10
6.363190
 20
2.746550
 30
0.0
 11
6.427200
 21
2.688950
 31
0.0
  0
LINE
  8
PartsSilk-B
 10
6.427200
 20
2.688950
 30
0.0
 11
6.460650
 21
2.672220
 31
0.0
  0
LINE
  8
PartsSilk-B
 10
6.460650
 20
2.672220
 30
0.0
 11
6.531950
 21
2.672220
 31
0.0
  0
LINE
  8
PartsSilk-B
 10
6.531950
 20
2.672220
 30
0.0
 11
6.577490
 21
2.695000
 31
0.0
  0
ARC
  8
PartsSilk-B
 10
6.622220
 20
2.605560
 30
0.0
 40
0.100000
 50
114.224871
 51
116.570176
  0
LINE
  8
PartsSilk-B
 10
6.581190
 20
2.696750
 30
0.0
 11
6.620430
 21
2.714410
 31
0.0
  0
LINE
  8
PartsSilk-B
 10
6.620430
 20
2.714410
 30
0.0
 11
6.631550
 21
2.739430
 31
0.0
  0
LINE
  8
PartsSilk-B
 10
6.631550
 20
2.739430
 30
0.0
 11
6.662960
 21
2.852520
 31
0.0
  0
LINE
  8
PartsSilk-B
 10
6.662960
 20
2.852520
 30
0.0
 11
6.662960
 21
2.890740
 31
0.0
  0
LINE
  8
PartsSilk-B
 10
6.662960
 20
2.890740
 30
0.0
 11
6.634520
 21
2.984620
 31
0.0
  0
LINE
  8
PartsSilk-B
 10
6.634520
 20
2.984620
 30
0.0
 11
6.595420
 21
3.043260
 31
0.0
  0
LINE
  8
PartsSilk-B
 10
6.595420
 20
3.043260
 30
0.0
 11
6.539880
 21
3.061110
 31
0.0
  0
LINE
  8
PartsSilk-B
 10
6.539880
 20
3.061110
 30
0.0
 11
6.489750
 21
3.061110
 31
0.0
  0
LINE
  8
PartsSilk-B
 10
6.489750
 20
3.061110
 30
0.0
 11
6.421350
 21
3.039130
 31
0.0
  0
LINE
  8
PartsSilk-B
 10
6.421350
 20
3.039130
 30
0.0
 11
6.363200
 21
2.986780
 31
0.0
  0
ARC
  8
PartsSilk-B
 10
5.762960
 20
2.872220
 30
0.0
 40
0.100000
 50
-90.000000
 51
90.000000
  0
LINE
  8
PartsSilk-B
 10
5.762960
 20
2.772220
 30
0.0
 11
5.185190
 21
2.772220
 31
0.0
  0
ARC
  8
PartsSilk-B
 10
5.185190
 20
2.872220
 30
0.0
 40
0.100000
 50
180.000000
 51
-90.000000
  0
LINE
  8
PartsSilk-B
 10
5.085190
 20
2.872220
 30
0.0
 11
5.085190
 21
2.972220
 31
0.0
  0
ARC
  8
PartsSilk-B
 10
5.185190
 20
2.972220
 30
0.0
 40
0.100000
 50
143.130102
 51
180.000000
  0
LINE
  8
PartsSilk-B
 10
5.105190
 20
3.032220
 30
0.0
 11
5.171850
 21
3.121110
 31
0.0
  0
ARC
  8
PartsSilk-B
 10
5.251850
 20
3.061110
 30
0.0
 40
0.100000
 50
129.294244
 51
143.133196
  0
LINE
  8
PartsSilk-B
 10
5.188520
 20
3.138500
 30
0.0
 11
5.270000
 21
3.205170
 31
0.0
  0
ARC
  8
PartsSilk-B
 10
5.333330
 20
3.127780
 30
0.0
 40
0.100000
 50
107.818889
 51
129.291321
  0
LINE
  8
PartsSilk-B
 10
5.302730
 20
3.222980
 30
0.0
 11
5.406440
 21
3.256310
 31
0.0
  0
ARC
  8
PartsSilk-B
 10
5.437040
 20
3.161110
 30
0.0
 40
0.100000
 50
90.000000
 51
107.816206
  0
LINE
  8
PartsSilk-B
 10
5.437040
 20
3.261110
 30
0.0
 11
5.511110
 21
3.261110
 31
0.0
  0
ARC
  8
PartsSilk-B
 10
5.511110
 20
3.161110
 30
0.0
 40
0.100000
 50
73.302951
 51
90.000000
  0
LINE
  8
PartsSilk-B
 10
5.539840
 20
3.256890
 30
0.0
 11
5.650950
 21
3.223560
 31
0.0
  0
ARC
  8
PartsSilk-B
 10
5.622220
 20
3.127780
 30
0.0
 40
0.100000
 50
46.045309
 51
73.302175
  0
LINE
  8
PartsSilk-B
 10
5.691630
 20
3.199770
 30
0.0
 11
5.795340
 21
3.099770
 31
0.0
  0
ARC
  8
PartsSilk-B
 10
5.725930
 20
3.027780
 30
0.0
 40
0.100000
 50
22.613254
 51
46.043365
  0
LINE
  8
PartsSilk-B
 10
5.818240
 20
3.066230
 30
0.0
 11
5.855270
 21
2.977340
 31
0.0
  0
ARC
  8
PartsSilk-B
 10
5.762960
 20
2.938890
 30
0.0
 40
0.100000
 50
0.000000
 51
22.615746
  0
LINE
  8
PartsSilk-B
 10
5.862960
 20
2.938890
 30
0.0
 11
5.862960
 21
2.805560
 31
0.0
  0
ARC
  8
PartsSilk-B
 10
5.762960
 20
2.805560
 30
0.0
 40
0.100000
 50
-20.321346
 51
0.000000
  0
LINE
  8
PartsSilk-B
 10
5.856740
 20
2.770830
 30
0.0
 11
5.819710
 21
2.670830
 31
0.0
  0
ARC
  8
PartsSilk-B
 10
5.725930
 20
2.705560
 30
0.0
 40
0.100000
 50
-46.045309
 51
-20.319591
  0
LINE
  8
PartsSilk-B
 10
5.795340
 20
2.633570
 30
0.0
 11
5.691630
 21
2.533570
 31
0.0
  0
ARC
  8
PartsSilk-B
 10
5.622220
 20
2.605560
 30
0.0
 40
0.100000
 50
-73.297463
 51
-46.043365
  0
LINE
  8
PartsSilk-B
 10
5.650960
 20
2.509780
 30
0.0
 11
5.539850
 21
2.476440
 31
0.0
  0
ARC
  8
PartsSilk-B
 10
5.511110
 20
2.572220
 30
0.0
 40
0.100000
 50
-90.000000
 51
-73.297444
  0
LINE
  8
PartsSilk-B
 10
5.511110
 20
2.472220
 30
0.0
 11
5.437040
 21
2.472220
 31
0.0
  0
ARC
  8
PartsSilk-B
 10
5.437040
 20
2.572220
 30
0.0
 40
0.100000
 50
-107.818889
 51
-90.000000
  0
LINE
  8
PartsSilk-B
 10
5.406440
 20
2.477020
 30
0.0
 11
5.302730
 21
2.510360
 31
0.0
  0
ARC
  8
PartsSilk-B
 10
5.333330
 20
2.605560
 30
0.0
 40
0.100000
 50
-112.246131
 51
-107.821214
  0
LINE
  8
PartsSilk-B
 10
5.295470
 20
2.513000
 30
0.0
 11
5.213990
 21
2.546330
 31
0.0
  0
ARC
  8
PartsSilk-B
 10
5.251850
 20
2.638890
 30
0.0
 40
0.100000
 50
-156.039256
 51
-112.247381
  0
LINE
  8
PartsSilk-B
 10
5.160470
 20
2.598280
 30
0.0
 11
5.130840
 21
2.664950
 31
0.0
  0
ARC
  8
PartsSilk-B
 10
5.222220
 20
2.705560
 30
0.0
 40
0.100000
 50
23.960744
 51
-156.038308
  0
LINE
  8
PartsSilk-B
 10
5.313600
 20
2.746170
 30
0.0
 11
5.326910
 21
2.716230
 31
0.0
  0
LINE
  8
PartsSilk-B
 10
5.326910
 20
2.716230
 30
0.0
 11
5.367610
 21
2.699580
 31
0.0
  0
LINE
  8
PartsSilk-B
 10
5.367610
 20
2.699580
 30
0.0
 11
5.452720
 21
2.672220
 31
0.0
  0
LINE
  8
PartsSilk-B
 10
5.452720
 20
2.672220
 30
0.0
 11
5.496430
 21
2.672220
 31
0.0
  0
LINE
  8
PartsSilk-B
 10
5.496430
 20
2.672220
 30
0.0
 11
5.570260
 21
2.694370
 31
0.0
  0
LINE
  8
PartsSilk-B
 10
5.570260
 20
2.694370
 30
0.0
 11
5.640080
 21
2.761700
 31
0.0
  0
LINE
  8
PartsSilk-B
 10
5.640080
 20
2.761700
 30
0.0
 11
5.662960
 21
2.823480
 31
0.0
  0
LINE
  8
PartsSilk-B
 10
5.662960
 20
2.823480
 30
0.0
 11
5.662960
 21
2.918890
 31
0.0
  0
LINE
  8
PartsSilk-B
 10
5.662960
 20
2.918890
 30
0.0
 11
5.641590
 21
2.970190
 31
0.0
  0
LINE
  8
PartsSilk-B
 10
5.641590
 20
2.970190
 30
0.0
 11
5.570260
 21
3.038960
 31
0.0
  0
LINE
  8
PartsSilk-B
 10
5.570260
 20
3.038960
 30
0.0
 11
5.496430
 21
3.061110
 31
0.0
  0
LINE
  8
PartsSilk-B
 10
5.496430
 20
3.061110
 30
0.0
 11
5.452710
 21
3.061110
 31
0.0
  0
LINE
  8
PartsSilk-B
 10
5.452710
 20
3.061110
 30
0.0
 11
5.381980
 21
3.038380
 31
0.0
  0
LINE
  8
PartsSilk-B
 10
5.381980
 20
3.038380
 30
0.0
 11
5.324570
 21
2.991400
 31
0.0
  0
LINE
  8
PartsSilk-B
 10
5.324570
 20
2.991400
 30
0.0
 11
5.285190
 21
2.938890
 31
0.0
  0
LINE
  8
PartsSilk-B
 10
5.285190
 20
2.938890
 30
0.0
 11
5.285190
 21
2.972220
 31
0.0
  0
LINE
  8
PartsSilk-B
 10
5.285190
 20
2.972220
 30
0.0
 11
5.762960
 21
2.972220
 31
0.0
  0
ARC
  8
PartsSilk-B
 10
4.703700
 20
3.161110
 30
0.0
 40
0.100000
 50
0.000000
 51
180.000000
  0
LINE
  8
PartsSilk-B
 10
4.803700
 20
3.161110
 30
0.0
 11
4.803700
 21
2.572220
 31
0.0
  0
ARC
  8
PartsSilk-B
 10
4.703700
 20
2.572220
 30
0.0
 40
0.100000
 50
180.000000
 51
0.000000
  0
LINE
  8
PartsSilk-B
 10
4.603700
 20
2.572220
 30
0.0
 11
4.603700
 21
3.161110
 31
0.0
  0
ARC
  8
PartsSilk-B
 10
4.703700
 20
3.005560
 30
0.0
 40
0.100000
 50
-132.710362
 51
47.291599
  0
LINE
  8
PartsSilk-B
 10
4.635870
 20
2.932080
 30
0.0
 11
4.545990
 21
3.015040
 31
0.0
  0
LINE
  8
PartsSilk-B
 10
4.545990
 20
3.015040
 30
0.0
 11
4.474330
 21
3.061110
 31
0.0
  0
LINE
  8
PartsSilk-B
 10
4.474330
 20
3.061110
 30
0.0
 11
4.431010
 21
3.061110
 31
0.0
  0
LINE
  8
PartsSilk-B
 10
4.431010
 20
3.061110
 30
0.0
 11
4.417550
 21
3.054380
 31
0.0
  0
LINE
  8
PartsSilk-B
 10
4.417550
 20
3.054380
 30
0.0
 11
4.402490
 21
3.020500
 31
0.0
  0
ARC
  8
PartsSilk-B
 10
4.311110
 20
3.061110
 30
0.0
 40
0.100000
 50
156.039256
 51
-23.961692
  0
LINE
  8
PartsSilk-B
 10
4.219730
 20
3.101720
 30
0.0
 11
4.249360
 21
3.168390
 31
0.0
  0
ARC
  8
PartsSilk-B
 10
4.340740
 20
3.127780
 30
0.0
 40
0.100000
 50
116.562489
 51
156.039256
  0
LINE
  8
PartsSilk-B
 10
4.296020
 20
3.217230
 30
0.0
 11
4.362690
 21
3.250560
 31
0.0
  0
ARC
  8
PartsSilk-B
 10
4.407410
 20
3.161110
 30
0.0
 40
0.100000
 50
90.000000
 51
116.562489
  0
LINE
  8
PartsSilk-B
 10
4.407410
 20
3.261110
 30
0.0
 11
4.503700
 21
3.261110
 31
0.0
  0
ARC
  8
PartsSilk-B
 10
4.503700
 20
3.161110
 30
0.0
 40
0.100000
 50
57.263397
 51
90.000000
  0
LINE
  8
PartsSilk-B
 10
4.557780
 20
3.245230
 30
0.0
 11
4.661490
 21
3.178560
 31
0.0
  0
ARC
  8
PartsSilk-B
 10
4.607410
 20
3.094440
 30
0.0
 40
0.100000
 50
47.289638
 51
57.263397
  0
LINE
  8
PartsSilk-B
 10
4.675240
 20
3.167920
 30
0.0
 11
4.771530
 21
3.079040
 31
0.0
  0
CIRCLE
  8
Hole
 10
8.650000
 20
1.600000
 30
0.0
 40
0.175000
  0
CIRCLE
  8
Hole
 10
1.750000
 20
3.000000
 30
0.0
 40
1.025000
  0
CIRCLE
  8
Hole
 10
18.250000
 20
3.000000
 30
0.0
 40
1.025000
  0
CIRCLE
  8
Hole
 10
4.075000
 20
1.600000
 30
0.0
 40
0.175000
  0
CIRCLE
  8
Hole
 10
5.050000
 20
1.600000
 30
0.0
 40
0.175000
  0
CIRCLE
  8
Hole
 10
5.950000
 20
1.600000
 30
0.0
 40
0.175000
  0
CIRCLE
  8
Hole
 10
6.850000
 20
1.600000
 30
0.0
 40
0.175000
  0
CIRCLE
  8
Hole
 10
7.750000
 20
1.600000
 30
0.0
 40
0.175000
  0
CIRCLE
  8
Hole
 10
9.550000
 20
1.600000
 30
0.0
 40
0.175000
  0
CIRCLE
  8
Hole
 10
10.450000
 20
1.600000
 30
0.0
 40
0.175000
  0
CIRCLE
  8
Hole
 10
11.350000
 20
1.600000
 30
0.0
 40
0.175000
  0
CIRCLE
  8
Hole
 10
12.250000
 20
1.600000
 30
0.0
 40
0.175000
  0
CIRCLE
  8
Hole
 10
13.150000
 20
1.600000
 30
0.0
 40
0.175000
  0
CIRCLE
  8
Hole
 10
14.050000
 20
1.600000
 30
0.0
 40
0.175000
  0
CIRCLE
  8
Hole
 10
14.950000
 20
1.600000
 30
0.0
 40
0.175000
  0
CIRCLE
  8
Hole
 10
15.925000
 20
1.600000
 30
0.0
 40
0.175000
  0
CIRCLE
  8
Hole
 10
3.700000
 20
4.400000
 30
0.0
 40
0.175000
  0
CIRCLE
  8
Hole
 10
4.600000
 20
4.400000
 30
0.0
 40
0.175000
  0
CIRCLE
  8
Hole
 10
5.500000
 20
4.400000
 30
0.0
 40
0.175000
  0
CIRCLE
  8
Hole
 10
6.400000
 20
4.400000
 30
0.0
 40
0.175000
  0
CIRCLE
  8
Hole
 10
7.300000
 20
4.400000
 30
0.0
 40
0.175000
  0
CIRCLE
  8
Hole
 10
8.200000
 20
4.400000
 30
0.0
 40
0.175000
  0
CIRCLE
  8
Hole
 10
9.100000
 20
4.400000
 30
0.0
 40
0.175000
  0
CIRCLE
  8
Hole
 10
10.000000
 20
4.400000
 30
0.0
 40
0.175000
  0
CIRCLE
  8
Hole
 10
10.900000
 20
4.400000
 30
0.0
 40
0.175000
  0
CIRCLE
  8
Hole
 10
11.800000
 20
4.400000
 30
0.0
 40
0.175000
  0
CIRCLE
  8
Hole
 10
12.700000
 20
4.400000
 30
0.0
 40
0.175000
  0
CIRCLE
  8
Hole
 10
13.600000
 20
4.400000
 30
0.0
 40
0.175000
  0
CIRCLE
  8
Hole
 10
14.500000
 20
4.400000
 30
0.0
 40
0.175000
  0
CIRCLE
  8
Hole
 10
15.400000
 20
4.400000
 30
0.0
 40
0.175000
  0
CIRCLE
  8
Hole
 10
16.300000
 20
4.400000
 30
0.0
 40
0.175000
  0
CIRCLE
  8
L1
 10
8.650000
 20
1.600000
 30
0.0
 40
0.300000
  0
CIRCLE
  8
L1
 10
4.075000
 20
1.600000
 30
0.0
 40
0.300000
  0
CIRCLE
  8
L1
 10
5.050000
 20
1.600000
 30
0.0
 40
0.300000
  0
CIRCLE
  8
L1
 10
5.950000
 20
1.600000
 30
0.0
 40
0.300000
  0
CIRCLE
  8
L1
 10
6.850000
 20
1.600000
 30
0.0
 40
0.300000
  0
CIRCLE
  8
L1
 10
7.750000
 20
1.600000
 30
0.0
 40
0.300000
  0
CIRCLE
  8
L1
 10
9.550000
 20
1.600000
 30
0.0
 40
0.300000
  0
CIRCLE
  8
L1
 10
10.450000
 20
1.600000
 30
0.0
 40
0.300000
  0
CIRCLE
  8
L1
 10
11.350000
 20
1.600000
 30
0.0
 40
0.300000
  0
CIRCLE
  8
L1
 10
12.250000
 20
1.600000
 30
0.0
 40
0.300000
  0
CIRCLE
  8
L1
 10
13.150000
 20
1.600000
 30
0.0
 40
0.300000
  0
CIRCLE
  8
L1
 10
14.050000
 20
1.600000
 30
0.0
 40
0.300000
  0
CIRCLE
  8
L1
 10
14.950000
 20
1.600000
 30
0.0
 40
0.300000
  0
CIRCLE
  8
L1
 10
15.925000
 20
1.600000
 30
0.0
 40
0.300000
  0
CIRCLE
  8
L1
 10
3.700000
 20
4.400000
 30
0.0
 40
0.300000
  0
CIRCLE
  8
L1
 10
4.600000
 20
4.400000
 30
0.0
 40
0.300000
  0
CIRCLE
  8
L1
 10
5.500000
 20
4.400000
 30
0.0
 40
0.300000
  0
CIRCLE
  8
L1
 10
6.400000
 20
4.400000
 30
0.0
 40
0.300000
  0
CIRCLE
  8
L1
 10
7.300000
 20
4.400000
 30
0.0
 40
0.300000
  0
CIRCLE
  8
L1
 10
8.200000
 20
4.400000
 30
0.0
 40
0.300000
  0
CIRCLE
  8
L1
 10
9.100000
 20
4.400000
 30
0.0
 40
0.300000
  0
CIRCLE
  8
L1
 10
10.000000
 20
4.400000
 30
0.0
 40
0.300000
  0
CIRCLE
  8
L1
 10
10.900000
 20
4.400000
 30
0.0
 40
0.300000
  0
CIRCLE
  8
L1
 10
11.800000
 20
4.400000
 30
0.0
 40
0.300000
  0
CIRCLE
  8
L1
 10
12.700000
 20
4.400000
 30
0.0
 40
0.300000
  0
CIRCLE
  8
L1
 10
13.600000
 20
4.400000
 30
0.0
 40
0.300000
  0
CIRCLE
  8
L1
 10
14.500000
 20
4.400000
 30
0.0
 40
0.300000
  0
CIRCLE
  8
L1
 10
15.400000
 20
4.400000
 30
0.0
 40
0.300000
  0
CIRCLE
  8
L1
 10
16.300000
 20
4.400000
 30
0.0
 40
0.300000
  0
ARC
  8
L1
 10
4.300000
 20
1.375000
 30
0.0
 40
0.075000
 50
-90.000000
 51
0.000000
  0
LINE
  8
L1
 10
4.300000
 20
1.300000
 30
0.0
 11
3.550000
 21
1.300000
 31
0.0
  0
ARC
  8
L1
 10
3.550000
 20
1.375000
 30
0.0
 40
0.075000
 50
180.000000
 51
-90.000000
  0
LINE
  8
L1
 10
3.475000
 20
1.375000
 30
0.0
 11
3.475000
 21
2.675000
 31
0.0
  0
ARC
  8
L1
 10
3.550000
 20
2.675000
 30
0.0
 40
0.075000
 50
90.000000
 51
180.000000
  0
LINE
  8
L1
 10
3.550000
 20
2.750000
 30
0.0
 11
4.300000
 21
2.750000
 31
0.0
  0
ARC
  8
L1
 10
4.300000
 20
2.675000
 30
0.0
 40
0.075000
 50
0.000000
 51
90.000000
  0
LINE
  8
L1
 10
4.375000
 20
2.675000
 30
0.0
 11
4.375000
 21
1.375000
 31
0.0
  0
ARC
  8
L1
 10
3.700000
 20
4.400000
 30
0.0
 40
0.300000
 50
-41.409429
 51
-138.590571
  0
LINE
  8
L1
 10
3.925000
 20
4.201570
 30
0.0
 11
3.925000
 21
3.325000
 31
0.0
  0
ARC
  8
L1
 10
3.850000
 20
3.325000
 30
0.0
 40
0.075000
 50
-90.000000
 51
0.000000
  0
LINE
  8
L1
 10
3.850000
 20
3.250000
 30
0.0
 11
3.550000
 21
3.250000
 31
0.0
  0
ARC
  8
L1
 10
3.550000
 20
3.325000
 30
0.0
 40
0.075000
 50
180.000000
 51
-90.000000
  0
LINE
  8
L1
 10
3.475000
 20
3.325000
 30
0.0
 11
3.475000
 21
4.201570
 31
0.0
  0
ARC
  8
L1
 10
5.050000
 20
1.600000
 30
0.0
 40
0.300000
 50
138.590571
 51
41.409429
  0
LINE
  8
L1
 10
4.825000
 20
1.798430
 30
0.0
 11
4.825000
 21
2.675000
 31
0.0
  0
ARC
  8
L1
 10
4.900000
 20
2.675000
 30
0.0
 40
0.075000
 50
90.000000
 51
180.000000
  0
LINE
  8
L1
 10
4.900000
 20
2.750000
 30
0.0
 11
5.200000
 21
2.750000
 31
0.0
  0
ARC
  8
L1
 10
5.200000
 20
2.675000
 30
0.0
 40
0.075000
 50
0.000000
 51
90.000000
  0
LINE
  8
L1
 10
5.275000
 20
2.675000
 30
0.0
 11
5.275000
 21
1.798430
 31
0.0
  0
ARC
  8
L1
 10
4.600000
 20
4.400000
 30
0.0
 40
0.300000
 50
-41.409429
 51
-138.590571
  0
LINE
  8
L1
 10
4.825000
 20
4.201570
 30
0.0
 11
4.825000
 21
3.325000
 31
0.0
  0
ARC
  8
L1
 10
4.750000
 20
3.325000
 30
0.0
 40
0.075000
 50
-90.000000
 51
0.000000
  0
LINE
  8
L1
 10
4.750000
 20
3.250000
 30
0.0
 11
4.450000
 21
3.250000
 31
0.0
  0
ARC
  8
L1
 10
4.450000
 20
3.325000
 30
0.0
 40
0.075000
 50
180.000000
 51
-90.000000
  0
LINE
  8
L1
 10
4.375000
 20
3.325000
 30
0.0
 11
4.375000
 21
4.201570
 31
0.0
  0
ARC
  8
L1
 10
5.950000
 20
1.600000
 30
0.0
 40
0.300000
 50
138.590571
 51
41.409429
  0
LINE
  8
L1
 10
5.725000
 20
1.798430
 30
0.0
 11
5.725000
 21
2.675000
 31
0.0
  0
ARC
  8
L1
 10
5.800000
 20
2.675000
 30
0.0
 40
0.075000
 50
90.000000
 51
180.000000
  0
LINE
  8
L1
 10
5.800000
 20
2.750000
 30
0.0
 11
6.100000
 21
2.750000
 31
0.0
  0
ARC
  8
L1
 10
6.100000
 20
2.675000
 30
0.0
 40
0.075000
 50
0.000000
 51
90.000000
  0
LINE
  8
L1
 10
6.175000
 20
2.675000
 30
0.0
 11
6.175000
 21
1.798430
 31
0.0
  0
ARC
  8
L1
 10
5.500000
 20
4.400000
 30
0.0
 40
0.300000
 50
-41.409429
 51
-138.590571
  0
LINE
  8
L1
 10
5.725000
 20
4.201570
 30
0.0
 11
5.725000
 21
3.325000
 31
0.0
  0
ARC
  8
L1
 10
5.650000
 20
3.325000
 30
0.0
 40
0.075000
 50
-90.000000
 51
0.000000
  0
LINE
  8
L1
 10
5.650000
 20
3.250000
 30
0.0
 11
5.350000
 21
3.250000
 31
0.0
  0
ARC
  8
L1
 10
5.350000
 20
3.325000
 30
0.0
 40
0.075000
 50
180.000000
 51
-90.000000
  0
LINE
  8
L1
 10
5.275000
 20
3.325000
 30
0.0
 11
5.275000
 21
4.201570
 31
0.0
  0
ARC
  8
L1
 10
6.850000
 20
1.600000
 30
0.0
 40
0.300000
 50
138.590571
 51
41.409429
  0
LINE
  8
L1
 10
6.625000
 20
1.798430
 30
0.0
 11
6.625000
 21
2.675000
 31
0.0
  0
ARC
  8
L1
 10
6.700000
 20
2.675000
 30
0.0
 40
0.075000
 50
90.000000
 51
180.000000
  0
LINE
  8
L1
 10
6.700000
 20
2.750000
 30
0.0
 11
7.000000
 21
2.750000
 31
0.0
  0
ARC
  8
L1
 10
7.000000
 20
2.675000
 30
0.0
 40
0.075000
 50
0.000000
 51
90.000000
  0
LINE
  8
L1
 10
7.075000
 20
2.675000
 30
0.0
 11
7.075000
 21
1.798430
 31
0.0
  0
ARC
  8
L1
 10
6.400000
 20
4.400000
 30
0.0
 40
0.300000
 50
-41.409429
 51
-138.590571
  0
LINE
  8
L1
 10
6.625000
 20
4.201570
 30
0.0
 11
6.625000
 21
3.325000
 31
0.0
  0
ARC
  8
L1
 10
6.550000
 20
3.325000
 30
0.0
 40
0.075000
 50
-90.000000
 51
0.000000
  0
LINE
  8
L1
 10
6.550000
 20
3.250000
 30
0.0
 11
6.250000
 21
3.250000
 31
0.0
  0
ARC
  8
L1
 10
6.250000
 20
3.325000
 30
0.0
 40
0.075000
 50
180.000000
 51
-90.000000
  0
LINE
  8
L1
 10
6.175000
 20
3.325000
 30
0.0
 11
6.175000
 21
4.201570
 31
0.0
  0
ARC
  8
L1
 10
7.750000
 20
1.600000
 30
0.0
 40
0.300000
 50
138.590571
 51
41.409429
  0
LINE
  8
L1
 10
7.525000
 20
1.798430
 30
0.0
 11
7.525000
 21
2.675000
 31
0.0
  0
ARC
  8
L1
 10
7.600000
 20
2.675000
 30
0.0
 40
0.075000
 50
90.000000
 51
180.000000
  0
LINE
  8
L1
 10
7.600000
 20
2.750000
 30
0.0
 11
7.900000
 21
2.750000
 31
0.0
  0
ARC
  8
L1
 10
7.900000
 20
2.675000
 30
0.0
 40
0.075000
 50
0.000000
 51
90.000000
  0
LINE
  8
L1
 10
7.975000
 20
2.675000
 30
0.0
 11
7.975000
 21
1.798430
 31
0.0
  0
ARC
  8
L1
 10
7.300000
 20
4.400000
 30
0.0
 40
0.300000
 50
-41.409429
 51
-138.590571
  0
LINE
  8
L1
 10
7.525000
 20
4.201570
 30
0.0
 11
7.525000
 21
3.325000
 31
0.0
  0
ARC
  8
L1
 10
7.450000
 20
3.325000
 30
0.0
 40
0.075000
 50
-90.000000
 51
0.000000
  0
LINE
  8
L1
 10
7.450000
 20
3.250000
 30
0.0
 11
7.150000
 21
3.250000
 31
0.0
  0
ARC
  8
L1
 10
7.150000
 20
3.325000
 30
0.0
 40
0.075000
 50
180.000000
 51
-90.000000
  0
LINE
  8
L1
 10
7.075000
 20
3.325000
 30
0.0
 11
7.075000
 21
4.201570
 31
0.0
  0
ARC
  8
L1
 10
8.650000
 20
1.600000
 30
0.0
 40
0.300000
 50
138.590571
 51
41.409429
  0
LINE
  8
L1
 10
8.425000
 20
1.798430
 30
0.0
 11
8.425000
 21
2.675000
 31
0.0
  0
ARC
  8
L1
 10
8.500000
 20
2.675000
 30
0.0
 40
0.075000
 50
90.000000
 51
180.000000
  0
LINE
  8
L1
 10
8.500000
 20
2.750000
 30
0.0
 11
8.800000
 21
2.750000
 31
0.0
  0
ARC
  8
L1
 10
8.800000
 20
2.675000
 30
0.0
 40
0.075000
 50
0.000000
 51
90.000000
  0
LINE
  8
L1
 10
8.875000
 20
2.675000
 30
0.0
 11
8.875000
 21
1.798430
 31
0.0
  0
ARC
  8
L1
 10
8.200000
 20
4.400000
 30
0.0
 40
0.300000
 50
-41.409429
 51
-138.590571
  0
LINE
  8
L1
 10
8.425000
 20
4.201570
 30
0.0
 11
8.425000
 21
3.325000
 31
0.0
  0
ARC
  8
L1
 10
8.350000
 20
3.325000
 30
0.0
 40
0.075000
 50
-90.000000
 51
0.000000
  0
LINE
  8
L1
 10
8.350000
 20
3.250000
 30
0.0
 11
8.050000
 21
3.250000
 31
0.0
  0
ARC
  8
L1
 10
8.050000
 20
3.325000
 30
0.0
 40
0.075000
 50
180.000000
 51
-90.000000
  0
LINE
  8
L1
 10
7.975000
 20
3.325000
 30
0.0
 11
7.975000
 21
4.201570
 31
0.0
  0
ARC
  8
L1
 10
9.550000
 20
1.600000
 30
0.0
 40
0.300000
 50
138.590571
 51
41.409429
  0
LINE
  8
L1
 10
9.325000
 20
1.798430
 30
0.0
 11
9.325000
 21
2.675000
 31
0.0
  0
ARC
  8
L1
 10
9.400000
 20
2.675000
 30
0.0
 40
0.075000
 50
90.000000
 51
180.000000
  0
LINE
  8
L1
 10
9.400000
 20
2.750000
 30
0.0
 11
9.700000
 21
2.750000
 31
0.0
  0
ARC
  8
L1
 10
9.700000
 20
2.675000
 30
0.0
 40
0.075000
 50
0.000000
 51
90.000000
  0
LINE
  8
L1
 10
9.775000
 20
2.675000
 30
0.0
 11
9.775000
 21
1.798430
 31
0.0
  0
ARC
  8
L1
 10
9.100000
 20
4.400000
 30
0.0
 40
0.300000
 50
-41.409429
 51
-138.590571
  0
LINE
  8
L1
 10
9.325000
 20
4.201570
 30
0.0
 11
9.325000
 21
3.325000
 31
0.0
  0
ARC
  8
L1
 10
9.250000
 20
3.325000
 30
0.0
 40
0.075000
 50
-90.000000
 51
0.000000
  0
LINE
  8
L1
 10
9.250000
 20
3.250000
 30
0.0
 11
8.950000
 21
3.250000
 31
0.0
  0
ARC
  8
L1
 10
8.950000
 20
3.325000
 30
0.0
 40
0.075000
 50
180.000000
 51
-90.000000
  0
LINE
  8
L1
 10
8.875000
 20
3.325000
 30
0.0
 11
8.875000
 21
4.201570
 31
0.0
  0
ARC
  8
L1
 10
10.450000
 20
1.600000
 30
0.0
 40
0.300000
 50
138.590571
 51
41.409429
  0
LINE
  8
L1
 10
10.225000
 20
1.798430
 30
0.0
 11
10.225000
 21
2.675000
 31
0.0
  0
ARC
  8
L1
 10
10.300000
 20
2.675000
 30
0.0
 40
0.075000
 50
90.000000
 51
180.000000
  0
LINE
  8
L1
 10
10.300000
 20
2.750000
 30
0.0
 11
10.600000
 21
2.750000
 31
0.0
  0
ARC
  8
L1
 10
10.600000
 20
2.675000
 30
0.0
 40
0.075000
 50
0.000000
 51
90.000000
  0
LINE
  8
L1
 10
10.675000
 20
2.675000
 30
0.0
 11
10.675000
 21
1.798430
 31
0.0
  0
ARC
  8
L1
 10
10.000000
 20
4.400000
 30
0.0
 40
0.300000
 50
-41.409429
 51
-138.590571
  0
LINE
  8
L1
 10
10.225000
 20
4.201570
 30
0.0
 11
10.225000
 21
3.325000
 31
0.0
  0
ARC
  8
L1
 10
10.150000
 20
3.325000
 30
0.0
 40
0.075000
 50
-90.000000
 51
0.000000
  0
LINE
  8
L1
 10
10.150000
 20
3.250000
 30
0.0
 11
9.850000
 21
3.250000
 31
0.0
  0
ARC
  8
L1
 10
9.850000
 20
3.325000
 30
0.0
 40
0.075000
 50
180.000000
 51
-90.000000
  0
LINE
  8
L1
 10
9.775000
 20
3.325000
 30
0.0
 11
9.775000
 21
4.201570
 31
0.0
  0
ARC
  8
L1
 10
11.350000
 20
1.600000
 30
0.0
 40
0.300000
 50
138.590571
 51
41.409429
  0
LINE
  8
L1
 10
11.125000
 20
1.798430
 30
0.0
 11
11.125000
 21
2.675000
 31
0.0
  0
ARC
  8
L1
 10
11.200000
 20
2.675000
 30
0.0
 40
0.075000
 50
90.000000
 51
180.000000
  0
LINE
  8
L1
 10
11.200000
 20
2.750000
 30
0.0
 11
11.500000
 21
2.750000
 31
0.0
  0
ARC
  8
L1
 10
11.500000
 20
2.675000
 30
0.0
 40
0.075000
 50
0.000000
 51
90.000000
  0
LINE
  8
L1
 10
11.575000
 20
2.675000
 30
0.0
 11
11.575000
 21
1.798430
 31
0.0
  0
ARC
  8
L1
 10
10.900000
 20
4.400000
 30
0.0
 40
0.300000
 50
-41.409429
 51
-138.590571
  0
LINE
  8
L1
 10
11.125000
 20
4.201570
 30
0.0
 11
11.125000
 21
3.325000
 31
0.0
  0
ARC
  8
L1
 10
11.050000
 20
3.325000
 30
0.0
 40
0.075000
 50
-90.000000
 51
0.000000
  0
LINE
  8
L1
 10
11.050000
 20
3.250000
 30
0.0
 11
10.750000
 21
3.250000
 31
0.0
  0
ARC
  8
L1
 10
10.750000
 20
3.325000
 30
0.0
 40
0.075000
 50
180.000000
 51
-90.000000
  0
LINE
  8
L1
 10
10.675000
 20
3.325000
 30
0.0
 11
10.675000
 21
4.201570
 31
0.0
  0
ARC
  8
L1
 10
12.250000
 20
1.600000
 30
0.0
 40
0.300000
 50
138.590571
 51
41.409429
  0
LINE
  8
L1
 10
12.025000
 20
1.798430
 30
0.0
 11
12.025000
 21
2.675000
 31
0.0
  0
ARC
  8
L1
 10
12.100000
 20
2.675000
 30
0.0
 40
0.075000
 50
90.000000
 51
180.000000
  0
LINE
  8
L1
 10
12.100000
 20
2.750000
 30
0.0
 11
12.400000
 21
2.750000
 31
0.0
  0
ARC
  8
L1
 10
12.400000
 20
2.675000
 30
0.0
 40
0.075000
 50
0.000000
 51
90.000000
  0
LINE
  8
L1
 10
12.475000
 20
2.675000
 30
0.0
 11
12.475000
 21
1.798430
 31
0.0
  0
ARC
  8
L1
 10
11.800000
 20
4.400000
 30
0.0
 40
0.300000
 50
-41.409429
 51
-138.590571
  0
LINE
  8
L1
 10
12.025000
 20
4.201570
 30
0.0
 11
12.025000
 21
3.325000
 31
0.0
  0
ARC
  8
L1
 10
11.950000
 20
3.325000
 30
0.0
 40
0.075000
 50
-90.000000
 51
0.000000
  0
LINE
  8
L1
 10
11.950000
 20
3.250000
 30
0.0
 11
11.650000
 21
3.250000
 31
0.0
  0
ARC
  8
L1
 10
11.650000
 20
3.325000
 30
0.0
 40
0.075000
 50
180.000000
 51
-90.000000
  0
LINE
  8
L1
 10
11.575000
 20
3.325000
 30
0.0
 11
11.575000
 21
4.201570
 31
0.0
  0
ARC
  8
L1
 10
13.150000
 20
1.600000
 30
0.0
 40
0.300000
 50
138.590571
 51
41.409429
  0
LINE
  8
L1
 10
12.925000
 20
1.798430
 30
0.0
 11
12.925000
 21
2.675000
 31
0.0
  0
ARC
  8
L1
 10
13.000000
 20
2.675000
 30
0.0
 40
0.075000
 50
90.000000
 51
180.000000
  0
LINE
  8
L1
 10
13.000000
 20
2.750000
 30
0.0
 11
13.300000
 21
2.750000
 31
0.0
  0
ARC
  8
L1
 10
13.300000
 20
2.675000
 30
0.0
 40
0.075000
 50
0.000000
 51
90.000000
  0
LINE
  8
L1
 10
13.375000
 20
2.675000
 30
0.0
 11
13.375000
 21
1.798430
 31
0.0
  0
ARC
  8
L1
 10
12.700000
 20
4.400000
 30
0.0
 40
0.300000
 50
-41.409429
 51
-138.590571
  0
LINE
  8
L1
 10
12.925000
 20
4.201570
 30
0.0
 11
12.925000
 21
3.325000
 31
0.0
  0
ARC
  8
L1
 10
12.850000
 20
3.325000
 30
0.0
 40
0.075000
 50
-90.000000
 51
0.000000
  0
LINE
  8
L1
 10
12.850000
 20
3.250000
 30
0.0
 11
12.550000
 21
3.250000
 31
0.0
  0
ARC
  8
L1
 10
12.550000
 20
3.325000
 30
0.0
 40
0.075000
 50
180.000000
 51
-90.000000
  0
LINE
  8
L1
 10
12.475000
 20
3.325000
 30
0.0
 11
12.475000
 21
4.201570
 31
0.0
  0
ARC
  8
L1
 10
14.050000
 20
1.600000
 30
0.0
 40
0.300000
 50
138.590571
 51
41.409429
  0
LINE
  8
L1
 10
13.825000
 20
1.798430
 30
0.0
 11
13.825000
 21
2.675000
 31
0.0
  0
ARC
  8
L1
 10
13.900000
 20
2.675000
 30
0.0
 40
0.075000
 50
90.000000
 51
180.000000
  0
LINE
  8
L1
 10
13.900000
 20
2.750000
 30
0.0
 11
14.200000
 21
2.750000
 31
0.0
  0
ARC
  8
L1
 10
14.200000
 20
2.675000
 30
0.0
 40
0.075000
 50
0.000000
 51
90.000000
  0
LINE
  8
L1
 10
14.275000
 20
2.675000
 30
0.0
 11
14.275000
 21
1.798430
 31
0.0
  0
ARC
  8
L1
 10
13.600000
 20
4.400000
 30
0.0
 40
0.300000
 50
-41.409429
 51
-138.590571
  0
LINE
  8
L1
 10
13.825000
 20
4.201570
 30
0.0
 11
13.825000
 21
3.325000
 31
0.0
  0
ARC
  8
L1
 10
13.750000
 20
3.325000
 30
0.0
 40
0.075000
 50
-90.000000
 51
0.000000
  0
LINE
  8
L1
 10
13.750000
 20
3.250000
 30
0.0
 11
13.450000
 21
3.250000
 31
0.0
  0
ARC
  8
L1
 10
13.450000
 20
3.325000
 30
0.0
 40
0.075000
 50
180.000000
 51
-90.000000
  0
LINE
  8
L1
 10
13.375000
 20
3.325000
 30
0.0
 11
13.375000
 21
4.201570
 31
0.0
  0
ARC
  8
L1
 10
14.950000
 20
1.600000
 30
0.0
 40
0.300000
 50
138.590571
 51
41.409429
  0
LINE
  8
L1
 10
14.725000
 20
1.798430
 30
0.0
 11
14.725000
 21
2.675000
 31
0.0
  0
ARC
  8
L1
 10
14.800000
 20
2.675000
 30
0.0
 40
0.075000
 50
90.000000
 51
180.000000
  0
LINE
  8
L1
 10
14.800000
 20
2.750000
 30
0.0
 11
15.100000
 21
2.750000
 31
0.0
  0
ARC
  8
L1
 10
15.100000
 20
2.675000
 30
0.0
 40
0.075000
 50
0.000000
 51
90.000000
  0
LINE
  8
L1
 10
15.175000
 20
2.675000
 30
0.0
 11
15.175000
 21
1.798430
 31
0.0
  0
ARC
  8
L1
 10
14.500000
 20
4.400000
 30
0.0
 40
0.300000
 50
-41.409429
 51
-138.590571
  0
LINE
  8
L1
 10
14.725000
 20
4.201570
 30
0.0
 11
14.725000
 21
3.325000
 31
0.0
  0
ARC
  8
L1
 10
14.650000
 20
3.325000
 30
0.0
 40
0.075000
 50
-90.000000
 51
0.000000
  0
LINE
  8
L1
 10
14.650000
 20
3.250000
 30
0.0
 11
14.350000
 21
3.250000
 31
0.0
  0
ARC
  8
L1
 10
14.350000
 20
3.325000
 30
0.0
 40
0.075000
 50
180.000000
 51
-90.000000
  0
LINE
  8
L1
 10
14.275000
 20
3.325000
 30
0.0
 11
14.275000
 21
4.201570
 31
0.0
  0
ARC
  8
L1
 10
16.450000
 20
1.375000
 30
0.0
 40
0.075000
 50
-90.000000
 51
0.000000
  0
LINE
  8
L1
 10
16.450000
 20
1.300000
 30
0.0
 11
15.700000
 21
1.300000
 31
0.0
  0
ARC
  8
L1
 10
15.700000
 20
1.375000
 30
0.0
 40
0.075000
 50
180.000000
 51
-90.000000
  0
LINE
  8
L1
 10
15.625000
 20
1.375000
 30
0.0
 11
15.625000
 21
2.675000
 31
0.0
  0
ARC
  8
L1
 10
15.700000
 20
2.675000
 30
0.0
 40
0.075000
 50
90.000000
 51
180.000000
  0
LINE
  8
L1
 10
15.700000
 20
2.750000
 30
0.0
 11
16.450000
 21
2.750000
 31
0.0
  0
ARC
  8
L1
 10
16.450000
 20
2.675000
 30
0.0
 40
0.075000
 50
0.000000
 51
90.000000
  0
LINE
  8
L1
 10
16.525000
 20
2.675000
 30
0.0
 11
16.525000
 21
1.375000
 31
0.0
  0
ARC
  8
L1
 10
15.400000
 20
4.400000
 30
0.0
 40
0.300000
 50
-41.409429
 51
-138.590571
  0
LINE
  8
L1
 10
15.625000
 20
4.201570
 30
0.0
 11
15.625000
 21
3.325000
 31
0.0
  0
ARC
  8
L1
 10
15.550000
 20
3.325000
 30
0.0
 40
0.075000
 50
-90.000000
 51
0.000000
  0
LINE
  8
L1
 10
15.550000
 20
3.250000
 30
0.0
 11
15.250000
 21
3.250000
 31
0.0
  0
ARC
  8
L1
 10
15.250000
 20
3.325000
 30
0.0
 40
0.075000
 50
180.000000
 51
-90.000000
  0
LINE
  8
L1
 10
15.175000
 20
3.325000
 30
0.0
 11
15.175000
 21
4.201570
 31
0.0
  0
ARC
  8
L1
 10
16.300000
 20
4.400000
 30
0.0
 40
0.300000
 50
-41.409429
 51
-138.590571
  0
LINE
  8
L1
 10
16.525000
 20
4.201570
 30
0.0
 11
16.525000
 21
3.325000
 31
0.0
  0
ARC
  8
L1
 10
16.450000
 20
3.325000
 30
0.0
 40
0.075000
 50
-90.000000
 51
0.000000
  0
LINE
  8
L1
 10
16.450000
 20
3.250000
 30
0.0
 11
16.150000
 21
3.250000
 31
0.0
  0
ARC
  8
L1
 10
16.150000
 20
3.325000
 30
0.0
 40
0.075000
 50
180.000000
 51
-90.000000
  0
LINE
  8
L1
 10
16.075000
 20
3.325000
 30
0.0
 11
16.075000
 21
4.201570
 31
0.0
  0
CIRCLE
  8
L4
 10
8.650000
 20
1.600000
 30
0.0
 40
0.300000
  0
CIRCLE
  8
L4
 10
4.075000
 20
1.600000
 30
0.0
 40
0.300000
  0
CIRCLE
  8
L4
 10
5.050000
 20
1.600000
 30
0.0
 40
0.300000
  0
CIRCLE
  8
L4
 10
5.950000
 20
1.600000
 30
0.0
 40
0.300000
  0
CIRCLE
  8
L4
 10
6.850000
 20
1.600000
 30
0.0
 40
0.300000
  0
CIRCLE
  8
L4
 10
7.750000
 20
1.600000
 30
0.0
 40
0.300000
  0
CIRCLE
  8
L4
 10
9.550000
 20
1.600000
 30
0.0
 40
0.300000
  0
CIRCLE
  8
L4
 10
10.450000
 20
1.600000
 30
0.0
 40
0.300000
  0
CIRCLE
  8
L4
 10
11.350000
 20
1.600000
 30
0.0
 40
0.300000
  0
CIRCLE
  8
L4
 10
12.250000
 20
1.600000
 30
0.0
 40
0.300000
  0
CIRCLE
  8
L4
 10
13.150000
 20
1.600000
 30
0.0
 40
0.300000
  0
CIRCLE
  8
L4
 10
14.050000
 20
1.600000
 30
0.0
 40
0.300000
  0
CIRCLE
  8
L4
 10
14.950000
 20
1.600000
 30
0.0
 40
0.300000
  0
CIRCLE
  8
L4
 10
15.925000
 20
1.600000
 30
0.0
 40
0.300000
  0
CIRCLE
  8
L4
 10
3.700000
 20
4.400000
 30
0.0
 40
0.300000
  0
CIRCLE
  8
L4
 10
4.600000
 20
4.400000
 30
0.0
 40
0.300000
  0
CIRCLE
  8
L4
 10
5.500000
 20
4.400000
 30
0.0
 40
0.300000
  0
CIRCLE
  8
L4
 10
6.400000
 20
4.400000
 30
0.0
 40
0.300000
  0
CIRCLE
  8
L4
 10
7.300000
 20
4.400000
 30
0.0
 40
0.300000
  0
CIRCLE
  8
L4
 10
8.200000
 20
4.400000
 30
0.0
 40
0.300000
  0
CIRCLE
  8
L4
 10
9.100000
 20
4.400000
 30
0.0
 40
0.300000
  0
CIRCLE
  8
L4
 10
10.000000
 20
4.400000
 30
0.0
 40
0.300000
  0
CIRCLE
  8
L4
 10
10.900000
 20
4.400000
 30
0.0
 40
0.300000
  0
CIRCLE
  8
L4
 10
11.800000
 20
4.400000
 30
0.0
 40
0.300000
  0
CIRCLE
  8
L4
 10
12.700000
 20
4.400000
 30
0.0
 40
0.300000
  0
CIRCLE
  8
L4
 10
13.600000
 20
4.400000
 30
0.0
 40
0.300000
  0
CIRCLE
  8
L4
 10
14.500000
 20
4.400000
 30
0.0
 40
0.300000
  0
CIRCLE
  8
L4
 10
15.400000
 20
4.400000
 30
0.0
 40
0.300000
  0
CIRCLE
  8
L4
 10
16.300000
 20
4.400000
 30
0.0
 40
0.300000
  0
ARC
  8
L4
 10
4.300000
 20
1.375000
 30
0.0
 40
0.075000
 50
-90.000000
 51
0.000000
  0
LINE
  8
L4
 10
4.300000
 20
1.300000
 30
0.0
 11
3.550000
 21
1.300000
 31
0.0
  0
ARC
  8
L4
 10
3.550000
 20
1.375000
 30
0.0
 40
0.075000
 50
180.000000
 51
-90.000000
  0
LINE
  8
L4
 10
3.475000
 20
1.375000
 30
0.0
 11
3.475000
 21
2.675000
 31
0.0
  0
ARC
  8
L4
 10
3.550000
 20
2.675000
 30
0.0
 40
0.075000
 50
90.000000
 51
180.000000
  0
LINE
  8
L4
 10
3.550000
 20
2.750000
 30
0.0
 11
4.300000
 21
2.750000
 31
0.0
  0
ARC
  8
L4
 10
4.300000
 20
2.675000
 30
0.0
 40
0.075000
 50
0.000000
 51
90.000000
  0
LINE
  8
L4
 10
4.375000
 20
2.675000
 30
0.0
 11
4.375000
 21
1.375000
 31
0.0
  0
ARC
  8
L4
 10
3.700000
 20
4.400000
 30
0.0
 40
0.300000
 50
-41.409429
 51
-138.590571
  0
LINE
  8
L4
 10
3.925000
 20
4.201570
 30
0.0
 11
3.925000
 21
3.325000
 31
0.0
  0
ARC
  8
L4
 10
3.850000
 20
3.325000
 30
0.0
 40
0.075000
 50
-90.000000
 51
0.000000
  0
LINE
  8
L4
 10
3.850000
 20
3.250000
 30
0.0
 11
3.550000
 21
3.250000
 31
0.0
  0
ARC
  8
L4
 10
3.550000
 20
3.325000
 30
0.0
 40
0.075000
 50
180.000000
 51
-90.000000
  0
LINE
  8
L4
 10
3.475000
 20
3.325000
 30
0.0
 11
3.475000
 21
4.201570
 31
0.0
  0
ARC
  8
L4
 10
5.050000
 20
1.600000
 30
0.0
 40
0.300000
 50
138.590571
 51
41.409429
  0
LINE
  8
L4
 10
4.825000
 20
1.798430
 30
0.0
 11
4.825000
 21
2.675000
 31
0.0
  0
ARC
  8
L4
 10
4.900000
 20
2.675000
 30
0.0
 40
0.075000
 50
90.000000
 51
180.000000
  0
LINE
  8
L4
 10
4.900000
 20
2.750000
 30
0.0
 11
5.200000
 21
2.750000
 31
0.0
  0
ARC
  8
L4
 10
5.200000
 20
2.675000
 30
0.0
 40
0.075000
 50
0.000000
 51
90.000000
  0
LINE
  8
L4
 10
5.275000
 20
2.675000
 30
0.0
 11
5.275000
 21
1.798430
 31
0.0
  0
ARC
  8
L4
 10
4.600000
 20
4.400000
 30
0.0
 40
0.300000
 50
-41.409429
 51
-138.590571
  0
LINE
  8
L4
 10
4.825000
 20
4.201570
 30
0.0
 11
4.825000
 21
3.325000
 31
0.0
  0
ARC
  8
L4
 10
4.750000
 20
3.325000
 30
0.0
 40
0.075000
 50
-90.000000
 51
0.000000
  0
LINE
  8
L4
 10
4.750000
 20
3.250000
 30
0.0
 11
4.450000
 21
3.250000
 31
0.0
  0
ARC
  8
L4
 10
4.450000
 20
3.325000
 30
0.0
 40
0.075000
 50
180.000000
 51
-90.000000
  0
LINE
  8
L4
 10
4.375000
 20
3.325000
 30
0.0
 11
4.375000
 21
4.201570
 31
0.0
  0
ARC
  8
L4
 10
5.950000
 20
1.600000
 30
0.0
 40
0.300000
 50
138.590571
 51
41.409429
  0
LINE
  8
L4
 10
5.725000
 20
1.798430
 30
0.0
 11
5.725000
 21
2.675000
 31
0.0
  0
ARC
  8
L4
 10
5.800000
 20
2.675000
 30
0.0
 40
0.075000
 50
90.000000
 51
180.000000
  0
LINE
  8
L4
 10
5.800000
 20
2.750000
 30
0.0
 11
6.100000
 21
2.750000
 31
0.0
  0
ARC
  8
L4
 10
6.100000
 20
2.675000
 30
0.0
 40
0.075000
 50
0.000000
 51
90.000000
  0
LINE
  8
L4
 10
6.175000
 20
2.675000
 30
0.0
 11
6.175000
 21
1.798430
 31
0.0
  0
ARC
  8
L4
 10
5.500000
 20
4.400000
 30
0.0
 40
0.300000
 50
-41.409429
 51
-138.590571
  0
LINE
  8
L4
 10
5.725000
 20
4.201570
 30
0.0
 11
5.725000
 21
3.325000
 31
0.0
  0
ARC
  8
L4
 10
5.650000
 20
3.325000
 30
0.0
 40
0.075000
 50
-90.000000
 51
0.000000
  0
LINE
  8
L4
 10
5.650000
 20
3.250000
 30
0.0
 11
5.350000
 21
3.250000
 31
0.0
  0
ARC
  8
L4
 10
5.350000
 20
3.325000
 30
0.0
 40
0.075000
 50
180.000000
 51
-90.000000
  0
LINE
  8
L4
 10
5.275000
 20
3.325000
 30
0.0
 11
5.275000
 21
4.201570
 31
0.0
  0
ARC
  8
L4
 10
6.850000
 20
1.600000
 30
0.0
 40
0.300000
 50
138.590571
 51
41.409429
  0
LINE
  8
L4
 10
6.625000
 20
1.798430
 30
0.0
 11
6.625000
 21
2.675000
 31
0.0
  0
ARC
  8
L4
 10
6.700000
 20
2.675000
 30
0.0
 40
0.075000
 50
90.000000
 51
180.000000
  0
LINE
  8
L4
 10
6.700000
 20
2.750000
 30
0.0
 11
7.000000
 21
2.750000
 31
0.0
  0
ARC
  8
L4
 10
7.000000
 20
2.675000
 30
0.0
 40
0.075000
 50
0.000000
 51
90.000000
  0
LINE
  8
L4
 10
7.075000
 20
2.675000
 30
0.0
 11
7.075000
 21
1.798430
 31
0.0
  0
ARC
  8
L4
 10
6.400000
 20
4.400000
 30
0.0
 40
0.300000
 50
-41.409429
 51
-138.590571
  0
LINE
  8
L4
 10
6.625000
 20
4.201570
 30
0.0
 11
6.625000
 21
3.325000
 31
0.0
  0
ARC
  8
L4
 10
6.550000
 20
3.325000
 30
0.0
 40
0.075000
 50
-90.000000
 51
0.000000
  0
LINE
  8
L4
 10
6.550000
 20
3.250000
 30
0.0
 11
6.250000
 21
3.250000
 31
0.0
  0
ARC
  8
L4
 10
6.250000
 20
3.325000
 30
0.0
 40
0.075000
 50
180.000000
 51
-90.000000
  0
LINE
  8
L4
 10
6.175000
 20
3.325000
 30
0.0
 11
6.175000
 21
4.201570
 31
0.0
  0
ARC
  8
L4
 10
7.750000
 20
1.600000
 30
0.0
 40
0.300000
 50
138.590571
 51
41.409429
  0
LINE
  8
L4
 10
7.525000
 20
1.798430
 30
0.0
 11
7.525000
 21
2.675000
 31
0.0
  0
ARC
  8
L4
 10
7.600000
 20
2.675000
 30
0.0
 40
0.075000
 50
90.000000
 51
180.000000
  0
LINE
  8
L4
 10
7.600000
 20
2.750000
 30
0.0
 11
7.900000
 21
2.750000
 31
0.0
  0
ARC
  8
L4
 10
7.900000
 20
2.675000
 30
0.0
 40
0.075000
 50
0.000000
 51
90.000000
  0
LINE
  8
L4
 10
7.975000
 20
2.675000
 30
0.0
 11
7.975000
 21
1.798430
 31
0.0
  0
ARC
  8
L4
 10
7.300000
 20
4.400000
 30
0.0
 40
0.300000
 50
-41.409429
 51
-138.590571
  0
LINE
  8
L4
 10
7.525000
 20
4.201570
 30
0.0
 11
7.525000
 21
3.325000
 31
0.0
  0
ARC
  8
L4
 10
7.450000
 20
3.325000
 30
0.0
 40
0.075000
 50
-90.000000
 51
0.000000
  0
LINE
  8
L4
 10
7.450000
 20
3.250000
 30
0.0
 11
7.150000
 21
3.250000
 31
0.0
  0
ARC
  8
L4
 10
7.150000
 20
3.325000
 30
0.0
 40
0.075000
 50
180.000000
 51
-90.000000
  0
LINE
  8
L4
 10
7.075000
 20
3.325000
 30
0.0
 11
7.075000
 21
4.201570
 31
0.0
  0
ARC
  8
L4
 10
8.650000
 20
1.600000
 30
0.0
 40
0.300000
 50
138.590571
 51
41.409429
  0
LINE
  8
L4
 10
8.425000
 20
1.798430
 30
0.0
 11
8.425000
 21
2.675000
 31
0.0
  0
ARC
  8
L4
 10
8.500000
 20
2.675000
 30
0.0
 40
0.075000
 50
90.000000
 51
180.000000
  0
LINE
  8
L4
 10
8.500000
 20
2.750000
 30
0.0
 11
8.800000
 21
2.750000
 31
0.0
  0
ARC
  8
L4
 10
8.800000
 20
2.675000
 30
0.0
 40
0.075000
 50
0.000000
 51
90.000000
  0
LINE
  8
L4
 10
8.875000
 20
2.675000
 30
0.0
 11
8.875000
 21
1.798430
 31
0.0
  0
ARC
  8
L4
 10
8.200000
 20
4.400000
 30
0.0
 40
0.300000
 50
-41.409429
 51
-138.590571
  0
LINE
  8
L4
 10
8.425000
 20
4.201570
 30
0.0
 11
8.425000
 21
3.325000
 31
0.0
  0
ARC
  8
L4
 10
8.350000
 20
3.325000
 30
0.0
 40
0.075000
 50
-90.000000
 51
0.000000
  0
LINE
  8
L4
 10
8.350000
 20
3.250000
 30
0.0
 11
8.050000
 21
3.250000
 31
0.0
  0
ARC
  8
L4
 10
8.050000
 20
3.325000
 30
0.0
 40
0.075000
 50
180.000000
 51
-90.000000
  0
LINE
  8
L4
 10
7.975000
 20
3.325000
 30
0.0
 11
7.975000
 21
4.201570
 31
0.0
  0
ARC
  8
L4
 10
9.550000
 20
1.600000
 30
0.0
 40
0.300000
 50
138.590571
 51
41.409429
  0
LINE
  8
L4
 10
9.325000
 20
1.798430
 30
0.0
 11
9.325000
 21
2.675000
 31
0.0
  0
ARC
  8
L4
 10
9.400000
 20
2.675000
 30
0.0
 40
0.075000
 50
90.000000
 51
180.000000
  0
LINE
  8
L4
 10
9.400000
 20
2.750000
 30
0.0
 11
9.700000
 21
2.750000
 31
0.0
  0
ARC
  8
L4
 10
9.700000
 20
2.675000
 30
0.0
 40
0.075000
 50
0.000000
 51
90.000000
  0
LINE
  8
L4
 10
9.775000
 20
2.675000
 30
0.0
 11
9.775000
 21
1.798430
 31
0.0
  0
ARC
  8
L4
 10
9.100000
 20
4.400000
 30
0.0
 40
0.300000
 50
-41.409429
 51
-138.590571
  0
LINE
  8
L4
 10
9.325000
 20
4.201570
 30
0.0
 11
9.325000
 21
3.325000
 31
0.0
  0
ARC
  8
L4
 10
9.250000
 20
3.325000
 30
0.0
 40
0.075000
 50
-90.000000
 51
0.000000
  0
LINE
  8
L4
 10
9.250000
 20
3.250000
 30
0.0
 11
8.950000
 21
3.250000
 31
0.0
  0
ARC
  8
L4
 10
8.950000
 20
3.325000
 30
0.0
 40
0.075000
 50
180.000000
 51
-90.000000
  0
LINE
  8
L4
 10
8.875000
 20
3.325000
 30
0.0
 11
8.875000
 21
4.201570
 31
0.0
  0
ARC
  8
L4
 10
10.450000
 20
1.600000
 30
0.0
 40
0.300000
 50
138.590571
 51
41.409429
  0
LINE
  8
L4
 10
10.225000
 20
1.798430
 30
0.0
 11
10.225000
 21
2.675000
 31
0.0
  0
ARC
  8
L4
 10
10.300000
 20
2.675000
 30
0.0
 40
0.075000
 50
90.000000
 51
180.000000
  0
LINE
  8
L4
 10
10.300000
 20
2.750000
 30
0.0
 11
10.600000
 21
2.750000
 31
0.0
  0
ARC
  8
L4
 10
10.600000
 20
2.675000
 30
0.0
 40
0.075000
 50
0.000000
 51
90.000000
  0
LINE
  8
L4
 10
10.675000
 20
2.675000
 30
0.0
 11
10.675000
 21
1.798430
 31
0.0
  0
ARC
  8
L4
 10
10.000000
 20
4.400000
 30
0.0
 40
0.300000
 50
-41.409429
 51
-138.590571
  0
LINE
  8
L4
 10
10.225000
 20
4.201570
 30
0.0
 11
10.225000
 21
3.325000
 31
0.0
  0
ARC
  8
L4
 10
10.150000
 20
3.325000
 30
0.0
 40
0.075000
 50
-90.000000
 51
0.000000
  0
LINE
  8
L4
 10
10.150000
 20
3.250000
 30
0.0
 11
9.850000
 21
3.250000
 31
0.0
  0
ARC
  8
L4
 10
9.850000
 20
3.325000
 30
0.0
 40
0.075000
 50
180.000000
 51
-90.000000
  0
LINE
  8
L4
 10
9.775000
 20
3.325000
 30
0.0
 11
9.775000
 21
4.201570
 31
0.0
  0
ARC
  8
L4
 10
11.350000
 20
1.600000
 30
0.0
 40
0.300000
 50
138.590571
 51
41.409429
  0
LINE
  8
L4
 10
11.125000
 20
1.798430
 30
0.0
 11
11.125000
 21
2.675000
 31
0.0
  0
ARC
  8
L4
 10
11.200000
 20
2.675000
 30
0.0
 40
0.075000
 50
90.000000
 51
180.000000
  0
LINE
  8
L4
 10
11.200000
 20
2.750000
 30
0.0
 11
11.500000
 21
2.750000
 31
0.0
  0
ARC
  8
L4
 10
11.500000
 20
2.675000
 30
0.0
 40
0.075000
 50
0.000000
 51
90.000000
  0
LINE
  8
L4
 10
11.575000
 20
2.675000
 30
0.0
 11
11.575000
 21
1.798430
 31
0.0
  0
ARC
  8
L4
 10
10.900000
 20
4.400000
 30
0.0
 40
0.300000
 50
-41.409429
 51
-138.590571
  0
LINE
  8
L4
 10
11.125000
 20
4.201570
 30
0.0
 11
11.125000
 21
3.325000
 31
0.0
  0
ARC
  8
L4
 10
11.050000
 20
3.325000
 30
0.0
 40
0.075000
 50
-90.000000
 51
0.000000
  0
LINE
  8
L4
 10
11.050000
 20
3.250000
 30
0.0
 11
10.750000
 21
3.250000
 31
0.0
  0
ARC
  8
L4
 10
10.750000
 20
3.325000
 30
0.0
 40
0.075000
 50
180.000000
 51
-90.000000
  0
LINE
  8
L4
 10
10.675000
 20
3.325000
 30
0.0
 11
10.675000
 21
4.201570
 31
0.0
  0
ARC
  8
L4
 10
12.250000
 20
1.600000
 30
0.0
 40
0.300000
 50
138.590571
 51
41.409429
  0
LINE
  8
L4
 10
12.025000
 20
1.798430
 30
0.0
 11
12.025000
 21
2.675000
 31
0.0
  0
ARC
  8
L4
 10
12.100000
 20
2.675000
 30
0.0
 40
0.075000
 50
90.000000
 51
180.000000
  0
LINE
  8
L4
 10
12.100000
 20
2.750000
 30
0.0
 11
12.400000
 21
2.750000
 31
0.0
  0
ARC
  8
L4
 10
12.400000
 20
2.675000
 30
0.0
 40
0.075000
 50
0.000000
 51
90.000000
  0
LINE
  8
L4
 10
12.475000
 20
2.675000
 30
0.0
 11
12.475000
 21
1.798430
 31
0.0
  0
ARC
  8
L4
 10
11.800000
 20
4.400000
 30
0.0
 40
0.300000
 50
-41.409429
 51
-138.590571
  0
LINE
  8
L4
 10
12.025000
 20
4.201570
 30
0.0
 11
12.025000
 21
3.325000
 31
0.0
  0
ARC
  8
L4
 10
11.950000
 20
3.325000
 30
0.0
 40
0.075000
 50
-90.000000
 51
0.000000
  0
LINE
  8
L4
 10
11.950000
 20
3.250000
 30
0.0
 11
11.650000
 21
3.250000
 31
0.0
  0
ARC
  8
L4
 10
11.650000
 20
3.325000
 30
0.0
 40
0.075000
 50
180.000000
 51
-90.000000
  0
LINE
  8
L4
 10
11.575000
 20
3.325000
 30
0.0
 11
11.575000
 21
4.201570
 31
0.0
  0
ARC
  8
L4
 10
13.150000
 20
1.600000
 30
0.0
 40
0.300000
 50
138.590571
 51
41.409429
  0
LINE
  8
L4
 10
12.925000
 20
1.798430
 30
0.0
 11
12.925000
 21
2.675000
 31
0.0
  0
ARC
  8
L4
 10
13.000000
 20
2.675000
 30
0.0
 40
0.075000
 50
90.000000
 51
180.000000
  0
LINE
  8
L4
 10
13.000000
 20
2.750000
 30
0.0
 11
13.300000
 21
2.750000
 31
0.0
  0
ARC
  8
L4
 10
13.300000
 20
2.675000
 30
0.0
 40
0.075000
 50
0.000000
 51
90.000000
  0
LINE
  8
L4
 10
13.375000
 20
2.675000
 30
0.0
 11
13.375000
 21
1.798430
 31
0.0
  0
ARC
  8
L4
 10
12.700000
 20
4.400000
 30
0.0
 40
0.300000
 50
-41.409429
 51
-138.590571
  0
LINE
  8
L4
 10
12.925000
 20
4.201570
 30
0.0
 11
12.925000
 21
3.325000
 31
0.0
  0
ARC
  8
L4
 10
12.850000
 20
3.325000
 30
0.0
 40
0.075000
 50
-90.000000
 51
0.000000
  0
LINE
  8
L4
 10
12.850000
 20
3.250000
 30
0.0
 11
12.550000
 21
3.250000
 31
0.0
  0
ARC
  8
L4
 10
12.550000
 20
3.325000
 30
0.0
 40
0.075000
 50
180.000000
 51
-90.000000
  0
LINE
  8
L4
 10
12.475000
 20
3.325000
 30
0.0
 11
12.475000
 21
4.201570
 31
0.0
  0
ARC
  8
L4
 10
14.050000
 20
1.600000
 30
0.0
 40
0.300000
 50
138.590571
 51
41.409429
  0
LINE
  8
L4
 10
13.825000
 20
1.798430
 30
0.0
 11
13.825000
 21
2.675000
 31
0.0
  0
ARC
  8
L4
 10
13.900000
 20
2.675000
 30
0.0
 40
0.075000
 50
90.000000
 51
180.000000
  0
LINE
  8
L4
 10
13.900000
 20
2.750000
 30
0.0
 11
14.200000
 21
2.750000
 31
0.0
  0
ARC
  8
L4
 10
14.200000
 20
2.675000
 30
0.0
 40
0.075000
 50
0.000000
 51
90.000000
  0
LINE
  8
L4
 10
14.275000
 20
2.675000
 30
0.0
 11
14.275000
 21
1.798430
 31
0.0
  0
ARC
  8
L4
 10
13.600000
 20
4.400000
 30
0.0
 40
0.300000
 50
-41.409429
 51
-138.590571
  0
LINE
  8
L4
 10
13.825000
 20
4.201570
 30
0.0
 11
13.825000
 21
3.325000
 31
0.0
  0
ARC
  8
L4
 10
13.750000
 20
3.325000
 30
0.0
 40
0.075000
 50
-90.000000
 51
0.000000
  0
LINE
  8
L4
 10
13.750000
 20
3.250000
 30
0.0
 11
13.450000
 21
3.250000
 31
0.0
  0
ARC
  8
L4
 10
13.450000
 20
3.325000
 30
0.0
 40
0.075000
 50
180.000000
 51
-90.000000
  0
LINE
  8
L4
 10
13.375000
 20
3.325000
 30
0.0
 11
13.375000
 21
4.201570
 31
0.0
  0
ARC
  8
L4
 10
14.950000
 20
1.600000
 30
0.0
 40
0.300000
 50
138.590571
 51
41.409429
  0
LINE
  8
L4
 10
14.725000
 20
1.798430
 30
0.0
 11
14.725000
 21
2.675000
 31
0.0
  0
ARC
  8
L4
 10
14.800000
 20
2.675000
 30
0.0
 40
0.075000
 50
90.000000
 51
180.000000
  0
LINE
  8
L4
 10
14.800000
 20
2.750000
 30
0.0
 11
15.100000
 21
2.750000
 31
0.0
  0
ARC
  8
L4
 10
15.100000
 20
2.675000
 30
0.0
 40
0.075000
 50
0.000000
 51
90.000000
  0
LINE
  8
L4
 10
15.175000
 20
2.675000
 30
0.0
 11
15.175000
 21
1.798430
 31
0.0
  0
ARC
  8
L4
 10
14.500000
 20
4.400000
 30
0.0
 40
0.300000
 50
-41.409429
 51
-138.590571
  0
LINE
  8
L4
 10
14.725000
 20
4.201570
 30
0.0
 11
14.725000
 21
3.325000
 31
0.0
  0
ARC
  8
L4
 10
14.650000
 20
3.325000
 30
0.0
 40
0.075000
 50
-90.000000
 51
0.000000
  0
LINE
  8
L4
 10
14.650000
 20
3.250000
 30
0.0
 11
14.350000
 21
3.250000
 31
0.0
  0
ARC
  8
L4
 10
14.350000
 20
3.325000
 30
0.0
 40
0.075000
 50
180.000000
 51
-90.000000
  0
LINE
  8
L4
 10
14.275000
 20
3.325000
 30
0.0
 11
14.275000
 21
4.201570
 31
0.0
  0
ARC
  8
L4
 10
16.450000
 20
1.375000
 30
0.0
 40
0.075000
 50
-90.000000
 51
0.000000
  0
LINE
  8
L4
 10
16.450000
 20
1.300000
 30
0.0
 11
15.700000
 21
1.300000
 31
0.0
  0
ARC
  8
L4
 10
15.700000
 20
1.375000
 30
0.0
 40
0.075000
 50
180.000000
 51
-90.000000
  0
LINE
  8
L4
 10
15.625000
 20
1.375000
 30
0.0
 11
15.625000
 21
2.675000
 31
0.0
  0
ARC
  8
L4
 10
15.700000
 20
2.675000
 30
0.0
 40
0.075000
 50
90.000000
 51
180.000000
  0
LINE
  8
L4
 10
15.700000
 20
2.750000
 30
0.0
 11
16.450000
 21
2.750000
 31
0.0
  0
ARC
  8
L4
 10
16.450000
 20
2.675000
 30
0.0
 40
0.075000
 50
0.000000
 51
90.000000
  0
LINE
  8
L4
 10
16.525000
 20
2.675000
 30
0.0
 11
16.525000
 21
1.375000
 31
0.0
  0
ARC
  8
L4
 10
15.400000
 20
4.400000
 30
0.0
 40
0.300000
 50
-41.409429
 51
-138.590571
  0
LINE
  8
L4
 10
15.625000
 20
4.201570
 30
0.0
 11
15.625000
 21
3.325000
 31
0.0
  0
ARC
  8
L4
 10
15.550000
 20
3.325000
 30
0.0
 40
0.075000
 50
-90.000000
 51
0.000000
  0
LINE
  8
L4
 10
15.550000
 20
3.250000
 30
0.0
 11
15.250000
 21
3.250000
 31
0.0
  0
ARC
  8
L4
 10
15.250000
 20
3.325000
 30
0.0
 40
0.075000
 50
180.000000
 51
-90.000000
  0
LINE
  8
L4
 10
15.175000
 20
3.325000
 30
0.0
 11
15.175000
 21
4.201570
 31
0.0
  0
ARC
  8
L4
 10
16.300000
 20
4.400000
 30
0.0
 40
0.300000
 50
-41.409429
 51
-138.590571
  0
LINE
  8
L4
 10
16.525000
 20
4.201570
 30
0.0
 11
16.525000
 21
3.325000
 31
0.0
  0
ARC
  8
L4
 10
16.450000
 20
3.325000
 30
0.0
 40
0.075000
 50
-90.000000
 51
0.000000
  0
LINE
  8
L4
 10
16.450000
 20
3.250000
 30
0.0
 11
16.150000
 21
3.250000
 31
0.0
  0
ARC
  8
L4
 10
16.150000
 20
3.325000
 30
0.0
 40
0.075000
 50
180.000000
 51
-90.000000
  0
LINE
  8
L4
 10
16.075000
 20
3.325000
 30
0.0
 11
16.075000
 21
4.201570
 31
0.0
  0
ARC
  8
Resist-A
 10
3.075000
 20
1.575000
 30
0.0
 40
0.075000
 50
180.000000
 51
-90.000000
  0
LINE
  8
Resist-A
 10
3.000000
 20
1.575000
 30
0.0
 11
3.000000
 21
1.730000
 31
0.0
  0
LINE
  8
Resist-A
 10
3.000000
 20
1.730000
 30
0.0
 11
1.750000
 21
1.730000
 31
0.0
  0
ARC
  8
Resist-A
 10
1.750000
 20
3.000000
 30
0.0
 40
1.270000
 50
90.000000
 51
-90.000000
  0
LINE
  8
Resist-A
 10
1.750000
 20
4.270000
 30
0.0
 11
3.000000
 21
4.270000
 31
0.0
  0
LINE
  8
Resist-A
 10
3.000000
 20
4.270000
 30
0.0
 11
3.000000
 21
4.425000
 31
0.0
  0
ARC
  8
Resist-A
 10
3.075000
 20
4.425000
 30
0.0
 40
0.075000
 50
90.000000
 51
180.000000
  0
LINE
  8
Resist-A
 10
3.075000
 20
4.500000
 30
0.0
 11
16.925000
 21
4.500000
 31
0.0
  0
ARC
  8
Resist-A
 10
16.925000
 20
4.425000
 30
0.0
 40
0.075000
 50
0.000000
 51
90.000000
  0
LINE
  8
Resist-A
 10
17.000000
 20
4.425000
 30
0.0
 11
17.000000
 21
4.270000
 31
0.0
  0
LINE
  8
Resist-A
 10
17.000000
 20
4.270000
 30
0.0
 11
18.250000
 21
4.270000
 31
0.0
  0
ARC
  8
Resist-A
 10
18.250000
 20
3.000000
 30
0.0
 40
1.270000
 50
-90.000000
 51
90.000000
  0
LINE
  8
Resist-A
 10
18.250000
 20
1.730000
 30
0.0
 11
17.000000
 21
1.730000
 31
0.0
  0
LINE
  8
Resist-A
 10
17.000000
 20
1.730000
 30
0.0
 11
17.000000
 21
1.575000
 31
0.0
  0
ARC
  8
Resist-A
 10
16.925000
 20
1.575000
 30
0.0
 40
0.075000
 50
-90.000000
 51
0.000000
  0
LINE
  8
Resist-A
 10
16.925000
 20
1.500000
 30
0.0
 11
3.075000
 21
1.500000
 31
0.0
  0
CIRCLE
  8
Resist-A
 10
8.650000
 20
1.600000
 30
0.0
 40
0.250000
  0
CIRCLE
  8
Resist-A
 10
1.750000
 20
3.000000
 30
0.0
 40
1.270000
  0
CIRCLE
  8
Resist-A
 10
18.250000
 20
3.000000
 30
0.0
 40
1.270000
  0
CIRCLE
  8
Resist-A
 10
4.075000
 20
1.600000
 30
0.0
 40
0.250000
  0
CIRCLE
  8
Resist-A
 10
5.050000
 20
1.600000
 30
0.0
 40
0.250000
  0
CIRCLE
  8
Resist-A
 10
5.950000
 20
1.600000
 30
0.0
 40
0.250000
  0
CIRCLE
  8
Resist-A
 10
6.850000
 20
1.600000
 30
0.0
 40
0.250000
  0
CIRCLE
  8
Resist-A
 10
7.750000
 20
1.600000
 30
0.0
 40
0.250000
  0
CIRCLE
  8
Resist-A
 10
9.550000
 20
1.600000
 30
0.0
 40
0.250000
  0
CIRCLE
  8
Resist-A
 10
10.450000
 20
1.600000
 30
0.0
 40
0.250000
  0
CIRCLE
  8
Resist-A
 10
11.350000
 20
1.600000
 30
0.0
 40
0.250000
  0
CIRCLE
  8
Resist-A
 10
12.250000
 20
1.600000
 30
0.0
 40
0.250000
  0
CIRCLE
  8
Resist-A
 10
13.150000
 20
1.600000
 30
0.0
 40
0.250000
  0
CIRCLE
  8
Resist-A
 10
14.050000
 20
1.600000
 30
0.0
 40
0.250000
  0
CIRCLE
  8
Resist-A
 10
14.950000
 20
1.600000
 30
0.0
 40
0.250000
  0
CIRCLE
  8
Resist-A
 10
15.925000
 20
1.600000
 30
0.0
 40
0.250000
  0
CIRCLE
  8
Resist-A
 10
3.700000
 20
4.400000
 30
0.0
 40
0.250000
  0
CIRCLE
  8
Resist-A
 10
4.600000
 20
4.400000
 30
0.0
 40
0.250000
  0
CIRCLE
  8
Resist-A
 10
5.500000
 20
4.400000
 30
0.0
 40
0.250000
  0
CIRCLE
  8
Resist-A
 10
6.400000
 20
4.400000
 30
0.0
 40
0.250000
  0
CIRCLE
  8
Resist-A
 10
7.300000
 20
4.400000
 30
0.0
 40
0.250000
  0
CIRCLE
  8
Resist-A
 10
8.200000
 20
4.400000
 30
0.0
 40
0.250000
  0
CIRCLE
  8
Resist-A
 10
9.100000
 20
4.400000
 30
0.0
 40
0.250000
  0
CIRCLE
  8
Resist-A
 10
10.000000
 20
4.400000
 30
0.0
 40
0.250000
  0
CIRCLE
  8
Resist-A
 10
10.900000
 20
4.400000
 30
0.0
 40
0.250000
  0
CIRCLE
  8
Resist-A
 10
11.800000
 20
4.400000
 30
0.0
 40
0.250000
  0
CIRCLE
  8
Resist-A
 10
12.700000
 20
4.400000
 30
0.0
 40
0.250000
  0
CIRCLE
  8
Resist-A
 10
13.600000
 20
4.400000
 30
0.0
 40
0.250000
  0
CIRCLE
  8
Resist-A
 10
14.500000
 20
4.400000
 30
0.0
 40
0.250000
  0
CIRCLE
  8
Resist-A
 10
15.400000
 20
4.400000
 30
0.0
 40
0.250000
  0
CIRCLE
  8
Resist-A
 10
16.300000
 20
4.400000
 30
0.0
 40
0.250000
  0
LINE
  8
PartsArea-A
 10
0.000000
 20
0.000000
 30
0.0
 11
0.000000
 21
0.500000
 31
0.0
  0
ARC
  8
PartsArea-A
 10
0.000000
 20
1.000000
 30
0.0
 40
0.500000
 50
-90.000000
 51
90.000000
  0
LINE
  8
PartsArea-A
 10
0.000000
 20
1.500000
 30
0.0
 11
0.000000
 21
4.500000
 31
0.0
  0
ARC
  8
PartsArea-A
 10
1.000000
 20
4.500000
 30
0.0
 40
1.000000
 50
90.000000
 51
180.000000
  0
LINE
  8
PartsArea-A
 10
1.000000
 20
5.500000
 30
0.0
 11
19.000000
 21
5.500000
 31
0.0
  0
ARC
  8
PartsArea-A
 10
19.000000
 20
4.500000
 30
0.0
 40
1.000000
 50
0.000000
 51
90.000000
  0
LINE
  8
PartsArea-A
 10
20.000000
 20
4.500000
 30
0.0
 11
20.000000
 21
1.500000
 31
0.0
  0
ARC
  8
PartsArea-A
 10
20.000000
 20
1.000000
 30
0.0
 40
0.500000
 50
90.000000
 51
-90.000000
  0
LINE
  8
PartsArea-A
 10
20.000000
 20
0.500000
 30
0.0
 11
20.000000
 21
0.000000
 31
0.0
  0
LINE
  8
PartsArea-A
 10
20.000000
 20
0.000000
 30
0.0
 11
0.000000
 21
0.000000
 31
0.0
  0
ARC
  8
Resist-B
 10
3.075000
 20
1.575000
 30
0.0
 40
0.075000
 50
180.000000
 51
-90.000000
  0
LINE
  8
Resist-B
 10
3.000000
 20
1.575000
 30
0.0
 11
3.000000
 21
1.730000
 31
0.0
  0
LINE
  8
Resist-B
 10
3.000000
 20
1.730000
 30
0.0
 11
1.750000
 21
1.730000
 31
0.0
  0
ARC
  8
Resist-B
 10
1.750000
 20
3.000000
 30
0.0
 40
1.270000
 50
90.000000
 51
-90.000000
  0
LINE
  8
Resist-B
 10
1.750000
 20
4.270000
 30
0.0
 11
3.000000
 21
4.270000
 31
0.0
  0
LINE
  8
Resist-B
 10
3.000000
 20
4.270000
 30
0.0
 11
3.000000
 21
4.425000
 31
0.0
  0
ARC
  8
Resist-B
 10
3.075000
 20
4.425000
 30
0.0
 40
0.075000
 50
90.000000
 51
180.000000
  0
LINE
  8
Resist-B
 10
3.075000
 20
4.500000
 30
0.0
 11
16.925000
 21
4.500000
 31
0.0
  0
ARC
  8
Resist-B
 10
16.925000
 20
4.425000
 30
0.0
 40
0.075000
 50
0.000000
 51
90.000000
  0
LINE
  8
Resist-B
 10
17.000000
 20
4.425000
 30
0.0
 11
17.000000
 21
4.270000
 31
0.0
  0
LINE
  8
Resist-B
 10
17.000000
 20
4.270000
 30
0.0
 11
18.250000
 21
4.270000
 31
0.0
  0
ARC
  8
Resist-B
 10
18.250000
 20
3.000000
 30
0.0
 40
1.270000
 50
-90.000000
 51
90.000000
  0
LINE
  8
Resist-B
 10
18.250000
 20
1.730000
 30
0.0
 11
17.000000
 21
1.730000
 31
0.0
  0
LINE
  8
Resist-B
 10
17.000000
 20
1.730000
 30
0.0
 11
17.000000
 21
1.575000
 31
0.0
  0
ARC
  8
Resist-B
 10
16.925000
 20
1.575000
 30
0.0
 40
0.075000
 50
-90.000000
 51
0.000000
  0
LINE
  8
Resist-B
 10
16.925000
 20
1.500000
 30
0.0
 11
3.075000
 21
1.500000
 31
0.0
  0
CIRCLE
  8
Resist-B
 10
8.650000
 20
1.600000
 30
0.0
 40
0.250000
  0
CIRCLE
  8
Resist-B
 10
1.750000
 20
3.000000
 30
0.0
 40
1.270000
  0
CIRCLE
  8
Resist-B
 10
18.250000
 20
3.000000
 30
0.0
 40
1.270000
  0
CIRCLE
  8
Resist-B
 10
4.075000
 20
1.600000
 30
0.0
 40
0.250000
  0
CIRCLE
  8
Resist-B
 10
5.050000
 20
1.600000
 30
0.0
 40
0.250000
  0
CIRCLE
  8
Resist-B
 10
5.950000
 20
1.600000
 30
0.0
 40
0.250000
  0
CIRCLE
  8
Resist-B
 10
6.850000
 20
1.600000
 30
0.0
 40
0.250000
  0
CIRCLE
  8
Resist-B
 10
7.750000
 20
1.600000
 30
0.0
 40
0.250000
  0
CIRCLE
  8
Resist-B
 10
9.550000
 20
1.600000
 30
0.0
 40
0.250000
  0
CIRCLE
  8
Resist-B
 10
10.450000
 20
1.600000
 30
0.0
 40
0.250000
  0
CIRCLE
  8
Resist-B
 10
11.350000
 20
1.600000
 30
0.0
 40
0.250000
  0
CIRCLE
  8
Resist-B
 10
12.250000
 20
1.600000
 30
0.0
 40
0.250000
  0
CIRCLE
  8
Resist-B
 10
13.150000
 20
1.600000
 30
0.0
 40
0.250000
  0
CIRCLE
  8
Resist-B
 10
14.050000
 20
1.600000
 30
0.0
 40
0.250000
  0
CIRCLE
  8
Resist-B
 10
14.950000
 20
1.600000
 30
0.0
 40
0.250000
  0
CIRCLE
  8
Resist-B
 10
15.925000
 20
1.600000
 30
0.0
 40
0.250000
  0
CIRCLE
  8
Resist-B
 10
3.700000
 20
4.400000
 30
0.0
 40
0.250000
  0
CIRCLE
  8
Resist-B
 10
4.600000
 20
4.400000
 30
0.0
 40
0.250000
  0
CIRCLE
  8
Resist-B
 10
5.500000
 20
4.400000
 30
0.0
 40
0.250000
  0
CIRCLE
  8
Resist-B
 10
6.400000
 20
4.400000
 30
0.0
 40
0.250000
  0
CIRCLE
  8
Resist-B
 10
7.300000
 20
4.400000
 30
0.0
 40
0.250000
  0
CIRCLE
  8
Resist-B
 10
8.200000
 20
4.400000
 30
0.0
 40
0.250000
  0
CIRCLE
  8
Resist-B
 10
9.100000
 20
4.400000
 30
0.0
 40
0.250000
  0
CIRCLE
  8
Resist-B
 10
10.000000
 20
4.400000
 30
0.0
 40
0.250000
  0
CIRCLE
  8
Resist-B
 10
10.900000
 20
4.400000
 30
0.0
 40
0.250000
  0
CIRCLE
  8
Resist-B
 10
11.800000
 20
4.400000
 30
0.0
 40
0.250000
  0
CIRCLE
  8
Resist-B
 10
12.700000
 20
4.400000
 30
0.0
 40
0.250000
  0
CIRCLE
  8
Resist-B
 10
13.600000
 20
4.400000
 30
0.0
 40
0.250000
  0
CIRCLE
  8
Resist-B
 10
14.500000
 20
4.400000
 30
0.0
 40
0.250000
  0
CIRCLE
  8
Resist-B
 10
15.400000
 20
4.400000
 30
0.0
 40
0.250000
  0
CIRCLE
  8
Resist-B
 10
16.300000
 20
4.400000
 30
0.0
 40
0.250000
  0
LINE
  8
PartsArea-B
 10
0.000000
 20
0.000000
 30
0.0
 11
0.000000
 21
0.500000
 31
0.0
  0
ARC
  8
PartsArea-B
 10
0.000000
 20
1.000000
 30
0.0
 40
0.500000
 50
-90.000000
 51
90.000000
  0
LINE
  8
PartsArea-B
 10
0.000000
 20
1.500000
 30
0.0
 11
0.000000
 21
4.500000
 31
0.0
  0
ARC
  8
PartsArea-B
 10
1.000000
 20
4.500000
 30
0.0
 40
1.000000
 50
90.000000
 51
180.000000
  0
LINE
  8
PartsArea-B
 10
1.000000
 20
5.500000
 30
0.0
 11
19.000000
 21
5.500000
 31
0.0
  0
ARC
  8
PartsArea-B
 10
19.000000
 20
4.500000
 30
0.0
 40
1.000000
 50
0.000000
 51
90.000000
  0
LINE
  8
PartsArea-B
 10
20.000000
 20
4.500000
 30
0.0
 11
20.000000
 21
1.500000
 31
0.0
  0
ARC
  8
PartsArea-B
 10
20.000000
 20
1.000000
 30
0.0
 40
0.500000
 50
90.000000
 51
-90.000000
  0
LINE
  8
PartsArea-B
 10
20.000000
 20
0.500000
 30
0.0
 11
20.000000
 21
0.000000
 31
0.0
  0
LINE
  8
PartsArea-B
 10
20.000000
 20
0.000000
 30
0.0
 11
0.000000
 21
0.000000
 31
0.0
  0
ARC
  8
PartsSilk-A
 10
9.344440
 20
2.887040
 30
0.0
 40
0.025000
 50
-140.209101
 51
39.800498
  0
LINE
  8
PartsSilk-A
 10
9.325230
 20
2.871040
 30
0.0
 11
9.302020
 21
2.898900
 31
0.0
  0
LINE
  8
PartsSilk-A
 10
9.302020
 20
2.898900
 30
0.0
 11
9.245940
 21
2.917590
 31
0.0
  0
LINE
  8
PartsSilk-A
 10
9.245940
 20
2.917590
 30
0.0
 11
9.226120
 21
2.917590
 31
0.0
  0
LINE
  8
PartsSilk-A
 10
9.226120
 20
2.917590
 30
0.0
 11
9.167020
 21
2.898680
 31
0.0
  0
LINE
  8
PartsSilk-A
 10
9.167020
 20
2.898680
 30
0.0
 11
9.136180
 21
2.863440
 31
0.0
  0
LINE
  8
PartsSilk-A
 10
9.136180
 20
2.863440
 30
0.0
 11
9.125000
 21
2.827660
 31
0.0
  0
LINE
  8
PartsSilk-A
 10
9.125000
 20
2.827660
 30
0.0
 11
9.125000
 21
2.772340
 31
0.0
  0
LINE
  8
PartsSilk-A
 10
9.125000
 20
2.772340
 30
0.0
 11
9.136180
 21
2.736560
 31
0.0
  0
LINE
  8
PartsSilk-A
 10
9.136180
 20
2.736560
 30
0.0
 11
9.167020
 21
2.701320
 31
0.0
  0
LINE
  8
PartsSilk-A
 10
9.167020
 20
2.701320
 30
0.0
 11
9.226120
 21
2.682410
 31
0.0
  0
LINE
  8
PartsSilk-A
 10
9.226120
 20
2.682410
 30
0.0
 11
9.245940
 21
2.682410
 31
0.0
  0
LINE
  8
PartsSilk-A
 10
9.245940
 20
2.682410
 30
0.0
 11
9.300230
 21
2.700500
 31
0.0
  0
LINE
  8
PartsSilk-A
 10
9.300230
 20
2.700500
 30
0.0
 11
9.323240
 21
2.737320
 31
0.0
  0
ARC
  8
PartsSilk-A
 10
9.344440
 20
2.724070
 30
0.0
 40
0.025000
 50
-32.005383
 51
147.999253
  0
LINE
  8
PartsSilk-A
 10
9.365640
 20
2.710820
 30
0.0
 11
9.337870
 21
2.666380
 31
0.0
  0
ARC
  8
PartsSilk-A
 10
9.316670
 20
2.679630
 30
0.0
 40
0.025000
 50
-71.579545
 51
-32.005383
  0
LINE
  8
PartsSilk-A
 10
9.324570
 20
2.655910
 30
0.0
 11
9.257900
 21
2.633690
 31
0.0
  0
ARC
  8
PartsSilk-A
 10
9.250000
 20
2.657410
 30
0.0
 40
0.025000
 50
-90.000000
 51
-71.579545
  0
LINE
  8
PartsSilk-A
 10
9.250000
 20
2.632410
 30
0.0
 11
9.222220
 21
2.632410
 31
0.0
  0
ARC
  8
PartsSilk-A
 10
9.222220
 20
2.657410
 30
0.0
 40
0.025000
 50
-107.746418
 51
-90.000000
  0
LINE
  8
PartsSilk-A
 10
9.214600
 20
2.633600
 30
0.0
 11
9.145160
 21
2.655820
 31
0.0
  0
ARC
  8
PartsSilk-A
 10
9.152780
 20
2.679630
 30
0.0
 40
0.025000
 50
-138.811918
 51
-107.746418
  0
LINE
  8
PartsSilk-A
 10
9.133970
 20
2.663170
 30
0.0
 11
9.095080
 21
2.707610
 31
0.0
  0
ARC
  8
PartsSilk-A
 10
9.113890
 20
2.724070
 30
0.0
 40
0.025000
 50
-162.637772
 51
-138.811918
  0
LINE
  8
PartsSilk-A
 10
9.090030
 20
2.716610
 30
0.0
 11
9.076140
 21
2.761060
 31
0.0
  0
ARC
  8
PartsSilk-A
 10
9.100000
 20
2.768520
 30
0.0
 40
0.025000
 50
180.000000
 51
-162.637772
  0
LINE
  8
PartsSilk-A
 10
9.075000
 20
2.768520
 30
0.0
 11
9.075000
 21
2.831480
 31
0.0
  0
ARC
  8
PartsSilk-A
 10
9.100000
 20
2.831480
 30
0.0
 40
0.025000
 50
162.637772
 51
180.000000
  0
LINE
  8
PartsSilk-A
 10
9.076140
 20
2.838940
 30
0.0
 11
9.090030
 21
2.883390
 31
0.0
  0
ARC
  8
PartsSilk-A
 10
9.113890
 20
2.875930
 30
0.0
 40
0.025000
 50
138.811918
 51
162.637772
  0
LINE
  8
PartsSilk-A
 10
9.095080
 20
2.892390
 30
0.0
 11
9.133970
 21
2.936830
 31
0.0
  0
ARC
  8
PartsSilk-A
 10
9.152780
 20
2.920370
 30
0.0
 40
0.025000
 50
107.746418
 51
138.811918
  0
LINE
  8
PartsSilk-A
 10
9.145160
 20
2.944180
 30
0.0
 11
9.214600
 21
2.966400
 31
0.0
  0
ARC
  8
PartsSilk-A
 10
9.222220
 20
2.942590
 30
0.0
 40
0.025000
 50
90.000000
 51
107.746418
  0
LINE
  8
PartsSilk-A
 10
9.222220
 20
2.967590
 30
0.0
 11
9.250000
 21
2.967590
 31
0.0
  0
ARC
  8
PartsSilk-A
 10
9.250000
 20
2.942590
 30
0.0
 40
0.025000
 50
71.579545
 51
90.000000
  0
LINE
  8
PartsSilk-A
 10
9.257900
 20
2.966310
 30
0.0
 11
9.324570
 21
2.944090
 31
0.0
  0
ARC
  8
PartsSilk-A
 10
9.316670
 20
2.920370
 30
0.0
 40
0.025000
 50
39.790899
 51
71.579545
  0
LINE
  8
PartsSilk-A
 10
9.335880
 20
2.936370
 30
0.0
 11
9.363650
 21
2.903040
 31
0.0
  0
ARC
  8
PartsSilk-A
 10
9.475000
 20
2.657410
 30
0.0
 40
0.025000
 50
180.000000
 51
0.000000
  0
LINE
  8
PartsSilk-A
 10
9.450000
 20
2.657410
 30
0.0
 11
9.450000
 21
2.942590
 31
0.0
  0
ARC
  8
PartsSilk-A
 10
9.475000
 20
2.942590
 30
0.0
 40
0.025000
 50
40.603781
 51
180.000000
  0
LINE
  8
PartsSilk-A
 10
9.493980
 20
2.958860
 30
0.0
 11
9.694440
 21
2.724990
 31
0.0
  0
LINE
  8
PartsSilk-A
 10
9.694440
 20
2.724990
 30
0.0
 11
9.694440
 21
2.942590
 31
0.0
  0
ARC
  8
PartsSilk-A
 10
9.719440
 20
2.942590
 30
0.0
 40
0.025000
 50
0.000000
 51
180.000000
  0
LINE
  8
PartsSilk-A
 10
9.744440
 20
2.942590
 30
0.0
 11
9.744440
 21
2.657410
 31
0.0
  0
ARC
  8
PartsSilk-A
 10
9.719440
 20
2.657410
 30
0.0
 40
0.025000
 50
-139.396219
 51
0.000000
  0
LINE
  8
PartsSilk-A
 10
9.700460
 20
2.641140
 30
0.0
 11
9.500000
 21
2.875010
 31
0.0
  0
LINE
  8
PartsSilk-A
 10
9.500000
 20
2.875010
 30
0.0
 11
9.500000
 21
2.657410
 31
0.0
  0
ARC
  8
PartsSilk-A
 10
10.080560
 20
2.909260
 30
0.0
 40
0.025000
 50
-128.666967
 51
51.345223
  0
LINE
  8
PartsSilk-A
 10
10.064940
 20
2.889740
 30
0.0
 11
10.053950
 21
2.898530
 31
0.0
  0
LINE
  8
PartsSilk-A
 10
10.053950
 20
2.898530
 30
0.0
 11
10.030790
 21
2.907790
 31
0.0
  0
LINE
  8
PartsSilk-A
 10
10.030790
 20
2.907790
 30
0.0
 11
9.996500
 21
2.917590
 31
0.0
  0
LINE
  8
PartsSilk-A
 10
9.996500
 20
2.917590
 30
0.0
 11
9.945170
 21
2.917590
 31
0.0
  0
LINE
  8
PartsSilk-A
 10
9.945170
 20
2.917590
 30
0.0
 11
9.912750
 21
2.908330
 31
0.0
  0
LINE
  8
PartsSilk-A
 10
9.912750
 20
2.908330
 30
0.0
 11
9.894800
 21
2.897690
 31
0.0
  0
LINE
  8
PartsSilk-A
 10
9.894800
 20
2.897690
 30
0.0
 11
9.885770
 21
2.885650
 31
0.0
  0
LINE
  8
PartsSilk-A
 10
9.885770
 20
2.885650
 30
0.0
 11
9.875000
 21
2.859810
 31
0.0
  0
LINE
  8
PartsSilk-A
 10
9.875000
 20
2.859810
 30
0.0
 11
9.875000
 21
2.740190
 31
0.0
  0
LINE
  8
PartsSilk-A
 10
9.875000
 20
2.740190
 30
0.0
 11
9.886180
 21
2.713360
 31
0.0
  0
LINE
  8
PartsSilk-A
 10
9.886180
 20
2.713360
 30
0.0
 11
9.894920
 21
2.699370
 31
0.0
  0
LINE
  8
PartsSilk-A
 10
9.894920
 20
2.699370
 30
0.0
 11
9.911330
 21
2.692080
 31
0.0
  0
LINE
  8
PartsSilk-A
 10
9.911330
 20
2.692080
 30
0.0
 11
9.945170
 21
2.682410
 31
0.0
  0
LINE
  8
PartsSilk-A
 10
9.945170
 20
2.682410
 30
0.0
 11
9.996500
 21
2.682410
 31
0.0
  0
LINE
  8
PartsSilk-A
 10
9.996500
 20
2.682410
 30
0.0
 11
10.030790
 21
2.692210
 31
0.0
  0
LINE
  8
PartsSilk-A
 10
10.030790
 20
2.692210
 30
0.0
 11
10.049800
 21
2.699810
 31
0.0
  0
LINE
  8
PartsSilk-A
 10
10.049800
 20
2.699810
 30
0.0
 11
10.058270
 21
2.713360
 31
0.0
  0
LINE
  8
PartsSilk-A
 10
10.058270
 20
2.713360
 30
0.0
 11
10.069440
 21
2.740190
 31
0.0
  0
LINE
  8
PartsSilk-A
 10
10.069440
 20
2.740190
 30
0.0
 11
10.069440
 21
2.750240
 31
0.0
  0
LINE
  8
PartsSilk-A
 10
10.069440
 20
2.750240
 30
0.0
 11
10.061870
 21
2.762360
 31
0.0
  0
LINE
  8
PartsSilk-A
 10
10.061870
 20
2.762360
 30
0.0
 11
10.045170
 21
2.774730
 31
0.0
  0
LINE
  8
PartsSilk-A
 10
10.045170
 20
2.774730
 30
0.0
 11
9.997520
 21
2.784260
 31
0.0
  0
LINE
  8
PartsSilk-A
 10
9.997520
 20
2.784260
 30
0.0
 11
9.943420
 21
2.784260
 31
0.0
  0
LINE
  8
PartsSilk-A
 10
9.943420
 20
2.784260
 30
0.0
 11
9.899850
 21
2.778140
 31
0.0
  0
LINE
  8
PartsSilk-A
 10
9.899850
 20
2.778140
 30
0.0
 11
9.883180
 21
2.763330
 31
0.0
  0
LINE
  8
PartsSilk-A
 10
9.883180
 20
2.763330
 30
0.0
 11
9.871200
 21
2.744160
 31
0.0
  0
ARC
  8
PartsSilk-A
 10
9.850000
 20
2.757410
 30
0.0
 40
0.025000
 50
147.994617
 51
-32.010019
  0
LINE
  8
PartsSilk-A
 10
9.828800
 20
2.770660
 30
0.0
 11
9.842690
 21
2.792880
 31
0.0
  0
ARC
  8
PartsSilk-A
 10
9.863890
 20
2.779630
 30
0.0
 40
0.025000
 50
131.627831
 51
147.994617
  0
LINE
  8
PartsSilk-A
 10
9.847280
 20
2.798320
 30
0.0
 11
9.872280
 21
2.820540
 31
0.0
  0
ARC
  8
PartsSilk-A
 10
9.888890
 20
2.801850
 30
0.0
 40
0.025000
 50
98.000474
 51
131.627830
  0
LINE
  8
PartsSilk-A
 10
9.885410
 20
2.826610
 30
0.0
 11
9.938190
 21
2.834020
 31
0.0
  0
ARC
  8
PartsSilk-A
 10
9.941670
 20
2.809260
 30
0.0
 40
0.025000
 50
90.000000
 51
98.000474
  0
LINE
  8
PartsSilk-A
 10
9.941670
 20
2.834260
 30
0.0
 11
10.000000
 21
2.834260
 31
0.0
  0
ARC
  8
PartsSilk-A
 10
10.000000
 20
2.809260
 30
0.0
 40
0.025000
 50
78.694563
 51
90.000000
  0
LINE
  8
PartsSilk-A
 10
10.004900
 20
2.833770
 30
0.0
 11
10.060460
 21
2.822660
 31
0.0
  0
ARC
  8
PartsSilk-A
 10
10.055560
 20
2.798150
 30
0.0
 40
0.025000
 50
53.473873
 51
78.694563
  0
LINE
  8
PartsSilk-A
 10
10.070440
 20
2.818240
 30
0.0
 11
10.095440
 21
2.799720
 31
0.0
  0
ARC
  8
PartsSilk-A
 10
10.080560
 20
2.779630
 30
0.0
 40
0.025000
 50
31.985944
 51
53.473873
  0
LINE
  8
PartsSilk-A
 10
10.101760
 20
2.792870
 30
0.0
 11
10.115640
 21
2.770650
 31
0.0
  0
ARC
  8
PartsSilk-A
 10
10.094440
 20
2.757410
 30
0.0
 40
0.025000
 50
0.000000
 51
31.985944
  0
LINE
  8
PartsSilk-A
 10
10.119440
 20
2.757410
 30
0.0
 11
10.119440
 21
2.735190
 31
0.0
  0
ARC
  8
PartsSilk-A
 10
10.094440
 20
2.735190
 30
0.0
 40
0.025000
 50
-22.605762
 51
0.000000
  0
LINE
  8
PartsSilk-A
 10
10.117520
 20
2.725580
 30
0.0
 11
10.103640
 21
2.692240
 31
0.0
  0
ARC
  8
PartsSilk-A
 10
10.080560
 20
2.701850
 30
0.0
 40
0.025000
 50
-32.005383
 51
-22.605762
  0
LINE
  8
PartsSilk-A
 10
10.101760
 20
2.688600
 30
0.0
 11
10.087870
 21
2.666380
 31
0.0
  0
ARC
  8
PartsSilk-A
 10
10.066670
 20
2.679630
 30
0.0
 40
0.025000
 50
-68.207103
 51
-32.005383
  0
LINE
  8
PartsSilk-A
 10
10.075950
 20
2.656420
 30
0.0
 11
10.048170
 21
2.645310
 31
0.0
  0
ARC
  8
PartsSilk-A
 10
10.038890
 20
2.668520
 30
0.0
 40
0.025000
 50
-74.051456
 51
-68.207103
  0
LINE
  8
PartsSilk-A
 10
10.045760
 20
2.644480
 30
0.0
 11
10.006870
 21
2.633370
 31
0.0
  0
ARC
  8
PartsSilk-A
 10
10.000000
 20
2.657410
 30
0.0
 40
0.025000
 50
-90.000000
 51
-74.051456
  0
LINE
  8
PartsSilk-A
 10
10.000000
 20
2.632410
 30
0.0
 11
9.941670
 21
2.632410
 31
0.0
  0
ARC
  8
PartsSilk-A
 10
9.941670
 20
2.657410
 30
0.0
 40
0.025000
 50
-105.948544
 51
-90.000000
  0
LINE
  8
PartsSilk-A
 10
9.934800
 20
2.633370
 30
0.0
 11
9.895910
 21
2.644480
 31
0.0
  0
ARC
  8
PartsSilk-A
 10
9.902780
 20
2.668520
 30
0.0
 40
0.025000
 50
-113.950855
 51
-105.948544
  0
LINE
  8
PartsSilk-A
 10
9.892630
 20
2.645670
 30
0.0
 11
9.867630
 21
2.656780
 31
0.0
  0
ARC
  8
PartsSilk-A
 10
9.877780
 20
2.679630
 30
0.0
 40
0.025000
 50
-147.994617
 51
-113.950855
  0
LINE
  8
PartsSilk-A
 10
9.856580
 20
2.666380
 30
0.0
 11
9.842690
 21
2.688600
 31
0.0
  0
ARC
  8
PartsSilk-A
 10
9.863890
 20
2.701850
 30
0.0
 40
0.025000
 50
-157.394238
 51
-147.994617
  0
LINE
  8
PartsSilk-A
 10
9.840810
 20
2.692240
 30
0.0
 11
9.826920
 21
2.725580
 31
0.0
  0
ARC
  8
PartsSilk-A
 10
9.850000
 20
2.735190
 30
0.0
 40
0.025000
 50
180.000000
 51
-157.394238
  0
LINE
  8
PartsSilk-A
 10
9.825000
 20
2.735190
 30
0.0
 11
9.825000
 21
2.864810
 31
0.0
  0
ARC
  8
PartsSilk-A
 10
9.850000
 20
2.864810
 30
0.0
 40
0.025000
 50
157.394238
 51
180.000000
  0
LINE
  8
PartsSilk-A
 10
9.826920
 20
2.874420
 30
0.0
 11
9.840810
 21
2.907760
 31
0.0
  0
ARC
  8
PartsSilk-A
 10
9.863890
 20
2.898150
 30
0.0
 40
0.025000
 50
143.130102
 51
157.394238
  0
LINE
  8
PartsSilk-A
 10
9.843890
 20
2.913150
 30
0.0
 11
9.857780
 21
2.931670
 31
0.0
  0
ARC
  8
PartsSilk-A
 10
9.877780
 20
2.916670
 30
0.0
 40
0.025000
 50
120.637524
 51
143.130102
  0
LINE
  8
PartsSilk-A
 10
9.865040
 20
2.938180
 30
0.0
 11
9.890040
 21
2.952990
 31
0.0
  0
ARC
  8
PartsSilk-A
 10
9.902780
 20
2.931480
 30
0.0
 40
0.025000
 50
105.948544
 51
120.637524
  0
LINE
  8
PartsSilk-A
 10
9.895910
 20
2.955520
 30
0.0
 11
9.934800
 21
2.966630
 31
0.0
  0
ARC
  8
PartsSilk-A
 10
9.941670
 20
2.942590
 30
0.0
 40
0.025000
 50
90.000000
 51
105.948544
  0
LINE
  8
PartsSilk-A
 10
9.941670
 20
2.967590
 30
0.0
 11
10.000000
 21
2.967590
 31
0.0
  0
ARC
  8
PartsSilk-A
 10
10.000000
 20
2.942590
 30
0.0
 40
0.025000
 50
74.051456
 51
90.000000
  0
LINE
  8
PartsSilk-A
 10
10.006870
 20
2.966630
 30
0.0
 11
10.045760
 21
2.955520
 31
0.0
  0
ARC
  8
PartsSilk-A
 10
10.038890
 20
2.931480
 30
0.0
 40
0.025000
 50
68.207103
 51
74.051456
  0
LINE
  8
PartsSilk-A
 10
10.048170
 20
2.954690
 30
0.0
 11
10.075950
 21
2.943580
 31
0.0
  0
ARC
  8
PartsSilk-A
 10
10.066670
 20
2.920370
 30
0.0
 40
0.025000
 50
51.333033
 51
68.207103
  0
LINE
  8
PartsSilk-A
 10
10.082290
 20
2.939890
 30
0.0
 11
10.096180
 21
2.928780
 31
0.0
  0
ARC
  8
PartsSilk-A
 10
10.255560
 20
2.842590
 30
0.0
 40
0.025000
 50
0.000000
 51
180.000000
  0
LINE
  8
PartsSilk-A
 10
10.280560
 20
2.842590
 30
0.0
 11
10.280560
 21
2.760490
 31
0.0
  0
LINE
  8
PartsSilk-A
 10
10.280560
 20
2.760490
 30
0.0
 11
10.290260
 21
2.721690
 31
0.0
  0
LINE
  8
PartsSilk-A
 10
10.290260
 20
2.721690
 30
0.0
 11
10.297990
 21
2.706230
 31
0.0
  0
LINE
  8
PartsSilk-A
 10
10.297990
 20
2.706230
 30
0.0
 11
10.316920
 21
2.689400
 31
0.0
  0
LINE
  8
PartsSilk-A
 10
10.316920
 20
2.689400
 30
0.0
 11
10.330900
 21
2.682410
 31
0.0
  0
LINE
  8
PartsSilk-A
 10
10.330900
 20
2.682410
 30
0.0
 11
10.362800
 21
2.682410
 31
0.0
  0
LINE
  8
PartsSilk-A
 10
10.362800
 20
2.682410
 30
0.0
 11
10.374230
 21
2.688940
 31
0.0
  0
LINE
  8
PartsSilk-A
 10
10.374230
 20
2.688940
 30
0.0
 11
10.393680
 21
2.706230
 31
0.0
  0
LINE
  8
PartsSilk-A
 10
10.393680
 20
2.706230
 30
0.0
 11
10.401410
 21
2.721690
 31
0.0
  0
LINE
  8
PartsSilk-A
 10
10.401410
 20
2.721690
 30
0.0
 11
10.411110
 21
2.760490
 31
0.0
  0
LINE
  8
PartsSilk-A
 10
10.411110
 20
2.760490
 30
0.0
 11
10.411110
 21
2.839510
 31
0.0
  0
LINE
  8
PartsSilk-A
 10
10.411110
 20
2.839510
 30
0.0
 11
10.401410
 21
2.878310
 31
0.0
  0
LINE
  8
PartsSilk-A
 10
10.401410
 20
2.878310
 30
0.0
 11
10.393680
 21
2.893770
 31
0.0
  0
LINE
  8
PartsSilk-A
 10
10.393680
 20
2.893770
 30
0.0
 11
10.374230
 21
2.911060
 31
0.0
  0
LINE
  8
PartsSilk-A
 10
10.374230
 20
2.911060
 30
0.0
 11
10.362800
 21
2.917590
 31
0.0
  0
LINE
  8
PartsSilk-A
 10
10.362800
 20
2.917590
 30
0.0
 11
10.330900
 21
2.917590
 31
0.0
  0
LINE
  8
PartsSilk-A
 10
10.330900
 20
2.917590
 30
0.0
 11
10.316920
 21
2.910600
 31
0.0
  0
LINE
  8
PartsSilk-A
 10
10.316920
 20
2.910600
 30
0.0
 11
10.297990
 21
2.893770
 31
0.0
  0
LINE
  8
PartsSilk-A
 10
10.297990
 20
2.893770
 30
0.0
 11
10.290260
 21
2.878310
 31
0.0
  0
LINE
  8
PartsSilk-A
 10
10.290260
 20
2.878310
 30
0.0
 11
10.279810
 21
2.836530
 31
0.0
  0
ARC
  8
PartsSilk-A
 10
10.255560
 20
2.842590
 30
0.0
 40
0.025000
 50
165.969316
 51
-14.033210
  0
LINE
  8
PartsSilk-A
 10
10.231310
 20
2.848650
 30
0.0
 11
10.242420
 21
2.893100
 31
0.0
  0
ARC
  8
PartsSilk-A
 10
10.266670
 20
2.887040
 30
0.0
 40
0.025000
 50
153.434949
 51
165.969316
  0
LINE
  8
PartsSilk-A
 10
10.244310
 20
2.898220
 30
0.0
 11
10.255420
 21
2.920440
 31
0.0
  0
ARC
  8
PartsSilk-A
 10
10.277780
 20
2.909260
 30
0.0
 40
0.025000
 50
131.627831
 51
153.434949
  0
LINE
  8
PartsSilk-A
 10
10.261170
 20
2.927950
 30
0.0
 11
10.286170
 21
2.950170
 31
0.0
  0
ARC
  8
PartsSilk-A
 10
10.302780
 20
2.931480
 30
0.0
 40
0.025000
 50
116.565051
 51
131.627830
  0
LINE
  8
PartsSilk-A
 10
10.291600
 20
2.953840
 30
0.0
 11
10.313820
 21
2.964950
 31
0.0
  0
ARC
  8
PartsSilk-A
 10
10.325000
 20
2.942590
 30
0.0
 40
0.025000
 50
90.000000
 51
116.565051
  0
LINE
  8
PartsSilk-A
 10
10.325000
 20
2.967590
 30
0.0
 11
10.369440
 21
2.967590
 31
0.0
  0
ARC
  8
PartsSilk-A
 10
10.369440
 20
2.942590
 30
0.0
 40
0.025000
 50
60.266489
 51
90.000000
  0
LINE
  8
PartsSilk-A
 10
10.381840
 20
2.964300
 30
0.0
 11
10.401290
 21
2.953190
 31
0.0
  0
ARC
  8
PartsSilk-A
 10
10.388890
 20
2.931480
 30
0.0
 40
0.025000
 50
48.372169
 51
60.266489
  0
LINE
  8
PartsSilk-A
 10
10.405500
 20
2.950170
 30
0.0
 11
10.430500
 21
2.927950
 31
0.0
  0
ARC
  8
PartsSilk-A
 10
10.413890
 20
2.909260
 30
0.0
 40
0.025000
 50
26.565051
 51
48.372170
  0
LINE
  8
PartsSilk-A
 10
10.436250
 20
2.920440
 30
0.0
 11
10.447360
 21
2.898220
 31
0.0
  0
ARC
  8
PartsSilk-A
 10
10.425000
 20
2.887040
 30
0.0
 40
0.025000
 50
14.030684
 51
26.565051
  0
LINE
  8
PartsSilk-A
 10
10.449250
 20
2.893100
 30
0.0
 11
10.460360
 21
2.848650
 31
0.0
  0
ARC
  8
PartsSilk-A
 10
10.436110
 20
2.842590
 30
0.0
 40
0.025000
 50
0.000000
 51
14.030684
  0
LINE
  8
PartsSilk-A
 10
10.461110
 20
2.842590
 30
0.0
 11
10.461110
 21
2.757410
 31
0.0
  0
ARC
  8
PartsSilk-A
 10
10.436110
 20
2.757410
 30
0.0
 40
0.025000
 50
-14.030684
 51
0.000000
  0
LINE
  8
PartsSilk-A
 10
10.460360
 20
2.751350
 30
0.0
 11
10.449250
 21
2.706900
 31
0.0
  0
ARC
  8
PartsSilk-A
 10
10.425000
 20
2.712960
 30
0.0
 40
0.025000
 50
-26.565051
 51
-14.030684
  0
LINE
  8
PartsSilk-A
 10
10.447360
 20
2.701780
 30
0.0
 11
10.436250
 21
2.679560
 31
0.0
  0
ARC
  8
PartsSilk-A
 10
10.413890
 20
2.690740
 30
0.0
 40
0.025000
 50
-48.372169
 51
-26.565051
  0
LINE
  8
PartsSilk-A
 10
10.430500
 20
2.672050
 30
0.0
 11
10.405500
 21
2.649830
 31
0.0
  0
ARC
  8
PartsSilk-A
 10
10.388890
 20
2.668520
 30
0.0
 40
0.025000
 50
-60.266489
 51
-48.372170
  0
LINE
  8
PartsSilk-A
 10
10.401290
 20
2.646810
 30
0.0
 11
10.381840
 21
2.635700
 31
0.0
  0
ARC
  8
PartsSilk-A
 10
10.369440
 20
2.657410
 30
0.0
 40
0.025000
 50
-90.000000
 51
-60.266489
  0
LINE
  8
PartsSilk-A
 10
10.369440
 20
2.632410
 30
0.0
 11
10.325000
 21
2.632410
 31
0.0
  0
ARC
  8
PartsSilk-A
 10
10.325000
 20
2.657410
 30
0.0
 40
0.025000
 50
-116.565051
 51
-90.000000
  0
LINE
  8
PartsSilk-A
 10
10.313820
 20
2.635050
 30
0.0
 11
10.291600
 21
2.646160
 31
0.0
  0
ARC
  8
PartsSilk-A
 10
10.302780
 20
2.668520
 30
0.0
 40
0.025000
 50
-131.627831
 51
-116.565051
  0
LINE
  8
PartsSilk-A
 10
10.286170
 20
2.649830
 30
0.0
 11
10.261170
 21
2.672050
 31
0.0
  0
ARC
  8
PartsSilk-A
 10
10.277780
 20
2.690740
 30
0.0
 40
0.025000
 50
-153.434949
 51
-131.627830
  0
LINE
  8
PartsSilk-A
 10
10.255420
 20
2.679560
 30
0.0
 11
10.244310
 21
2.701780
 31
0.0
  0
ARC
  8
PartsSilk-A
 10
10.266670
 20
2.712960
 30
0.0
 40
0.025000
 50
-165.969316
 51
-153.434949
  0
LINE
  8
PartsSilk-A
 10
10.242420
 20
2.706900
 30
0.0
 11
10.231310
 21
2.751350
 31
0.0
  0
ARC
  8
PartsSilk-A
 10
10.255560
 20
2.757410
 30
0.0
 40
0.025000
 50
180.000000
 51
-165.969316
  0
LINE
  8
PartsSilk-A
 10
10.230560
 20
2.757410
 30
0.0
 11
10.230560
 21
2.842590
 31
0.0
  0
ARC
  8
PartsSilk-A
 10
10.636110
 20
2.861110
 30
0.0
 40
0.025000
 50
147.066457
 51
-32.933807
  0
LINE
  8
PartsSilk-A
 10
10.615130
 20
2.874700
 30
0.0
 11
10.667910
 21
2.956180
 31
0.0
  0
ARC
  8
PartsSilk-A
 10
10.688890
 20
2.942590
 30
0.0
 40
0.025000
 50
0.000000
 51
147.066193
  0
LINE
  8
PartsSilk-A
 10
10.713890
 20
2.942590
 30
0.0
 11
10.713890
 21
2.657410
 31
0.0
  0
ARC
  8
PartsSilk-A
 10
10.688890
 20
2.657410
 30
0.0
 40
0.025000
 50
180.000000
 51
0.000000
  0
LINE
  8
PartsSilk-A
 10
10.663890
 20
2.657410
 30
0.0
 11
10.663890
 21
2.858010
 31
0.0
  0
LINE
  8
PartsSilk-A
 10
10.663890
 20
2.858010
 30
0.0
 11
10.657090
 21
2.847520
 31
0.0
  0
ENDSEC
  0
EOF
