  0
SECTION
  2
HEADER
  9
$ACADVER
  1
AC1009
  9
$ACADMAINTVER
 70
   0
  9
$DWGCODEPAGE
  3
ANSI_932
  9
$INSBASE
 10
0.0
 20
0.0
 30
0.0
  9
$EXTMIN
 10
0.000000
 20
-0.600000
 30
0.0
  9
$EXTMAX
 10
5.500000
 20
5.900000
 30
0.0
  9
$LIMMIN
 10
0.0
 20
0.0
  9
$LIMMAX
 10
12.0
 20
9.0
  9
$ORTHOMODE
 70
	0
  9
$REGENMODE
 70
	1
  9
$FILLMODE
 70
	1
  9
$QTEXTMODE
 70
	0
  9
$MIRRTEXT
 70
	1
  9
$DRAGMODE
 70
	2
  9
$LTSCALE
 40
1.0
  9
$OSMODE
 70
	0
  9
$ATTMODE
 70
	1
  9
$TEXTSIZE
 40
0.2
  9
$TRACEWID
 40
0.05
  9
$TEXTSTYLE
  7
STANDARD
  9
$CLAYER
  8
0
  9
$CELTYPE
  6
BYLAYER
  9
$CECOLOR
 62
	256
  9
$CELTSCALE
 40
1.0
  9
$DELOBJ
 70
	1
  9
$DISPSILH
 70
	0
  9
$LUNITS
 70
	2
  9
$LUPREC
 70
	6
  9
$SKETCHINC
 40
0.1
  9
$FILLETRAD
 40
0.5
  9
$AUNITS
 70
	0
  9
$AUPREC
 70
	6
  9
$MENU
  1
acad
  9
$ELEVATION
 40
0.0
  9
$PELEVATION
 40
0.0
  9
$THICKNESS
 40
0.0
  9
$LIMCHECK
 70
	0
  9
$BLIPMODE
 70
	0
  9
$CHAMFERA
 40
0.5
  9
$CHAMFERB
 40
0.5
  9
$CHAMFERC
 40
1.0
  9
$CHAMFERD
 40
0.0
  9
$SKPOLY
 70
	0
  9
$TDCREATE
 40
0.0
  9
$TDUPDATE
 40
0.0
  9
$TDINDWG
 40
0.0
  9
$TDUSRTIMER
 40
0.0
  9
$USRTIMER
 70
	0
  9
$ANGBASE
 50
0.0
  9
$ANGDIR
 70
	0
  9
$PDMODE
 70
	0
  9
$PDSIZE
 40
0.0
  9
$PLINEWID
 40
0.0
  9
$COORDS
 70
	1
  9
$SPLFRAME
 70
	0
  9
$SPLINETYPE
 70
	6
  9
$SPLINESEGS
 70
	8
  9
$ATTDIA
 70
	0
  9
$ATTREQ
 70
	1
  9
$HANDLING
 70
   1
  0
ENDSEC
  0
SECTION
  2
TABLES
  0
TABLE
  2
LAYER
 70
16
  0
LAYER
  2
0
 70
   0
 62
  7
  6
CONTINUOUS
  0
LAYER
  2
Outline
 70
   0
 62
  7
  6
CONTINUOUS
  0
LAYER
  2
Silk-A
 70
   0
 62
  140
  6
CONTINUOUS
  0
LAYER
  2
MetalMask-A
 70
   0
 62
  176
  6
CONTINUOUS
  0
LAYER
  2
Hole
 70
   0
 62
  1
  6
CONTINUOUS
  0
LAYER
  2
L1
 70
   0
 62
  3
  6
CONTINUOUS
  0
LAYER
  2
MetalMask-B
 70
   0
 62
  176
  6
CONTINUOUS
  0
LAYER
  2
Resist-A
 70
   0
 62
  2
  6
CONTINUOUS
  0
LAYER
  2
L2
 70
   0
 62
  3
  6
CONTINUOUS
  0
LAYER
  2
L3
 70
   0
 62
  3
  6
CONTINUOUS
  0
LAYER
  2
Resist-B
 70
   0
 62
  2
  6
CONTINUOUS
  0
LAYER
  2
L4
 70
   0
 62
  3
  6
CONTINUOUS
  0
LAYER
  2
PartsArea-A
 70
   0
 62
  111
  6
CONTINUOUS
  0
LAYER
  2
PartsArea-B
 70
   0
 62
  111
  6
CONTINUOUS
  0
LAYER
  2
PartsSilk-B
 70
   0
 62
  221
  6
CONTINUOUS
  0
LAYER
  2
Silk-B
 70
   0
 62
  140
  6
CONTINUOUS
  0
LAYER
  2
PartsSilk-A
 70
   0
 62
  221
  6
CONTINUOUS
  0
ENDTAB
  0
TABLE
  2
LTYPE
 70
1
  0
ENDTAB
  0
TABLE
  2
STYLE
 70
1
  0
STYLE
  2
STANDARD
 70
0
 40
0.0
 41
1.0
 50
0.0
 71
0
 42
1.0
  3
txt
  4
EXTFONT
  0
ENDTAB
  0
ENDSEC
  0
SECTION
  2
BLOCKS
  0
ENDSEC
  0
SECTION
  2
ENTITIES
  0
LINE
  8
Outline
 10
0.000000
 20
0.000000
 30
0.0
 11
0.000000
 21
5.300000
 31
0.0
  0
LINE
  8
Outline
 10
0.000000
 20
5.300000
 30
0.0
 11
5.000000
 21
5.300000
 31
0.0
  0
LINE
  8
Outline
 10
5.000000
 20
5.300000
 30
0.0
 11
5.000000
 21
0.000000
 31
0.0
  0
LINE
  8
Outline
 10
5.000000
 20
0.000000
 30
0.0
 11
0.000000
 21
0.000000
 31
0.0
  0
LINE
  8
L1
 10
1.452810
 20
0.518770
 30
0.0
 11
1.787470
 21
0.741880
 31
0.0
  0
ARC
  8
L1
 10
1.856810
 20
0.637870
 30
0.0
 40
0.125000
 50
-56.309932
 51
123.689929
  0
LINE
  8
L1
 10
1.926150
 20
0.533860
 30
0.0
 11
1.591480
 21
0.310750
 31
0.0
  0
LINE
  8
L1
 10
1.591480
 20
0.310750
 30
0.0
 11
1.365060
 21
-0.204400
 31
0.0
  0
ARC
  8
L1
 10
1.250630
 20
-0.154100
 30
0.0
 40
0.125000
 50
156.271148
 51
-23.726390
  0
LINE
  8
L1
 10
1.136200
 20
-0.103800
 30
0.0
 11
1.252590
 21
0.161010
 31
0.0
  0
LINE
  8
L1
 10
1.252590
 20
0.161010
 30
0.0
 11
1.184210
 21
0.263530
 31
0.0
  0
LINE
  8
L1
 10
1.184210
 20
0.263530
 30
0.0
 11
0.895020
 21
0.257950
 31
0.0
  0
ARC
  8
L1
 10
0.892610
 20
0.382930
 30
0.0
 40
0.125000
 50
91.104702
 51
-88.893698
  0
LINE
  8
L1
 10
0.890200
 20
0.507910
 30
0.0
 11
1.452810
 21
0.518770
 31
0.0
  0
ARC
  8
L1
 10
1.856810
 20
0.637870
 30
0.0
 40
0.125000
 50
123.690068
 51
-56.309933
  0
LINE
  8
L1
 10
1.787470
 20
0.741880
 30
0.0
 11
2.152540
 21
0.985260
 31
0.0
  0
ARC
  8
L1
 10
2.000000
 20
1.214070
 30
0.0
 40
0.275000
 50
-56.309933
 51
0.000000
  0
LINE
  8
L1
 10
2.275000
 20
1.214070
 30
0.0
 11
2.275000
 21
1.550000
 31
0.0
  0
ARC
  8
L1
 10
2.400000
 20
1.550000
 30
0.0
 40
0.125000
 50
0.000000
 51
180.000000
  0
LINE
  8
L1
 10
2.525000
 20
1.550000
 30
0.0
 11
2.525000
 21
1.214070
 31
0.0
  0
ARC
  8
L1
 10
2.000000
 20
1.214070
 30
0.0
 40
0.525000
 50
-56.309932
 51
0.000000
  0
LINE
  8
L1
 10
2.291220
 20
0.777240
 30
0.0
 11
1.926150
 21
0.533860
 31
0.0
  0
ARC
  8
L1
 10
2.900000
 20
1.550000
 30
0.0
 40
0.125000
 50
0.000000
 51
180.000000
  0
LINE
  8
L1
 10
3.025000
 20
1.550000
 30
0.0
 11
3.025000
 21
0.500000
 31
0.0
  0
ARC
  8
L1
 10
2.900000
 20
0.500000
 30
0.0
 40
0.125000
 50
180.000000
 51
0.000000
  0
LINE
  8
L1
 10
2.775000
 20
0.500000
 30
0.0
 11
2.775000
 21
1.550000
 31
0.0
  0
ARC
  8
L1
 10
2.900000
 20
0.500000
 30
0.0
 40
0.125000
 50
-1.920911
 51
104.605447
  0
LINE
  8
L1
 10
3.024930
 20
0.495810
 30
0.0
 11
3.007710
 21
-0.017030
 31
0.0
  0
ARC
  8
L1
 10
2.882780
 20
-0.012840
 30
0.0
 40
0.125000
 50
178.079089
 51
-1.923139
  0
LINE
  8
L1
 10
2.757850
 20
-0.008650
 30
0.0
 11
2.767300
 21
0.272810
 31
0.0
  0
LINE
  8
L1
 10
2.767300
 20
0.272810
 30
0.0
 11
2.707490
 21
0.320670
 31
0.0
  0
LINE
  8
L1
 10
2.707490
 20
0.320670
 30
0.0
 11
2.434970
 21
0.249670
 31
0.0
  0
ARC
  8
L1
 10
2.403450
 20
0.370630
 30
0.0
 40
0.125000
 50
104.605447
 51
-75.396930
  0
LINE
  8
L1
 10
2.371930
 20
0.491590
 30
0.0
 11
2.868480
 21
0.620960
 31
0.0
  0
ARC
  8
L1
 10
3.400000
 20
1.550000
 30
0.0
 40
0.125000
 50
0.000000
 51
180.000000
  0
LINE
  8
L1
 10
3.525000
 20
1.550000
 30
0.0
 11
3.525000
 21
1.151810
 31
0.0
  0
ARC
  8
L1
 10
4.336330
 20
1.151810
 30
0.0
 40
0.811330
 50
180.000000
 51
-138.814407
  0
LINE
  8
L1
 10
3.725740
 20
0.617550
 30
0.0
 11
3.743480
 21
0.591120
 31
0.0
  0
ARC
  8
L1
 10
3.631680
 20
0.535220
 30
0.0
 40
0.125000
 50
-153.434949
 51
26.565051
  0
LINE
  8
L1
 10
3.519880
 20
0.479320
 30
0.0
 11
3.537590
 21
0.452920
 31
0.0
  0
ARC
  8
L1
 10
4.336330
 20
1.151810
 30
0.0
 40
1.061330
 50
180.000000
 51
-138.814380
  0
LINE
  8
L1
 10
3.275000
 20
1.151810
 30
0.0
 11
3.275000
 21
1.550000
 31
0.0
  0
ARC
  8
L1
 10
3.631680
 20
0.535220
 30
0.0
 40
0.125000
 50
73.768763
 51
-171.396025
  0
LINE
  8
L1
 10
3.666620
 20
0.655240
 30
0.0
 11
4.241980
 21
0.487760
 31
0.0
  0
ARC
  8
L1
 10
4.207040
 20
0.367740
 30
0.0
 40
0.125000
 50
-106.231237
 51
73.770392
  0
LINE
  8
L1
 10
4.172100
 20
0.247720
 30
0.0
 11
3.894380
 21
0.328560
 31
0.0
  0
LINE
  8
L1
 10
3.894380
 20
0.328560
 30
0.0
 11
3.801640
 21
0.247410
 31
0.0
  0
LINE
  8
L1
 10
3.801640
 20
0.247410
 30
0.0
 11
3.844900
 21
-0.038580
 31
0.0
  0
ARC
  8
L1
 10
3.721310
 20
-0.057280
 30
0.0
 40
0.125000
 50
-171.396025
 51
8.602155
  0
LINE
  8
L1
 10
3.597720
 20
-0.075980
 30
0.0
 11
3.508090
 21
0.516520
 31
0.0
  0
ARC
  8
L1
 10
3.400000
 20
3.750000
 30
0.0
 40
0.125000
 50
180.000000
 51
0.000000
  0
LINE
  8
L1
 10
3.275000
 20
3.750000
 30
0.0
 11
3.275000
 21
4.148190
 31
0.0
  0
ARC
  8
L1
 10
4.336330
 20
4.148190
 30
0.0
 40
1.061330
 50
138.814380
 51
180.000000
  0
ARC
  8
L1
 10
3.631660
 20
4.764770
 30
0.0
 40
0.125000
 50
-41.185925
 51
138.814290
  0
ARC
  8
L1
 10
4.336330
 20
4.148190
 30
0.0
 40
0.811330
 50
138.814407
 51
180.000000
  0
LINE
  8
L1
 10
3.525000
 20
4.148190
 30
0.0
 11
3.525000
 21
3.750000
 31
0.0
  0
ARC
  8
L1
 10
3.631670
 20
4.764760
 30
0.0
 40
0.125000
 50
153.434949
 51
-26.565051
  0
LINE
  8
L1
 10
3.519870
 20
4.820660
 30
0.0
 11
3.519880
 21
4.820680
 31
0.0
  0
ARC
  8
L1
 10
3.631680
 20
4.764780
 30
0.0
 40
0.125000
 50
-26.565051
 51
153.434949
  0
LINE
  8
L1
 10
3.743480
 20
4.708880
 30
0.0
 11
3.743470
 21
4.708860
 31
0.0
  0
ARC
  8
L1
 10
3.631680
 20
4.764780
 30
0.0
 40
0.125000
 50
171.396025
 51
-73.768763
  0
LINE
  8
L1
 10
3.508090
 20
4.783480
 30
0.0
 11
3.597720
 21
5.375980
 31
0.0
  0
ARC
  8
L1
 10
3.721310
 20
5.357280
 30
0.0
 40
0.125000
 50
-8.603975
 51
171.397845
  0
LINE
  8
L1
 10
3.844900
 20
5.338580
 30
0.0
 11
3.801640
 21
5.052590
 31
0.0
  0
LINE
  8
L1
 10
3.801640
 20
5.052590
 30
0.0
 11
3.894380
 21
4.971440
 31
0.0
  0
LINE
  8
L1
 10
3.894380
 20
4.971440
 30
0.0
 11
4.172100
 21
5.052280
 31
0.0
  0
ARC
  8
L1
 10
4.207040
 20
4.932260
 30
0.0
 40
0.125000
 50
-73.768763
 51
106.229608
  0
LINE
  8
L1
 10
4.241980
 20
4.812240
 30
0.0
 11
3.666620
 21
4.644760
 31
0.0
  0
ARC
  8
L1
 10
2.900000
 20
3.750000
 30
0.0
 40
0.125000
 50
180.000000
 51
0.000000
  0
LINE
  8
L1
 10
2.775000
 20
3.750000
 30
0.0
 11
2.775000
 21
4.800000
 31
0.0
  0
ARC
  8
L1
 10
2.900000
 20
4.800000
 30
0.0
 40
0.125000
 50
0.000000
 51
180.000000
  0
LINE
  8
L1
 10
3.025000
 20
4.800000
 30
0.0
 11
3.025000
 21
3.750000
 31
0.0
  0
LINE
  8
L1
 10
1.591480
 20
4.989250
 30
0.0
 11
1.926150
 21
4.766130
 31
0.0
  0
ARC
  8
L1
 10
1.856810
 20
4.662120
 30
0.0
 40
0.125000
 50
-123.690068
 51
56.309656
  0
LINE
  8
L1
 10
1.787470
 20
4.558110
 30
0.0
 11
1.452800
 21
4.781230
 31
0.0
  0
LINE
  8
L1
 10
1.452800
 20
4.781230
 30
0.0
 11
0.890200
 21
4.792090
 31
0.0
  0
ARC
  8
L1
 10
0.892610
 20
4.917070
 30
0.0
 40
0.125000
 50
88.895298
 51
-91.106320
  0
LINE
  8
L1
 10
0.895020
 20
5.042050
 30
0.0
 11
1.184210
 21
5.036470
 31
0.0
  0
LINE
  8
L1
 10
1.184210
 20
5.036470
 30
0.0
 11
1.252580
 21
5.138970
 31
0.0
  0
LINE
  8
L1
 10
1.252580
 20
5.138970
 30
0.0
 11
1.136190
 21
5.403790
 31
0.0
  0
ARC
  8
L1
 10
1.250630
 20
5.454090
 30
0.0
 40
0.125000
 50
23.727008
 51
-156.274100
  0
LINE
  8
L1
 10
1.365070
 20
5.504390
 30
0.0
 11
1.591480
 21
4.989250
 31
0.0
  0
ARC
  8
L1
 10
1.856810
 20
4.662120
 30
0.0
 40
0.125000
 50
56.309932
 51
-123.688981
  0
LINE
  8
L1
 10
1.926150
 20
4.766130
 30
0.0
 11
2.291220
 21
4.522760
 31
0.0
  0
ARC
  8
L1
 10
2.000000
 20
4.085930
 30
0.0
 40
0.525000
 50
-0.001091
 51
56.309933
  0
LINE
  8
L1
 10
2.525000
 20
4.085920
 30
0.0
 11
2.525000
 21
3.750000
 31
0.0
  0
ARC
  8
L1
 10
2.400000
 20
3.750000
 30
0.0
 40
0.125000
 50
180.000000
 51
0.000000
  0
LINE
  8
L1
 10
2.275000
 20
3.750000
 30
0.0
 11
2.275000
 21
4.085920
 31
0.0
  0
ARC
  8
L1
 10
2.000000
 20
4.085930
 30
0.0
 40
0.275000
 50
-0.002083
 51
56.309932
  0
LINE
  8
L1
 10
2.152540
 20
4.314740
 30
0.0
 11
1.787470
 21
4.558110
 31
0.0
  0
ARC
  8
L1
 10
2.900000
 20
4.800000
 30
0.0
 40
0.125000
 50
-104.605447
 51
1.920911
  0
LINE
  8
L1
 10
2.868480
 20
4.679040
 30
0.0
 11
2.371930
 21
4.808410
 31
0.0
  0
ARC
  8
L1
 10
2.403450
 20
4.929370
 30
0.0
 40
0.125000
 50
75.394553
 51
-104.603070
  0
LINE
  8
L1
 10
2.434970
 20
5.050330
 30
0.0
 11
2.707490
 21
4.979330
 31
0.0
  0
LINE
  8
L1
 10
2.707490
 20
4.979330
 30
0.0
 11
2.767300
 21
5.027190
 31
0.0
  0
LINE
  8
L1
 10
2.767300
 20
5.027190
 30
0.0
 11
2.757850
 21
5.308650
 31
0.0
  0
ARC
  8
L1
 10
2.882780
 20
5.312840
 30
0.0
 40
0.125000
 50
1.920911
 51
-178.076861
  0
LINE
  8
L1
 10
3.007710
 20
5.317030
 30
0.0
 11
3.024930
 21
4.804190
 31
0.0
  0
ARC
  8
L1
 10
0.900000
 20
0.000000
 30
0.0
 40
0.550000
 50
90.000000
 51
-90.000000
  0
ARC
  8
L1
 10
0.900000
 20
0.000000
 30
0.0
 40
0.550000
 50
-90.000000
 51
90.000000
  0
ARC
  8
L1
 10
2.500000
 20
0.000000
 30
0.0
 40
0.550000
 50
90.000000
 51
-90.000000
  0
ARC
  8
L1
 10
2.500000
 20
0.000000
 30
0.0
 40
0.550000
 50
-90.000000
 51
90.000000
  0
ARC
  8
L1
 10
4.100000
 20
0.000000
 30
0.0
 40
0.550000
 50
90.000000
 51
-90.000000
  0
ARC
  8
L1
 10
4.100000
 20
0.000000
 30
0.0
 40
0.550000
 50
-90.000000
 51
90.000000
  0
ARC
  8
L1
 10
4.100000
 20
5.300000
 30
0.0
 40
0.550000
 50
90.000000
 51
-90.000000
  0
ARC
  8
L1
 10
4.100000
 20
5.300000
 30
0.0
 40
0.550000
 50
-90.000000
 51
90.000000
  0
ARC
  8
L1
 10
2.500000
 20
5.300000
 30
0.0
 40
0.550000
 50
90.000000
 51
-90.000000
  0
ARC
  8
L1
 10
2.500000
 20
5.300000
 30
0.0
 40
0.550000
 50
-90.000000
 51
90.000000
  0
ARC
  8
L1
 10
0.900000
 20
5.300000
 30
0.0
 40
0.550000
 50
90.000000
 51
-90.000000
  0
ARC
  8
L1
 10
0.900000
 20
5.300000
 30
0.0
 40
0.550000
 50
-90.000000
 51
90.000000
  0
ARC
  8
L4
 10
0.900000
 20
5.300000
 30
0.0
 40
0.550000
 50
90.000000
 51
-90.000000
  0
ARC
  8
L4
 10
0.900000
 20
5.300000
 30
0.0
 40
0.550000
 50
-90.000000
 51
90.000000
  0
ARC
  8
L4
 10
2.500000
 20
5.300000
 30
0.0
 40
0.550000
 50
90.000000
 51
-90.000000
  0
ARC
  8
L4
 10
2.500000
 20
5.300000
 30
0.0
 40
0.550000
 50
-90.000000
 51
90.000000
  0
ARC
  8
L4
 10
4.100000
 20
5.300000
 30
0.0
 40
0.550000
 50
90.000000
 51
-90.000000
  0
ARC
  8
L4
 10
4.100000
 20
5.300000
 30
0.0
 40
0.550000
 50
-90.000000
 51
90.000000
  0
ARC
  8
L4
 10
4.100000
 20
0.000000
 30
0.0
 40
0.550000
 50
90.000000
 51
-90.000000
  0
ARC
  8
L4
 10
4.100000
 20
0.000000
 30
0.0
 40
0.550000
 50
-90.000000
 51
90.000000
  0
ARC
  8
L4
 10
2.500000
 20
0.000000
 30
0.0
 40
0.550000
 50
90.000000
 51
-90.000000
  0
ARC
  8
L4
 10
2.500000
 20
0.000000
 30
0.0
 40
0.550000
 50
-90.000000
 51
90.000000
  0
ARC
  8
L4
 10
0.900000
 20
0.000000
 30
0.0
 40
0.550000
 50
90.000000
 51
-90.000000
  0
ARC
  8
L4
 10
0.900000
 20
0.000000
 30
0.0
 40
0.550000
 50
-90.000000
 51
90.000000
  0
ARC
  8
Resist-A
 10
0.900000
 20
5.300000
 30
0.0
 40
0.600000
 50
90.000000
 51
-90.000000
  0
ARC
  8
Resist-A
 10
0.900000
 20
5.300000
 30
0.0
 40
0.600000
 50
-90.000000
 51
90.000000
  0
ARC
  8
Resist-A
 10
2.500000
 20
5.300000
 30
0.0
 40
0.600000
 50
90.000000
 51
-90.000000
  0
ARC
  8
Resist-A
 10
2.500000
 20
5.300000
 30
0.0
 40
0.600000
 50
-90.000000
 51
90.000000
  0
ARC
  8
Resist-A
 10
4.100000
 20
5.300000
 30
0.0
 40
0.600000
 50
90.000000
 51
-90.000000
  0
ARC
  8
Resist-A
 10
4.100000
 20
5.300000
 30
0.0
 40
0.600000
 50
-90.000000
 51
90.000000
  0
ARC
  8
Resist-A
 10
4.100000
 20
0.000000
 30
0.0
 40
0.600000
 50
90.000000
 51
-90.000000
  0
ARC
  8
Resist-A
 10
4.100000
 20
0.000000
 30
0.0
 40
0.600000
 50
-90.000000
 51
90.000000
  0
ARC
  8
Resist-A
 10
2.500000
 20
0.000000
 30
0.0
 40
0.600000
 50
90.000000
 51
-90.000000
  0
ARC
  8
Resist-A
 10
2.500000
 20
0.000000
 30
0.0
 40
0.600000
 50
-90.000000
 51
90.000000
  0
ARC
  8
Resist-A
 10
0.900000
 20
0.000000
 30
0.0
 40
0.600000
 50
90.000000
 51
-90.000000
  0
ARC
  8
Resist-A
 10
0.900000
 20
0.000000
 30
0.0
 40
0.600000
 50
-90.000000
 51
90.000000
  0
ARC
  8
Resist-B
 10
4.100000
 20
5.300000
 30
0.0
 40
0.600000
 50
90.000000
 51
-90.000000
  0
ARC
  8
Resist-B
 10
4.100000
 20
5.300000
 30
0.0
 40
0.600000
 50
-90.000000
 51
90.000000
  0
ARC
  8
Resist-B
 10
2.500000
 20
5.300000
 30
0.0
 40
0.600000
 50
90.000000
 51
-90.000000
  0
ARC
  8
Resist-B
 10
2.500000
 20
5.300000
 30
0.0
 40
0.600000
 50
-90.000000
 51
90.000000
  0
ARC
  8
Resist-B
 10
0.900000
 20
5.300000
 30
0.0
 40
0.600000
 50
90.000000
 51
-90.000000
  0
ARC
  8
Resist-B
 10
0.900000
 20
5.300000
 30
0.0
 40
0.600000
 50
-90.000000
 51
90.000000
  0
ARC
  8
Resist-B
 10
0.900000
 20
0.000000
 30
0.0
 40
0.600000
 50
90.000000
 51
-90.000000
  0
ARC
  8
Resist-B
 10
0.900000
 20
0.000000
 30
0.0
 40
0.600000
 50
-90.000000
 51
90.000000
  0
ARC
  8
Resist-B
 10
2.500000
 20
0.000000
 30
0.0
 40
0.600000
 50
90.000000
 51
-90.000000
  0
ARC
  8
Resist-B
 10
2.500000
 20
0.000000
 30
0.0
 40
0.600000
 50
-90.000000
 51
90.000000
  0
ARC
  8
Resist-B
 10
4.100000
 20
0.000000
 30
0.0
 40
0.600000
 50
90.000000
 51
-90.000000
  0
ARC
  8
Resist-B
 10
4.100000
 20
0.000000
 30
0.0
 40
0.600000
 50
-90.000000
 51
90.000000
  0
ARC
  8
Silk-B
 10
5.021950
 20
0.075000
 30
0.0
 40
0.075000
 50
-175.349924
 51
-90.000000
  0
ARC
  8
Silk-B
 10
4.100000
 20
0.000000
 30
0.0
 40
0.850000
 50
4.650789
 51
79.094589
  0
ARC
  8
Silk-B
 10
4.275000
 20
0.908300
 30
0.0
 40
0.075000
 50
180.000000
 51
-100.905435
  0
LINE
  8
Silk-B
 10
4.200000
 20
0.908300
 30
0.0
 11
4.200000
 21
4.391700
 31
0.0
  0
ARC
  8
Silk-B
 10
4.275000
 20
4.391700
 30
0.0
 40
0.075000
 50
100.905435
 51
180.000000
  0
ARC
  8
Silk-B
 10
4.100000
 20
5.300000
 30
0.0
 40
0.850000
 50
-79.094589
 51
-4.650789
  0
ARC
  8
Silk-B
 10
5.021950
 20
5.225000
 30
0.0
 40
0.075000
 50
90.000000
 51
175.349924
  0
LINE
  8
Silk-B
 10
5.021950
 20
5.300000
 30
0.0
 11
5.425000
 21
5.300000
 31
0.0
  0
ARC
  8
Silk-B
 10
5.425000
 20
5.225000
 30
0.0
 40
0.075000
 50
0.000000
 51
90.000000
  0
LINE
  8
Silk-B
 10
5.500000
 20
5.225000
 30
0.0
 11
5.500000
 21
0.075000
 31
0.0
  0
ARC
  8
Silk-B
 10
5.425000
 20
0.075000
 30
0.0
 40
0.075000
 50
-90.000000
 51
0.000000
  0
LINE
  8
Silk-B
 10
5.425000
 20
0.000000
 30
0.0
 11
5.021950
 21
0.000000
 31
0.0
  0
ARC
  8
Silk-B
 10
1.322220
 20
1.400000
 30
0.0
 40
0.100000
 50
90.000000
 51
-90.000000
  0
LINE
  8
Silk-B
 10
1.322220
 20
1.500000
 30
0.0
 11
2.077780
 21
1.500000
 31
0.0
  0
LINE
  8
Silk-B
 10
2.077780
 20
1.500000
 30
0.0
 11
2.077780
 21
1.776390
 31
0.0
  0
LINE
  8
Silk-B
 10
2.077780
 20
1.776390
 30
0.0
 11
2.059980
 21
1.811980
 31
0.0
  0
LINE
  8
Silk-B
 10
2.059980
 20
1.811980
 30
0.0
 11
2.015440
 21
1.866430
 31
0.0
  0
LINE
  8
Silk-B
 10
2.015440
 20
1.866430
 30
0.0
 11
1.989890
 21
1.877780
 31
0.0
  0
LINE
  8
Silk-B
 10
1.989890
 20
1.877780
 30
0.0
 11
1.937020
 21
1.877780
 31
0.0
  0
LINE
  8
Silk-B
 10
1.937020
 20
1.877780
 30
0.0
 11
1.861880
 21
1.836030
 31
0.0
  0
LINE
  8
Silk-B
 10
1.861880
 20
1.836030
 30
0.0
 11
1.855560
 21
1.814950
 31
0.0
  0
LINE
  8
Silk-B
 10
1.855560
 20
1.814950
 30
0.0
 11
1.855560
 21
1.400000
 31
0.0
  0
ARC
  8
Silk-B
 10
1.755560
 20
1.400000
 30
0.0
 40
0.100000
 50
180.000000
 51
0.000000
  0
LINE
  8
Silk-B
 10
1.655560
 20
1.400000
 30
0.0
 11
1.655560
 21
1.829630
 31
0.0
  0
ARC
  8
Silk-B
 10
1.755560
 20
1.829630
 30
0.0
 40
0.100000
 50
163.302951
 51
180.000000
  0
LINE
  8
Silk-B
 10
1.659780
 20
1.858360
 30
0.0
 11
1.682000
 21
1.932430
 31
0.0
  0
ARC
  8
Silk-B
 10
1.777780
 20
1.903700
 30
0.0
 40
0.100000
 50
119.059056
 51
163.302951
  0
LINE
  8
Silk-B
 10
1.729210
 20
1.991110
 30
0.0
 11
1.862540
 21
2.065190
 31
0.0
  0
ARC
  8
Silk-B
 10
1.911110
 20
1.977780
 30
0.0
 40
0.100000
 50
90.000000
 51
119.059056
  0
LINE
  8
Silk-B
 10
1.911110
 20
2.077780
 30
0.0
 11
2.011110
 21
2.077780
 31
0.0
  0
ARC
  8
Silk-B
 10
2.011110
 20
1.977780
 30
0.0
 40
0.100000
 50
66.039256
 51
90.000000
  0
LINE
  8
Silk-B
 10
2.051720
 20
2.069160
 30
0.0
 11
2.118390
 21
2.039530
 31
0.0
  0
ARC
  8
Silk-B
 10
2.077780
 20
1.948150
 30
0.0
 40
0.100000
 50
39.286182
 51
66.039256
  0
LINE
  8
Silk-B
 10
2.155180
 20
2.011470
 30
0.0
 11
2.221840
 21
1.929990
 31
0.0
  0
ARC
  8
Silk-B
 10
2.144440
 20
1.866670
 30
0.0
 40
0.100000
 50
26.570176
 51
39.286182
  0
LINE
  8
Silk-B
 10
2.233880
 20
1.911400
 30
0.0
 11
2.267220
 21
1.844730
 31
0.0
  0
ARC
  8
Silk-B
 10
2.177780
 20
1.800000
 30
0.0
 40
0.100000
 50
0.000000
 51
26.570176
  0
LINE
  8
Silk-B
 10
2.277780
 20
1.800000
 30
0.0
 11
2.277780
 21
1.400000
 31
0.0
  0
ARC
  8
Silk-B
 10
2.177780
 20
1.400000
 30
0.0
 40
0.100000
 50
-90.000000
 51
0.000000
  0
LINE
  8
Silk-B
 10
2.177780
 20
1.300000
 30
0.0
 11
1.322220
 21
1.300000
 31
0.0
  0
ARC
  8
Silk-B
 10
1.322220
 20
2.518520
 30
0.0
 40
0.100000
 50
180.000000
 51
0.000000
  0
LINE
  8
Silk-B
 10
1.222220
 20
2.518520
 30
0.0
 11
1.222220
 21
2.822220
 31
0.0
  0
ARC
  8
Silk-B
 10
1.322220
 20
2.822220
 30
0.0
 40
0.100000
 50
0.000000
 51
180.000000
  0
LINE
  8
Silk-B
 10
1.422220
 20
2.822220
 30
0.0
 11
1.422220
 21
2.518520
 31
0.0
  0
ARC
  8
Silk-B
 10
1.322220
 20
2.674070
 30
0.0
 40
0.100000
 50
90.000000
 51
-90.000000
  0
LINE
  8
Silk-B
 10
1.322220
 20
2.774070
 30
0.0
 11
2.177780
 21
2.774070
 31
0.0
  0
ARC
  8
Silk-B
 10
2.177780
 20
2.674070
 30
0.0
 40
0.100000
 50
-90.000000
 51
90.000000
  0
LINE
  8
Silk-B
 10
2.177780
 20
2.574070
 30
0.0
 11
1.322220
 21
2.574070
 31
0.0
  0
ARC
  8
Silk-B
 10
2.177780
 20
2.518520
 30
0.0
 40
0.100000
 50
180.000000
 51
0.000000
  0
LINE
  8
Silk-B
 10
2.077780
 20
2.518520
 30
0.0
 11
2.077780
 21
2.822220
 31
0.0
  0
ARC
  8
Silk-B
 10
2.177780
 20
2.822220
 30
0.0
 40
0.100000
 50
0.000000
 51
180.000000
  0
LINE
  8
Silk-B
 10
2.277780
 20
2.822220
 30
0.0
 11
2.277780
 21
2.518520
 31
0.0
  0
ARC
  8
Silk-B
 10
1.322220
 20
3.400000
 30
0.0
 40
0.100000
 50
90.000000
 51
-90.000000
  0
LINE
  8
Silk-B
 10
1.322220
 20
3.500000
 30
0.0
 11
2.077780
 21
3.500000
 31
0.0
  0
LINE
  8
Silk-B
 10
2.077780
 20
3.500000
 30
0.0
 11
2.077780
 21
3.776390
 31
0.0
  0
LINE
  8
Silk-B
 10
2.077780
 20
3.776390
 30
0.0
 11
2.059980
 21
3.811980
 31
0.0
  0
LINE
  8
Silk-B
 10
2.059980
 20
3.811980
 30
0.0
 11
2.015440
 21
3.866430
 31
0.0
  0
LINE
  8
Silk-B
 10
2.015440
 20
3.866430
 30
0.0
 11
1.989890
 21
3.877780
 31
0.0
  0
LINE
  8
Silk-B
 10
1.989890
 20
3.877780
 30
0.0
 11
1.937020
 21
3.877780
 31
0.0
  0
LINE
  8
Silk-B
 10
1.937020
 20
3.877780
 30
0.0
 11
1.861880
 21
3.836030
 31
0.0
  0
LINE
  8
Silk-B
 10
1.861880
 20
3.836030
 30
0.0
 11
1.855560
 21
3.814950
 31
0.0
  0
LINE
  8
Silk-B
 10
1.855560
 20
3.814950
 30
0.0
 11
1.855560
 21
3.400000
 31
0.0
  0
ARC
  8
Silk-B
 10
1.755560
 20
3.400000
 30
0.0
 40
0.100000
 50
180.000000
 51
0.000000
  0
LINE
  8
Silk-B
 10
1.655560
 20
3.400000
 30
0.0
 11
1.655560
 21
3.829630
 31
0.0
  0
ARC
  8
Silk-B
 10
1.755560
 20
3.829630
 30
0.0
 40
0.100000
 50
163.302951
 51
180.000000
  0
LINE
  8
Silk-B
 10
1.659780
 20
3.858360
 30
0.0
 11
1.682000
 21
3.932430
 31
0.0
  0
ARC
  8
Silk-B
 10
1.777780
 20
3.903700
 30
0.0
 40
0.100000
 50
119.059056
 51
163.302951
  0
LINE
  8
Silk-B
 10
1.729210
 20
3.991110
 30
0.0
 11
1.862540
 21
4.065190
 31
0.0
  0
ARC
  8
Silk-B
 10
1.911110
 20
3.977780
 30
0.0
 40
0.100000
 50
90.000000
 51
119.059056
  0
LINE
  8
Silk-B
 10
1.911110
 20
4.077780
 30
0.0
 11
2.011110
 21
4.077780
 31
0.0
  0
ARC
  8
Silk-B
 10
2.011110
 20
3.977780
 30
0.0
 40
0.100000
 50
66.039256
 51
90.000000
  0
LINE
  8
Silk-B
 10
2.051720
 20
4.069160
 30
0.0
 11
2.118390
 21
4.039530
 31
0.0
  0
ARC
  8
Silk-B
 10
2.077780
 20
3.948150
 30
0.0
 40
0.100000
 50
39.286182
 51
66.039256
  0
LINE
  8
Silk-B
 10
2.155180
 20
4.011470
 30
0.0
 11
2.221840
 21
3.929990
 31
0.0
  0
ARC
  8
Silk-B
 10
2.144440
 20
3.866670
 30
0.0
 40
0.100000
 50
26.570176
 51
39.286182
  0
LINE
  8
Silk-B
 10
2.233880
 20
3.911400
 30
0.0
 11
2.267220
 21
3.844730
 31
0.0
  0
ARC
  8
Silk-B
 10
2.177780
 20
3.800000
 30
0.0
 40
0.100000
 50
0.000000
 51
26.570176
  0
LINE
  8
Silk-B
 10
2.277780
 20
3.800000
 30
0.0
 11
2.277780
 21
3.400000
 31
0.0
  0
ARC
  8
Silk-B
 10
2.177780
 20
3.400000
 30
0.0
 40
0.100000
 50
-90.000000
 51
0.000000
  0
LINE
  8
Silk-B
 10
2.177780
 20
3.300000
 30
0.0
 11
1.322220
 21
3.300000
 31
0.0
  0
ARC
  8
Silk-B
 10
1.755560
 20
3.762960
 30
0.0
 40
0.100000
 50
-120.164881
 51
59.835558
  0
LINE
  8
Silk-B
 10
1.705310
 20
3.676500
 30
0.0
 11
1.271970
 21
3.928350
 31
0.0
  0
ARC
  8
Silk-B
 10
1.322220
 20
4.014810
 30
0.0
 40
0.100000
 50
59.835119
 51
-120.164442
  0
LINE
  8
Silk-B
 10
1.372470
 20
4.101270
 30
0.0
 11
1.805810
 21
3.849420
 31
0.0
  0
CIRCLE
  8
Hole
 10
3.400000
 20
2.650000
 30
0.0
 40
0.400000
  0
ARC
  8
L1
 10
3.300000
 20
3.975000
 30
0.0
 40
0.025000
 50
90.000000
 51
180.000000
  0
LINE
  8
L1
 10
3.300000
 20
4.000000
 30
0.0
 11
3.500000
 21
4.000000
 31
0.0
  0
ARC
  8
L1
 10
3.500000
 20
3.975000
 30
0.0
 40
0.025000
 50
0.000000
 51
90.000000
  0
LINE
  8
L1
 10
3.525000
 20
3.975000
 30
0.0
 11
3.525000
 21
3.525000
 31
0.0
  0
ARC
  8
L1
 10
3.500000
 20
3.525000
 30
0.0
 40
0.025000
 50
-90.000000
 51
0.000000
  0
LINE
  8
L1
 10
3.500000
 20
3.500000
 30
0.0
 11
3.300000
 21
3.500000
 31
0.0
  0
ARC
  8
L1
 10
3.300000
 20
3.525000
 30
0.0
 40
0.025000
 50
180.000000
 51
-90.000000
  0
LINE
  8
L1
 10
3.275000
 20
3.525000
 30
0.0
 11
3.275000
 21
3.975000
 31
0.0
  0
ARC
  8
L1
 10
2.800000
 20
3.975000
 30
0.0
 40
0.025000
 50
90.000000
 51
180.000000
  0
LINE
  8
L1
 10
2.800000
 20
4.000000
 30
0.0
 11
3.000000
 21
4.000000
 31
0.0
  0
ARC
  8
L1
 10
3.000000
 20
3.975000
 30
0.0
 40
0.025000
 50
0.000000
 51
90.000000
  0
LINE
  8
L1
 10
3.025000
 20
3.975000
 30
0.0
 11
3.025000
 21
3.525000
 31
0.0
  0
ARC
  8
L1
 10
3.000000
 20
3.525000
 30
0.0
 40
0.025000
 50
-90.000000
 51
0.000000
  0
LINE
  8
L1
 10
3.000000
 20
3.500000
 30
0.0
 11
2.800000
 21
3.500000
 31
0.0
  0
ARC
  8
L1
 10
2.800000
 20
3.525000
 30
0.0
 40
0.025000
 50
180.000000
 51
-90.000000
  0
LINE
  8
L1
 10
2.775000
 20
3.525000
 30
0.0
 11
2.775000
 21
3.975000
 31
0.0
  0
ARC
  8
L1
 10
2.300000
 20
3.975000
 30
0.0
 40
0.025000
 50
90.000000
 51
180.000000
  0
LINE
  8
L1
 10
2.300000
 20
4.000000
 30
0.0
 11
2.500000
 21
4.000000
 31
0.0
  0
ARC
  8
L1
 10
2.500000
 20
3.975000
 30
0.0
 40
0.025000
 50
0.000000
 51
90.000000
  0
LINE
  8
L1
 10
2.525000
 20
3.975000
 30
0.0
 11
2.525000
 21
3.525000
 31
0.0
  0
ARC
  8
L1
 10
2.500000
 20
3.525000
 30
0.0
 40
0.025000
 50
-90.000000
 51
0.000000
  0
LINE
  8
L1
 10
2.500000
 20
3.500000
 30
0.0
 11
2.300000
 21
3.500000
 31
0.0
  0
ARC
  8
L1
 10
2.300000
 20
3.525000
 30
0.0
 40
0.025000
 50
180.000000
 51
-90.000000
  0
LINE
  8
L1
 10
2.275000
 20
3.525000
 30
0.0
 11
2.275000
 21
3.975000
 31
0.0
  0
ARC
  8
L1
 10
1.800000
 20
3.975000
 30
0.0
 40
0.025000
 50
90.000000
 51
180.000000
  0
LINE
  8
L1
 10
1.800000
 20
4.000000
 30
0.0
 11
2.000000
 21
4.000000
 31
0.0
  0
ARC
  8
L1
 10
2.000000
 20
3.975000
 30
0.0
 40
0.025000
 50
0.000000
 51
90.000000
  0
LINE
  8
L1
 10
2.025000
 20
3.975000
 30
0.0
 11
2.025000
 21
3.525000
 31
0.0
  0
ARC
  8
L1
 10
2.000000
 20
3.525000
 30
0.0
 40
0.025000
 50
-90.000000
 51
0.000000
  0
LINE
  8
L1
 10
2.000000
 20
3.500000
 30
0.0
 11
1.800000
 21
3.500000
 31
0.0
  0
ARC
  8
L1
 10
1.800000
 20
3.525000
 30
0.0
 40
0.025000
 50
180.000000
 51
-90.000000
  0
LINE
  8
L1
 10
1.775000
 20
3.525000
 30
0.0
 11
1.775000
 21
3.975000
 31
0.0
  0
ARC
  8
L1
 10
1.800000
 20
1.775000
 30
0.0
 40
0.025000
 50
90.000000
 51
180.000000
  0
LINE
  8
L1
 10
1.800000
 20
1.800000
 30
0.0
 11
2.000000
 21
1.800000
 31
0.0
  0
ARC
  8
L1
 10
2.000000
 20
1.775000
 30
0.0
 40
0.025000
 50
0.000000
 51
90.000000
  0
LINE
  8
L1
 10
2.025000
 20
1.775000
 30
0.0
 11
2.025000
 21
1.325000
 31
0.0
  0
ARC
  8
L1
 10
2.000000
 20
1.325000
 30
0.0
 40
0.025000
 50
-90.000000
 51
0.000000
  0
LINE
  8
L1
 10
2.000000
 20
1.300000
 30
0.0
 11
1.800000
 21
1.300000
 31
0.0
  0
ARC
  8
L1
 10
1.800000
 20
1.325000
 30
0.0
 40
0.025000
 50
180.000000
 51
-90.000000
  0
LINE
  8
L1
 10
1.775000
 20
1.325000
 30
0.0
 11
1.775000
 21
1.775000
 31
0.0
  0
ARC
  8
L1
 10
2.300000
 20
1.775000
 30
0.0
 40
0.025000
 50
90.000000
 51
180.000000
  0
LINE
  8
L1
 10
2.300000
 20
1.800000
 30
0.0
 11
2.500000
 21
1.800000
 31
0.0
  0
ARC
  8
L1
 10
2.500000
 20
1.775000
 30
0.0
 40
0.025000
 50
0.000000
 51
90.000000
  0
LINE
  8
L1
 10
2.525000
 20
1.775000
 30
0.0
 11
2.525000
 21
1.325000
 31
0.0
  0
ARC
  8
L1
 10
2.500000
 20
1.325000
 30
0.0
 40
0.025000
 50
-90.000000
 51
0.000000
  0
LINE
  8
L1
 10
2.500000
 20
1.300000
 30
0.0
 11
2.300000
 21
1.300000
 31
0.0
  0
ARC
  8
L1
 10
2.300000
 20
1.325000
 30
0.0
 40
0.025000
 50
180.000000
 51
-90.000000
  0
LINE
  8
L1
 10
2.275000
 20
1.325000
 30
0.0
 11
2.275000
 21
1.775000
 31
0.0
  0
ARC
  8
L1
 10
2.800000
 20
1.775000
 30
0.0
 40
0.025000
 50
90.000000
 51
180.000000
  0
LINE
  8
L1
 10
2.800000
 20
1.800000
 30
0.0
 11
3.000000
 21
1.800000
 31
0.0
  0
ARC
  8
L1
 10
3.000000
 20
1.775000
 30
0.0
 40
0.025000
 50
0.000000
 51
90.000000
  0
LINE
  8
L1
 10
3.025000
 20
1.775000
 30
0.0
 11
3.025000
 21
1.325000
 31
0.0
  0
ARC
  8
L1
 10
3.000000
 20
1.325000
 30
0.0
 40
0.025000
 50
-90.000000
 51
0.000000
  0
LINE
  8
L1
 10
3.000000
 20
1.300000
 30
0.0
 11
2.800000
 21
1.300000
 31
0.0
  0
ARC
  8
L1
 10
2.800000
 20
1.325000
 30
0.0
 40
0.025000
 50
180.000000
 51
-90.000000
  0
LINE
  8
L1
 10
2.775000
 20
1.325000
 30
0.0
 11
2.775000
 21
1.775000
 31
0.0
  0
ARC
  8
L1
 10
3.300000
 20
1.775000
 30
0.0
 40
0.025000
 50
90.000000
 51
180.000000
  0
LINE
  8
L1
 10
3.300000
 20
1.800000
 30
0.0
 11
3.500000
 21
1.800000
 31
0.0
  0
ARC
  8
L1
 10
3.500000
 20
1.775000
 30
0.0
 40
0.025000
 50
0.000000
 51
90.000000
  0
LINE
  8
L1
 10
3.525000
 20
1.775000
 30
0.0
 11
3.525000
 21
1.325000
 31
0.0
  0
ARC
  8
L1
 10
3.500000
 20
1.325000
 30
0.0
 40
0.025000
 50
-90.000000
 51
0.000000
  0
LINE
  8
L1
 10
3.500000
 20
1.300000
 30
0.0
 11
3.300000
 21
1.300000
 31
0.0
  0
ARC
  8
L1
 10
3.300000
 20
1.325000
 30
0.0
 40
0.025000
 50
180.000000
 51
-90.000000
  0
LINE
  8
L1
 10
3.275000
 20
1.325000
 30
0.0
 11
3.275000
 21
1.775000
 31
0.0
  0
ARC
  8
Resist-A
 10
3.550000
 20
1.375000
 30
0.0
 40
0.025000
 50
-90.000000
 51
0.000000
  0
LINE
  8
Resist-A
 10
3.550000
 20
1.350000
 30
0.0
 11
3.250000
 21
1.350000
 31
0.0
  0
ARC
  8
Resist-A
 10
3.250000
 20
1.375000
 30
0.0
 40
0.025000
 50
180.000000
 51
-90.000000
  0
LINE
  8
Resist-A
 10
3.225000
 20
1.375000
 30
0.0
 11
3.225000
 21
1.825000
 31
0.0
  0
ARC
  8
Resist-A
 10
3.250000
 20
1.825000
 30
0.0
 40
0.025000
 50
90.000000
 51
180.000000
  0
LINE
  8
Resist-A
 10
3.250000
 20
1.850000
 30
0.0
 11
3.550000
 21
1.850000
 31
0.0
  0
ARC
  8
Resist-A
 10
3.550000
 20
1.825000
 30
0.0
 40
0.025000
 50
0.000000
 51
90.000000
  0
LINE
  8
Resist-A
 10
3.575000
 20
1.825000
 30
0.0
 11
3.575000
 21
1.375000
 31
0.0
  0
ARC
  8
Resist-A
 10
3.550000
 20
3.475000
 30
0.0
 40
0.025000
 50
-90.000000
 51
0.000000
  0
LINE
  8
Resist-A
 10
3.550000
 20
3.450000
 30
0.0
 11
3.250000
 21
3.450000
 31
0.0
  0
ARC
  8
Resist-A
 10
3.250000
 20
3.475000
 30
0.0
 40
0.025000
 50
180.000000
 51
-90.000000
  0
LINE
  8
Resist-A
 10
3.225000
 20
3.475000
 30
0.0
 11
3.225000
 21
3.925000
 31
0.0
  0
ARC
  8
Resist-A
 10
3.250000
 20
3.925000
 30
0.0
 40
0.025000
 50
90.000000
 51
180.000000
  0
LINE
  8
Resist-A
 10
3.250000
 20
3.950000
 30
0.0
 11
3.550000
 21
3.950000
 31
0.0
  0
ARC
  8
Resist-A
 10
3.550000
 20
3.925000
 30
0.0
 40
0.025000
 50
0.000000
 51
90.000000
  0
LINE
  8
Resist-A
 10
3.575000
 20
3.925000
 30
0.0
 11
3.575000
 21
3.475000
 31
0.0
  0
ARC
  8
Resist-A
 10
3.050000
 20
1.375000
 30
0.0
 40
0.025000
 50
-90.000000
 51
0.000000
  0
LINE
  8
Resist-A
 10
3.050000
 20
1.350000
 30
0.0
 11
2.750000
 21
1.350000
 31
0.0
  0
ARC
  8
Resist-A
 10
2.750000
 20
1.375000
 30
0.0
 40
0.025000
 50
180.000000
 51
-90.000000
  0
LINE
  8
Resist-A
 10
2.725000
 20
1.375000
 30
0.0
 11
2.725000
 21
1.825000
 31
0.0
  0
ARC
  8
Resist-A
 10
2.750000
 20
1.825000
 30
0.0
 40
0.025000
 50
90.000000
 51
180.000000
  0
LINE
  8
Resist-A
 10
2.750000
 20
1.850000
 30
0.0
 11
3.050000
 21
1.850000
 31
0.0
  0
ARC
  8
Resist-A
 10
3.050000
 20
1.825000
 30
0.0
 40
0.025000
 50
0.000000
 51
90.000000
  0
LINE
  8
Resist-A
 10
3.075000
 20
1.825000
 30
0.0
 11
3.075000
 21
1.375000
 31
0.0
  0
ARC
  8
Resist-A
 10
2.550000
 20
1.375000
 30
0.0
 40
0.025000
 50
-90.000000
 51
0.000000
  0
LINE
  8
Resist-A
 10
2.550000
 20
1.350000
 30
0.0
 11
2.250000
 21
1.350000
 31
0.0
  0
ARC
  8
Resist-A
 10
2.250000
 20
1.375000
 30
0.0
 40
0.025000
 50
180.000000
 51
-90.000000
  0
LINE
  8
Resist-A
 10
2.225000
 20
1.375000
 30
0.0
 11
2.225000
 21
1.825000
 31
0.0
  0
ARC
  8
Resist-A
 10
2.250000
 20
1.825000
 30
0.0
 40
0.025000
 50
90.000000
 51
180.000000
  0
LINE
  8
Resist-A
 10
2.250000
 20
1.850000
 30
0.0
 11
2.550000
 21
1.850000
 31
0.0
  0
ARC
  8
Resist-A
 10
2.550000
 20
1.825000
 30
0.0
 40
0.025000
 50
0.000000
 51
90.000000
  0
LINE
  8
Resist-A
 10
2.575000
 20
1.825000
 30
0.0
 11
2.575000
 21
1.375000
 31
0.0
  0
ARC
  8
Resist-A
 10
2.050000
 20
1.375000
 30
0.0
 40
0.025000
 50
-90.000000
 51
0.000000
  0
LINE
  8
Resist-A
 10
2.050000
 20
1.350000
 30
0.0
 11
1.750000
 21
1.350000
 31
0.0
  0
ARC
  8
Resist-A
 10
1.750000
 20
1.375000
 30
0.0
 40
0.025000
 50
180.000000
 51
-90.000000
  0
LINE
  8
Resist-A
 10
1.725000
 20
1.375000
 30
0.0
 11
1.725000
 21
1.825000
 31
0.0
  0
ARC
  8
Resist-A
 10
1.750000
 20
1.825000
 30
0.0
 40
0.025000
 50
90.000000
 51
180.000000
  0
LINE
  8
Resist-A
 10
1.750000
 20
1.850000
 30
0.0
 11
2.050000
 21
1.850000
 31
0.0
  0
ARC
  8
Resist-A
 10
2.050000
 20
1.825000
 30
0.0
 40
0.025000
 50
0.000000
 51
90.000000
  0
LINE
  8
Resist-A
 10
2.075000
 20
1.825000
 30
0.0
 11
2.075000
 21
1.375000
 31
0.0
  0
ARC
  8
Resist-A
 10
3.050000
 20
3.475000
 30
0.0
 40
0.025000
 50
-90.000000
 51
0.000000
  0
LINE
  8
Resist-A
 10
3.050000
 20
3.450000
 30
0.0
 11
2.750000
 21
3.450000
 31
0.0
  0
ARC
  8
Resist-A
 10
2.750000
 20
3.475000
 30
0.0
 40
0.025000
 50
180.000000
 51
-90.000000
  0
LINE
  8
Resist-A
 10
2.725000
 20
3.475000
 30
0.0
 11
2.725000
 21
3.925000
 31
0.0
  0
ARC
  8
Resist-A
 10
2.750000
 20
3.925000
 30
0.0
 40
0.025000
 50
90.000000
 51
180.000000
  0
LINE
  8
Resist-A
 10
2.750000
 20
3.950000
 30
0.0
 11
3.050000
 21
3.950000
 31
0.0
  0
ARC
  8
Resist-A
 10
3.050000
 20
3.925000
 30
0.0
 40
0.025000
 50
0.000000
 51
90.000000
  0
LINE
  8
Resist-A
 10
3.075000
 20
3.925000
 30
0.0
 11
3.075000
 21
3.475000
 31
0.0
  0
ARC
  8
Resist-A
 10
2.550000
 20
3.475000
 30
0.0
 40
0.025000
 50
-90.000000
 51
0.000000
  0
LINE
  8
Resist-A
 10
2.550000
 20
3.450000
 30
0.0
 11
2.250000
 21
3.450000
 31
0.0
  0
ARC
  8
Resist-A
 10
2.250000
 20
3.475000
 30
0.0
 40
0.025000
 50
180.000000
 51
-90.000000
  0
LINE
  8
Resist-A
 10
2.225000
 20
3.475000
 30
0.0
 11
2.225000
 21
3.925000
 31
0.0
  0
ARC
  8
Resist-A
 10
2.250000
 20
3.925000
 30
0.0
 40
0.025000
 50
90.000000
 51
180.000000
  0
LINE
  8
Resist-A
 10
2.250000
 20
3.950000
 30
0.0
 11
2.550000
 21
3.950000
 31
0.0
  0
ARC
  8
Resist-A
 10
2.550000
 20
3.925000
 30
0.0
 40
0.025000
 50
0.000000
 51
90.000000
  0
LINE
  8
Resist-A
 10
2.575000
 20
3.925000
 30
0.0
 11
2.575000
 21
3.475000
 31
0.0
  0
ARC
  8
Resist-A
 10
2.050000
 20
3.475000
 30
0.0
 40
0.025000
 50
-90.000000
 51
0.000000
  0
LINE
  8
Resist-A
 10
2.050000
 20
3.450000
 30
0.0
 11
1.750000
 21
3.450000
 31
0.0
  0
ARC
  8
Resist-A
 10
1.750000
 20
3.475000
 30
0.0
 40
0.025000
 50
180.000000
 51
-90.000000
  0
LINE
  8
Resist-A
 10
1.725000
 20
3.475000
 30
0.0
 11
1.725000
 21
3.925000
 31
0.0
  0
ARC
  8
Resist-A
 10
1.750000
 20
3.925000
 30
0.0
 40
0.025000
 50
90.000000
 51
180.000000
  0
LINE
  8
Resist-A
 10
1.750000
 20
3.950000
 30
0.0
 11
2.050000
 21
3.950000
 31
0.0
  0
ARC
  8
Resist-A
 10
2.050000
 20
3.925000
 30
0.0
 40
0.025000
 50
0.000000
 51
90.000000
  0
LINE
  8
Resist-A
 10
2.075000
 20
3.925000
 30
0.0
 11
2.075000
 21
3.475000
 31
0.0
  0
CIRCLE
  8
Resist-A
 10
3.400000
 20
2.650000
 30
0.0
 40
0.558800
  0
ARC
  8
MetalMask-A
 10
3.300000
 20
1.775000
 30
0.0
 40
0.025000
 50
90.000000
 51
180.000000
  0
LINE
  8
MetalMask-A
 10
3.300000
 20
1.800000
 30
0.0
 11
3.500000
 21
1.800000
 31
0.0
  0
ARC
  8
MetalMask-A
 10
3.500000
 20
1.775000
 30
0.0
 40
0.025000
 50
0.000000
 51
90.000000
  0
LINE
  8
MetalMask-A
 10
3.525000
 20
1.775000
 30
0.0
 11
3.525000
 21
1.375000
 31
0.0
  0
ARC
  8
MetalMask-A
 10
3.500000
 20
1.375000
 30
0.0
 40
0.025000
 50
-90.000000
 51
0.000000
  0
LINE
  8
MetalMask-A
 10
3.500000
 20
1.350000
 30
0.0
 11
3.300000
 21
1.350000
 31
0.0
  0
ARC
  8
MetalMask-A
 10
3.300000
 20
1.375000
 30
0.0
 40
0.025000
 50
180.000000
 51
-90.000000
  0
LINE
  8
MetalMask-A
 10
3.275000
 20
1.375000
 30
0.0
 11
3.275000
 21
1.775000
 31
0.0
  0
ARC
  8
MetalMask-A
 10
3.300000
 20
3.925000
 30
0.0
 40
0.025000
 50
90.000000
 51
180.000000
  0
LINE
  8
MetalMask-A
 10
3.300000
 20
3.950000
 30
0.0
 11
3.500000
 21
3.950000
 31
0.0
  0
ARC
  8
MetalMask-A
 10
3.500000
 20
3.925000
 30
0.0
 40
0.025000
 50
0.000000
 51
90.000000
  0
LINE
  8
MetalMask-A
 10
3.525000
 20
3.925000
 30
0.0
 11
3.525000
 21
3.525000
 31
0.0
  0
ARC
  8
MetalMask-A
 10
3.500000
 20
3.525000
 30
0.0
 40
0.025000
 50
-90.000000
 51
0.000000
  0
LINE
  8
MetalMask-A
 10
3.500000
 20
3.500000
 30
0.0
 11
3.300000
 21
3.500000
 31
0.0
  0
ARC
  8
MetalMask-A
 10
3.300000
 20
3.525000
 30
0.0
 40
0.025000
 50
180.000000
 51
-90.000000
  0
LINE
  8
MetalMask-A
 10
3.275000
 20
3.525000
 30
0.0
 11
3.275000
 21
3.925000
 31
0.0
  0
ARC
  8
MetalMask-A
 10
2.800000
 20
1.775000
 30
0.0
 40
0.025000
 50
90.000000
 51
180.000000
  0
LINE
  8
MetalMask-A
 10
2.800000
 20
1.800000
 30
0.0
 11
3.000000
 21
1.800000
 31
0.0
  0
ARC
  8
MetalMask-A
 10
3.000000
 20
1.775000
 30
0.0
 40
0.025000
 50
0.000000
 51
90.000000
  0
LINE
  8
MetalMask-A
 10
3.025000
 20
1.775000
 30
0.0
 11
3.025000
 21
1.375000
 31
0.0
  0
ARC
  8
MetalMask-A
 10
3.000000
 20
1.375000
 30
0.0
 40
0.025000
 50
-90.000000
 51
0.000000
  0
LINE
  8
MetalMask-A
 10
3.000000
 20
1.350000
 30
0.0
 11
2.800000
 21
1.350000
 31
0.0
  0
ARC
  8
MetalMask-A
 10
2.800000
 20
1.375000
 30
0.0
 40
0.025000
 50
180.000000
 51
-90.000000
  0
LINE
  8
MetalMask-A
 10
2.775000
 20
1.375000
 30
0.0
 11
2.775000
 21
1.775000
 31
0.0
  0
ARC
  8
MetalMask-A
 10
2.300000
 20
1.775000
 30
0.0
 40
0.025000
 50
90.000000
 51
180.000000
  0
LINE
  8
MetalMask-A
 10
2.300000
 20
1.800000
 30
0.0
 11
2.500000
 21
1.800000
 31
0.0
  0
ARC
  8
MetalMask-A
 10
2.500000
 20
1.775000
 30
0.0
 40
0.025000
 50
0.000000
 51
90.000000
  0
LINE
  8
MetalMask-A
 10
2.525000
 20
1.775000
 30
0.0
 11
2.525000
 21
1.375000
 31
0.0
  0
ARC
  8
MetalMask-A
 10
2.500000
 20
1.375000
 30
0.0
 40
0.025000
 50
-90.000000
 51
0.000000
  0
LINE
  8
MetalMask-A
 10
2.500000
 20
1.350000
 30
0.0
 11
2.300000
 21
1.350000
 31
0.0
  0
ARC
  8
MetalMask-A
 10
2.300000
 20
1.375000
 30
0.0
 40
0.025000
 50
180.000000
 51
-90.000000
  0
LINE
  8
MetalMask-A
 10
2.275000
 20
1.375000
 30
0.0
 11
2.275000
 21
1.775000
 31
0.0
  0
ARC
  8
MetalMask-A
 10
1.800000
 20
1.775000
 30
0.0
 40
0.025000
 50
90.000000
 51
180.000000
  0
LINE
  8
MetalMask-A
 10
1.800000
 20
1.800000
 30
0.0
 11
2.000000
 21
1.800000
 31
0.0
  0
ARC
  8
MetalMask-A
 10
2.000000
 20
1.775000
 30
0.0
 40
0.025000
 50
0.000000
 51
90.000000
  0
LINE
  8
MetalMask-A
 10
2.025000
 20
1.775000
 30
0.0
 11
2.025000
 21
1.375000
 31
0.0
  0
ARC
  8
MetalMask-A
 10
2.000000
 20
1.375000
 30
0.0
 40
0.025000
 50
-90.000000
 51
0.000000
  0
LINE
  8
MetalMask-A
 10
2.000000
 20
1.350000
 30
0.0
 11
1.800000
 21
1.350000
 31
0.0
  0
ARC
  8
MetalMask-A
 10
1.800000
 20
1.375000
 30
0.0
 40
0.025000
 50
180.000000
 51
-90.000000
  0
LINE
  8
MetalMask-A
 10
1.775000
 20
1.375000
 30
0.0
 11
1.775000
 21
1.775000
 31
0.0
  0
ARC
  8
MetalMask-A
 10
2.800000
 20
3.925000
 30
0.0
 40
0.025000
 50
90.000000
 51
180.000000
  0
LINE
  8
MetalMask-A
 10
2.800000
 20
3.950000
 30
0.0
 11
3.000000
 21
3.950000
 31
0.0
  0
ARC
  8
MetalMask-A
 10
3.000000
 20
3.925000
 30
0.0
 40
0.025000
 50
0.000000
 51
90.000000
  0
LINE
  8
MetalMask-A
 10
3.025000
 20
3.925000
 30
0.0
 11
3.025000
 21
3.525000
 31
0.0
  0
ARC
  8
MetalMask-A
 10
3.000000
 20
3.525000
 30
0.0
 40
0.025000
 50
-90.000000
 51
0.000000
  0
LINE
  8
MetalMask-A
 10
3.000000
 20
3.500000
 30
0.0
 11
2.800000
 21
3.500000
 31
0.0
  0
ARC
  8
MetalMask-A
 10
2.800000
 20
3.525000
 30
0.0
 40
0.025000
 50
180.000000
 51
-90.000000
  0
LINE
  8
MetalMask-A
 10
2.775000
 20
3.525000
 30
0.0
 11
2.775000
 21
3.925000
 31
0.0
  0
ARC
  8
MetalMask-A
 10
2.300000
 20
3.925000
 30
0.0
 40
0.025000
 50
90.000000
 51
180.000000
  0
LINE
  8
MetalMask-A
 10
2.300000
 20
3.950000
 30
0.0
 11
2.500000
 21
3.950000
 31
0.0
  0
ARC
  8
MetalMask-A
 10
2.500000
 20
3.925000
 30
0.0
 40
0.025000
 50
0.000000
 51
90.000000
  0
LINE
  8
MetalMask-A
 10
2.525000
 20
3.925000
 30
0.0
 11
2.525000
 21
3.525000
 31
0.0
  0
ARC
  8
MetalMask-A
 10
2.500000
 20
3.525000
 30
0.0
 40
0.025000
 50
-90.000000
 51
0.000000
  0
LINE
  8
MetalMask-A
 10
2.500000
 20
3.500000
 30
0.0
 11
2.300000
 21
3.500000
 31
0.0
  0
ARC
  8
MetalMask-A
 10
2.300000
 20
3.525000
 30
0.0
 40
0.025000
 50
180.000000
 51
-90.000000
  0
LINE
  8
MetalMask-A
 10
2.275000
 20
3.525000
 30
0.0
 11
2.275000
 21
3.925000
 31
0.0
  0
ARC
  8
MetalMask-A
 10
1.800000
 20
3.925000
 30
0.0
 40
0.025000
 50
90.000000
 51
180.000000
  0
LINE
  8
MetalMask-A
 10
1.800000
 20
3.950000
 30
0.0
 11
2.000000
 21
3.950000
 31
0.0
  0
ARC
  8
MetalMask-A
 10
2.000000
 20
3.925000
 30
0.0
 40
0.025000
 50
0.000000
 51
90.000000
  0
LINE
  8
MetalMask-A
 10
2.025000
 20
3.925000
 30
0.0
 11
2.025000
 21
3.525000
 31
0.0
  0
ARC
  8
MetalMask-A
 10
2.000000
 20
3.525000
 30
0.0
 40
0.025000
 50
-90.000000
 51
0.000000
  0
LINE
  8
MetalMask-A
 10
2.000000
 20
3.500000
 30
0.0
 11
1.800000
 21
3.500000
 31
0.0
  0
ARC
  8
MetalMask-A
 10
1.800000
 20
3.525000
 30
0.0
 40
0.025000
 50
180.000000
 51
-90.000000
  0
LINE
  8
MetalMask-A
 10
1.775000
 20
3.525000
 30
0.0
 11
1.775000
 21
3.925000
 31
0.0
  0
LINE
  8
PartsArea-A
 10
3.525000
 20
4.000000
 30
0.0
 11
3.525000
 21
3.850000
 31
0.0
  0
LINE
  8
PartsArea-A
 10
3.525000
 20
3.850000
 30
0.0
 11
3.850000
 21
3.850000
 31
0.0
  0
LINE
  8
PartsArea-A
 10
3.850000
 20
3.850000
 30
0.0
 11
3.850000
 21
1.450000
 31
0.0
  0
LINE
  8
PartsArea-A
 10
3.850000
 20
1.450000
 30
0.0
 11
3.525000
 21
1.450000
 31
0.0
  0
LINE
  8
PartsArea-A
 10
3.525000
 20
1.450000
 30
0.0
 11
3.525000
 21
1.300000
 31
0.0
  0
LINE
  8
PartsArea-A
 10
3.525000
 20
1.300000
 30
0.0
 11
1.775000
 21
1.300000
 31
0.0
  0
LINE
  8
PartsArea-A
 10
1.775000
 20
1.300000
 30
0.0
 11
1.775000
 21
1.450000
 31
0.0
  0
LINE
  8
PartsArea-A
 10
1.775000
 20
1.450000
 30
0.0
 11
1.450000
 21
1.450000
 31
0.0
  0
LINE
  8
PartsArea-A
 10
1.450000
 20
1.450000
 30
0.0
 11
1.450000
 21
3.850000
 31
0.0
  0
LINE
  8
PartsArea-A
 10
1.450000
 20
3.850000
 30
0.0
 11
1.775000
 21
3.850000
 31
0.0
  0
LINE
  8
PartsArea-A
 10
1.775000
 20
3.850000
 30
0.0
 11
1.775000
 21
4.000000
 31
0.0
  0
LINE
  8
PartsArea-A
 10
1.775000
 20
4.000000
 30
0.0
 11
3.525000
 21
4.000000
 31
0.0
  0
CIRCLE
  8
Resist-B
 10
3.400000
 20
2.650000
 30
0.0
 40
0.558800
  0
ARC
  8
PartsSilk-A
 10
3.397270
 20
4.475000
 30
0.0
 40
0.075000
 50
90.007639
 51
-131.633539
  0
LINE
  8
PartsSilk-A
 10
3.397260
 20
4.550000
 30
0.0
 11
4.025000
 21
4.550000
 31
0.0
  0
ARC
  8
PartsSilk-A
 10
4.025000
 20
4.475000
 30
0.0
 40
0.075000
 50
0.000000
 51
90.000000
  0
LINE
  8
PartsSilk-A
 10
4.100000
 20
4.475000
 30
0.0
 11
4.100000
 21
3.917010
 31
0.0
  0
ARC
  8
PartsSilk-A
 10
4.025000
 20
3.917010
 30
0.0
 40
0.075000
 50
-131.637980
 51
0.000000
  0
LINE
  8
PartsSilk-A
 10
3.975170
 20
3.860960
 30
0.0
 11
3.347440
 21
4.418940
 31
0.0
  0
ARC
  8
PartsSilk-A
 10
3.850000
 20
1.801550
 30
0.0
 40
0.101600
 50
0.000000
 51
180.000000
  0
LINE
  8
PartsSilk-A
 10
3.951600
 20
1.801550
 30
0.0
 11
3.951600
 21
1.000000
 31
0.0
  0
ARC
  8
PartsSilk-A
 10
3.850000
 20
1.000000
 30
0.0
 40
0.101600
 50
180.000000
 51
0.000000
  0
LINE
  8
PartsSilk-A
 10
3.748400
 20
1.000000
 30
0.0
 11
3.748400
 21
1.801550
 31
0.0
  0
ARC
  8
PartsSilk-A
 10
3.850000
 20
1.000000
 30
0.0
 40
0.101600
 50
-90.000000
 51
90.000000
  0
LINE
  8
PartsSilk-A
 10
3.850000
 20
0.898400
 30
0.0
 11
1.450000
 21
0.898400
 31
0.0
  0
ARC
  8
PartsSilk-A
 10
1.450000
 20
1.000000
 30
0.0
 40
0.101600
 50
180.000000
 51
-90.000000
  0
LINE
  8
PartsSilk-A
 10
1.348400
 20
1.000000
 30
0.0
 11
1.348400
 21
4.300000
 31
0.0
  0
ARC
  8
PartsSilk-A
 10
1.450000
 20
4.300000
 30
0.0
 40
0.101600
 50
90.000000
 51
180.000000
  0
LINE
  8
PartsSilk-A
 10
1.450000
 20
4.401600
 30
0.0
 11
3.850000
 21
4.401600
 31
0.0
  0
ARC
  8
PartsSilk-A
 10
3.850000
 20
4.300000
 30
0.0
 40
0.101600
 50
0.000000
 51
90.000000
  0
LINE
  8
PartsSilk-A
 10
3.951600
 20
4.300000
 30
0.0
 11
3.951600
 21
3.498450
 31
0.0
  0
ARC
  8
PartsSilk-A
 10
3.850000
 20
3.498450
 30
0.0
 40
0.101600
 50
180.000000
 51
0.000000
  0
LINE
  8
PartsSilk-A
 10
3.748400
 20
3.498450
 30
0.0
 11
3.748400
 21
4.198400
 31
0.0
  0
LINE
  8
PartsSilk-A
 10
3.748400
 20
4.198400
 30
0.0
 11
1.551600
 21
4.198400
 31
0.0
  0
LINE
  8
PartsSilk-A
 10
1.551600
 20
4.198400
 30
0.0
 11
1.551600
 21
1.101600
 31
0.0
  0
LINE
  8
PartsSilk-A
 10
1.551600
 20
1.101600
 30
0.0
 11
3.850000
 21
1.101600
 31
0.0
  0
ARC
  8
PartsSilk-A
 10
1.848840
 20
2.557410
 30
0.0
 40
0.025000
 50
90.000000
 51
-90.000000
  0
LINE
  8
PartsSilk-A
 10
1.848840
 20
2.582410
 30
0.0
 11
1.962730
 21
2.582410
 31
0.0
  0
ARC
  8
PartsSilk-A
 10
1.962730
 20
2.557410
 30
0.0
 40
0.025000
 50
-90.000000
 51
90.000000
  0
LINE
  8
PartsSilk-A
 10
1.962730
 20
2.532410
 30
0.0
 11
1.848840
 21
2.532410
 31
0.0
  0
ARC
  8
PartsSilk-A
 10
1.907180
 20
2.557410
 30
0.0
 40
0.025000
 50
180.000000
 51
0.000000
  0
LINE
  8
PartsSilk-A
 10
1.882180
 20
2.557410
 30
0.0
 11
1.882180
 21
2.842590
 31
0.0
  0
ARC
  8
PartsSilk-A
 10
1.907180
 20
2.842590
 30
0.0
 40
0.025000
 50
0.000000
 51
180.000000
  0
LINE
  8
PartsSilk-A
 10
1.932180
 20
2.842590
 30
0.0
 11
1.932180
 21
2.557410
 31
0.0
  0
ARC
  8
PartsSilk-A
 10
1.848840
 20
2.842590
 30
0.0
 40
0.025000
 50
90.000000
 51
-90.000000
  0
LINE
  8
PartsSilk-A
 10
1.848840
 20
2.867590
 30
0.0
 11
1.962730
 21
2.867590
 31
0.0
  0
ARC
  8
PartsSilk-A
 10
1.962730
 20
2.842590
 30
0.0
 40
0.025000
 50
-90.000000
 51
90.000000
  0
LINE
  8
PartsSilk-A
 10
1.962730
 20
2.817590
 30
0.0
 11
1.848840
 21
2.817590
 31
0.0
  0
ARC
  8
PartsSilk-A
 10
2.423840
 20
2.787040
 30
0.0
 40
0.025000
 50
-140.209101
 51
39.800498
  0
LINE
  8
PartsSilk-A
 10
2.404630
 20
2.771040
 30
0.0
 11
2.381420
 21
2.798900
 31
0.0
  0
LINE
  8
PartsSilk-A
 10
2.381420
 20
2.798900
 30
0.0
 11
2.325340
 21
2.817590
 31
0.0
  0
LINE
  8
PartsSilk-A
 10
2.325340
 20
2.817590
 30
0.0
 11
2.305520
 21
2.817590
 31
0.0
  0
LINE
  8
PartsSilk-A
 10
2.305520
 20
2.817590
 30
0.0
 11
2.246420
 21
2.798680
 31
0.0
  0
LINE
  8
PartsSilk-A
 10
2.246420
 20
2.798680
 30
0.0
 11
2.215580
 21
2.763440
 31
0.0
  0
LINE
  8
PartsSilk-A
 10
2.215580
 20
2.763440
 30
0.0
 11
2.204400
 21
2.727660
 31
0.0
  0
LINE
  8
PartsSilk-A
 10
2.204400
 20
2.727660
 30
0.0
 11
2.204400
 21
2.672340
 31
0.0
  0
LINE
  8
PartsSilk-A
 10
2.204400
 20
2.672340
 30
0.0
 11
2.215580
 21
2.636560
 31
0.0
  0
LINE
  8
PartsSilk-A
 10
2.215580
 20
2.636560
 30
0.0
 11
2.246420
 21
2.601320
 31
0.0
  0
LINE
  8
PartsSilk-A
 10
2.246420
 20
2.601320
 30
0.0
 11
2.305520
 21
2.582410
 31
0.0
  0
LINE
  8
PartsSilk-A
 10
2.305520
 20
2.582410
 30
0.0
 11
2.325340
 21
2.582410
 31
0.0
  0
LINE
  8
PartsSilk-A
 10
2.325340
 20
2.582410
 30
0.0
 11
2.379630
 21
2.600500
 31
0.0
  0
LINE
  8
PartsSilk-A
 10
2.379630
 20
2.600500
 30
0.0
 11
2.402640
 21
2.637320
 31
0.0
  0
ARC
  8
PartsSilk-A
 10
2.423840
 20
2.624070
 30
0.0
 40
0.025000
 50
-32.005383
 51
147.999253
  0
LINE
  8
PartsSilk-A
 10
2.445040
 20
2.610820
 30
0.0
 11
2.417270
 21
2.566380
 31
0.0
  0
ARC
  8
PartsSilk-A
 10
2.396070
 20
2.579630
 30
0.0
 40
0.025000
 50
-71.579545
 51
-32.005383
  0
LINE
  8
PartsSilk-A
 10
2.403970
 20
2.555910
 30
0.0
 11
2.337300
 21
2.533690
 31
0.0
  0
ARC
  8
PartsSilk-A
 10
2.329400
 20
2.557410
 30
0.0
 40
0.025000
 50
-90.000000
 51
-71.579545
  0
LINE
  8
PartsSilk-A
 10
2.329400
 20
2.532410
 30
0.0
 11
2.301620
 21
2.532410
 31
0.0
  0
ARC
  8
PartsSilk-A
 10
2.301620
 20
2.557410
 30
0.0
 40
0.025000
 50
-107.746418
 51
-90.000000
  0
LINE
  8
PartsSilk-A
 10
2.294000
 20
2.533600
 30
0.0
 11
2.224560
 21
2.555820
 31
0.0
  0
ARC
  8
PartsSilk-A
 10
2.232180
 20
2.579630
 30
0.0
 40
0.025000
 50
-138.811918
 51
-107.746418
  0
LINE
  8
PartsSilk-A
 10
2.213370
 20
2.563170
 30
0.0
 11
2.174480
 21
2.607610
 31
0.0
  0
ARC
  8
PartsSilk-A
 10
2.193290
 20
2.624070
 30
0.0
 40
0.025000
 50
-162.637772
 51
-138.811918
  0
LINE
  8
PartsSilk-A
 10
2.169430
 20
2.616610
 30
0.0
 11
2.155540
 21
2.661060
 31
0.0
  0
ARC
  8
PartsSilk-A
 10
2.179400
 20
2.668520
 30
0.0
 40
0.025000
 50
180.000000
 51
-162.637772
  0
LINE
  8
PartsSilk-A
 10
2.154400
 20
2.668520
 30
0.0
 11
2.154400
 21
2.731480
 31
0.0
  0
ARC
  8
PartsSilk-A
 10
2.179400
 20
2.731480
 30
0.0
 40
0.025000
 50
162.637772
 51
180.000000
  0
LINE
  8
PartsSilk-A
 10
2.155540
 20
2.738940
 30
0.0
 11
2.169430
 21
2.783390
 31
0.0
  0
ARC
  8
PartsSilk-A
 10
2.193290
 20
2.775930
 30
0.0
 40
0.025000
 50
138.811918
 51
162.637772
  0
LINE
  8
PartsSilk-A
 10
2.174480
 20
2.792390
 30
0.0
 11
2.213370
 21
2.836830
 31
0.0
  0
ARC
  8
PartsSilk-A
 10
2.232180
 20
2.820370
 30
0.0
 40
0.025000
 50
107.746418
 51
138.811918
  0
LINE
  8
PartsSilk-A
 10
2.224560
 20
2.844180
 30
0.0
 11
2.294000
 21
2.866400
 31
0.0
  0
ARC
  8
PartsSilk-A
 10
2.301620
 20
2.842590
 30
0.0
 40
0.025000
 50
90.000000
 51
107.746418
  0
LINE
  8
PartsSilk-A
 10
2.301620
 20
2.867590
 30
0.0
 11
2.329400
 21
2.867590
 31
0.0
  0
ARC
  8
PartsSilk-A
 10
2.329400
 20
2.842590
 30
0.0
 40
0.025000
 50
71.579545
 51
90.000000
  0
LINE
  8
PartsSilk-A
 10
2.337300
 20
2.866310
 30
0.0
 11
2.403970
 21
2.844090
 31
0.0
  0
ARC
  8
PartsSilk-A
 10
2.396070
 20
2.820370
 30
0.0
 40
0.025000
 50
39.790899
 51
71.579545
  0
LINE
  8
PartsSilk-A
 10
2.415280
 20
2.836370
 30
0.0
 11
2.443050
 21
2.803040
 31
0.0
  0
ARC
  8
PartsSilk-A
 10
2.704400
 20
2.842590
 30
0.0
 40
0.025000
 50
-33.149737
 51
146.846436
  0
LINE
  8
PartsSilk-A
 10
2.725330
 20
2.828920
 30
0.0
 11
2.600590
 21
2.637960
 31
0.0
  0
LINE
  8
PartsSilk-A
 10
2.600590
 20
2.637960
 30
0.0
 11
2.798840
 21
2.637960
 31
0.0
  0
ARC
  8
PartsSilk-A
 10
2.798840
 20
2.612960
 30
0.0
 40
0.025000
 50
-90.000000
 51
90.000000
  0
LINE
  8
PartsSilk-A
 10
2.798840
 20
2.587960
 30
0.0
 11
2.554400
 21
2.587960
 31
0.0
  0
ARC
  8
PartsSilk-A
 10
2.554400
 20
2.612960
 30
0.0
 40
0.025000
 50
146.850263
 51
-90.000000
  0
LINE
  8
PartsSilk-A
 10
2.533470
 20
2.626630
 30
0.0
 11
2.683470
 21
2.856260
 31
0.0
  0
ARC
  8
PartsSilk-A
 10
2.729400
 20
2.668520
 30
0.0
 40
0.025000
 50
0.000000
 51
180.000000
  0
LINE
  8
PartsSilk-A
 10
2.754400
 20
2.668520
 30
0.0
 11
2.754400
 21
2.557410
 31
0.0
  0
ARC
  8
PartsSilk-A
 10
2.729400
 20
2.557410
 30
0.0
 40
0.025000
 50
180.000000
 51
0.000000
  0
LINE
  8
PartsSilk-A
 10
2.704400
 20
2.557410
 30
0.0
 11
2.704400
 21
2.668520
 31
0.0
  0
ARC
  8
PartsSilk-A
 10
3.173840
 20
2.720370
 30
0.0
 40
0.025000
 50
-56.303576
 51
123.699589
  0
LINE
  8
PartsSilk-A
 10
3.187710
 20
2.699570
 30
0.0
 11
3.159940
 21
2.681050
 31
0.0
  0
ARC
  8
PartsSilk-A
 10
3.146070
 20
2.701850
 30
0.0
 40
0.025000
 50
-78.694563
 51
-56.300411
  0
LINE
  8
PartsSilk-A
 10
3.150970
 20
2.677340
 30
0.0
 11
3.095410
 21
2.666230
 31
0.0
  0
ARC
  8
PartsSilk-A
 10
3.090510
 20
2.690740
 30
0.0
 40
0.025000
 50
-90.000000
 51
-78.692051
  0
LINE
  8
PartsSilk-A
 10
3.090510
 20
2.665740
 30
0.0
 11
3.037730
 21
2.665740
 31
0.0
  0
ARC
  8
PartsSilk-A
 10
3.037730
 20
2.690740
 30
0.0
 40
0.025000
 50
-101.305437
 51
-90.000000
  0
LINE
  8
PartsSilk-A
 10
3.032830
 20
2.666230
 30
0.0
 11
2.977280
 21
2.677340
 31
0.0
  0
ARC
  8
PartsSilk-A
 10
2.982180
 20
2.701850
 30
0.0
 40
0.025000
 50
-106.499478
 51
-101.309932
  0
LINE
  8
PartsSilk-A
 10
2.975080
 20
2.677880
 30
0.0
 11
2.950080
 21
2.685290
 31
0.0
  0
ARC
  8
PartsSilk-A
 10
2.957180
 20
2.709260
 30
0.0
 40
0.025000
 50
-147.994617
 51
-106.509823
  0
LINE
  8
PartsSilk-A
 10
2.935980
 20
2.696010
 30
0.0
 11
2.922090
 21
2.718230
 31
0.0
  0
ARC
  8
PartsSilk-A
 10
2.943290
 20
2.731480
 30
0.0
 40
0.025000
 50
180.000000
 51
-147.989981
  0
LINE
  8
PartsSilk-A
 10
2.918290
 20
2.731480
 30
0.0
 11
2.918290
 21
2.775930
 31
0.0
  0
ARC
  8
PartsSilk-A
 10
2.943290
 20
2.775930
 30
0.0
 40
0.025000
 50
157.373085
 51
180.000000
  0
LINE
  8
PartsSilk-A
 10
2.920210
 20
2.785550
 30
0.0
 11
2.934100
 21
2.818880
 31
0.0
  0
ARC
  8
PartsSilk-A
 10
2.957180
 20
2.809260
 30
0.0
 40
0.025000
 50
119.733511
 51
157.376473
  0
LINE
  8
PartsSilk-A
 10
2.944780
 20
2.830970
 30
0.0
 11
2.983670
 21
2.853190
 31
0.0
  0
ARC
  8
PartsSilk-A
 10
2.996070
 20
2.831480
 30
0.0
 40
0.025000
 50
104.925513
 51
119.741708
  0
LINE
  8
PartsSilk-A
 10
2.989630
 20
2.855640
 30
0.0
 11
3.031290
 21
2.866750
 31
0.0
  0
ARC
  8
PartsSilk-A
 10
3.037730
 20
2.842590
 30
0.0
 40
0.025000
 50
90.000000
 51
104.932273
  0
LINE
  8
PartsSilk-A
 10
3.037730
 20
2.867590
 30
0.0
 11
3.090510
 21
2.867590
 31
0.0
  0
ARC
  8
PartsSilk-A
 10
3.090510
 20
2.842590
 30
0.0
 40
0.025000
 50
75.969316
 51
90.000000
  0
LINE
  8
PartsSilk-A
 10
3.096570
 20
2.866840
 30
0.0
 11
3.141020
 21
2.855730
 31
0.0
  0
ARC
  8
PartsSilk-A
 10
3.134960
 20
2.831480
 30
0.0
 40
0.025000
 50
48.372169
 51
75.966790
  0
LINE
  8
PartsSilk-A
 10
3.151570
 20
2.850170
 30
0.0
 11
3.176570
 21
2.827950
 31
0.0
  0
ARC
  8
PartsSilk-A
 10
3.159960
 20
2.809260
 30
0.0
 40
0.025000
 50
22.605762
 51
48.369306
  0
LINE
  8
PartsSilk-A
 10
3.183040
 20
2.818870
 30
0.0
 11
3.196920
 21
2.785540
 31
0.0
  0
ARC
  8
PartsSilk-A
 10
3.173840
 20
2.775930
 30
0.0
 40
0.025000
 50
0.000000
 51
22.608878
  0
LINE
  8
PartsSilk-A
 10
3.198840
 20
2.775930
 30
0.0
 11
3.198840
 21
2.646300
 31
0.0
  0
ARC
  8
PartsSilk-A
 10
3.173840
 20
2.646300
 30
0.0
 40
0.025000
 50
-22.605762
 51
0.000000
  0
LINE
  8
PartsSilk-A
 10
3.196920
 20
2.636690
 30
0.0
 11
3.183040
 21
2.603350
 31
0.0
  0
ARC
  8
PartsSilk-A
 10
3.159960
 20
2.612960
 30
0.0
 40
0.025000
 50
-32.005383
 51
-22.602779
  0
LINE
  8
PartsSilk-A
 10
3.181160
 20
2.599710
 30
0.0
 11
3.167270
 21
2.577490
 31
0.0
  0
ARC
  8
PartsSilk-A
 10
3.146070
 20
2.590740
 30
0.0
 40
0.025000
 50
-51.333033
 51
-32.010019
  0
LINE
  8
PartsSilk-A
 10
3.161690
 20
2.571220
 30
0.0
 11
3.133910
 21
2.549000
 31
0.0
  0
ARC
  8
PartsSilk-A
 10
3.118290
 20
2.568520
 30
0.0
 40
0.025000
 50
-74.051456
 51
-51.345223
  0
LINE
  8
PartsSilk-A
 10
3.125160
 20
2.544480
 30
0.0
 11
3.086270
 21
2.533370
 31
0.0
  0
ARC
  8
PartsSilk-A
 10
3.079400
 20
2.557410
 30
0.0
 40
0.025000
 50
-90.000000
 51
-74.056550
  0
LINE
  8
PartsSilk-A
 10
3.079400
 20
2.532410
 30
0.0
 11
3.037730
 21
2.532410
 31
0.0
  0
ARC
  8
PartsSilk-A
 10
3.037730
 20
2.557410
 30
0.0
 40
0.025000
 50
-104.925513
 51
-90.000000
  0
LINE
  8
PartsSilk-A
 10
3.031290
 20
2.533250
 30
0.0
 11
2.989630
 21
2.544360
 31
0.0
  0
ARC
  8
PartsSilk-A
 10
2.996070
 20
2.568520
 30
0.0
 40
0.025000
 50
-119.733511
 51
-104.932273
  0
LINE
  8
PartsSilk-A
 10
2.983670
 20
2.546810
 30
0.0
 11
2.944780
 21
2.569030
 31
0.0
  0
ARC
  8
PartsSilk-A
 10
2.957180
 20
2.590740
 30
0.0
 40
0.025000
 50
60.266489
 51
-119.741708
  0
LINE
  8
PartsSilk-A
 10
2.969580
 20
2.612450
 30
0.0
 11
3.005650
 21
2.591840
 31
0.0
  0
LINE
  8
PartsSilk-A
 10
3.005650
 20
2.591840
 30
0.0
 11
3.041010
 21
2.582410
 31
0.0
  0
LINE
  8
PartsSilk-A
 10
3.041010
 20
2.582410
 30
0.0
 11
3.075900
 21
2.582410
 31
0.0
  0
LINE
  8
PartsSilk-A
 10
3.075900
 20
2.582410
 30
0.0
 11
3.106600
 21
2.591180
 31
0.0
  0
LINE
  8
PartsSilk-A
 10
3.106600
 20
2.591180
 30
0.0
 11
3.127130
 21
2.607600
 31
0.0
  0
LINE
  8
PartsSilk-A
 10
3.127130
 20
2.607600
 30
0.0
 11
3.137670
 21
2.624470
 31
0.0
  0
LINE
  8
PartsSilk-A
 10
3.137670
 20
2.624470
 30
0.0
 11
3.148840
 21
2.651300
 31
0.0
  0
LINE
  8
PartsSilk-A
 10
3.148840
 20
2.651300
 30
0.0
 11
3.148840
 21
2.770930
 31
0.0
  0
LINE
  8
PartsSilk-A
 10
3.148840
 20
2.770930
 30
0.0
 11
3.139080
 21
2.794370
 31
0.0
  0
LINE
  8
PartsSilk-A
 10
3.139080
 20
2.794370
 30
0.0
 11
3.122940
 21
2.808710
 31
0.0
  0
LINE
  8
PartsSilk-A
 10
3.122940
 20
2.808710
 30
0.0
 11
3.087430
 21
2.817590
 31
0.0
  0
LINE
  8
PartsSilk-A
 10
3.087430
 20
2.817590
 30
0.0
 11
3.041010
 21
2.817590
 31
0.0
  0
LINE
  8
PartsSilk-A
 10
3.041010
 20
2.817590
 30
0.0
 11
3.005650
 21
2.808160
 31
0.0
  0
LINE
  8
PartsSilk-A
 10
3.005650
 20
2.808160
 30
0.0
 11
2.976980
 21
2.791780
 31
0.0
  0
LINE
  8
PartsSilk-A
 10
2.976980
 20
2.791780
 30
0.0
 11
2.968290
 21
2.770930
 31
0.0
  0
LINE
  8
PartsSilk-A
 10
2.968290
 20
2.770930
 30
0.0
 11
2.968290
 21
2.738650
 31
0.0
  0
LINE
  8
PartsSilk-A
 10
2.968290
 20
2.738650
 30
0.0
 11
2.973360
 21
2.730540
 31
0.0
  0
LINE
  8
PartsSilk-A
 10
2.973360
 20
2.730540
 30
0.0
 11
2.988200
 21
2.726140
 31
0.0
  0
LINE
  8
PartsSilk-A
 10
2.988200
 20
2.726140
 30
0.0
 11
3.040210
 21
2.715740
 31
0.0
  0
LINE
  8
PartsSilk-A
 10
3.040210
 20
2.715740
 30
0.0
 11
3.088030
 21
2.715740
 31
0.0
  0
LINE
  8
PartsSilk-A
 10
3.088030
 20
2.715740
 30
0.0
 11
3.136320
 21
2.725390
 31
0.0
  0
LINE
  8
PartsSilk-A
 10
3.136320
 20
2.725390
 30
0.0
 11
3.159970
 21
2.741170
 31
0.0
  0
ARC
  8
PartsSilk-A
 10
3.334960
 20
2.742590
 30
0.0
 40
0.025000
 50
0.000000
 51
180.000000
  0
LINE
  8
PartsSilk-A
 10
3.359960
 20
2.742590
 30
0.0
 11
3.359960
 21
2.660490
 31
0.0
  0
LINE
  8
PartsSilk-A
 10
3.359960
 20
2.660490
 30
0.0
 11
3.369660
 21
2.621690
 31
0.0
  0
LINE
  8
PartsSilk-A
 10
3.369660
 20
2.621690
 30
0.0
 11
3.377390
 21
2.606230
 31
0.0
  0
LINE
  8
PartsSilk-A
 10
3.377390
 20
2.606230
 30
0.0
 11
3.396320
 21
2.589400
 31
0.0
  0
LINE
  8
PartsSilk-A
 10
3.396320
 20
2.589400
 30
0.0
 11
3.410300
 21
2.582410
 31
0.0
  0
LINE
  8
PartsSilk-A
 10
3.410300
 20
2.582410
 30
0.0
 11
3.442200
 21
2.582410
 31
0.0
  0
LINE
  8
PartsSilk-A
 10
3.442200
 20
2.582410
 30
0.0
 11
3.453630
 21
2.588940
 31
0.0
  0
LINE
  8
PartsSilk-A
 10
3.453630
 20
2.588940
 30
0.0
 11
3.473080
 21
2.606230
 31
0.0
  0
LINE
  8
PartsSilk-A
 10
3.473080
 20
2.606230
 30
0.0
 11
3.480810
 21
2.621690
 31
0.0
  0
LINE
  8
PartsSilk-A
 10
3.480810
 20
2.621690
 30
0.0
 11
3.490510
 21
2.660490
 31
0.0
  0
LINE
  8
PartsSilk-A
 10
3.490510
 20
2.660490
 30
0.0
 11
3.490510
 21
2.739510
 31
0.0
  0
LINE
  8
PartsSilk-A
 10
3.490510
 20
2.739510
 30
0.0
 11
3.480810
 21
2.778310
 31
0.0
  0
LINE
  8
PartsSilk-A
 10
3.480810
 20
2.778310
 30
0.0
 11
3.473080
 21
2.793770
 31
0.0
  0
LINE
  8
PartsSilk-A
 10
3.473080
 20
2.793770
 30
0.0
 11
3.453630
 21
2.811060
 31
0.0
  0
LINE
  8
PartsSilk-A
 10
3.453630
 20
2.811060
 30
0.0
 11
3.442200
 21
2.817590
 31
0.0
  0
LINE
  8
PartsSilk-A
 10
3.442200
 20
2.817590
 30
0.0
 11
3.410300
 21
2.817590
 31
0.0
  0
LINE
  8
PartsSilk-A
 10
3.410300
 20
2.817590
 30
0.0
 11
3.396320
 21
2.810600
 31
0.0
  0
LINE
  8
PartsSilk-A
 10
3.396320
 20
2.810600
 30
0.0
 11
3.377390
 21
2.793770
 31
0.0
  0
LINE
  8
PartsSilk-A
 10
3.377390
 20
2.793770
 30
0.0
 11
3.369660
 21
2.778310
 31
0.0
  0
LINE
  8
PartsSilk-A
 10
3.369660
 20
2.778310
 30
0.0
 11
3.359210
 21
2.736530
 31
0.0
  0
ARC
  8
PartsSilk-A
 10
3.334960
 20
2.742590
 30
0.0
 40
0.025000
 50
165.969316
 51
-14.033210
  0
LINE
  8
PartsSilk-A
 10
3.310710
 20
2.748650
 30
0.0
 11
3.321820
 21
2.793100
 31
0.0
  0
ARC
  8
PartsSilk-A
 10
3.346070
 20
2.787040
 30
0.0
 40
0.025000
 50
153.434949
 51
165.969316
  0
LINE
  8
PartsSilk-A
 10
3.323710
 20
2.798220
 30
0.0
 11
3.334820
 21
2.820440
 31
0.0
  0
ARC
  8
PartsSilk-A
 10
3.357180
 20
2.809260
 30
0.0
 40
0.025000
 50
131.627831
 51
153.434949
  0
LINE
  8
PartsSilk-A
 10
3.340570
 20
2.827950
 30
0.0
 11
3.365570
 21
2.850170
 31
0.0
  0
ARC
  8
PartsSilk-A
 10
3.382180
 20
2.831480
 30
0.0
 40
0.025000
 50
116.565051
 51
131.627830
  0
LINE
  8
PartsSilk-A
 10
3.371000
 20
2.853840
 30
0.0
 11
3.393220
 21
2.864950
 31
0.0
  0
ARC
  8
PartsSilk-A
 10
3.404400
 20
2.842590
 30
0.0
 40
0.025000
 50
90.000000
 51
116.565051
  0
LINE
  8
PartsSilk-A
 10
3.404400
 20
2.867590
 30
0.0
 11
3.448840
 21
2.867590
 31
0.0
  0
ARC
  8
PartsSilk-A
 10
3.448840
 20
2.842590
 30
0.0
 40
0.025000
 50
60.266489
 51
90.000000
  0
LINE
  8
PartsSilk-A
 10
3.461240
 20
2.864300
 30
0.0
 11
3.480690
 21
2.853190
 31
0.0
  0
ARC
  8
PartsSilk-A
 10
3.468290
 20
2.831480
 30
0.0
 40
0.025000
 50
48.372169
 51
60.266489
  0
LINE
  8
PartsSilk-A
 10
3.484900
 20
2.850170
 30
0.0
 11
3.509900
 21
2.827950
 31
0.0
  0
ARC
  8
PartsSilk-A
 10
3.493290
 20
2.809260
 30
0.0
 40
0.025000
 50
26.565051
 51
48.372170
  0
LINE
  8
PartsSilk-A
 10
3.515650
 20
2.820440
 30
0.0
 11
3.526760
 21
2.798220
 31
0.0
  0
ARC
  8
PartsSilk-A
 10
3.504400
 20
2.787040
 30
0.0
 40
0.025000
 50
14.030684
 51
26.565051
  0
LINE
  8
PartsSilk-A
 10
3.528650
 20
2.793100
 30
0.0
 11
3.539760
 21
2.748650
 31
0.0
  0
ARC
  8
PartsSilk-A
 10
3.515510
 20
2.742590
 30
0.0
 40
0.025000
 50
0.000000
 51
14.030684
  0
LINE
  8
PartsSilk-A
 10
3.540510
 20
2.742590
 30
0.0
 11
3.540510
 21
2.657410
 31
0.0
  0
ARC
  8
PartsSilk-A
 10
3.515510
 20
2.657410
 30
0.0
 40
0.025000
 50
-14.030684
 51
0.000000
  0
LINE
  8
PartsSilk-A
 10
3.539760
 20
2.651350
 30
0.0
 11
3.528650
 21
2.606900
 31
0.0
  0
ARC
  8
PartsSilk-A
 10
3.504400
 20
2.612960
 30
0.0
 40
0.025000
 50
-26.565051
 51
-14.030684
  0
LINE
  8
PartsSilk-A
 10
3.526760
 20
2.601780
 30
0.0
 11
3.515650
 21
2.579560
 31
0.0
  0
ARC
  8
PartsSilk-A
 10
3.493290
 20
2.590740
 30
0.0
 40
0.025000
 50
-48.372169
 51
-26.565051
  0
LINE
  8
PartsSilk-A
 10
3.509900
 20
2.572050
 30
0.0
 11
3.484900
 21
2.549830
 31
0.0
  0
ARC
  8
PartsSilk-A
 10
3.468290
 20
2.568520
 30
0.0
 40
0.025000
 50
-60.266489
 51
-48.372170
  0
LINE
  8
PartsSilk-A
 10
3.480690
 20
2.546810
 30
0.0
 11
3.461240
 21
2.535700
 31
0.0
  0
ARC
  8
PartsSilk-A
 10
3.448840
 20
2.557410
 30
0.0
 40
0.025000
 50
-90.000000
 51
-60.266489
  0
LINE
  8
PartsSilk-A
 10
3.448840
 20
2.532410
 30
0.0
 11
3.404400
 21
2.532410
 31
0.0
  0
ARC
  8
PartsSilk-A
 10
3.404400
 20
2.557410
 30
0.0
 40
0.025000
 50
-116.565051
 51
-90.000000
  0
LINE
  8
PartsSilk-A
 10
3.393220
 20
2.535050
 30
0.0
 11
3.371000
 21
2.546160
 31
0.0
  0
ARC
  8
PartsSilk-A
 10
3.382180
 20
2.568520
 30
0.0
 40
0.025000
 50
-131.627831
 51
-116.565051
  0
LINE
  8
PartsSilk-A
 10
3.365570
 20
2.549830
 30
0.0
 11
3.340570
 21
2.572050
 31
0.0
  0
ARC
  8
PartsSilk-A
 10
3.357180
 20
2.590740
 30
0.0
 40
0.025000
 50
-153.434949
 51
-131.627830
  0
LINE
  8
PartsSilk-A
 10
3.334820
 20
2.579560
 30
0.0
 11
3.323710
 21
2.601780
 31
0.0
  0
ARC
  8
PartsSilk-A
 10
3.346070
 20
2.612960
 30
0.0
 40
0.025000
 50
-165.969316
 51
-153.434949
  0
LINE
  8
PartsSilk-A
 10
3.321820
 20
2.606900
 30
0.0
 11
3.310710
 21
2.651350
 31
0.0
  0
ARC
  8
PartsSilk-A
 10
3.334960
 20
2.657410
 30
0.0
 40
0.025000
 50
180.000000
 51
-165.969316
  0
LINE
  8
PartsSilk-A
 10
3.309960
 20
2.657410
 30
0.0
 11
3.309960
 21
2.742590
 31
0.0
  0
ARC
  8
Silk-A
 10
3.397270
 20
4.475000
 30
0.0
 40
0.075000
 50
90.007639
 51
-131.633539
  0
LINE
  8
Silk-A
 10
3.397260
 20
4.550000
 30
0.0
 11
4.025000
 21
4.550000
 31
0.0
  0
ARC
  8
Silk-A
 10
4.025000
 20
4.475000
 30
0.0
 40
0.075000
 50
0.000000
 51
90.000000
  0
LINE
  8
Silk-A
 10
4.100000
 20
4.475000
 30
0.0
 11
4.100000
 21
3.917010
 31
0.0
  0
ARC
  8
Silk-A
 10
4.025000
 20
3.917010
 30
0.0
 40
0.075000
 50
-131.637980
 51
0.000000
  0
LINE
  8
Silk-A
 10
3.975170
 20
3.860960
 30
0.0
 11
3.347440
 21
4.418940
 31
0.0
  0
ARC
  8
Silk-A
 10
3.850000
 20
1.801550
 30
0.0
 40
0.101600
 50
0.000000
 51
180.000000
  0
LINE
  8
Silk-A
 10
3.951600
 20
1.801550
 30
0.0
 11
3.951600
 21
1.000000
 31
0.0
  0
ARC
  8
Silk-A
 10
3.850000
 20
1.000000
 30
0.0
 40
0.101600
 50
180.000000
 51
0.000000
  0
LINE
  8
Silk-A
 10
3.748400
 20
1.000000
 30
0.0
 11
3.748400
 21
1.801550
 31
0.0
  0
ARC
  8
Silk-A
 10
3.850000
 20
1.000000
 30
0.0
 40
0.101600
 50
-90.000000
 51
90.000000
  0
LINE
  8
Silk-A
 10
3.850000
 20
0.898400
 30
0.0
 11
1.450000
 21
0.898400
 31
0.0
  0
ARC
  8
Silk-A
 10
1.450000
 20
1.000000
 30
0.0
 40
0.101600
 50
180.000000
 51
-90.000000
  0
LINE
  8
Silk-A
 10
1.348400
 20
1.000000
 30
0.0
 11
1.348400
 21
4.300000
 31
0.0
  0
ARC
  8
Silk-A
 10
1.450000
 20
4.300000
 30
0.0
 40
0.101600
 50
90.000000
 51
180.000000
  0
LINE
  8
Silk-A
 10
1.450000
 20
4.401600
 30
0.0
 11
3.850000
 21
4.401600
 31
0.0
  0
ARC
  8
Silk-A
 10
3.850000
 20
4.300000
 30
0.0
 40
0.101600
 50
0.000000
 51
90.000000
  0
LINE
  8
Silk-A
 10
3.951600
 20
4.300000
 30
0.0
 11
3.951600
 21
3.498450
 31
0.0
  0
ARC
  8
Silk-A
 10
3.850000
 20
3.498450
 30
0.0
 40
0.101600
 50
180.000000
 51
0.000000
  0
LINE
  8
Silk-A
 10
3.748400
 20
3.498450
 30
0.0
 11
3.748400
 21
4.198400
 31
0.0
  0
LINE
  8
Silk-A
 10
3.748400
 20
4.198400
 30
0.0
 11
1.551600
 21
4.198400
 31
0.0
  0
LINE
  8
Silk-A
 10
1.551600
 20
4.198400
 30
0.0
 11
1.551600
 21
1.101600
 31
0.0
  0
LINE
  8
Silk-A
 10
1.551600
 20
1.101600
 30
0.0
 11
3.850000
 21
1.101600
 31
0.0
  0
CIRCLE
  8
L1
 10
4.100000
 20
5.300000
 30
0.0
 40
0.250000
  0
CIRCLE
  8
Resist-A
 10
4.100000
 20
5.300000
 30
0.0
 40
0.300000
  0
ARC
  8
PartsArea-A
 10
4.100000
 20
5.300000
 30
0.0
 40
0.250000
 50
180.000000
 51
0.000000
  0
ARC
  8
PartsArea-A
 10
4.100000
 20
5.300000
 30
0.0
 40
0.250000
 50
0.000000
 51
180.000000
  0
CIRCLE
  8
L1
 10
2.500000
 20
5.300000
 30
0.0
 40
0.250000
  0
CIRCLE
  8
Resist-A
 10
2.500000
 20
5.300000
 30
0.0
 40
0.300000
  0
ARC
  8
PartsArea-A
 10
2.500000
 20
5.300000
 30
0.0
 40
0.250000
 50
180.000000
 51
0.000000
  0
ARC
  8
PartsArea-A
 10
2.500000
 20
5.300000
 30
0.0
 40
0.250000
 50
0.000000
 51
180.000000
  0
CIRCLE
  8
L1
 10
0.900000
 20
5.300000
 30
0.0
 40
0.250000
  0
CIRCLE
  8
Resist-A
 10
0.900000
 20
5.300000
 30
0.0
 40
0.300000
  0
ARC
  8
PartsArea-A
 10
0.900000
 20
5.300000
 30
0.0
 40
0.250000
 50
180.000000
 51
0.000000
  0
ARC
  8
PartsArea-A
 10
0.900000
 20
5.300000
 30
0.0
 40
0.250000
 50
0.000000
 51
180.000000
  0
CIRCLE
  8
L1
 10
4.100000
 20
0.000000
 30
0.0
 40
0.250000
  0
CIRCLE
  8
Resist-A
 10
4.100000
 20
0.000000
 30
0.0
 40
0.300000
  0
ARC
  8
PartsArea-A
 10
4.100000
 20
0.000000
 30
0.0
 40
0.250000
 50
180.000000
 51
0.000000
  0
ARC
  8
PartsArea-A
 10
4.100000
 20
0.000000
 30
0.0
 40
0.250000
 50
0.000000
 51
180.000000
  0
CIRCLE
  8
L1
 10
2.500000
 20
0.000000
 30
0.0
 40
0.250000
  0
CIRCLE
  8
Resist-A
 10
2.500000
 20
0.000000
 30
0.0
 40
0.300000
  0
ARC
  8
PartsArea-A
 10
2.500000
 20
0.000000
 30
0.0
 40
0.250000
 50
180.000000
 51
0.000000
  0
ARC
  8
PartsArea-A
 10
2.500000
 20
0.000000
 30
0.0
 40
0.250000
 50
0.000000
 51
180.000000
  0
CIRCLE
  8
L1
 10
0.900000
 20
0.000000
 30
0.0
 40
0.250000
  0
CIRCLE
  8
Resist-A
 10
0.900000
 20
0.000000
 30
0.0
 40
0.300000
  0
ARC
  8
PartsArea-A
 10
0.900000
 20
0.000000
 30
0.0
 40
0.250000
 50
180.000000
 51
0.000000
  0
ARC
  8
PartsArea-A
 10
0.900000
 20
0.000000
 30
0.0
 40
0.250000
 50
0.000000
 51
180.000000
  0
CIRCLE
  8
Hole
 10
0.000000
 20
2.650000
 30
0.0
 40
0.500000
  0
CIRCLE
  8
Hole
 10
0.900000
 20
0.000000
 30
0.0
 40
0.400000
  0
CIRCLE
  8
Resist-A
 10
0.900000
 20
0.000000
 30
0.0
 40
0.450000
  0
CIRCLE
  8
Resist-B
 10
0.900000
 20
0.000000
 30
0.0
 40
0.508000
  0
CIRCLE
  8
Hole
 10
2.500000
 20
0.000000
 30
0.0
 40
0.400000
  0
CIRCLE
  8
Resist-A
 10
2.500000
 20
0.000000
 30
0.0
 40
0.450000
  0
CIRCLE
  8
Resist-B
 10
2.500000
 20
0.000000
 30
0.0
 40
0.508000
  0
CIRCLE
  8
Hole
 10
4.100000
 20
0.000000
 30
0.0
 40
0.400000
  0
CIRCLE
  8
Resist-A
 10
4.100000
 20
0.000000
 30
0.0
 40
0.450000
  0
CIRCLE
  8
Resist-B
 10
4.100000
 20
0.000000
 30
0.0
 40
0.508000
  0
CIRCLE
  8
Hole
 10
0.900000
 20
5.300000
 30
0.0
 40
0.400000
  0
CIRCLE
  8
Resist-A
 10
0.900000
 20
5.300000
 30
0.0
 40
0.450000
  0
CIRCLE
  8
Resist-B
 10
0.900000
 20
5.300000
 30
0.0
 40
0.508000
  0
CIRCLE
  8
Hole
 10
2.500000
 20
5.300000
 30
0.0
 40
0.400000
  0
CIRCLE
  8
Resist-A
 10
2.500000
 20
5.300000
 30
0.0
 40
0.450000
  0
CIRCLE
  8
Resist-B
 10
2.500000
 20
5.300000
 30
0.0
 40
0.508000
  0
CIRCLE
  8
Hole
 10
4.100000
 20
5.300000
 30
0.0
 40
0.400000
  0
CIRCLE
  8
Resist-A
 10
4.100000
 20
5.300000
 30
0.0
 40
0.450000
  0
CIRCLE
  8
Resist-B
 10
4.100000
 20
5.300000
 30
0.0
 40
0.508000
  0
ENDSEC
  0
EOF
