  0
SECTION
  2
HEADER
  9
$ACADVER
  1
AC1009
  9
$EXTMIN
 10
6.652759
 20
-15.979098
 30
0.0
  9
$EXTMAX
 10
65.899404
 20
38.692959
 30
0.0
  9
$LTSCALE
 40
0.400000
  9
$AUNITS
 70
     0
  9
$ANGBASE
 50
0.0
  9
$ANGDIR
 70
     0
  9
$PDMODE
 70
     2
  9
$PDSIZE
 40
0.0
  0
ENDSEC
  0
SECTION
  2
TABLES
  0
TABLE
  2
LTYPE
 70
     5
  0
LTYPE
  2
CONTINUOUS
 70
    64
  3
é¿ê¸
 72
    65
 73
     0
 40
0.0
  0
LTYPE
  2
HIDDEN
 70
    64
  3
- - - - - - - -  - - 
 72
    65
 73
     2
 40
1.875
 49
1.25
 49
-0.625
  0
LTYPE
  2
CENTER
 70
    64
  3
------ - ------ - ----
 72
    65
 73
     4
 40
10.0
 49
6.25
 49
-1.25
 49
1.25
 49
-1.25
  0
LTYPE
  2
DASHED
 70
    64
  3
-- -- -- -- -- -- 
 72
    65
 73
     2
 40
3.75
 49
2.5
 49
-1.25
  0
LTYPE
  2
DASHED2
 70
     0
  3
Dashed (.5x) _ _ _ _ _ _ _ _ _ _ _ _ _ _ _ _ _
 72
    65
 73
     4
 40
3.75
 49
1.25
 49
-0.625
 49
1.25
 49
-0.625
  0
LTYPE
  2
PHANTOM
 70
     0
  3
----- - - ----- - - ---
 72
    65
 73
     6
 40
12.5
 49
6.25
 49
-1.25
 49
1.25
 49
-1.25
 49
1.25
 49
-1.25
  0
ENDTAB
  0
TABLE
  2
LAYER
 70
     7
  0
LAYER
  2
0
 70
     0
 62
     7
  6
CONTINUOUS
  0
LAYER
  2
1
 70
     0
 62
     7
  6
CONTINUOUS
  0
LAYER
  2
2
 70
     0
 62
     7
  6
CONTINUOUS
  0
LAYER
  2
4
 70
     0
 62
     1
  6
CONTINUOUS
  0
LAYER
  2
5
 70
     0
 62
     3
  6
CONTINUOUS
  0
LAYER
  2
7
 70
     0
 62
     2
  6
CONTINUOUS
  0
LAYER
  2
200
 70
     0
 62
     4
  6
CENTER
  0
ENDTAB
  0
TABLE
  2
STYLE
 70
     3
  0
STYLE
  2
STANDARD
 70
     0
 40
0.0
 41
1.0
 50
0.0
 71
     0
 42
0.200000
  3
txt
  4
bigfont
  0
STYLE
  2
CSTEXT
 70
    64
 40
0.0
 41
1.0
 50
0.0
 71
     0
 42
1.0
  3
TXT
  4
BIGFONT
  0
STYLE
  2
CSTEXT_T
 70
    68
 40
0.0
 41
1.0
 50
0.0
 71
     0
 42
1.0
  3
TXT
  4
BIGFONT
  0
ENDTAB
  0
TABLE
  2
DIMSTYLE
 70
     1
  0
DIMSTYLE
  2
ISO-25
 70
     0
  3

  4

  5

  6

  7

 40
1.0
 41
2.5
 42
0.625
 43
3.75
 44
1.25
 45
0.0
 46
0.0
 47
0.0
 48
0.0
140
2.5
141
2.5
142
0.0
143
0.04
144
1.0
145
0.0
146
1.0
147
0.625
 71
     0
 72
     0
 73
     0
 74
     0
 75
     0
 76
     0
 77
     1
 78
     8
170
     0
171
     3
172
     1
173
     0
174
     0
175
     0
176
     0
177
     0
178
     0
  0
ENDTAB
  0
ENDSEC
  0
SECTION
  2
ENTITIES
  0
ARC
  8
1
 10
26.533133
 20
3.427254
 30
0.0
 40
1.0
 50
180.0
 51
270.0
  0
LINE
  8
1
 10
25.533133
 20
3.427254
 30
0.0
 11
25.533133
 21
17.427254
 31
0.0
  0
ARC
  8
1
 10
25.533133
 20
17.927254
 30
0.0
 40
0.500000
 50
270.0
 51
450.0
  0
LINE
  8
1
 10
25.533133
 20
18.427254
 30
0.0
 11
25.533133
 21
21.427254
 31
0.0
  0
ARC
  8
1
 10
26.533133
 20
21.427254
 30
0.0
 40
1.0
 50
90.0
 51
180.0
  0
ARC
  8
1
 10
44.533133
 20
21.427254
 30
0.0
 40
1.0
 50
0.0
 51
90.0
  0
LINE
  8
1
 10
45.533133
 20
21.427254
 30
0.0
 11
45.533133
 21
18.427254
 31
0.0
  0
ARC
  8
1
 10
45.533133
 20
17.927254
 30
0.0
 40
0.500000
 50
90.0
 51
270.0
  0
LINE
  8
1
 10
45.533133
 20
17.427254
 30
0.0
 11
45.533133
 21
3.427254
 31
0.0
  0
ARC
  8
1
 10
44.533133
 20
3.427254
 30
0.0
 40
1.0
 50
270.0
 51
360.0
  0
LINE
  8
1
 10
44.533133
 20
2.427254
 30
0.0
 11
26.533133
 21
2.427254
 31
0.0
  0
LINE
  8
5
 62
     4
  6
DASHED
 10
29.008133
 20
18.302254
 30
0.0
 11
29.008133
 21
18.427254
 31
0.0
  0
LINE
  8
5
 10
29.908133
 20
19.602254
 30
0.0
 11
29.908133
 21
18.427254
 31
0.0
  0
ARC
  8
2
 10
29.129433
 20
16.610584
 30
0.0
 40
0.100000
 50
150.066081
 51
294.041611
  0
LINE
  8
2
 10
29.042773
 20
16.660484
 30
0.0
 11
29.183513
 21
16.904934
 31
0.0
  0
ARC
  8
2
 10
29.270173
 20
16.855034
 30
0.0
 40
0.100000
 50
0.0
 51
150.066081
  0
LINE
  8
2
 10
29.370173
 20
16.855034
 30
0.0
 11
29.370173
 21
15.999474
 31
0.0
  0
ARC
  8
2
 10
29.270173
 20
15.999474
 30
0.0
 40
0.100000
 50
180.0
 51
360.0
  0
LINE
  8
2
 10
29.170173
 20
15.999474
 30
0.0
 11
29.170173
 21
16.519259
 31
0.0
  0
ARC
  8
2
 10
32.147943
 20
16.755034
 30
0.0
 40
0.100000
 50
228.011510
 51
408.010223
  0
LINE
  8
2
 10
32.081043
 20
16.680704
 30
0.0
 11
32.055633
 21
16.703584
 31
0.0
  0
LINE
  8
2
 10
32.055633
 20
16.703584
 30
0.0
 11
32.000903
 21
16.728204
 31
0.0
  0
LINE
  8
2
 10
32.000903
 20
16.728204
 30
0.0
 11
31.917453
 21
16.755034
 31
0.0
  0
LINE
  8
2
 10
31.917453
 20
16.755034
 30
0.0
 11
31.793253
 21
16.755034
 31
0.0
  0
LINE
  8
2
 10
31.793253
 20
16.755034
 30
0.0
 11
31.717743
 21
16.730754
 31
0.0
  0
LINE
  8
2
 10
31.717743
 20
16.730754
 30
0.0
 11
31.679313
 21
16.705144
 31
0.0
  0
LINE
  8
2
 10
31.679313
 20
16.705144
 30
0.0
 11
31.659883
 21
16.675974
 31
0.0
  0
LINE
  8
2
 10
31.659883
 20
16.675974
 30
0.0
 11
31.633133
 21
16.603774
 31
0.0
  0
LINE
  8
2
 10
31.633133
 20
16.603774
 30
0.0
 11
31.633133
 21
16.533471
 31
0.0
  0
LINE
  8
2
 10
31.633133
 20
16.250734
 30
0.0
 11
31.661293
 21
16.174704
 31
0.0
  0
LINE
  8
2
 10
31.661293
 20
16.174704
 30
0.0
 11
31.679603
 21
16.141754
 31
0.0
  0
LINE
  8
2
 10
31.679603
 20
16.141754
 30
0.0
 11
31.711753
 21
16.125674
 31
0.0
  0
LINE
  8
2
 10
31.711753
 20
16.125674
 30
0.0
 11
31.793253
 21
16.099474
 31
0.0
  0
LINE
  8
2
 10
31.793253
 20
16.099474
 30
0.0
 11
31.917453
 21
16.099474
 31
0.0
  0
LINE
  8
2
 10
31.917453
 20
16.099474
 30
0.0
 11
32.000903
 21
16.126304
 31
0.0
  0
LINE
  8
2
 10
32.000903
 20
16.126304
 30
0.0
 11
32.039613
 21
16.143714
 31
0.0
  0
LINE
  8
2
 10
32.039613
 20
16.143714
 30
0.0
 11
32.056823
 21
16.174704
 31
0.0
  0
LINE
  8
2
 10
32.056823
 20
16.174704
 30
0.0
 11
32.084983
 21
16.250734
 31
0.0
  0
LINE
  8
2
 10
32.084983
 20
16.250734
 30
0.0
 11
32.084983
 21
16.273564
 31
0.0
  0
LINE
  8
2
 10
32.084983
 20
16.273564
 30
0.0
 11
32.069593
 21
16.301264
 31
0.0
  0
LINE
  8
2
 10
32.069593
 20
16.301264
 30
0.0
 11
32.035793
 21
16.329434
 31
0.0
  0
LINE
  8
2
 10
32.035793
 20
16.329434
 30
0.0
 11
31.922023
 21
16.355034
 31
0.0
  0
LINE
  8
2
 10
31.922023
 20
16.355034
 30
0.0
 11
31.785423
 21
16.355034
 31
0.0
  0
LINE
  8
2
 10
31.785423
 20
16.355034
 30
0.0
 11
31.684553
 21
16.339114
 31
0.0
  0
LINE
  8
2
 10
31.684553
 20
16.339114
 30
0.0
 11
31.650793
 21
16.305344
 31
0.0
  0
LINE
  8
2
 10
31.650793
 20
16.305344
 30
0.0
 11
31.633133
 21
16.273552
 31
0.0
  0
LINE
  8
2
 10
31.633133
 20
16.533471
 30
0.0
 11
31.761983
 21
16.553814
 31
0.0
  0
ARC
  8
2
 10
31.777573
 20
16.455034
 30
0.0
 40
0.100000
 50
90.0
 51
98.968754
  0
LINE
  8
2
 10
31.777573
 20
16.555034
 30
0.0
 11
31.933133
 21
16.555034
 31
0.0
  0
ARC
  8
2
 10
31.933133
 20
16.455034
 30
0.0
 40
0.100000
 50
77.314586
 51
90.0
  0
LINE
  8
2
 10
31.955093
 20
16.552594
 30
0.0
 11
32.103243
 21
16.519254
 31
0.0
  0
ARC
  8
2
 10
32.081283
 20
16.421694
 30
0.0
 40
0.100000
 50
50.192962
 51
77.314586
  0
LINE
  8
2
 10
32.145303
 20
16.498514
 30
0.0
 11
32.211963
 21
16.442964
 31
0.0
  0
ARC
  8
2
 10
32.147943
 20
16.366144
 30
0.0
 40
0.100000
 50
29.056274
 51
50.192962
  0
LINE
  8
2
 10
32.235363
 20
16.414714
 30
0.0
 11
32.272403
 21
16.348044
 31
0.0
  0
ARC
  8
2
 10
32.184983
 20
16.299474
 30
0.0
 40
0.100000
 50
0.0
 51
29.056273
  0
LINE
  8
2
 10
32.284983
 20
16.299474
 30
0.0
 11
32.284983
 21
16.232814
 31
0.0
  0
ARC
  8
2
 10
32.184983
 20
16.232814
 30
0.0
 40
0.100000
 50
339.676664
 51
360.0
  0
LINE
  8
2
 10
32.278753
 20
16.198084
 30
0.0
 11
32.241713
 21
16.098084
 31
0.0
  0
ARC
  8
2
 10
32.147943
 20
16.132814
 30
0.0
 40
0.100000
 50
330.948735
 51
339.676664
  0
LINE
  8
2
 10
32.235363
 20
16.084254
 30
0.0
 11
32.198333
 21
16.017584
 31
0.0
  0
ARC
  8
2
 10
32.110913
 20
16.066144
 30
0.0
 40
0.100000
 50
294.224871
 51
330.948735
  0
LINE
  8
2
 10
32.151943
 20
15.974954
 30
0.0
 11
32.077863
 21
15.941624
 31
0.0
  0
ARC
  8
2
 10
32.036833
 20
16.032814
 30
0.0
 40
0.100000
 50
287.824344
 51
294.224871
  0
LINE
  8
2
 10
32.067443
 20
15.937614
 30
0.0
 11
31.963743
 21
15.904274
 31
0.0
  0
ARC
  8
2
 10
31.933133
 20
15.999474
 30
0.0
 40
0.100000
 50
270.0
 51
287.824344
  0
LINE
  8
2
 10
31.933133
 20
15.899474
 30
0.0
 11
31.777573
 21
15.899474
 31
0.0
  0
ARC
  8
2
 10
31.777573
 20
15.999474
 30
0.0
 40
0.100000
 50
252.175656
 51
270.0
  0
LINE
  8
2
 10
31.746963
 20
15.904274
 30
0.0
 11
31.643263
 21
15.937614
 31
0.0
  0
ARC
  8
2
 10
31.673873
 20
16.032814
 30
0.0
 40
0.100000
 50
243.437511
 51
252.175656
  0
LINE
  8
2
 10
31.629153
 20
15.943364
 30
0.0
 11
31.562483
 21
15.976694
 31
0.0
  0
ARC
  8
2
 10
31.607203
 20
16.066144
 30
0.0
 40
0.100000
 50
209.051265
 51
243.437511
  0
LINE
  8
2
 10
31.519783
 20
16.017584
 30
0.0
 11
31.482753
 21
16.084254
 31
0.0
  0
ARC
  8
2
 10
31.570173
 20
16.132814
 30
0.0
 40
0.100000
 50
200.323336
 51
209.051265
  0
LINE
  8
2
 10
31.476403
 20
16.098084
 30
0.0
 11
31.439363
 21
16.198084
 31
0.0
  0
ARC
  8
2
 10
31.533133
 20
16.232814
 30
0.0
 40
0.100000
 50
180.0
 51
200.323336
  0
LINE
  8
2
 10
31.433133
 20
16.232814
 30
0.0
 11
31.433133
 21
16.621694
 31
0.0
  0
ARC
  8
2
 10
31.533133
 20
16.621694
 30
0.0
 40
0.100000
 50
159.676664
 51
180.0
  0
LINE
  8
2
 10
31.439363
 20
16.656424
 30
0.0
 11
31.476403
 21
16.756424
 31
0.0
  0
ARC
  8
2
 10
31.570173
 20
16.721694
 30
0.0
 40
0.100000
 50
146.316289
 51
159.676664
  0
LINE
  8
2
 10
31.486963
 20
16.777154
 30
0.0
 11
31.523993
 21
16.832714
 31
0.0
  0
ARC
  8
2
 10
31.607203
 20
16.777254
 30
0.0
 40
0.100000
 50
123.683711
 51
146.316289
  0
LINE
  8
2
 10
31.551743
 20
16.860464
 30
0.0
 11
31.618413
 21
16.904904
 31
0.0
  0
ARC
  8
2
 10
31.673873
 20
16.821694
 30
0.0
 40
0.100000
 50
107.824344
 51
123.683711
  0
LINE
  8
2
 10
31.643263
 20
16.916894
 30
0.0
 11
31.746963
 21
16.950234
 31
0.0
  0
ARC
  8
2
 10
31.777573
 20
16.855034
 30
0.0
 40
0.100000
 50
90.0
 51
107.824344
  0
LINE
  8
2
 10
31.777573
 20
16.955034
 30
0.0
 11
31.933133
 21
16.955034
 31
0.0
  0
ARC
  8
2
 10
31.933133
 20
16.855034
 30
0.0
 40
0.100000
 50
72.175656
 51
90.0
  0
LINE
  8
2
 10
31.963743
 20
16.950234
 30
0.0
 11
32.067443
 21
16.916894
 31
0.0
  0
ARC
  8
2
 10
32.036833
 20
16.821694
 30
0.0
 40
0.100000
 50
65.775129
 51
72.175656
  0
LINE
  8
2
 10
32.077863
 20
16.912884
 30
0.0
 11
32.151943
 21
16.879554
 31
0.0
  0
ARC
  8
2
 10
32.110913
 20
16.788364
 30
0.0
 40
0.100000
 50
48.011510
 51
65.775129
  0
LINE
  8
2
 10
32.177813
 20
16.862694
 30
0.0
 11
32.214843
 21
16.829364
 31
0.0
  0
ARC
  8
2
 10
33.279433
 20
16.610584
 30
0.0
 40
0.100000
 50
150.066081
 51
294.041611
  0
LINE
  8
2
 10
33.192773
 20
16.660484
 30
0.0
 11
33.333513
 21
16.904934
 31
0.0
  0
ARC
  8
2
 10
33.420173
 20
16.855034
 30
0.0
 40
0.100000
 50
0.0
 51
150.066081
  0
LINE
  8
2
 10
33.520173
 20
16.855034
 30
0.0
 11
33.520173
 21
15.999474
 31
0.0
  0
ARC
  8
2
 10
33.420173
 20
15.999474
 30
0.0
 40
0.100000
 50
180.0
 51
360.0
  0
LINE
  8
2
 10
33.320173
 20
15.999474
 30
0.0
 11
33.320173
 21
16.519259
 31
0.0
  0
ARC
  8
2
 10
34.279433
 20
16.610584
 30
0.0
 40
0.100000
 50
150.066081
 51
294.041611
  0
LINE
  8
2
 10
34.192773
 20
16.660484
 30
0.0
 11
34.333513
 21
16.904934
 31
0.0
  0
ARC
  8
2
 10
34.420173
 20
16.855034
 30
0.0
 40
0.100000
 50
0.0
 51
150.066081
  0
LINE
  8
2
 10
34.520173
 20
16.855034
 30
0.0
 11
34.520173
 21
15.999474
 31
0.0
  0
ARC
  8
2
 10
34.420173
 20
15.999474
 30
0.0
 40
0.100000
 50
180.0
 51
360.0
  0
LINE
  8
2
 10
34.320173
 20
15.999474
 30
0.0
 11
34.320173
 21
16.519259
 31
0.0
  0
ARC
  8
2
 10
36.279433
 20
16.610584
 30
0.0
 40
0.100000
 50
150.066081
 51
294.041611
  0
LINE
  8
2
 10
36.192773
 20
16.660484
 30
0.0
 11
36.333513
 21
16.904934
 31
0.0
  0
ARC
  8
2
 10
36.420173
 20
16.855034
 30
0.0
 40
0.100000
 50
0.0
 51
150.066081
  0
LINE
  8
2
 10
36.520173
 20
16.855034
 30
0.0
 11
36.520173
 21
15.999474
 31
0.0
  0
ARC
  8
2
 10
36.420173
 20
15.999474
 30
0.0
 40
0.100000
 50
180.0
 51
360.0
  0
LINE
  8
2
 10
36.320173
 20
15.999474
 30
0.0
 11
36.320173
 21
16.519259
 31
0.0
  0
ARC
  8
2
 10
37.797943
 20
16.755034
 30
0.0
 40
0.100000
 50
228.011510
 51
408.010223
  0
LINE
  8
2
 10
37.731043
 20
16.680704
 30
0.0
 11
37.705633
 21
16.703584
 31
0.0
  0
LINE
  8
2
 10
37.705633
 20
16.703584
 30
0.0
 11
37.650903
 21
16.728204
 31
0.0
  0
LINE
  8
2
 10
37.650903
 20
16.728204
 30
0.0
 11
37.567453
 21
16.755034
 31
0.0
  0
LINE
  8
2
 10
37.567453
 20
16.755034
 30
0.0
 11
37.443253
 21
16.755034
 31
0.0
  0
LINE
  8
2
 10
37.443253
 20
16.755034
 30
0.0
 11
37.367743
 21
16.730754
 31
0.0
  0
LINE
  8
2
 10
37.367743
 20
16.730754
 30
0.0
 11
37.329313
 21
16.705144
 31
0.0
  0
LINE
  8
2
 10
37.329313
 20
16.705144
 30
0.0
 11
37.309883
 21
16.675974
 31
0.0
  0
LINE
  8
2
 10
37.309883
 20
16.675974
 30
0.0
 11
37.283133
 21
16.603774
 31
0.0
  0
LINE
  8
2
 10
37.283133
 20
16.603774
 30
0.0
 11
37.283133
 21
16.533471
 31
0.0
  0
LINE
  8
2
 10
37.283133
 20
16.250734
 30
0.0
 11
37.311293
 21
16.174704
 31
0.0
  0
LINE
  8
2
 10
37.311293
 20
16.174704
 30
0.0
 11
37.329603
 21
16.141754
 31
0.0
  0
LINE
  8
2
 10
37.329603
 20
16.141754
 30
0.0
 11
37.361753
 21
16.125674
 31
0.0
  0
LINE
  8
2
 10
37.361753
 20
16.125674
 30
0.0
 11
37.443253
 21
16.099474
 31
0.0
  0
LINE
  8
2
 10
37.443253
 20
16.099474
 30
0.0
 11
37.567453
 21
16.099474
 31
0.0
  0
LINE
  8
2
 10
37.567453
 20
16.099474
 30
0.0
 11
37.650903
 21
16.126304
 31
0.0
  0
LINE
  8
2
 10
37.650903
 20
16.126304
 30
0.0
 11
37.689613
 21
16.143714
 31
0.0
  0
LINE
  8
2
 10
37.689613
 20
16.143714
 30
0.0
 11
37.706823
 21
16.174704
 31
0.0
  0
LINE
  8
2
 10
37.706823
 20
16.174704
 30
0.0
 11
37.734983
 21
16.250734
 31
0.0
  0
LINE
  8
2
 10
37.734983
 20
16.250734
 30
0.0
 11
37.734983
 21
16.273564
 31
0.0
  0
LINE
  8
2
 10
37.734983
 20
16.273564
 30
0.0
 11
37.719593
 21
16.301264
 31
0.0
  0
LINE
  8
2
 10
37.719593
 20
16.301264
 30
0.0
 11
37.685793
 21
16.329434
 31
0.0
  0
LINE
  8
2
 10
37.685793
 20
16.329434
 30
0.0
 11
37.572023
 21
16.355034
 31
0.0
  0
LINE
  8
2
 10
37.572023
 20
16.355034
 30
0.0
 11
37.435423
 21
16.355034
 31
0.0
  0
LINE
  8
2
 10
37.435423
 20
16.355034
 30
0.0
 11
37.334553
 21
16.339114
 31
0.0
  0
LINE
  8
2
 10
37.334553
 20
16.339114
 30
0.0
 11
37.300793
 21
16.305344
 31
0.0
  0
LINE
  8
2
 10
37.300793
 20
16.305344
 30
0.0
 11
37.283133
 21
16.273552
 31
0.0
  0
LINE
  8
2
 10
37.283133
 20
16.533471
 30
0.0
 11
37.411983
 21
16.553814
 31
0.0
  0
ARC
  8
2
 10
37.427573
 20
16.455034
 30
0.0
 40
0.100000
 50
90.0
 51
98.968754
  0
LINE
  8
2
 10
37.427573
 20
16.555034
 30
0.0
 11
37.583133
 21
16.555034
 31
0.0
  0
ARC
  8
2
 10
37.583133
 20
16.455034
 30
0.0
 40
0.100000
 50
77.314586
 51
90.0
  0
LINE
  8
2
 10
37.605093
 20
16.552594
 30
0.0
 11
37.753243
 21
16.519254
 31
0.0
  0
ARC
  8
2
 10
37.731283
 20
16.421694
 30
0.0
 40
0.100000
 50
50.192962
 51
77.314586
  0
LINE
  8
2
 10
37.795303
 20
16.498514
 30
0.0
 11
37.861963
 21
16.442964
 31
0.0
  0
ARC
  8
2
 10
37.797943
 20
16.366144
 30
0.0
 40
0.100000
 50
29.056274
 51
50.192962
  0
LINE
  8
2
 10
37.885363
 20
16.414714
 30
0.0
 11
37.922403
 21
16.348044
 31
0.0
  0
ARC
  8
2
 10
37.834983
 20
16.299474
 30
0.0
 40
0.100000
 50
0.0
 51
29.056273
  0
LINE
  8
2
 10
37.934983
 20
16.299474
 30
0.0
 11
37.934983
 21
16.232814
 31
0.0
  0
ARC
  8
2
 10
37.834983
 20
16.232814
 30
0.0
 40
0.100000
 50
339.676664
 51
360.0
  0
LINE
  8
2
 10
37.928753
 20
16.198084
 30
0.0
 11
37.891713
 21
16.098084
 31
0.0
  0
ARC
  8
2
 10
37.797943
 20
16.132814
 30
0.0
 40
0.100000
 50
330.948735
 51
339.676664
  0
LINE
  8
2
 10
37.885363
 20
16.084254
 30
0.0
 11
37.848333
 21
16.017584
 31
0.0
  0
ARC
  8
2
 10
37.760913
 20
16.066144
 30
0.0
 40
0.100000
 50
294.224871
 51
330.948735
  0
LINE
  8
2
 10
37.801943
 20
15.974954
 30
0.0
 11
37.727863
 21
15.941624
 31
0.0
  0
ARC
  8
2
 10
37.686833
 20
16.032814
 30
0.0
 40
0.100000
 50
287.824344
 51
294.224871
  0
LINE
  8
2
 10
37.717443
 20
15.937614
 30
0.0
 11
37.613743
 21
15.904274
 31
0.0
  0
ARC
  8
2
 10
37.583133
 20
15.999474
 30
0.0
 40
0.100000
 50
270.0
 51
287.824344
  0
LINE
  8
2
 10
37.583133
 20
15.899474
 30
0.0
 11
37.427573
 21
15.899474
 31
0.0
  0
ARC
  8
2
 10
37.427573
 20
15.999474
 30
0.0
 40
0.100000
 50
252.175656
 51
270.0
  0
LINE
  8
2
 10
37.396963
 20
15.904274
 30
0.0
 11
37.293263
 21
15.937614
 31
0.0
  0
ARC
  8
2
 10
37.323873
 20
16.032814
 30
0.0
 40
0.100000
 50
243.437511
 51
252.175656
  0
LINE
  8
2
 10
37.279153
 20
15.943364
 30
0.0
 11
37.212483
 21
15.976694
 31
0.0
  0
ARC
  8
2
 10
37.257203
 20
16.066144
 30
0.0
 40
0.100000
 50
209.051265
 51
243.437511
  0
LINE
  8
2
 10
37.169783
 20
16.017584
 30
0.0
 11
37.132753
 21
16.084254
 31
0.0
  0
ARC
  8
2
 10
37.220173
 20
16.132814
 30
0.0
 40
0.100000
 50
200.323336
 51
209.051265
  0
LINE
  8
2
 10
37.126403
 20
16.098084
 30
0.0
 11
37.089363
 21
16.198084
 31
0.0
  0
ARC
  8
2
 10
37.183133
 20
16.232814
 30
0.0
 40
0.100000
 50
180.0
 51
200.323336
  0
LINE
  8
2
 10
37.083133
 20
16.232814
 30
0.0
 11
37.083133
 21
16.621694
 31
0.0
  0
ARC
  8
2
 10
37.183133
 20
16.621694
 30
0.0
 40
0.100000
 50
159.676664
 51
180.0
  0
LINE
  8
2
 10
37.089363
 20
16.656424
 30
0.0
 11
37.126403
 21
16.756424
 31
0.0
  0
ARC
  8
2
 10
37.220173
 20
16.721694
 30
0.0
 40
0.100000
 50
146.316289
 51
159.676664
  0
LINE
  8
2
 10
37.136963
 20
16.777154
 30
0.0
 11
37.173993
 21
16.832714
 31
0.0
  0
ARC
  8
2
 10
37.257203
 20
16.777254
 30
0.0
 40
0.100000
 50
123.683711
 51
146.316289
  0
LINE
  8
2
 10
37.201743
 20
16.860464
 30
0.0
 11
37.268413
 21
16.904904
 31
0.0
  0
ARC
  8
2
 10
37.323873
 20
16.821694
 30
0.0
 40
0.100000
 50
107.824344
 51
123.683711
  0
LINE
  8
2
 10
37.293263
 20
16.916894
 30
0.0
 11
37.396963
 21
16.950234
 31
0.0
  0
ARC
  8
2
 10
37.427573
 20
16.855034
 30
0.0
 40
0.100000
 50
90.0
 51
107.824344
  0
LINE
  8
2
 10
37.427573
 20
16.955034
 30
0.0
 11
37.583133
 21
16.955034
 31
0.0
  0
ARC
  8
2
 10
37.583133
 20
16.855034
 30
0.0
 40
0.100000
 50
72.175656
 51
90.0
  0
LINE
  8
2
 10
37.613743
 20
16.950234
 30
0.0
 11
37.717443
 21
16.916894
 31
0.0
  0
ARC
  8
2
 10
37.686833
 20
16.821694
 30
0.0
 40
0.100000
 50
65.775129
 51
72.175656
  0
LINE
  8
2
 10
37.727863
 20
16.912884
 30
0.0
 11
37.801943
 21
16.879554
 31
0.0
  0
ARC
  8
2
 10
37.760913
 20
16.788364
 30
0.0
 40
0.100000
 50
48.011510
 51
65.775129
  0
LINE
  8
2
 10
37.827813
 20
16.862694
 30
0.0
 11
37.864843
 21
16.829364
 31
0.0
  0
ARC
  8
2
 10
38.983133
 20
16.688364
 30
0.0
 40
0.100000
 50
150.943726
 51
330.944666
  0
LINE
  8
2
 10
38.895713
 20
16.736934
 30
0.0
 11
38.932753
 21
16.803604
 31
0.0
  0
ARC
  8
2
 10
39.020173
 20
16.755034
 30
0.0
 40
0.100000
 50
131.984231
 51
150.944666
  0
LINE
  8
2
 10
38.953283
 20
16.829364
 30
0.0
 11
39.027353
 21
16.896024
 31
0.0
  0
ARC
  8
2
 10
39.094243
 20
16.821694
 30
0.0
 40
0.100000
 50
112.253604
 51
131.985930
  0
LINE
  8
2
 10
39.056373
 20
16.914244
 30
0.0
 11
39.137853
 21
16.947584
 31
0.0
  0
ARC
  8
2
 10
39.175723
 20
16.855034
 30
0.0
 40
0.100000
 50
90.0
 51
112.253404
  0
LINE
  8
2
 10
39.175723
 20
16.955034
 30
0.0
 11
39.405353
 21
16.955034
 31
0.0
  0
ARC
  8
2
 10
39.405353
 20
16.855034
 30
0.0
 40
0.100000
 50
65.769903
 51
90.0
  0
LINE
  8
2
 10
39.446393
 20
16.946224
 30
0.0
 11
39.520473
 21
16.912884
 31
0.0
  0
ARC
  8
2
 10
39.479433
 20
16.821694
 30
0.0
 40
0.100000
 50
50.713818
 51
65.769682
  0
LINE
  8
2
 10
39.542753
 20
16.899094
 30
0.0
 11
39.624233
 21
16.832434
 31
0.0
  0
ARC
  8
2
 10
39.560913
 20
16.755034
 30
0.0
 40
0.100000
 50
29.051265
 51
50.712891
  0
LINE
  8
2
 10
39.648333
 20
16.803594
 30
0.0
 11
39.685363
 21
16.736924
 31
0.0
  0
ARC
  8
2
 10
39.597943
 20
16.688364
 30
0.0
 40
0.100000
 50
0.0
 51
29.048766
  0
LINE
  8
2
 10
39.697943
 20
16.688364
 30
0.0
 11
39.697943
 21
16.555034
 31
0.0
  0
ARC
  8
2
 10
39.597943
 20
16.555034
 30
0.0
 40
0.100000
 50
330.948735
 51
360.0
  0
LINE
  8
2
 10
39.685363
 20
16.506474
 30
0.0
 11
39.648333
 21
16.439804
 31
0.0
  0
ARC
  8
2
 10
39.560913
 20
16.488364
 30
0.0
 40
0.100000
 50
310.234003
 51
330.951234
  0
LINE
  8
2
 10
39.625503
 20
16.412024
 30
0.0
 11
39.256123
 21
16.099474
 31
0.0
  0
LINE
  8
2
 10
39.256123
 20
16.099474
 30
0.0
 11
39.597943
 21
16.099474
 31
0.0
  0
ARC
  8
2
 10
39.597943
 20
15.999474
 30
0.0
 40
0.100000
 50
270.0
 51
450.0
  0
LINE
  8
2
 10
39.597943
 20
15.899474
 30
0.0
 11
38.983133
 21
15.899474
 31
0.0
  0
ARC
  8
2
 10
38.983133
 20
15.999474
 30
0.0
 40
0.100000
 50
130.234003
 51
270.0
  0
LINE
  8
2
 10
38.918543
 20
16.075814
 30
0.0
 11
39.482363
 21
16.552894
 31
0.0
  0
LINE
  8
2
 10
39.482363
 20
16.552894
 30
0.0
 11
39.497943
 21
16.580944
 31
0.0
  0
LINE
  8
2
 10
39.497943
 20
16.580944
 30
0.0
 11
39.497943
 21
16.662454
 31
0.0
  0
LINE
  8
2
 10
39.497943
 20
16.662454
 30
0.0
 11
39.482783
 21
16.689754
 31
0.0
  0
LINE
  8
2
 10
39.482783
 20
16.689754
 30
0.0
 11
39.426343
 21
16.735924
 31
0.0
  0
LINE
  8
2
 10
39.426343
 20
16.735924
 30
0.0
 11
39.383883
 21
16.755034
 31
0.0
  0
LINE
  8
2
 10
39.383883
 20
16.755034
 30
0.0
 11
39.195393
 21
16.755034
 31
0.0
  0
LINE
  8
2
 10
39.195393
 20
16.755034
 30
0.0
 11
39.148213
 21
16.735724
 31
0.0
  0
LINE
  8
2
 10
39.148213
 20
16.735724
 30
0.0
 11
39.099483
 21
16.691874
 31
0.0
  0
LINE
  8
2
 10
39.099483
 20
16.691874
 30
0.0
 11
39.070553
 21
16.639794
 31
0.0
  0
ARC
  8
2
 10
40.079433
 20
16.610584
 30
0.0
 40
0.100000
 50
150.066081
 51
294.041611
  0
LINE
  8
2
 10
39.992773
 20
16.660484
 30
0.0
 11
40.133513
 21
16.904934
 31
0.0
  0
ARC
  8
2
 10
40.220173
 20
16.855034
 30
0.0
 40
0.100000
 50
0.0
 51
150.066081
  0
LINE
  8
2
 10
40.320173
 20
16.855034
 30
0.0
 11
40.320173
 21
15.999474
 31
0.0
  0
ARC
  8
2
 10
40.220173
 20
15.999474
 30
0.0
 40
0.100000
 50
180.0
 51
360.0
  0
LINE
  8
2
 10
40.120173
 20
15.999474
 30
0.0
 11
40.120173
 21
16.519259
 31
0.0
  0
ARC
  8
2
 10
41.033133
 20
16.688364
 30
0.0
 40
0.100000
 50
150.943726
 51
330.944666
  0
LINE
  8
2
 10
40.945713
 20
16.736934
 30
0.0
 11
40.982753
 21
16.803604
 31
0.0
  0
ARC
  8
2
 10
41.070173
 20
16.755034
 30
0.0
 40
0.100000
 50
131.984231
 51
150.944666
  0
LINE
  8
2
 10
41.003283
 20
16.829364
 30
0.0
 11
41.077353
 21
16.896024
 31
0.0
  0
ARC
  8
2
 10
41.144243
 20
16.821694
 30
0.0
 40
0.100000
 50
112.253604
 51
131.985930
  0
LINE
  8
2
 10
41.106373
 20
16.914244
 30
0.0
 11
41.187853
 21
16.947584
 31
0.0
  0
ARC
  8
2
 10
41.225723
 20
16.855034
 30
0.0
 40
0.100000
 50
90.0
 51
112.253404
  0
LINE
  8
2
 10
41.225723
 20
16.955034
 30
0.0
 11
41.455353
 21
16.955034
 31
0.0
  0
ARC
  8
2
 10
41.455353
 20
16.855034
 30
0.0
 40
0.100000
 50
65.769903
 51
90.0
  0
LINE
  8
2
 10
41.496393
 20
16.946224
 30
0.0
 11
41.570473
 21
16.912884
 31
0.0
  0
ARC
  8
2
 10
41.529433
 20
16.821694
 30
0.0
 40
0.100000
 50
50.713818
 51
65.769682
  0
LINE
  8
2
 10
41.592753
 20
16.899094
 30
0.0
 11
41.674233
 21
16.832434
 31
0.0
  0
ARC
  8
2
 10
41.610913
 20
16.755034
 30
0.0
 40
0.100000
 50
29.051265
 51
50.712891
  0
LINE
  8
2
 10
41.698333
 20
16.803594
 30
0.0
 11
41.735363
 21
16.736924
 31
0.0
  0
ARC
  8
2
 10
41.647943
 20
16.688364
 30
0.0
 40
0.100000
 50
0.0
 51
29.048766
  0
LINE
  8
2
 10
41.747943
 20
16.688364
 30
0.0
 11
41.747943
 21
16.555034
 31
0.0
  0
ARC
  8
2
 10
41.647943
 20
16.555034
 30
0.0
 40
0.100000
 50
330.948735
 51
360.0
  0
LINE
  8
2
 10
41.735363
 20
16.506474
 30
0.0
 11
41.698333
 21
16.439804
 31
0.0
  0
ARC
  8
2
 10
41.610913
 20
16.488364
 30
0.0
 40
0.100000
 50
310.234003
 51
330.951234
  0
LINE
  8
2
 10
41.675503
 20
16.412024
 30
0.0
 11
41.306123
 21
16.099474
 31
0.0
  0
LINE
  8
2
 10
41.306123
 20
16.099474
 30
0.0
 11
41.647943
 21
16.099474
 31
0.0
  0
ARC
  8
2
 10
41.647943
 20
15.999474
 30
0.0
 40
0.100000
 50
270.0
 51
450.0
  0
LINE
  8
2
 10
41.647943
 20
15.899474
 30
0.0
 11
41.033133
 21
15.899474
 31
0.0
  0
ARC
  8
2
 10
41.033133
 20
15.999474
 30
0.0
 40
0.100000
 50
130.234003
 51
270.0
  0
LINE
  8
2
 10
40.968543
 20
16.075814
 30
0.0
 11
41.532363
 21
16.552894
 31
0.0
  0
LINE
  8
2
 10
41.532363
 20
16.552894
 30
0.0
 11
41.547943
 21
16.580944
 31
0.0
  0
LINE
  8
2
 10
41.547943
 20
16.580944
 30
0.0
 11
41.547943
 21
16.662454
 31
0.0
  0
LINE
  8
2
 10
41.547943
 20
16.662454
 30
0.0
 11
41.532783
 21
16.689754
 31
0.0
  0
LINE
  8
2
 10
41.532783
 20
16.689754
 30
0.0
 11
41.476343
 21
16.735924
 31
0.0
  0
LINE
  8
2
 10
41.476343
 20
16.735924
 30
0.0
 11
41.433883
 21
16.755034
 31
0.0
  0
LINE
  8
2
 10
41.433883
 20
16.755034
 30
0.0
 11
41.245393
 21
16.755034
 31
0.0
  0
LINE
  8
2
 10
41.245393
 20
16.755034
 30
0.0
 11
41.198213
 21
16.735724
 31
0.0
  0
LINE
  8
2
 10
41.198213
 20
16.735724
 30
0.0
 11
41.149483
 21
16.691874
 31
0.0
  0
LINE
  8
2
 10
41.149483
 20
16.691874
 30
0.0
 11
41.120553
 21
16.639794
 31
0.0
  0
ARC
  8
2
 10
42.647943
 20
16.755034
 30
0.0
 40
0.100000
 50
228.011510
 51
408.010223
  0
LINE
  8
2
 10
42.581043
 20
16.680704
 30
0.0
 11
42.555633
 21
16.703584
 31
0.0
  0
LINE
  8
2
 10
42.555633
 20
16.703584
 30
0.0
 11
42.500903
 21
16.728204
 31
0.0
  0
LINE
  8
2
 10
42.500903
 20
16.728204
 30
0.0
 11
42.417453
 21
16.755034
 31
0.0
  0
LINE
  8
2
 10
42.417453
 20
16.755034
 30
0.0
 11
42.293253
 21
16.755034
 31
0.0
  0
LINE
  8
2
 10
42.293253
 20
16.755034
 30
0.0
 11
42.217743
 21
16.730754
 31
0.0
  0
LINE
  8
2
 10
42.217743
 20
16.730754
 30
0.0
 11
42.179313
 21
16.705144
 31
0.0
  0
LINE
  8
2
 10
42.179313
 20
16.705144
 30
0.0
 11
42.159883
 21
16.675974
 31
0.0
  0
LINE
  8
2
 10
42.159883
 20
16.675974
 30
0.0
 11
42.133133
 21
16.603774
 31
0.0
  0
LINE
  8
2
 10
42.133133
 20
16.603774
 30
0.0
 11
42.133133
 21
16.533471
 31
0.0
  0
LINE
  8
2
 10
42.133133
 20
16.250734
 30
0.0
 11
42.161293
 21
16.174704
 31
0.0
  0
LINE
  8
2
 10
42.161293
 20
16.174704
 30
0.0
 11
42.179603
 21
16.141754
 31
0.0
  0
LINE
  8
2
 10
42.179603
 20
16.141754
 30
0.0
 11
42.211753
 21
16.125674
 31
0.0
  0
LINE
  8
2
 10
42.211753
 20
16.125674
 30
0.0
 11
42.293253
 21
16.099474
 31
0.0
  0
LINE
  8
2
 10
42.293253
 20
16.099474
 30
0.0
 11
42.417453
 21
16.099474
 31
0.0
  0
LINE
  8
2
 10
42.417453
 20
16.099474
 30
0.0
 11
42.500903
 21
16.126304
 31
0.0
  0
LINE
  8
2
 10
42.500903
 20
16.126304
 30
0.0
 11
42.539613
 21
16.143714
 31
0.0
  0
LINE
  8
2
 10
42.539613
 20
16.143714
 30
0.0
 11
42.556823
 21
16.174704
 31
0.0
  0
LINE
  8
2
 10
42.556823
 20
16.174704
 30
0.0
 11
42.584983
 21
16.250734
 31
0.0
  0
LINE
  8
2
 10
42.584983
 20
16.250734
 30
0.0
 11
42.584983
 21
16.273564
 31
0.0
  0
LINE
  8
2
 10
42.584983
 20
16.273564
 30
0.0
 11
42.569593
 21
16.301264
 31
0.0
  0
LINE
  8
2
 10
42.569593
 20
16.301264
 30
0.0
 11
42.535793
 21
16.329434
 31
0.0
  0
LINE
  8
2
 10
42.535793
 20
16.329434
 30
0.0
 11
42.422023
 21
16.355034
 31
0.0
  0
LINE
  8
2
 10
42.422023
 20
16.355034
 30
0.0
 11
42.285423
 21
16.355034
 31
0.0
  0
LINE
  8
2
 10
42.285423
 20
16.355034
 30
0.0
 11
42.184553
 21
16.339114
 31
0.0
  0
LINE
  8
2
 10
42.184553
 20
16.339114
 30
0.0
 11
42.150793
 21
16.305344
 31
0.0
  0
LINE
  8
2
 10
42.150793
 20
16.305344
 30
0.0
 11
42.133133
 21
16.273552
 31
0.0
  0
LINE
  8
2
 10
42.133133
 20
16.533471
 30
0.0
 11
42.261983
 21
16.553814
 31
0.0
  0
ARC
  8
2
 10
42.277573
 20
16.455034
 30
0.0
 40
0.100000
 50
90.0
 51
98.968754
  0
LINE
  8
2
 10
42.277573
 20
16.555034
 30
0.0
 11
42.433133
 21
16.555034
 31
0.0
  0
ARC
  8
2
 10
42.433133
 20
16.455034
 30
0.0
 40
0.100000
 50
77.314586
 51
90.0
  0
LINE
  8
2
 10
42.455093
 20
16.552594
 30
0.0
 11
42.603243
 21
16.519254
 31
0.0
  0
ARC
  8
2
 10
42.581283
 20
16.421694
 30
0.0
 40
0.100000
 50
50.192962
 51
77.314586
  0
LINE
  8
2
 10
42.645303
 20
16.498514
 30
0.0
 11
42.711963
 21
16.442964
 31
0.0
  0
ARC
  8
2
 10
42.647943
 20
16.366144
 30
0.0
 40
0.100000
 50
29.056274
 51
50.192962
  0
LINE
  8
2
 10
42.735363
 20
16.414714
 30
0.0
 11
42.772403
 21
16.348044
 31
0.0
  0
ARC
  8
2
 10
42.684983
 20
16.299474
 30
0.0
 40
0.100000
 50
0.0
 51
29.056273
  0
LINE
  8
2
 10
42.784983
 20
16.299474
 30
0.0
 11
42.784983
 21
16.232814
 31
0.0
  0
ARC
  8
2
 10
42.684983
 20
16.232814
 30
0.0
 40
0.100000
 50
339.676664
 51
360.0
  0
LINE
  8
2
 10
42.778753
 20
16.198084
 30
0.0
 11
42.741713
 21
16.098084
 31
0.0
  0
ARC
  8
2
 10
42.647943
 20
16.132814
 30
0.0
 40
0.100000
 50
330.948735
 51
339.676664
  0
LINE
  8
2
 10
42.735363
 20
16.084254
 30
0.0
 11
42.698333
 21
16.017584
 31
0.0
  0
ARC
  8
2
 10
42.610913
 20
16.066144
 30
0.0
 40
0.100000
 50
294.224871
 51
330.948735
  0
LINE
  8
2
 10
42.651943
 20
15.974954
 30
0.0
 11
42.577863
 21
15.941624
 31
0.0
  0
ARC
  8
2
 10
42.536833
 20
16.032814
 30
0.0
 40
0.100000
 50
287.824344
 51
294.224871
  0
LINE
  8
2
 10
42.567443
 20
15.937614
 30
0.0
 11
42.463743
 21
15.904274
 31
0.0
  0
ARC
  8
2
 10
42.433133
 20
15.999474
 30
0.0
 40
0.100000
 50
270.0
 51
287.824344
  0
LINE
  8
2
 10
42.433133
 20
15.899474
 30
0.0
 11
42.277573
 21
15.899474
 31
0.0
  0
ARC
  8
2
 10
42.277573
 20
15.999474
 30
0.0
 40
0.100000
 50
252.175656
 51
270.0
  0
LINE
  8
2
 10
42.246963
 20
15.904274
 30
0.0
 11
42.143263
 21
15.937614
 31
0.0
  0
ARC
  8
2
 10
42.173873
 20
16.032814
 30
0.0
 40
0.100000
 50
243.437511
 51
252.175656
  0
LINE
  8
2
 10
42.129153
 20
15.943364
 30
0.0
 11
42.062483
 21
15.976694
 31
0.0
  0
ARC
  8
2
 10
42.107203
 20
16.066144
 30
0.0
 40
0.100000
 50
209.051265
 51
243.437511
  0
LINE
  8
2
 10
42.019783
 20
16.017584
 30
0.0
 11
41.982753
 21
16.084254
 31
0.0
  0
ARC
  8
2
 10
42.070173
 20
16.132814
 30
0.0
 40
0.100000
 50
200.323336
 51
209.051265
  0
LINE
  8
2
 10
41.976403
 20
16.098084
 30
0.0
 11
41.939363
 21
16.198084
 31
0.0
  0
ARC
  8
2
 10
42.033133
 20
16.232814
 30
0.0
 40
0.100000
 50
180.0
 51
200.323336
  0
LINE
  8
2
 10
41.933133
 20
16.232814
 30
0.0
 11
41.933133
 21
16.621694
 31
0.0
  0
ARC
  8
2
 10
42.033133
 20
16.621694
 30
0.0
 40
0.100000
 50
159.676664
 51
180.0
  0
LINE
  8
2
 10
41.939363
 20
16.656424
 30
0.0
 11
41.976403
 21
16.756424
 31
0.0
  0
ARC
  8
2
 10
42.070173
 20
16.721694
 30
0.0
 40
0.100000
 50
146.316289
 51
159.676664
  0
LINE
  8
2
 10
41.986963
 20
16.777154
 30
0.0
 11
42.023993
 21
16.832714
 31
0.0
  0
ARC
  8
2
 10
42.107203
 20
16.777254
 30
0.0
 40
0.100000
 50
123.683711
 51
146.316289
  0
LINE
  8
2
 10
42.051743
 20
16.860464
 30
0.0
 11
42.118413
 21
16.904904
 31
0.0
  0
ARC
  8
2
 10
42.173873
 20
16.821694
 30
0.0
 40
0.100000
 50
107.824344
 51
123.683711
  0
LINE
  8
2
 10
42.143263
 20
16.916894
 30
0.0
 11
42.246963
 21
16.950234
 31
0.0
  0
ARC
  8
2
 10
42.277573
 20
16.855034
 30
0.0
 40
0.100000
 50
90.0
 51
107.824344
  0
LINE
  8
2
 10
42.277573
 20
16.955034
 30
0.0
 11
42.433133
 21
16.955034
 31
0.0
  0
ARC
  8
2
 10
42.433133
 20
16.855034
 30
0.0
 40
0.100000
 50
72.175656
 51
90.0
  0
LINE
  8
2
 10
42.463743
 20
16.950234
 30
0.0
 11
42.567443
 21
16.916894
 31
0.0
  0
ARC
  8
2
 10
42.536833
 20
16.821694
 30
0.0
 40
0.100000
 50
65.775129
 51
72.175656
  0
LINE
  8
2
 10
42.577863
 20
16.912884
 30
0.0
 11
42.651943
 21
16.879554
 31
0.0
  0
ARC
  8
2
 10
42.610913
 20
16.788364
 30
0.0
 40
0.100000
 50
48.011510
 51
65.775129
  0
LINE
  8
2
 10
42.677813
 20
16.862694
 30
0.0
 11
42.714843
 21
16.829364
 31
0.0
  0
ARC
  8
2
 10
44.808133
 20
3.210744
 30
0.0
 40
0.075000
 50
141.783994
 51
180.0
  0
ARC
  8
2
 10
44.533133
 20
3.427254
 30
0.0
 40
0.275000
 50
321.786954
 51
398.213046
  0
ARC
  8
2
 10
44.808133
 20
3.643764
 30
0.0
 40
0.075000
 50
180.0
 51
218.216006
  0
LINE
  8
2
 10
44.733133
 20
3.643764
 30
0.0
 11
44.733133
 21
6.210744
 31
0.0
  0
ARC
  8
2
 10
44.808133
 20
6.210744
 30
0.0
 40
0.075000
 50
141.783994
 51
180.0
  0
ARC
  8
2
 10
44.533133
 20
6.427254
 30
0.0
 40
0.275000
 50
321.786954
 51
398.213046
  0
ARC
  8
2
 10
44.808133
 20
6.643764
 30
0.0
 40
0.075000
 50
180.0
 51
218.216006
  0
LINE
  8
2
 10
44.733133
 20
6.643764
 30
0.0
 11
44.733133
 21
9.210744
 31
0.0
  0
ARC
  8
2
 10
44.808133
 20
9.210744
 30
0.0
 40
0.075000
 50
141.783994
 51
180.0
  0
ARC
  8
2
 10
44.533133
 20
9.427254
 30
0.0
 40
0.275000
 50
321.786954
 51
398.213046
  0
ARC
  8
2
 10
44.808133
 20
9.643764
 30
0.0
 40
0.075000
 50
180.0
 51
218.216006
  0
LINE
  8
2
 10
44.733133
 20
9.643764
 30
0.0
 11
44.733133
 21
12.210744
 31
0.0
  0
ARC
  8
2
 10
44.808133
 20
12.210744
 30
0.0
 40
0.075000
 50
141.783994
 51
180.0
  0
ARC
  8
2
 10
44.533133
 20
12.427254
 30
0.0
 40
0.275000
 50
321.786954
 51
398.213046
  0
ARC
  8
2
 10
44.808133
 20
12.643764
 30
0.0
 40
0.075000
 50
180.0
 51
218.216006
  0
LINE
  8
2
 10
44.733133
 20
12.643764
 30
0.0
 11
44.733133
 21
15.510744
 31
0.0
  0
ARC
  8
2
 10
44.808133
 20
15.510744
 30
0.0
 40
0.075000
 50
141.783994
 51
180.0
  0
ARC
  8
2
 10
44.533133
 20
15.727254
 30
0.0
 40
0.275000
 50
321.786954
 51
398.213046
  0
ARC
  8
2
 10
44.808133
 20
15.943764
 30
0.0
 40
0.075000
 50
180.0
 51
218.216006
  0
LINE
  8
2
 10
44.733133
 20
15.943764
 30
0.0
 11
44.733133
 21
16.852254
 31
0.0
  0
ARC
  8
2
 10
44.808133
 20
16.852254
 30
0.0
 40
0.075000
 50
90.0
 51
180.0
  0
LINE
  8
2
 10
44.808133
 20
16.927254
 30
0.0
 11
45.458133
 21
16.927254
 31
0.0
  0
ARC
  8
2
 10
45.458133
 20
16.852254
 30
0.0
 40
0.075000
 50
0.0
 51
90.0
  0
LINE
  8
2
 10
45.533133
 20
16.852254
 30
0.0
 11
45.533133
 21
3.427254
 31
0.0
  0
LINE
  8
2
 10
44.733133
 20
2.447458
 30
0.0
 11
44.733133
 21
3.210744
 31
0.0
  0
LINE
  8
2
 10
28.233133
 20
15.527254
 30
0.0
 11
28.233133
 21
3.527254
 31
0.0
  0
LINE
  8
2
 10
28.233133
 20
3.527254
 30
0.0
 11
32.833133
 21
3.527254
 31
0.0
  0
LINE
  8
2
 10
42.833133
 20
3.527254
 30
0.0
 11
42.833133
 21
15.527254
 31
0.0
  0
LINE
  8
2
 10
42.833133
 20
15.527254
 30
0.0
 11
38.133133
 21
15.527254
 31
0.0
  0
ARC
  8
2
 10
28.133133
 20
15.627254
 30
0.0
 40
0.100000
 50
90.0
 51
180.0
  0
LINE
  8
2
 10
28.133133
 20
15.727254
 30
0.0
 11
42.933133
 21
15.727254
 31
0.0
  0
ARC
  8
2
 10
42.933133
 20
15.627254
 30
0.0
 40
0.100000
 50
0.0
 51
90.0
  0
LINE
  8
2
 10
43.033133
 20
15.627254
 30
0.0
 11
43.033133
 21
3.427254
 31
0.0
  0
ARC
  8
2
 10
42.933133
 20
3.427254
 30
0.0
 40
0.100000
 50
270.0
 51
360.0
  0
LINE
  8
2
 10
42.933133
 20
3.327254
 30
0.0
 11
28.133133
 21
3.327254
 31
0.0
  0
ARC
  8
2
 10
28.133133
 20
3.427254
 30
0.0
 40
0.100000
 50
180.0
 51
270.0
  0
LINE
  8
2
 10
28.033133
 20
3.427254
 30
0.0
 11
28.033133
 21
15.627254
 31
0.0
  0
LINE
  8
2
 10
33.033133
 20
15.527254
 30
0.0
 11
33.033133
 21
3.527254
 31
0.0
  0
LINE
  8
2
 10
32.833133
 20
3.527254
 30
0.0
 11
32.833133
 21
15.527254
 31
0.0
  0
LINE
  8
2
 10
37.933133
 20
3.527254
 30
0.0
 11
37.933133
 21
15.527254
 31
0.0
  0
LINE
  8
2
 10
38.133133
 20
15.527254
 30
0.0
 11
38.133133
 21
3.527254
 31
0.0
  0
CIRCLE
  8
4
 10
29.159623
 20
14.600084
 30
0.0
 40
0.500000
  0
CIRCLE
  8
7
 10
29.159623
 20
14.600084
 30
0.0
 40
0.698500
  0
CIRCLE
  8
4
 10
29.159623
 20
12.060084
 30
0.0
 40
0.500000
  0
CIRCLE
  8
7
 10
29.159623
 20
12.060084
 30
0.0
 40
0.698500
  0
CIRCLE
  8
4
 10
29.159623
 20
9.520084
 30
0.0
 40
0.500000
  0
CIRCLE
  8
7
 10
29.159623
 20
9.520084
 30
0.0
 40
0.698500
  0
CIRCLE
  8
4
 10
29.159623
 20
6.980084
 30
0.0
 40
0.500000
  0
CIRCLE
  8
7
 10
29.159623
 20
6.980084
 30
0.0
 40
0.698500
  0
CIRCLE
  8
4
 10
29.159623
 20
4.440084
 30
0.0
 40
0.500000
  0
CIRCLE
  8
7
 10
29.159623
 20
4.440084
 30
0.0
 40
0.698500
  0
CIRCLE
  8
4
 10
31.699623
 20
14.600084
 30
0.0
 40
0.500000
  0
CIRCLE
  8
7
 10
31.699623
 20
14.600084
 30
0.0
 40
0.698500
  0
CIRCLE
  8
4
 10
31.699623
 20
12.060084
 30
0.0
 40
0.500000
  0
CIRCLE
  8
7
 10
31.699623
 20
12.060084
 30
0.0
 40
0.698500
  0
CIRCLE
  8
4
 10
31.699623
 20
9.520084
 30
0.0
 40
0.500000
  0
CIRCLE
  8
7
 10
31.699623
 20
9.520084
 30
0.0
 40
0.698500
  0
CIRCLE
  8
4
 10
31.699623
 20
6.980084
 30
0.0
 40
0.500000
  0
CIRCLE
  8
7
 10
31.699623
 20
6.980084
 30
0.0
 40
0.698500
  0
CIRCLE
  8
4
 10
31.699623
 20
4.440084
 30
0.0
 40
0.500000
  0
CIRCLE
  8
7
 10
31.699623
 20
4.440084
 30
0.0
 40
0.698500
  0
CIRCLE
  8
4
 10
34.239623
 20
14.600084
 30
0.0
 40
0.500000
  0
CIRCLE
  8
7
 10
34.239623
 20
14.600084
 30
0.0
 40
0.698500
  0
CIRCLE
  8
4
 10
34.239623
 20
12.060084
 30
0.0
 40
0.500000
  0
CIRCLE
  8
7
 10
34.239623
 20
12.060084
 30
0.0
 40
0.698500
  0
CIRCLE
  8
4
 10
34.239623
 20
9.520084
 30
0.0
 40
0.500000
  0
CIRCLE
  8
7
 10
34.239623
 20
9.520084
 30
0.0
 40
0.698500
  0
CIRCLE
  8
4
 10
34.239623
 20
6.980084
 30
0.0
 40
0.500000
  0
CIRCLE
  8
7
 10
34.239623
 20
6.980084
 30
0.0
 40
0.698500
  0
CIRCLE
  8
4
 10
34.239623
 20
4.440084
 30
0.0
 40
0.500000
  0
CIRCLE
  8
7
 10
34.239623
 20
4.440084
 30
0.0
 40
0.698500
  0
CIRCLE
  8
4
 10
36.779623
 20
14.600084
 30
0.0
 40
0.500000
  0
CIRCLE
  8
7
 10
36.779623
 20
14.600084
 30
0.0
 40
0.698500
  0
CIRCLE
  8
4
 10
36.779623
 20
12.060084
 30
0.0
 40
0.500000
  0
CIRCLE
  8
7
 10
36.779623
 20
12.060084
 30
0.0
 40
0.698500
  0
CIRCLE
  8
4
 10
36.779623
 20
9.520084
 30
0.0
 40
0.500000
  0
CIRCLE
  8
7
 10
36.779623
 20
9.520084
 30
0.0
 40
0.698500
  0
CIRCLE
  8
4
 10
36.779623
 20
6.980084
 30
0.0
 40
0.500000
  0
CIRCLE
  8
7
 10
36.779623
 20
6.980084
 30
0.0
 40
0.698500
  0
CIRCLE
  8
4
 10
36.779623
 20
4.440084
 30
0.0
 40
0.500000
  0
CIRCLE
  8
7
 10
36.779623
 20
4.440084
 30
0.0
 40
0.698500
  0
CIRCLE
  8
4
 10
39.319623
 20
14.600084
 30
0.0
 40
0.500000
  0
CIRCLE
  8
7
 10
39.319623
 20
14.600084
 30
0.0
 40
0.698500
  0
CIRCLE
  8
4
 10
39.319623
 20
12.060084
 30
0.0
 40
0.500000
  0
CIRCLE
  8
7
 10
39.319623
 20
12.060084
 30
0.0
 40
0.698500
  0
CIRCLE
  8
4
 10
39.319623
 20
9.520084
 30
0.0
 40
0.500000
  0
CIRCLE
  8
7
 10
39.319623
 20
9.520084
 30
0.0
 40
0.698500
  0
CIRCLE
  8
4
 10
39.319623
 20
6.980084
 30
0.0
 40
0.500000
  0
CIRCLE
  8
7
 10
39.319623
 20
6.980084
 30
0.0
 40
0.698500
  0
CIRCLE
  8
4
 10
39.319623
 20
4.440084
 30
0.0
 40
0.500000
  0
CIRCLE
  8
7
 10
39.319623
 20
4.440084
 30
0.0
 40
0.698500
  0
CIRCLE
  8
4
 10
41.859623
 20
14.600084
 30
0.0
 40
0.500000
  0
CIRCLE
  8
7
 10
41.859623
 20
14.600084
 30
0.0
 40
0.698500
  0
CIRCLE
  8
4
 10
41.859623
 20
12.060084
 30
0.0
 40
0.500000
  0
CIRCLE
  8
7
 10
41.859623
 20
12.060084
 30
0.0
 40
0.698500
  0
CIRCLE
  8
4
 10
41.859623
 20
9.520084
 30
0.0
 40
0.500000
  0
CIRCLE
  8
7
 10
41.859623
 20
9.520084
 30
0.0
 40
0.698500
  0
CIRCLE
  8
4
 10
41.859623
 20
6.980084
 30
0.0
 40
0.500000
  0
CIRCLE
  8
7
 10
41.859623
 20
6.980084
 30
0.0
 40
0.698500
  0
CIRCLE
  8
4
 10
41.859623
 20
4.440084
 30
0.0
 40
0.500000
  0
CIRCLE
  8
7
 10
41.859623
 20
4.440084
 30
0.0
 40
0.698500
  0
CIRCLE
  8
4
 10
34.183133
 20
18.527254
 30
0.0
 40
0.175000
  0
CIRCLE
  8
4
 10
27.283133
 20
19.927254
 30
0.0
 40
1.025000
  0
CIRCLE
  8
4
 10
43.783133
 20
19.927254
 30
0.0
 40
1.025000
  0
CIRCLE
  8
4
 10
29.608133
 20
18.527254
 30
0.0
 40
0.175000
  0
CIRCLE
  8
4
 10
30.583133
 20
18.527254
 30
0.0
 40
0.175000
  0
CIRCLE
  8
4
 10
31.483133
 20
18.527254
 30
0.0
 40
0.175000
  0
CIRCLE
  8
4
 10
32.383133
 20
18.527254
 30
0.0
 40
0.175000
  0
CIRCLE
  8
4
 10
33.283133
 20
18.527254
 30
0.0
 40
0.175000
  0
CIRCLE
  8
4
 10
35.083133
 20
18.527254
 30
0.0
 40
0.175000
  0
CIRCLE
  8
4
 10
35.983133
 20
18.527254
 30
0.0
 40
0.175000
  0
CIRCLE
  8
4
 10
36.883133
 20
18.527254
 30
0.0
 40
0.175000
  0
CIRCLE
  8
4
 10
37.783133
 20
18.527254
 30
0.0
 40
0.175000
  0
CIRCLE
  8
4
 10
38.683133
 20
18.527254
 30
0.0
 40
0.175000
  0
CIRCLE
  8
4
 10
39.583133
 20
18.527254
 30
0.0
 40
0.175000
  0
CIRCLE
  8
4
 10
40.483133
 20
18.527254
 30
0.0
 40
0.175000
  0
CIRCLE
  8
4
 10
41.458133
 20
18.527254
 30
0.0
 40
0.175000
  0
CIRCLE
  8
4
 10
29.233133
 20
21.327254
 30
0.0
 40
0.175000
  0
CIRCLE
  8
4
 10
30.133133
 20
21.327254
 30
0.0
 40
0.175000
  0
CIRCLE
  8
4
 10
31.033133
 20
21.327254
 30
0.0
 40
0.175000
  0
CIRCLE
  8
4
 10
31.933133
 20
21.327254
 30
0.0
 40
0.175000
  0
CIRCLE
  8
4
 10
32.833133
 20
21.327254
 30
0.0
 40
0.175000
  0
CIRCLE
  8
4
 10
33.733133
 20
21.327254
 30
0.0
 40
0.175000
  0
CIRCLE
  8
4
 10
34.633133
 20
21.327254
 30
0.0
 40
0.175000
  0
CIRCLE
  8
4
 10
35.533133
 20
21.327254
 30
0.0
 40
0.175000
  0
CIRCLE
  8
4
 10
36.433133
 20
21.327254
 30
0.0
 40
0.175000
  0
CIRCLE
  8
4
 10
37.333133
 20
21.327254
 30
0.0
 40
0.175000
  0
CIRCLE
  8
4
 10
38.233133
 20
21.327254
 30
0.0
 40
0.175000
  0
CIRCLE
  8
4
 10
39.133133
 20
21.327254
 30
0.0
 40
0.175000
  0
CIRCLE
  8
4
 10
40.033133
 20
21.327254
 30
0.0
 40
0.175000
  0
CIRCLE
  8
4
 10
40.933133
 20
21.327254
 30
0.0
 40
0.175000
  0
CIRCLE
  8
4
 10
41.833133
 20
21.327254
 30
0.0
 40
0.175000
  0
ARC
  8
5
 10
29.083133
 20
19.602254
 30
0.0
 40
0.075000
 50
90.0
 51
180.0
  0
LINE
  8
5
 10
29.083133
 20
19.677254
 30
0.0
 11
29.833133
 21
19.677254
 31
0.0
  0
ARC
  8
5
 10
29.833133
 20
19.602254
 30
0.0
 40
0.075000
 50
0.0
 51
90.0
  0
LINE
  8
5
 10
29.458133
 20
21.128824
 30
0.0
 11
29.458133
 21
20.252254
 31
0.0
  0
ARC
  8
5
 10
29.383133
 20
20.252254
 30
0.0
 40
0.075000
 50
270.0
 51
360.0
  0
LINE
  8
5
 10
29.383133
 20
20.177254
 30
0.0
 11
29.083133
 21
20.177254
 31
0.0
  0
ARC
  8
5
 10
29.083133
 20
20.252254
 30
0.0
 40
0.075000
 50
180.0
 51
270.0
  0
LINE
  8
5
 10
29.008133
 20
20.252254
 30
0.0
 11
29.008133
 21
21.128824
 31
0.0
  0
ARC
  8
5
 10
30.583133
 20
18.527254
 30
0.0
 40
0.300000
 50
138.590571
 51
199.471221
  0
LINE
  8
5
 10
30.358133
 20
18.725684
 30
0.0
 11
30.358133
 21
19.602254
 31
0.0
  0
ARC
  8
5
 10
30.433133
 20
19.602254
 30
0.0
 40
0.075000
 50
90.0
 51
180.0
  0
LINE
  8
5
 10
30.433133
 20
19.677254
 30
0.0
 11
30.733133
 21
19.677254
 31
0.0
  0
ARC
  8
5
 10
30.733133
 20
19.602254
 30
0.0
 40
0.075000
 50
0.0
 51
90.0
  0
LINE
  8
5
 10
30.808133
 20
19.602254
 30
0.0
 11
30.808133
 21
18.725684
 31
0.0
  0
LINE
  8
5
 10
30.358133
 20
21.128824
 30
0.0
 11
30.358133
 21
20.252254
 31
0.0
  0
ARC
  8
5
 10
30.283133
 20
20.252254
 30
0.0
 40
0.075000
 50
270.0
 51
360.0
  0
LINE
  8
5
 10
30.283133
 20
20.177254
 30
0.0
 11
29.983133
 21
20.177254
 31
0.0
  0
ARC
  8
5
 10
29.983133
 20
20.252254
 30
0.0
 40
0.075000
 50
180.0
 51
270.0
  0
LINE
  8
5
 10
29.908133
 20
20.252254
 30
0.0
 11
29.908133
 21
21.128824
 31
0.0
  0
ARC
  8
5
 10
31.483133
 20
18.527254
 30
0.0
 40
0.300000
 50
138.590571
 51
182.815580
  0
LINE
  8
5
 10
31.258133
 20
18.725684
 30
0.0
 11
31.258133
 21
19.602254
 31
0.0
  0
ARC
  8
5
 10
31.333133
 20
19.602254
 30
0.0
 40
0.075000
 50
90.0
 51
180.0
  0
LINE
  8
5
 10
31.333133
 20
19.677254
 30
0.0
 11
31.633133
 21
19.677254
 31
0.0
  0
ARC
  8
5
 10
31.633133
 20
19.602254
 30
0.0
 40
0.075000
 50
0.0
 51
90.0
  0
LINE
  8
5
 10
31.708133
 20
19.602254
 30
0.0
 11
31.708133
 21
18.725684
 31
0.0
  0
LINE
  8
5
 10
31.258133
 20
21.128824
 30
0.0
 11
31.258133
 21
20.252254
 31
0.0
  0
ARC
  8
5
 10
31.183133
 20
20.252254
 30
0.0
 40
0.075000
 50
270.0
 51
360.0
  0
LINE
  8
5
 10
31.183133
 20
20.177254
 30
0.0
 11
30.883133
 21
20.177254
 31
0.0
  0
ARC
  8
5
 10
30.883133
 20
20.252254
 30
0.0
 40
0.075000
 50
180.0
 51
270.0
  0
LINE
  8
5
 10
30.808133
 20
20.252254
 30
0.0
 11
30.808133
 21
21.128824
 31
0.0
  0
ARC
  8
5
 10
32.383133
 20
18.527254
 30
0.0
 40
0.300000
 50
138.590571
 51
199.471221
  0
LINE
  8
5
 10
32.158133
 20
18.725684
 30
0.0
 11
32.158133
 21
19.602254
 31
0.0
  0
ARC
  8
5
 10
32.233133
 20
19.602254
 30
0.0
 40
0.075000
 50
90.0
 51
180.0
  0
LINE
  8
5
 10
32.233133
 20
19.677254
 30
0.0
 11
32.533133
 21
19.677254
 31
0.0
  0
ARC
  8
5
 10
32.533133
 20
19.602254
 30
0.0
 40
0.075000
 50
0.0
 51
90.0
  0
LINE
  8
5
 10
32.608133
 20
19.602254
 30
0.0
 11
32.608133
 21
18.725684
 31
0.0
  0
LINE
  8
5
 10
32.158133
 20
21.128824
 30
0.0
 11
32.158133
 21
20.252254
 31
0.0
  0
ARC
  8
5
 10
32.083133
 20
20.252254
 30
0.0
 40
0.075000
 50
270.0
 51
360.0
  0
LINE
  8
5
 10
32.083133
 20
20.177254
 30
0.0
 11
31.783133
 21
20.177254
 31
0.0
  0
ARC
  8
5
 10
31.783133
 20
20.252254
 30
0.0
 40
0.075000
 50
180.0
 51
270.0
  0
LINE
  8
5
 10
31.708133
 20
20.252254
 30
0.0
 11
31.708133
 21
21.128824
 31
0.0
  0
ARC
  8
5
 10
33.283133
 20
18.527254
 30
0.0
 40
0.300000
 50
138.590571
 51
197.393406
  0
LINE
  8
5
 10
33.058133
 20
18.725684
 30
0.0
 11
33.058133
 21
19.602254
 31
0.0
  0
ARC
  8
5
 10
33.133133
 20
19.602254
 30
0.0
 40
0.075000
 50
90.0
 51
180.0
  0
LINE
  8
5
 10
33.133133
 20
19.677254
 30
0.0
 11
33.433133
 21
19.677254
 31
0.0
  0
ARC
  8
5
 10
33.433133
 20
19.602254
 30
0.0
 40
0.075000
 50
0.0
 51
90.0
  0
LINE
  8
5
 10
33.508133
 20
19.602254
 30
0.0
 11
33.508133
 21
18.725684
 31
0.0
  0
LINE
  8
5
 10
33.058133
 20
21.128824
 30
0.0
 11
33.058133
 21
20.252254
 31
0.0
  0
ARC
  8
5
 10
32.983133
 20
20.252254
 30
0.0
 40
0.075000
 50
270.0
 51
360.0
  0
LINE
  8
5
 10
32.983133
 20
20.177254
 30
0.0
 11
32.683133
 21
20.177254
 31
0.0
  0
ARC
  8
5
 10
32.683133
 20
20.252254
 30
0.0
 40
0.075000
 50
180.0
 51
270.0
  0
LINE
  8
5
 10
32.608133
 20
20.252254
 30
0.0
 11
32.608133
 21
21.128824
 31
0.0
  0
ARC
  8
5
 10
34.183133
 20
18.527254
 30
0.0
 40
0.300000
 50
138.590571
 51
199.471221
  0
LINE
  8
5
 10
33.958133
 20
18.725684
 30
0.0
 11
33.958133
 21
19.602254
 31
0.0
  0
ARC
  8
5
 10
34.033133
 20
19.602254
 30
0.0
 40
0.075000
 50
90.0
 51
180.0
  0
LINE
  8
5
 10
34.033133
 20
19.677254
 30
0.0
 11
34.333133
 21
19.677254
 31
0.0
  0
ARC
  8
5
 10
34.333133
 20
19.602254
 30
0.0
 40
0.075000
 50
0.0
 51
90.0
  0
LINE
  8
5
 10
34.408133
 20
19.602254
 30
0.0
 11
34.408133
 21
18.725684
 31
0.0
  0
LINE
  8
5
 10
33.958133
 20
21.128824
 30
0.0
 11
33.958133
 21
20.252254
 31
0.0
  0
ARC
  8
5
 10
33.883133
 20
20.252254
 30
0.0
 40
0.075000
 50
270.0
 51
360.0
  0
LINE
  8
5
 10
33.883133
 20
20.177254
 30
0.0
 11
33.583133
 21
20.177254
 31
0.0
  0
ARC
  8
5
 10
33.583133
 20
20.252254
 30
0.0
 40
0.075000
 50
180.0
 51
270.0
  0
LINE
  8
5
 10
33.508133
 20
20.252254
 30
0.0
 11
33.508133
 21
21.128824
 31
0.0
  0
ARC
  8
5
 10
35.083133
 20
18.527254
 30
0.0
 40
0.300000
 50
138.590571
 51
199.471221
  0
LINE
  8
5
 10
34.858133
 20
18.725684
 30
0.0
 11
34.858133
 21
19.602254
 31
0.0
  0
ARC
  8
5
 10
34.933133
 20
19.602254
 30
0.0
 40
0.075000
 50
90.0
 51
180.0
  0
LINE
  8
5
 10
34.933133
 20
19.677254
 30
0.0
 11
35.233133
 21
19.677254
 31
0.0
  0
ARC
  8
5
 10
35.233133
 20
19.602254
 30
0.0
 40
0.075000
 50
0.0
 51
90.0
  0
LINE
  8
5
 10
35.308133
 20
19.602254
 30
0.0
 11
35.308133
 21
18.725684
 31
0.0
  0
LINE
  8
5
 10
34.858133
 20
21.128824
 30
0.0
 11
34.858133
 21
20.252254
 31
0.0
  0
ARC
  8
5
 10
34.783133
 20
20.252254
 30
0.0
 40
0.075000
 50
270.0
 51
360.0
  0
LINE
  8
5
 10
34.783133
 20
20.177254
 30
0.0
 11
34.483133
 21
20.177254
 31
0.0
  0
ARC
  8
5
 10
34.483133
 20
20.252254
 30
0.0
 40
0.075000
 50
180.0
 51
270.0
  0
LINE
  8
5
 10
34.408133
 20
20.252254
 30
0.0
 11
34.408133
 21
21.128824
 31
0.0
  0
ARC
  8
5
 10
35.983133
 20
18.527254
 30
0.0
 40
0.300000
 50
138.590571
 51
197.395496
  0
LINE
  8
5
 10
35.758133
 20
18.725684
 30
0.0
 11
35.758133
 21
19.602254
 31
0.0
  0
ARC
  8
5
 10
35.833133
 20
19.602254
 30
0.0
 40
0.075000
 50
90.0
 51
180.0
  0
LINE
  8
5
 10
35.833133
 20
19.677254
 30
0.0
 11
36.133133
 21
19.677254
 31
0.0
  0
ARC
  8
5
 10
36.133133
 20
19.602254
 30
0.0
 40
0.075000
 50
0.0
 51
90.0
  0
LINE
  8
5
 10
36.208133
 20
19.602254
 30
0.0
 11
36.208133
 21
18.725684
 31
0.0
  0
LINE
  8
5
 10
35.758133
 20
21.128824
 30
0.0
 11
35.758133
 21
20.252254
 31
0.0
  0
ARC
  8
5
 10
35.683133
 20
20.252254
 30
0.0
 40
0.075000
 50
270.0
 51
360.0
  0
LINE
  8
5
 10
35.683133
 20
20.177254
 30
0.0
 11
35.383133
 21
20.177254
 31
0.0
  0
ARC
  8
5
 10
35.383133
 20
20.252254
 30
0.0
 40
0.075000
 50
180.0
 51
270.0
  0
LINE
  8
5
 10
35.308133
 20
20.252254
 30
0.0
 11
35.308133
 21
21.128824
 31
0.0
  0
ARC
  8
5
 10
36.883133
 20
18.527254
 30
0.0
 40
0.300000
 50
138.590571
 51
199.471221
  0
LINE
  8
5
 10
36.658133
 20
18.725684
 30
0.0
 11
36.658133
 21
19.602254
 31
0.0
  0
ARC
  8
5
 10
36.733133
 20
19.602254
 30
0.0
 40
0.075000
 50
90.0
 51
180.0
  0
LINE
  8
5
 10
36.733133
 20
19.677254
 30
0.0
 11
37.033133
 21
19.677254
 31
0.0
  0
ARC
  8
5
 10
37.033133
 20
19.602254
 30
0.0
 40
0.075000
 50
0.0
 51
90.0
  0
LINE
  8
5
 10
37.108133
 20
19.602254
 30
0.0
 11
37.108133
 21
18.725684
 31
0.0
  0
LINE
  8
5
 10
36.658133
 20
21.128824
 30
0.0
 11
36.658133
 21
20.252254
 31
0.0
  0
ARC
  8
5
 10
36.583133
 20
20.252254
 30
0.0
 40
0.075000
 50
270.0
 51
360.0
  0
LINE
  8
5
 10
36.583133
 20
20.177254
 30
0.0
 11
36.283133
 21
20.177254
 31
0.0
  0
ARC
  8
5
 10
36.283133
 20
20.252254
 30
0.0
 40
0.075000
 50
180.0
 51
270.0
  0
LINE
  8
5
 10
36.208133
 20
20.252254
 30
0.0
 11
36.208133
 21
21.128824
 31
0.0
  0
ARC
  8
5
 10
37.783133
 20
18.527254
 30
0.0
 40
0.300000
 50
138.590571
 51
199.471221
  0
LINE
  8
5
 10
37.558133
 20
18.725684
 30
0.0
 11
37.558133
 21
19.602254
 31
0.0
  0
ARC
  8
5
 10
37.633133
 20
19.602254
 30
0.0
 40
0.075000
 50
90.0
 51
180.0
  0
LINE
  8
5
 10
37.633133
 20
19.677254
 30
0.0
 11
37.933133
 21
19.677254
 31
0.0
  0
ARC
  8
5
 10
37.933133
 20
19.602254
 30
0.0
 40
0.075000
 50
0.0
 51
90.0
  0
LINE
  8
5
 10
38.008133
 20
19.602254
 30
0.0
 11
38.008133
 21
18.725684
 31
0.0
  0
LINE
  8
5
 10
37.558133
 20
21.128824
 30
0.0
 11
37.558133
 21
20.252254
 31
0.0
  0
ARC
  8
5
 10
37.483133
 20
20.252254
 30
0.0
 40
0.075000
 50
270.0
 51
360.0
  0
LINE
  8
5
 10
37.483133
 20
20.177254
 30
0.0
 11
37.183133
 21
20.177254
 31
0.0
  0
ARC
  8
5
 10
37.183133
 20
20.252254
 30
0.0
 40
0.075000
 50
180.0
 51
270.0
  0
LINE
  8
5
 10
37.108133
 20
20.252254
 30
0.0
 11
37.108133
 21
21.128824
 31
0.0
  0
ARC
  8
5
 10
38.683133
 20
18.527254
 30
0.0
 40
0.300000
 50
138.590571
 51
199.471221
  0
LINE
  8
5
 10
38.458133
 20
18.725684
 30
0.0
 11
38.458133
 21
19.602254
 31
0.0
  0
ARC
  8
5
 10
38.533133
 20
19.602254
 30
0.0
 40
0.075000
 50
90.0
 51
180.0
  0
LINE
  8
5
 10
38.533133
 20
19.677254
 30
0.0
 11
38.833133
 21
19.677254
 31
0.0
  0
ARC
  8
5
 10
38.833133
 20
19.602254
 30
0.0
 40
0.075000
 50
0.0
 51
90.0
  0
LINE
  8
5
 10
38.908133
 20
19.602254
 30
0.0
 11
38.908133
 21
18.725684
 31
0.0
  0
LINE
  8
5
 10
38.458133
 20
21.128824
 30
0.0
 11
38.458133
 21
20.252254
 31
0.0
  0
ARC
  8
5
 10
38.383133
 20
20.252254
 30
0.0
 40
0.075000
 50
270.0
 51
360.0
  0
LINE
  8
5
 10
38.383133
 20
20.177254
 30
0.0
 11
38.083133
 21
20.177254
 31
0.0
  0
ARC
  8
5
 10
38.083133
 20
20.252254
 30
0.0
 40
0.075000
 50
180.0
 51
270.0
  0
LINE
  8
5
 10
38.008133
 20
20.252254
 30
0.0
 11
38.008133
 21
21.128824
 31
0.0
  0
ARC
  8
5
 10
39.583133
 20
18.527254
 30
0.0
 40
0.300000
 50
138.590571
 51
199.471221
  0
LINE
  8
5
 10
39.358133
 20
18.725684
 30
0.0
 11
39.358133
 21
19.602254
 31
0.0
  0
ARC
  8
5
 10
39.433133
 20
19.602254
 30
0.0
 40
0.075000
 50
90.0
 51
180.0
  0
LINE
  8
5
 10
39.433133
 20
19.677254
 30
0.0
 11
39.733133
 21
19.677254
 31
0.0
  0
ARC
  8
5
 10
39.733133
 20
19.602254
 30
0.0
 40
0.075000
 50
0.0
 51
90.0
  0
LINE
  8
5
 10
39.808133
 20
19.602254
 30
0.0
 11
39.808133
 21
18.725684
 31
0.0
  0
LINE
  8
5
 10
39.358133
 20
21.128824
 30
0.0
 11
39.358133
 21
20.252254
 31
0.0
  0
ARC
  8
5
 10
39.283133
 20
20.252254
 30
0.0
 40
0.075000
 50
270.0
 51
360.0
  0
LINE
  8
5
 10
39.283133
 20
20.177254
 30
0.0
 11
38.983133
 21
20.177254
 31
0.0
  0
ARC
  8
5
 10
38.983133
 20
20.252254
 30
0.0
 40
0.075000
 50
180.0
 51
270.0
  0
LINE
  8
5
 10
38.908133
 20
20.252254
 30
0.0
 11
38.908133
 21
21.128824
 31
0.0
  0
ARC
  8
5
 10
40.483133
 20
18.527254
 30
0.0
 40
0.300000
 50
138.590571
 51
199.471221
  0
LINE
  8
5
 10
40.258133
 20
18.725684
 30
0.0
 11
40.258133
 21
19.602254
 31
0.0
  0
ARC
  8
5
 10
40.333133
 20
19.602254
 30
0.0
 40
0.075000
 50
90.0
 51
180.0
  0
LINE
  8
5
 10
40.333133
 20
19.677254
 30
0.0
 11
40.633133
 21
19.677254
 31
0.0
  0
ARC
  8
5
 10
40.633133
 20
19.602254
 30
0.0
 40
0.075000
 50
0.0
 51
90.0
  0
LINE
  8
5
 10
40.708133
 20
19.602254
 30
0.0
 11
40.708133
 21
18.725684
 31
0.0
  0
LINE
  8
5
 10
40.258133
 20
21.128824
 30
0.0
 11
40.258133
 21
20.252254
 31
0.0
  0
ARC
  8
5
 10
40.183133
 20
20.252254
 30
0.0
 40
0.075000
 50
270.0
 51
360.0
  0
LINE
  8
5
 10
40.183133
 20
20.177254
 30
0.0
 11
39.883133
 21
20.177254
 31
0.0
  0
ARC
  8
5
 10
39.883133
 20
20.252254
 30
0.0
 40
0.075000
 50
180.0
 51
270.0
  0
LINE
  8
5
 10
39.808133
 20
20.252254
 30
0.0
 11
39.808133
 21
21.128824
 31
0.0
  0
LINE
  8
5
 10
41.158133
 20
18.427254
 30
0.0
 11
41.158133
 21
19.602254
 31
0.0
  0
ARC
  8
5
 10
41.233133
 20
19.602254
 30
0.0
 40
0.075000
 50
90.0
 51
180.0
  0
LINE
  8
5
 10
41.233133
 20
19.677254
 30
0.0
 11
41.983133
 21
19.677254
 31
0.0
  0
ARC
  8
5
 10
41.983133
 20
19.602254
 30
0.0
 40
0.075000
 50
0.0
 51
90.0
  0
LINE
  8
5
 10
42.058133
 20
19.602254
 30
0.0
 11
42.058133
 21
18.427254
 31
0.0
  0
LINE
  8
5
 10
41.158133
 20
21.128824
 30
0.0
 11
41.158133
 21
20.252254
 31
0.0
  0
ARC
  8
5
 10
41.083133
 20
20.252254
 30
0.0
 40
0.075000
 50
270.0
 51
360.0
  0
LINE
  8
5
 10
41.083133
 20
20.177254
 30
0.0
 11
40.783133
 21
20.177254
 31
0.0
  0
ARC
  8
5
 10
40.783133
 20
20.252254
 30
0.0
 40
0.075000
 50
180.0
 51
270.0
  0
LINE
  8
5
 10
40.708133
 20
20.252254
 30
0.0
 11
40.708133
 21
21.128824
 31
0.0
  0
ARC
  8
5
 10
41.833133
 20
21.327254
 30
0.0
 40
0.300000
 50
318.590571
 51
379.471221
  0
LINE
  8
5
 10
42.058133
 20
21.128824
 30
0.0
 11
42.058133
 21
20.252254
 31
0.0
  0
ARC
  8
5
 10
41.983133
 20
20.252254
 30
0.0
 40
0.075000
 50
270.0
 51
360.0
  0
LINE
  8
5
 10
41.983133
 20
20.177254
 30
0.0
 11
41.683133
 21
20.177254
 31
0.0
  0
ARC
  8
5
 10
41.683133
 20
20.252254
 30
0.0
 40
0.075000
 50
180.0
 51
270.0
  0
LINE
  8
5
 10
41.608133
 20
20.252254
 30
0.0
 11
41.608133
 21
21.128824
 31
0.0
  0
ARC
  8
7
 10
28.608133
 20
18.502254
 30
0.0
 40
0.075000
 50
180.0
 51
270.0
  0
LINE
  8
7
 10
28.533133
 20
18.502254
 30
0.0
 11
28.533133
 21
18.657254
 31
0.0
  0
LINE
  8
7
 10
28.533133
 20
18.657254
 30
0.0
 11
27.283133
 21
18.657254
 31
0.0
  0
ARC
  8
7
 10
27.283133
 20
19.927254
 30
0.0
 40
1.270000
 50
90.0
 51
270.0
  0
LINE
  8
7
 10
27.283133
 20
21.197254
 30
0.0
 11
28.533133
 21
21.197254
 31
0.0
  0
LINE
  8
7
 10
28.533133
 20
21.197254
 30
0.0
 11
28.533133
 21
21.352254
 31
0.0
  0
ARC
  8
7
 10
28.608133
 20
21.352254
 30
0.0
 40
0.075000
 50
90.0
 51
180.0
  0
LINE
  8
7
 10
28.608133
 20
21.427254
 30
0.0
 11
29.004005
 21
21.427254
 31
0.0
  0
ARC
  8
7
 10
42.458133
 20
21.352254
 30
0.0
 40
0.075000
 50
0.0
 51
90.0
  0
LINE
  8
7
 10
42.533133
 20
21.352254
 30
0.0
 11
42.533133
 21
21.197254
 31
0.0
  0
LINE
  8
7
 10
42.533133
 20
21.197254
 30
0.0
 11
43.783133
 21
21.197254
 31
0.0
  0
ARC
  8
7
 10
43.783133
 20
19.927254
 30
0.0
 40
1.270000
 50
270.0
 51
450.0
  0
LINE
  8
7
 10
43.783133
 20
18.657254
 30
0.0
 11
42.533133
 21
18.657254
 31
0.0
  0
LINE
  8
7
 10
42.533133
 20
18.657254
 30
0.0
 11
42.533133
 21
18.502254
 31
0.0
  0
ARC
  8
7
 10
42.458133
 20
18.502254
 30
0.0
 40
0.075000
 50
270.0
 51
360.0
  0
LINE
  8
7
 10
42.458133
 20
18.427254
 30
0.0
 11
41.687262
 21
18.427254
 31
0.0
  0
ARC
  8
7
 10
29.608133
 20
18.527254
 30
0.0
 40
0.250000
 50
203.578178
 51
336.421822
  0
ARC
  8
7
 10
29.233133
 20
21.327254
 30
0.0
 40
0.250000
 50
23.578178
 51
156.421822
  0
CIRCLE
  8
4
 10
44.533133
 20
3.427254
 30
0.0
 40
0.100000
  0
CIRCLE
  8
7
 10
44.533133
 20
3.427254
 30
0.0
 40
0.175000
  0
CIRCLE
  8
4
 10
44.533133
 20
6.427254
 30
0.0
 40
0.100000
  0
CIRCLE
  8
7
 10
44.533133
 20
6.427254
 30
0.0
 40
0.175000
  0
CIRCLE
  8
4
 10
44.533133
 20
9.427254
 30
0.0
 40
0.100000
  0
CIRCLE
  8
7
 10
44.533133
 20
9.427254
 30
0.0
 40
0.175000
  0
CIRCLE
  8
4
 10
44.533133
 20
12.427254
 30
0.0
 40
0.100000
  0
CIRCLE
  8
7
 10
44.533133
 20
12.427254
 30
0.0
 40
0.175000
  0
CIRCLE
  8
4
 10
26.533133
 20
3.427254
 30
0.0
 40
0.100000
  0
CIRCLE
  8
7
 10
26.533133
 20
3.427254
 30
0.0
 40
0.175000
  0
CIRCLE
  8
4
 10
26.533133
 20
6.427254
 30
0.0
 40
0.100000
  0
CIRCLE
  8
7
 10
26.533133
 20
6.427254
 30
0.0
 40
0.175000
  0
CIRCLE
  8
4
 10
32.533133
 20
3.427254
 30
0.0
 40
0.100000
  0
CIRCLE
  8
7
 10
32.533133
 20
3.427254
 30
0.0
 40
0.175000
  0
CIRCLE
  8
4
 10
35.533133
 20
3.427254
 30
0.0
 40
0.100000
  0
CIRCLE
  8
7
 10
35.533133
 20
3.427254
 30
0.0
 40
0.175000
  0
CIRCLE
  8
4
 10
38.533133
 20
3.427254
 30
0.0
 40
0.100000
  0
CIRCLE
  8
7
 10
38.533133
 20
3.427254
 30
0.0
 40
0.175000
  0
CIRCLE
  8
4
 10
26.533133
 20
9.427254
 30
0.0
 40
0.100000
  0
CIRCLE
  8
7
 10
26.533133
 20
9.427254
 30
0.0
 40
0.175000
  0
CIRCLE
  8
4
 10
26.533133
 20
12.427254
 30
0.0
 40
0.100000
  0
CIRCLE
  8
7
 10
26.533133
 20
12.427254
 30
0.0
 40
0.175000
  0
CIRCLE
  8
4
 10
26.533133
 20
15.427254
 30
0.0
 40
0.100000
  0
CIRCLE
  8
7
 10
26.533133
 20
15.427254
 30
0.0
 40
0.175000
  0
CIRCLE
  8
4
 10
27.133133
 20
16.727254
 30
0.0
 40
0.100000
  0
CIRCLE
  8
7
 10
27.133133
 20
16.727254
 30
0.0
 40
0.175000
  0
CIRCLE
  8
4
 10
44.533133
 20
15.727254
 30
0.0
 40
0.100000
  0
CIRCLE
  8
7
 10
44.533133
 20
15.727254
 30
0.0
 40
0.175000
  0
CIRCLE
  8
4
 10
27.533133
 20
17.827254
 30
0.0
 40
0.100000
  0
CIRCLE
  8
7
 10
27.533133
 20
17.827254
 30
0.0
 40
0.175000
  0
CIRCLE
  8
4
 10
28.533133
 20
17.827254
 30
0.0
 40
0.100000
  0
CIRCLE
  8
7
 10
28.533133
 20
17.827254
 30
0.0
 40
0.175000
  0
CIRCLE
  8
4
 10
42.633133
 20
17.827254
 30
0.0
 40
0.100000
  0
CIRCLE
  8
7
 10
42.633133
 20
17.827254
 30
0.0
 40
0.175000
  0
CIRCLE
  8
4
 10
43.533133
 20
17.827254
 30
0.0
 40
0.100000
  0
CIRCLE
  8
7
 10
43.533133
 20
17.827254
 30
0.0
 40
0.175000
  0
CIRCLE
  8
4
 10
41.533133
 20
5.727254
 30
0.0
 40
0.100000
  0
CIRCLE
  8
7
 10
41.533133
 20
5.727254
 30
0.0
 40
0.175000
  0
CIRCLE
  8
4
 10
38.993133
 20
5.727254
 30
0.0
 40
0.100000
  0
CIRCLE
  8
7
 10
38.993133
 20
5.727254
 30
0.0
 40
0.175000
  0
CIRCLE
  8
4
 10
36.453133
 20
5.727254
 30
0.0
 40
0.100000
  0
CIRCLE
  8
7
 10
36.453133
 20
5.727254
 30
0.0
 40
0.175000
  0
CIRCLE
  8
4
 10
33.913133
 20
5.727254
 30
0.0
 40
0.100000
  0
CIRCLE
  8
7
 10
33.913133
 20
5.727254
 30
0.0
 40
0.175000
  0
CIRCLE
  8
4
 10
31.373133
 20
5.727254
 30
0.0
 40
0.100000
  0
CIRCLE
  8
7
 10
31.373133
 20
5.727254
 30
0.0
 40
0.175000
  0
CIRCLE
  8
4
 10
28.833133
 20
5.727254
 30
0.0
 40
0.100000
  0
CIRCLE
  8
7
 10
28.833133
 20
5.727254
 30
0.0
 40
0.175000
  0
CIRCLE
  8
4
 10
41.533133
 20
8.267254
 30
0.0
 40
0.100000
  0
CIRCLE
  8
7
 10
41.533133
 20
8.267254
 30
0.0
 40
0.175000
  0
CIRCLE
  8
4
 10
38.993133
 20
8.267254
 30
0.0
 40
0.100000
  0
CIRCLE
  8
7
 10
38.993133
 20
8.267254
 30
0.0
 40
0.175000
  0
CIRCLE
  8
4
 10
36.453133
 20
8.267254
 30
0.0
 40
0.100000
  0
CIRCLE
  8
7
 10
36.453133
 20
8.267254
 30
0.0
 40
0.175000
  0
CIRCLE
  8
4
 10
33.913133
 20
8.267254
 30
0.0
 40
0.100000
  0
CIRCLE
  8
7
 10
33.913133
 20
8.267254
 30
0.0
 40
0.175000
  0
CIRCLE
  8
4
 10
31.373133
 20
8.267254
 30
0.0
 40
0.100000
  0
CIRCLE
  8
7
 10
31.373133
 20
8.267254
 30
0.0
 40
0.175000
  0
CIRCLE
  8
4
 10
28.833133
 20
8.267254
 30
0.0
 40
0.100000
  0
CIRCLE
  8
7
 10
28.833133
 20
8.267254
 30
0.0
 40
0.175000
  0
CIRCLE
  8
4
 10
41.533133
 20
10.807254
 30
0.0
 40
0.100000
  0
CIRCLE
  8
7
 10
41.533133
 20
10.807254
 30
0.0
 40
0.175000
  0
CIRCLE
  8
4
 10
38.993133
 20
10.807254
 30
0.0
 40
0.100000
  0
CIRCLE
  8
7
 10
38.993133
 20
10.807254
 30
0.0
 40
0.175000
  0
CIRCLE
  8
4
 10
36.453133
 20
10.807254
 30
0.0
 40
0.100000
  0
CIRCLE
  8
7
 10
36.453133
 20
10.807254
 30
0.0
 40
0.175000
  0
CIRCLE
  8
4
 10
33.913133
 20
10.807254
 30
0.0
 40
0.100000
  0
CIRCLE
  8
7
 10
33.913133
 20
10.807254
 30
0.0
 40
0.175000
  0
CIRCLE
  8
4
 10
31.373133
 20
10.807254
 30
0.0
 40
0.100000
  0
CIRCLE
  8
7
 10
31.373133
 20
10.807254
 30
0.0
 40
0.175000
  0
CIRCLE
  8
4
 10
28.833133
 20
10.807254
 30
0.0
 40
0.100000
  0
CIRCLE
  8
7
 10
28.833133
 20
10.807254
 30
0.0
 40
0.175000
  0
CIRCLE
  8
4
 10
41.533133
 20
13.347254
 30
0.0
 40
0.100000
  0
CIRCLE
  8
7
 10
41.533133
 20
13.347254
 30
0.0
 40
0.175000
  0
CIRCLE
  8
4
 10
38.993133
 20
13.347254
 30
0.0
 40
0.100000
  0
CIRCLE
  8
7
 10
38.993133
 20
13.347254
 30
0.0
 40
0.175000
  0
CIRCLE
  8
4
 10
36.453133
 20
13.347254
 30
0.0
 40
0.100000
  0
CIRCLE
  8
7
 10
36.453133
 20
13.347254
 30
0.0
 40
0.175000
  0
CIRCLE
  8
4
 10
33.913133
 20
13.347254
 30
0.0
 40
0.100000
  0
CIRCLE
  8
7
 10
33.913133
 20
13.347254
 30
0.0
 40
0.175000
  0
CIRCLE
  8
4
 10
31.373133
 20
13.347254
 30
0.0
 40
0.100000
  0
CIRCLE
  8
7
 10
31.373133
 20
13.347254
 30
0.0
 40
0.175000
  0
CIRCLE
  8
4
 10
28.833133
 20
13.347254
 30
0.0
 40
0.100000
  0
CIRCLE
  8
7
 10
28.833133
 20
13.347254
 30
0.0
 40
0.175000
  0
CIRCLE
  8
4
 10
30.833133
 20
15.927254
 30
0.0
 40
0.100000
  0
CIRCLE
  8
7
 10
30.833133
 20
15.927254
 30
0.0
 40
0.175000
  0
CIRCLE
  8
4
 10
33.933133
 20
15.927254
 30
0.0
 40
0.100000
  0
CIRCLE
  8
7
 10
33.933133
 20
15.927254
 30
0.0
 40
0.175000
  0
CIRCLE
  8
4
 10
38.533133
 20
15.927254
 30
0.0
 40
0.100000
  0
CIRCLE
  8
7
 10
38.533133
 20
15.927254
 30
0.0
 40
0.175000
  0
CIRCLE
  8
4
 10
35.933133
 20
15.927254
 30
0.0
 40
0.100000
  0
CIRCLE
  8
7
 10
35.933133
 20
15.927254
 30
0.0
 40
0.175000
  0
LINE
  8
1
 10
44.533133
 20
22.427254
 30
0.0
 11
26.533133
 21
22.427254
 31
0.0
  0
ARC
  8
2
 10
44.533133
 20
3.427254
 30
0.0
 40
1.0
 50
281.536959
 51
360.0
  0
LINE
  8
2
 10
42.133133
 20
16.273552
 30
0.0
 11
42.133133
 21
16.250734
 31
0.0
  0
LINE
  8
2
 10
37.933133
 20
15.527254
 30
0.0
 11
33.033133
 21
15.527254
 31
0.0
  0
LINE
  8
2
 10
32.833133
 20
15.527254
 30
0.0
 11
28.233133
 21
15.527254
 31
0.0
  0
LINE
  8
2
 10
33.033133
 20
3.527254
 30
0.0
 11
37.933133
 21
3.527254
 31
0.0
  0
LINE
  8
2
 10
38.133133
 20
3.527254
 30
0.0
 11
42.833133
 21
3.527254
 31
0.0
  0
LINE
  8
2
 10
37.283133
 20
16.273552
 30
0.0
 11
37.283133
 21
16.250734
 31
0.0
  0
LINE
  8
2
 10
31.633133
 20
16.273552
 30
0.0
 11
31.633133
 21
16.250734
 31
0.0
  0
ARC
  8
5
 10
40.483133
 20
18.527254
 30
0.0
 40
0.300000
 50
339.382484
 51
401.409429
  0
ARC
  8
5
 10
39.583133
 20
18.527254
 30
0.0
 40
0.300000
 50
342.604504
 51
401.409429
  0
ARC
  8
5
 10
38.683133
 20
18.527254
 30
0.0
 40
0.300000
 50
340.528779
 51
401.409429
  0
ARC
  8
5
 10
37.783133
 20
18.527254
 30
0.0
 40
0.300000
 50
342.604504
 51
401.409429
  0
ARC
  8
5
 10
30.583133
 20
18.527254
 30
0.0
 40
0.300000
 50
340.528779
 51
401.409429
  0
ARC
  8
5
 10
31.483133
 20
18.527254
 30
0.0
 40
0.300000
 50
340.528779
 51
401.409429
  0
ARC
  8
5
 10
32.383133
 20
18.527254
 30
0.0
 40
0.300000
 50
342.604504
 51
401.409429
  0
ARC
  8
5
 10
33.283133
 20
18.527254
 30
0.0
 40
0.300000
 50
340.528779
 51
401.409429
  0
ARC
  8
5
 10
34.183133
 20
18.527254
 30
0.0
 40
0.300000
 50
357.606184
 51
401.409429
  0
ARC
  8
5
 10
35.083133
 20
18.527254
 30
0.0
 40
0.300000
 50
339.384272
 51
401.409429
  0
ARC
  8
5
 10
35.983133
 20
18.527254
 30
0.0
 40
0.300000
 50
340.528779
 51
401.409429
  0
ARC
  8
5
 10
36.883133
 20
18.527254
 30
0.0
 40
0.300000
 50
357.606184
 51
401.409429
  0
ARC
  8
7
 10
30.133133
 20
21.327254
 30
0.0
 40
0.250000
 50
23.578178
 51
156.421822
  0
ARC
  8
7
 10
31.033133
 20
21.327254
 30
0.0
 40
0.250000
 50
23.578178
 51
156.421822
  0
ARC
  8
7
 10
31.933133
 20
21.327254
 30
0.0
 40
0.250000
 50
23.578178
 51
156.421822
  0
ARC
  8
7
 10
32.833133
 20
21.327254
 30
0.0
 40
0.250000
 50
23.578178
 51
156.421822
  0
ARC
  8
7
 10
33.733133
 20
21.327254
 30
0.0
 40
0.250000
 50
23.578178
 51
156.421822
  0
ARC
  8
7
 10
34.633133
 20
21.327254
 30
0.0
 40
0.250000
 50
23.578178
 51
156.421822
  0
ARC
  8
7
 10
35.533133
 20
21.327254
 30
0.0
 40
0.250000
 50
23.578178
 51
156.421822
  0
ARC
  8
7
 10
36.433133
 20
21.327254
 30
0.0
 40
0.250000
 50
23.578178
 51
156.421822
  0
ARC
  8
7
 10
37.333133
 20
21.327254
 30
0.0
 40
0.250000
 50
23.578178
 51
156.421822
  0
ARC
  8
7
 10
38.233133
 20
21.327254
 30
0.0
 40
0.250000
 50
23.578178
 51
156.421822
  0
ARC
  8
7
 10
39.133133
 20
21.327254
 30
0.0
 40
0.250000
 50
23.578178
 51
156.421822
  0
ARC
  8
7
 10
40.033133
 20
21.327254
 30
0.0
 40
0.250000
 50
23.578178
 51
156.421822
  0
ARC
  8
7
 10
40.933133
 20
21.327254
 30
0.0
 40
0.250000
 50
23.578178
 51
156.421822
  0
ARC
  8
7
 10
41.833133
 20
21.327254
 30
0.0
 40
0.250000
 50
23.578178
 51
156.421822
  0
ARC
  8
7
 10
30.583133
 20
18.527254
 30
0.0
 40
0.250000
 50
203.578178
 51
336.421822
  0
ARC
  8
7
 10
31.483133
 20
18.527254
 30
0.0
 40
0.250000
 50
203.578178
 51
336.421822
  0
ARC
  8
7
 10
32.383133
 20
18.527254
 30
0.0
 40
0.250000
 50
203.578178
 51
336.421822
  0
ARC
  8
7
 10
33.283133
 20
18.527254
 30
0.0
 40
0.250000
 50
203.578178
 51
336.421822
  0
ARC
  8
7
 10
34.183133
 20
18.527254
 30
0.0
 40
0.250000
 50
203.578178
 51
336.421822
  0
ARC
  8
7
 10
35.083133
 20
18.527254
 30
0.0
 40
0.250000
 50
203.578178
 51
336.421822
  0
ARC
  8
7
 10
35.983133
 20
18.527254
 30
0.0
 40
0.250000
 50
203.578178
 51
336.421822
  0
ARC
  8
7
 10
36.883133
 20
18.527254
 30
0.0
 40
0.250000
 50
203.578178
 51
336.421822
  0
ARC
  8
7
 10
37.783133
 20
18.527254
 30
0.0
 40
0.250000
 50
203.578178
 51
336.421822
  0
ARC
  8
7
 10
38.683133
 20
18.527254
 30
0.0
 40
0.250000
 50
203.578178
 51
336.421822
  0
ARC
  8
7
 10
39.583133
 20
18.527254
 30
0.0
 40
0.250000
 50
203.578178
 51
336.421822
  0
ARC
  8
7
 10
40.483133
 20
18.527254
 30
0.0
 40
0.250000
 50
203.578178
 51
336.421822
  0
ARC
  8
7
 10
41.458133
 20
18.527254
 30
0.0
 40
0.250000
 50
203.578178
 51
336.421822
  0
LINE
  8
7
 10
30.362262
 20
21.427254
 30
0.0
 11
30.804005
 21
21.427254
 31
0.0
  0
LINE
  8
7
 10
29.462262
 20
21.427254
 30
0.0
 11
29.904005
 21
21.427254
 31
0.0
  0
LINE
  8
7
 10
41.229005
 20
18.427254
 30
0.0
 11
40.712262
 21
18.427254
 31
0.0
  0
LINE
  8
7
 10
29.379005
 20
18.427254
 30
0.0
 11
28.608133
 21
18.427254
 31
0.0
  0
LINE
  8
7
 10
30.354005
 20
18.427254
 30
0.0
 11
29.837262
 21
18.427254
 31
0.0
  0
LINE
  8
7
 10
31.254005
 20
18.427254
 30
0.0
 11
30.812262
 21
18.427254
 31
0.0
  0
LINE
  8
7
 10
31.262262
 20
21.427254
 30
0.0
 11
31.704005
 21
21.427254
 31
0.0
  0
LINE
  8
7
 10
32.162262
 20
21.427254
 30
0.0
 11
32.604005
 21
21.427254
 31
0.0
  0
LINE
  8
7
 10
33.062262
 20
21.427254
 30
0.0
 11
33.504005
 21
21.427254
 31
0.0
  0
LINE
  8
7
 10
33.962262
 20
21.427254
 30
0.0
 11
34.404005
 21
21.427254
 31
0.0
  0
LINE
  8
7
 10
34.862262
 20
21.427254
 30
0.0
 11
35.304005
 21
21.427254
 31
0.0
  0
LINE
  8
7
 10
35.762262
 20
21.427254
 30
0.0
 11
36.204005
 21
21.427254
 31
0.0
  0
LINE
  8
7
 10
36.662262
 20
21.427254
 30
0.0
 11
37.104005
 21
21.427254
 31
0.0
  0
LINE
  8
7
 10
37.562262
 20
21.427254
 30
0.0
 11
38.004005
 21
21.427254
 31
0.0
  0
LINE
  8
7
 10
38.462262
 20
21.427254
 30
0.0
 11
38.904005
 21
21.427254
 31
0.0
  0
LINE
  8
7
 10
39.812262
 20
18.427254
 30
0.0
 11
40.254005
 21
18.427254
 31
0.0
  0
LINE
  8
7
 10
39.362262
 20
21.427254
 30
0.0
 11
39.804005
 21
21.427254
 31
0.0
  0
LINE
  8
7
 10
38.912262
 20
18.427254
 30
0.0
 11
39.354005
 21
18.427254
 31
0.0
  0
LINE
  8
7
 10
38.012262
 20
18.427254
 30
0.0
 11
38.454005
 21
18.427254
 31
0.0
  0
LINE
  8
7
 10
37.112262
 20
18.427254
 30
0.0
 11
37.554005
 21
18.427254
 31
0.0
  0
LINE
  8
7
 10
36.212262
 20
18.427254
 30
0.0
 11
36.654005
 21
18.427254
 31
0.0
  0
LINE
  8
7
 10
35.312262
 20
18.427254
 30
0.0
 11
35.754005
 21
18.427254
 31
0.0
  0
LINE
  8
7
 10
34.412262
 20
18.427254
 30
0.0
 11
34.854005
 21
18.427254
 31
0.0
  0
LINE
  8
7
 10
33.512262
 20
18.427254
 30
0.0
 11
33.954005
 21
18.427254
 31
0.0
  0
LINE
  8
7
 10
32.612262
 20
18.427254
 30
0.0
 11
33.054005
 21
18.427254
 31
0.0
  0
LINE
  8
7
 10
31.712262
 20
18.427254
 30
0.0
 11
32.154005
 21
18.427254
 31
0.0
  0
LINE
  8
7
 10
40.262262
 20
21.427254
 30
0.0
 11
40.704005
 21
21.427254
 31
0.0
  0
LINE
  8
7
 10
41.162262
 20
21.427254
 30
0.0
 11
41.604005
 21
21.427254
 31
0.0
  0
LINE
  8
7
 10
42.458133
 20
21.427254
 30
0.0
 11
42.062262
 21
21.427254
 31
0.0
  0
LINE
  8
5
 10
31.187057
 20
18.427254
 30
0.0
 11
31.183403
 21
18.514724
 31
0.0
  0
LINE
  8
5
 10
34.482863
 20
18.514724
 30
0.0
 11
34.479207
 21
18.427254
 31
0.0
  0
LINE
  8
5
 10
37.182863
 20
18.514724
 30
0.0
 11
37.179207
 21
18.427254
 31
0.0
  0
ARC
  8
5
 10
41.833133
 20
21.327254
 30
0.0
 40
0.300000
 50
160.528779
 51
221.409429
  0
ARC
  8
5
 10
40.933133
 20
21.327254
 30
0.0
 40
0.300000
 50
318.590571
 51
379.471221
  0
ARC
  8
5
 10
40.933133
 20
21.327254
 30
0.0
 40
0.300000
 50
160.528779
 51
221.409429
  0
ARC
  8
5
 10
40.033133
 20
21.327254
 30
0.0
 40
0.300000
 50
318.590571
 51
379.471221
  0
ARC
  8
5
 10
40.033133
 20
21.327254
 30
0.0
 40
0.300000
 50
160.528779
 51
221.409429
  0
ARC
  8
5
 10
39.133133
 20
21.327254
 30
0.0
 40
0.300000
 50
318.590571
 51
379.471221
  0
ARC
  8
5
 10
39.133133
 20
21.327254
 30
0.0
 40
0.300000
 50
160.528779
 51
221.409429
  0
ARC
  8
5
 10
38.233133
 20
21.327254
 30
0.0
 40
0.300000
 50
318.590571
 51
379.471221
  0
ARC
  8
5
 10
38.233133
 20
21.327254
 30
0.0
 40
0.300000
 50
160.528779
 51
221.409429
  0
ARC
  8
5
 10
37.333133
 20
21.327254
 30
0.0
 40
0.300000
 50
318.590571
 51
379.471221
  0
ARC
  8
5
 10
37.333133
 20
21.327254
 30
0.0
 40
0.300000
 50
160.528779
 51
221.409429
  0
ARC
  8
5
 10
36.433133
 20
21.327254
 30
0.0
 40
0.300000
 50
318.590571
 51
379.471221
  0
ARC
  8
5
 10
36.433133
 20
21.327254
 30
0.0
 40
0.300000
 50
160.528779
 51
221.409429
  0
ARC
  8
5
 10
35.533133
 20
21.327254
 30
0.0
 40
0.300000
 50
318.590571
 51
379.471221
  0
ARC
  8
5
 10
35.533133
 20
21.327254
 30
0.0
 40
0.300000
 50
160.528779
 51
221.409429
  0
ARC
  8
5
 10
34.633133
 20
21.327254
 30
0.0
 40
0.300000
 50
318.590571
 51
379.471221
  0
ARC
  8
5
 10
34.633133
 20
21.327254
 30
0.0
 40
0.300000
 50
160.528779
 51
221.409429
  0
ARC
  8
5
 10
33.733133
 20
21.327254
 30
0.0
 40
0.300000
 50
318.590571
 51
379.471221
  0
ARC
  8
5
 10
33.733133
 20
21.327254
 30
0.0
 40
0.300000
 50
160.528779
 51
221.409429
  0
ARC
  8
5
 10
32.833133
 20
21.327254
 30
0.0
 40
0.300000
 50
318.590571
 51
379.471221
  0
ARC
  8
5
 10
32.833133
 20
21.327254
 30
0.0
 40
0.300000
 50
160.528779
 51
221.409429
  0
ARC
  8
5
 10
31.933133
 20
21.327254
 30
0.0
 40
0.300000
 50
318.590571
 51
379.471221
  0
ARC
  8
5
 10
31.933133
 20
21.327254
 30
0.0
 40
0.300000
 50
160.528779
 51
221.409429
  0
ARC
  8
5
 10
31.033133
 20
21.327254
 30
0.0
 40
0.300000
 50
318.590571
 51
379.471221
  0
ARC
  8
5
 10
31.033133
 20
21.327254
 30
0.0
 40
0.300000
 50
160.528779
 51
221.409429
  0
ARC
  8
5
 10
30.133133
 20
21.327254
 30
0.0
 40
0.300000
 50
318.590571
 51
379.471221
  0
ARC
  8
5
 10
30.133133
 20
21.327254
 30
0.0
 40
0.300000
 50
160.528779
 51
221.409429
  0
ARC
  8
5
 10
29.233133
 20
21.327254
 30
0.0
 40
0.300000
 50
318.590571
 51
379.471221
  0
ARC
  8
5
 10
29.233133
 20
21.327254
 30
0.0
 40
0.300000
 50
160.528779
 51
221.409429
  0
LINE
  8
200
  6
CONTINUOUS
 10
27.808133
 20
21.427254
 30
0.0
 11
11.262295
 21
21.427254
 31
0.0
  0
LINE
  8
200
  6
CONTINUOUS
 10
27.808133
 20
18.427254
 30
0.0
 11
11.262295
 21
18.427254
 31
0.0
  0
LINE
  8
200
  6
CONTINUOUS
 10
12.062295
 20
19.927254
 30
0.0
 11
12.062295
 21
21.427254
 31
0.0
  0
LINE
  8
200
  6
CONTINUOUS
 10
12.062295
 20
21.427254
 30
0.0
 11
12.062295
 21
25.143254
 31
0.0
  0
LINE
  8
200
  6
CONTINUOUS
 10
11.847935
 20
22.227254
 30
0.0
 11
12.062295
 21
21.427254
 31
0.0
  0
LINE
  8
200
  6
CONTINUOUS
 10
12.062295
 20
21.427254
 30
0.0
 11
12.276654
 21
22.227254
 31
0.0
  0
LINE
  8
200
  6
CONTINUOUS
 10
12.062295
 20
19.927254
 30
0.0
 11
12.062295
 21
18.427254
 31
0.0
  0
LINE
  8
200
  6
CONTINUOUS
 10
12.062295
 20
18.427254
 30
0.0
 11
12.062295
 21
16.327254
 31
0.0
  0
LINE
  8
200
  6
CONTINUOUS
 10
12.276654
 20
17.627254
 30
0.0
 11
12.062295
 21
18.427254
 31
0.0
  0
LINE
  8
200
  6
CONTINUOUS
 10
12.062295
 20
18.427254
 30
0.0
 11
11.847935
 21
17.627254
 31
0.0
  0
TEXT
  8
200
  6
CONTINUOUS
 10
12.062295
 20
23.927254
 30
0.0
 40
1.520000
  7
CSTEXT
  1
ÇR
 50
90.0
 41
0.800000
 72
     5
 11
12.062295
 21
25.143254
 31
0.0
  0
LINE
  8
200
 10
25.222305
 20
17.927254
 30
0.0
 11
45.856365
 21
17.927254
 31
0.0
  0
LINE
  8
200
 10
25.196078
 20
19.927254
 30
0.0
 11
45.943862
 21
19.927254
 31
0.0
  0
LINE
  8
200
 10
43.783133
 20
18.235192
 30
0.0
 11
43.783133
 21
21.462868
 31
0.0
  0
LINE
  8
200
 10
27.283133
 20
18.235192
 30
0.0
 11
27.283133
 21
21.462868
 31
0.0
  0
LINE
  8
200
 10
28.233133
 20
4.440084
 30
0.0
 11
42.685678
 21
4.440084
 31
0.0
  0
LINE
  8
200
 10
29.159623
 20
3.617960
 30
0.0
 11
29.159623
 21
15.354859
 31
0.0
  0
LINE
  8
200
 10
28.233133
 20
6.980084
 30
0.0
 11
42.685678
 21
6.980084
 31
0.0
  0
LINE
  8
200
 10
28.233133
 20
12.060084
 30
0.0
 11
42.685678
 21
12.060084
 31
0.0
  0
LINE
  8
200
 10
28.233133
 20
9.520084
 30
0.0
 11
42.685678
 21
9.520084
 31
0.0
  0
LINE
  8
200
 10
28.233133
 20
14.600084
 30
0.0
 11
42.685678
 21
14.600084
 31
0.0
  0
LINE
  8
200
 10
31.699623
 20
3.617960
 30
0.0
 11
31.699623
 21
15.354859
 31
0.0
  0
LINE
  8
200
 10
34.239623
 20
3.617960
 30
0.0
 11
34.239623
 21
15.354859
 31
0.0
  0
LINE
  8
200
 10
36.779623
 20
3.617960
 30
0.0
 11
36.779623
 21
15.354859
 31
0.0
  0
LINE
  8
200
 10
39.319623
 20
3.617960
 30
0.0
 11
39.319623
 21
15.354859
 31
0.0
  0
LINE
  8
200
 10
41.859623
 20
3.617960
 30
0.0
 11
41.859623
 21
15.354859
 31
0.0
  0
LINE
  8
200
 10
29.233133
 20
21.719760
 30
0.0
 11
29.233133
 21
20.996228
 31
0.0
  0
LINE
  8
200
 10
28.862969
 20
21.327254
 30
0.0
 11
29.597868
 21
21.327254
 31
0.0
  0
LINE
  8
200
 10
30.133133
 20
21.719760
 30
0.0
 11
30.133133
 21
20.996228
 31
0.0
  0
LINE
  8
200
 10
29.762969
 20
21.327254
 30
0.0
 11
30.497868
 21
21.327254
 31
0.0
  0
LINE
  8
200
 10
31.033133
 20
21.719760
 30
0.0
 11
31.033133
 21
20.996228
 31
0.0
  0
LINE
  8
200
 10
30.662969
 20
21.327254
 30
0.0
 11
31.397868
 21
21.327254
 31
0.0
  0
LINE
  8
200
 10
31.933133
 20
21.719760
 30
0.0
 11
31.933133
 21
20.996228
 31
0.0
  0
LINE
  8
200
 10
31.562969
 20
21.327254
 30
0.0
 11
32.297868
 21
21.327254
 31
0.0
  0
LINE
  8
200
 10
32.833133
 20
21.719760
 30
0.0
 11
32.833133
 21
20.996228
 31
0.0
  0
LINE
  8
200
 10
32.462969
 20
21.327254
 30
0.0
 11
33.197868
 21
21.327254
 31
0.0
  0
LINE
  8
200
 10
33.733133
 20
21.719760
 30
0.0
 11
33.733133
 21
20.996228
 31
0.0
  0
LINE
  8
200
 10
33.362969
 20
21.327254
 30
0.0
 11
34.097868
 21
21.327254
 31
0.0
  0
LINE
  8
200
 10
34.633133
 20
21.719760
 30
0.0
 11
34.633133
 21
20.996228
 31
0.0
  0
LINE
  8
200
 10
34.262969
 20
21.327254
 30
0.0
 11
34.997868
 21
21.327254
 31
0.0
  0
LINE
  8
200
 10
35.533133
 20
21.719760
 30
0.0
 11
35.533133
 21
20.996228
 31
0.0
  0
LINE
  8
200
 10
35.162969
 20
21.327254
 30
0.0
 11
35.897868
 21
21.327254
 31
0.0
  0
LINE
  8
200
 10
36.433133
 20
21.719760
 30
0.0
 11
36.433133
 21
20.996228
 31
0.0
  0
LINE
  8
200
 10
36.062969
 20
21.327254
 30
0.0
 11
36.797868
 21
21.327254
 31
0.0
  0
LINE
  8
200
 10
37.333133
 20
21.719760
 30
0.0
 11
37.333133
 21
20.996228
 31
0.0
  0
LINE
  8
200
 10
36.962969
 20
21.327254
 30
0.0
 11
37.697868
 21
21.327254
 31
0.0
  0
LINE
  8
200
 10
38.233133
 20
21.719760
 30
0.0
 11
38.233133
 21
20.996228
 31
0.0
  0
LINE
  8
200
 10
37.862969
 20
21.327254
 30
0.0
 11
38.597868
 21
21.327254
 31
0.0
  0
LINE
  8
200
 10
39.133133
 20
21.719760
 30
0.0
 11
39.133133
 21
20.996228
 31
0.0
  0
LINE
  8
200
 10
38.762969
 20
21.327254
 30
0.0
 11
39.497868
 21
21.327254
 31
0.0
  0
LINE
  8
200
 10
40.033133
 20
21.719760
 30
0.0
 11
40.033133
 21
20.996228
 31
0.0
  0
LINE
  8
200
 10
39.662969
 20
21.327254
 30
0.0
 11
40.397868
 21
21.327254
 31
0.0
  0
LINE
  8
200
 10
40.933133
 20
21.719760
 30
0.0
 11
40.933133
 21
20.996228
 31
0.0
  0
LINE
  8
200
 10
40.562969
 20
21.327254
 30
0.0
 11
41.297868
 21
21.327254
 31
0.0
  0
LINE
  8
200
 10
41.833133
 20
21.719760
 30
0.0
 11
41.833133
 21
20.996228
 31
0.0
  0
LINE
  8
200
 10
41.462969
 20
21.327254
 30
0.0
 11
42.197868
 21
21.327254
 31
0.0
  0
LINE
  8
200
 10
30.583133
 20
18.134748
 30
0.0
 11
30.583133
 21
18.865722
 31
0.0
  0
LINE
  8
200
 10
30.212969
 20
18.527254
 30
0.0
 11
30.947868
 21
18.527254
 31
0.0
  0
LINE
  8
200
 10
29.608133
 20
18.134748
 30
0.0
 11
29.608133
 21
18.853230
 31
0.0
  0
LINE
  8
200
 10
29.237969
 20
18.527254
 30
0.0
 11
29.972868
 21
18.527254
 31
0.0
  0
LINE
  8
200
 10
31.483133
 20
18.134748
 30
0.0
 11
31.483133
 21
18.865722
 31
0.0
  0
LINE
  8
200
 10
31.112969
 20
18.527254
 30
0.0
 11
31.847868
 21
18.527254
 31
0.0
  0
LINE
  8
200
 10
32.383133
 20
18.134748
 30
0.0
 11
32.383133
 21
18.865722
 31
0.0
  0
LINE
  8
200
 10
32.012969
 20
18.527254
 30
0.0
 11
32.747868
 21
18.527254
 31
0.0
  0
LINE
  8
200
 10
33.283133
 20
18.134748
 30
0.0
 11
33.283133
 21
18.865722
 31
0.0
  0
LINE
  8
200
 10
32.912969
 20
18.527254
 30
0.0
 11
33.647868
 21
18.527254
 31
0.0
  0
LINE
  8
200
 10
34.183133
 20
18.134748
 30
0.0
 11
34.183133
 21
18.865722
 31
0.0
  0
LINE
  8
200
 10
33.812969
 20
18.527254
 30
0.0
 11
34.547868
 21
18.527254
 31
0.0
  0
LINE
  8
200
 10
35.083133
 20
18.134748
 30
0.0
 11
35.083133
 21
18.865722
 31
0.0
  0
LINE
  8
200
 10
34.712969
 20
18.527254
 30
0.0
 11
35.447868
 21
18.527254
 31
0.0
  0
LINE
  8
200
 10
35.983133
 20
18.134748
 30
0.0
 11
35.983133
 21
18.865722
 31
0.0
  0
LINE
  8
200
 10
35.612969
 20
18.527254
 30
0.0
 11
36.347868
 21
18.527254
 31
0.0
  0
LINE
  8
200
 10
36.883133
 20
18.134748
 30
0.0
 11
36.883133
 21
18.865722
 31
0.0
  0
LINE
  8
200
 10
36.512969
 20
18.527254
 30
0.0
 11
37.247868
 21
18.527254
 31
0.0
  0
LINE
  8
200
 10
37.783133
 20
18.134748
 30
0.0
 11
37.783133
 21
18.865722
 31
0.0
  0
LINE
  8
200
 10
37.412969
 20
18.527254
 30
0.0
 11
38.147868
 21
18.527254
 31
0.0
  0
LINE
  8
200
 10
38.683133
 20
18.134748
 30
0.0
 11
38.683133
 21
18.865722
 31
0.0
  0
LINE
  8
200
 10
38.312969
 20
18.527254
 30
0.0
 11
39.047868
 21
18.527254
 31
0.0
  0
LINE
  8
200
 10
39.583133
 20
18.134748
 30
0.0
 11
39.583133
 21
18.865722
 31
0.0
  0
LINE
  8
200
 10
39.212969
 20
18.527254
 30
0.0
 11
39.947868
 21
18.527254
 31
0.0
  0
LINE
  8
200
 10
40.483133
 20
18.134748
 30
0.0
 11
40.483133
 21
18.865722
 31
0.0
  0
LINE
  8
200
 10
40.112969
 20
18.527254
 30
0.0
 11
40.847868
 21
18.527254
 31
0.0
  0
LINE
  8
200
 10
41.458133
 20
18.134748
 30
0.0
 11
41.458133
 21
18.865722
 31
0.0
  0
LINE
  8
200
 10
41.087969
 20
18.527254
 30
0.0
 11
41.822868
 21
18.527254
 31
0.0
  0
LINE
  8
200
  6
CONTINUOUS
 10
28.533133
 20
22.152254
 30
0.0
 11
28.533133
 21
35.880595
 31
0.0
  0
LINE
  8
200
  6
CONTINUOUS
 10
42.533133
 20
22.152254
 30
0.0
 11
42.533133
 21
35.880595
 31
0.0
  0
LINE
  8
200
  6
CONTINUOUS
 10
35.533133
 20
35.080595
 30
0.0
 11
28.533133
 21
35.080595
 31
0.0
  0
LINE
  8
200
  6
CONTINUOUS
 10
29.333133
 20
34.866236
 30
0.0
 11
28.533133
 21
35.080595
 31
0.0
  0
LINE
  8
200
  6
CONTINUOUS
 10
28.533133
 20
35.080595
 30
0.0
 11
29.333133
 21
35.294954
 31
0.0
  0
LINE
  8
200
  6
CONTINUOUS
 10
35.533133
 20
35.080595
 30
0.0
 11
42.533133
 21
35.080595
 31
0.0
  0
LINE
  8
200
  6
CONTINUOUS
 10
41.733133
 20
35.294954
 30
0.0
 11
42.533133
 21
35.080595
 31
0.0
  0
LINE
  8
200
  6
CONTINUOUS
 10
42.533133
 20
35.080595
 30
0.0
 11
41.733133
 21
34.866236
 31
0.0
  0
TEXT
  8
200
  6
CONTINUOUS
 10
34.317133
 20
35.080595
 30
0.0
 40
1.520000
  7
CSTEXT
  1
ÇPÇS
 41
0.800000
 72
     5
 11
36.749133
 21
35.080595
 31
0.0
  0
LINE
  8
200
  6
CONTINUOUS
 10
45.533133
 20
22.227254
 30
0.0
 11
45.533133
 21
37.972959
 31
0.0
  0
LINE
  8
200
  6
CONTINUOUS
 10
25.533133
 20
22.227254
 30
0.0
 11
25.533133
 21
37.972959
 31
0.0
  0
LINE
  8
200
  6
CONTINUOUS
 10
35.533133
 20
37.172959
 30
0.0
 11
45.533133
 21
37.172959
 31
0.0
  0
LINE
  8
200
  6
CONTINUOUS
 10
44.733133
 20
37.387319
 30
0.0
 11
45.533133
 21
37.172959
 31
0.0
  0
LINE
  8
200
  6
CONTINUOUS
 10
45.533133
 20
37.172959
 30
0.0
 11
44.733133
 21
36.958600
 31
0.0
  0
LINE
  8
200
  6
CONTINUOUS
 10
35.533133
 20
37.172959
 30
0.0
 11
25.533133
 21
37.172959
 31
0.0
  0
LINE
  8
200
  6
CONTINUOUS
 10
26.333133
 20
36.958600
 30
0.0
 11
25.533133
 21
37.172959
 31
0.0
  0
LINE
  8
200
  6
CONTINUOUS
 10
25.533133
 20
37.172959
 30
0.0
 11
26.333133
 21
37.387319
 31
0.0
  0
TEXT
  8
200
  6
CONTINUOUS
 10
34.317133
 20
37.172959
 30
0.0
 40
1.520000
  7
CSTEXT
  1
ÇQÇO
 41
0.800000
 72
     5
 11
36.749133
 21
37.172959
 31
0.0
  0
LINE
  8
200
  6
CONTINUOUS
 10
29.008133
 20
21.928824
 30
0.0
 11
29.008133
 21
32.028743
 31
0.0
  0
LINE
  8
200
  6
CONTINUOUS
 10
27.283133
 20
22.262868
 30
0.0
 11
27.283133
 21
32.028743
 31
0.0
  0
LINE
  8
200
  6
CONTINUOUS
 10
28.145633
 20
31.228743
 30
0.0
 11
29.008133
 21
31.228743
 31
0.0
  0
LINE
  8
200
  6
CONTINUOUS
 10
29.008133
 20
31.228743
 30
0.0
 11
31.108133
 21
31.228743
 31
0.0
  0
LINE
  8
200
  6
CONTINUOUS
 10
29.808133
 20
31.443102
 30
0.0
 11
29.008133
 21
31.228743
 31
0.0
  0
LINE
  8
200
  6
CONTINUOUS
 10
29.008133
 20
31.228743
 30
0.0
 11
29.808133
 21
31.014383
 31
0.0
  0
LINE
  8
200
  6
CONTINUOUS
 10
28.145633
 20
31.228743
 30
0.0
 11
27.283133
 21
31.228743
 31
0.0
  0
LINE
  8
200
  6
CONTINUOUS
 10
27.283133
 20
31.228743
 30
0.0
 11
18.703133
 21
31.228743
 31
0.0
  0
LINE
  8
200
  6
CONTINUOUS
 10
26.483133
 20
31.014383
 30
0.0
 11
27.283133
 21
31.228743
 31
0.0
  0
LINE
  8
200
  6
CONTINUOUS
 10
27.283133
 20
31.228743
 30
0.0
 11
26.483133
 21
31.443102
 31
0.0
  0
TEXT
  8
200
  6
CONTINUOUS
 10
18.703133
 20
31.228743
 30
0.0
 40
1.520000
  7
CSTEXT
  1
ÇPÅDÇVÇQÇT
 41
0.800000
 72
     5
 11
24.783133
 21
31.228743
 31
0.0
  0
LINE
  8
200
  6
CONTINUOUS
 10
29.008133
 20
21.928824
 30
0.0
 11
29.008133
 21
32.028743
 31
0.0
  0
LINE
  8
200
  6
CONTINUOUS
 10
41.608133
 20
21.928824
 30
0.0
 11
41.608133
 21
32.028743
 31
0.0
  0
LINE
  8
200
  6
CONTINUOUS
 10
35.308133
 20
31.228743
 30
0.0
 11
29.008133
 21
31.228743
 31
0.0
  0
LINE
  8
200
  6
CONTINUOUS
 10
29.808133
 20
31.014383
 30
0.0
 11
29.008133
 21
31.228743
 31
0.0
  0
LINE
  8
200
  6
CONTINUOUS
 10
29.008133
 20
31.228743
 30
0.0
 11
29.808133
 21
31.443102
 31
0.0
  0
LINE
  8
200
  6
CONTINUOUS
 10
35.308133
 20
31.228743
 30
0.0
 11
41.608133
 21
31.228743
 31
0.0
  0
LINE
  8
200
  6
CONTINUOUS
 10
40.808133
 20
31.443102
 30
0.0
 11
41.608133
 21
31.228743
 31
0.0
  0
LINE
  8
200
  6
CONTINUOUS
 10
41.608133
 20
31.228743
 30
0.0
 11
40.808133
 21
31.014383
 31
0.0
  0
TEXT
  8
200
  6
CONTINUOUS
 10
29.240293
 20
31.228743
 30
0.0
 40
1.520000
  7
CSTEXT
  1
ÇPÇQÅDÇU
 41
0.800000
 72
     5
 11
34.104293
 21
31.228743
 31
0.0
  0
TEXT
  8
200
  6
CONTINUOUS
 10
34.104293
 20
31.228743
 30
0.0
 40
1.520000
  7
CSTEXT
  1
=14Å~0.9
 41
0.800000
 72
     5
 11
41.375973
 21
31.228743
 31
0.0
  0
LINE
  8
200
  6
CONTINUOUS
 10
29.008133
 20
21.928824
 30
0.0
 11
29.008133
 21
27.511138
 31
0.0
  0
LINE
  8
200
  6
CONTINUOUS
 10
29.458133
 20
21.928824
 30
0.0
 11
29.458133
 21
27.511138
 31
0.0
  0
LINE
  8
200
  6
CONTINUOUS
 10
29.233133
 20
26.711138
 30
0.0
 11
29.008133
 21
26.711138
 31
0.0
  0
LINE
  8
200
  6
CONTINUOUS
 10
29.008133
 20
26.711138
 30
0.0
 11
19.387578
 21
26.711138
 31
0.0
  0
LINE
  8
200
  6
CONTINUOUS
 10
28.208133
 20
26.496779
 30
0.0
 11
29.008133
 21
26.711138
 31
0.0
  0
LINE
  8
200
  6
CONTINUOUS
 10
29.008133
 20
26.711138
 30
0.0
 11
28.208133
 21
26.925498
 31
0.0
  0
LINE
  8
200
  6
CONTINUOUS
 10
29.233133
 20
26.711138
 30
0.0
 11
29.458133
 21
26.711138
 31
0.0
  0
LINE
  8
200
  6
CONTINUOUS
 10
29.458133
 20
26.711138
 30
0.0
 11
31.558133
 21
26.711138
 31
0.0
  0
CIRCLE
  8
200
  6
CONTINUOUS
 10
29.458133
 20
26.711138
 30
0.0
 40
0.120000
  0
TEXT
  8
200
  6
CONTINUOUS
 10
19.387578
 20
26.711138
 30
0.0
 40
1.520000
  7
CSTEXT
  1
ÇOÅDÇSÇT
 41
0.800000
 72
     5
 11
24.251578
 21
26.711138
 31
0.0
  0
LINE
  8
200
  6
CONTINUOUS
 10
29.458133
 20
21.928824
 30
0.0
 11
29.458133
 21
27.511138
 31
0.0
  0
LINE
  8
200
  6
CONTINUOUS
 10
29.908133
 20
21.928824
 30
0.0
 11
29.908133
 21
27.511138
 31
0.0
  0
LINE
  8
200
  6
CONTINUOUS
 10
29.683133
 20
26.711138
 30
0.0
 11
29.458133
 21
26.711138
 31
0.0
  0
LINE
  8
200
  6
CONTINUOUS
 10
29.458133
 20
26.711138
 30
0.0
 11
27.358133
 21
26.711138
 31
0.0
  0
CIRCLE
  8
200
  6
CONTINUOUS
 10
29.458133
 20
26.711138
 30
0.0
 40
0.120000
  0
LINE
  8
200
  6
CONTINUOUS
 10
29.683133
 20
26.711138
 30
0.0
 11
29.908133
 21
26.711138
 31
0.0
  0
LINE
  8
200
  6
CONTINUOUS
 10
29.908133
 20
26.711138
 30
0.0
 11
37.272133
 21
26.711138
 31
0.0
  0
LINE
  8
200
  6
CONTINUOUS
 10
30.708133
 20
26.925498
 30
0.0
 11
29.908133
 21
26.711138
 31
0.0
  0
LINE
  8
200
  6
CONTINUOUS
 10
29.908133
 20
26.711138
 30
0.0
 11
30.708133
 21
26.496779
 31
0.0
  0
TEXT
  8
200
  6
CONTINUOUS
 10
32.408133
 20
26.711138
 30
0.0
 40
1.520000
  7
CSTEXT
  1
ÇOÅDÇSÇT
 41
0.800000
 72
     5
 11
37.272133
 21
26.711138
 31
0.0
  0
LINE
  8
200
  6
CONTINUOUS
 10
29.908133
 20
21.928824
 30
0.0
 11
29.908133
 21
29.793717
 31
0.0
  0
LINE
  8
200
  6
CONTINUOUS
 10
29.008133
 20
21.928824
 30
0.0
 11
29.008133
 21
29.793717
 31
0.0
  0
LINE
  8
200
  6
CONTINUOUS
 10
29.458133
 20
28.993717
 30
0.0
 11
29.908133
 21
28.993717
 31
0.0
  0
LINE
  8
200
  6
CONTINUOUS
 10
29.908133
 20
28.993717
 30
0.0
 11
36.056133
 21
28.993717
 31
0.0
  0
LINE
  8
200
  6
CONTINUOUS
 10
30.708133
 20
29.208077
 30
0.0
 11
29.908133
 21
28.993717
 31
0.0
  0
LINE
  8
200
  6
CONTINUOUS
 10
29.908133
 20
28.993717
 30
0.0
 11
30.708133
 21
28.779358
 31
0.0
  0
LINE
  8
200
  6
CONTINUOUS
 10
29.458133
 20
28.993717
 30
0.0
 11
29.008133
 21
28.993717
 31
0.0
  0
LINE
  8
200
  6
CONTINUOUS
 10
29.008133
 20
28.993717
 30
0.0
 11
26.908133
 21
28.993717
 31
0.0
  0
LINE
  8
200
  6
CONTINUOUS
 10
28.208133
 20
28.779358
 30
0.0
 11
29.008133
 21
28.993717
 31
0.0
  0
LINE
  8
200
  6
CONTINUOUS
 10
29.008133
 20
28.993717
 30
0.0
 11
28.208133
 21
29.208077
 31
0.0
  0
TEXT
  8
200
  6
CONTINUOUS
 10
32.408133
 20
28.993717
 30
0.0
 40
1.520000
  7
CSTEXT
  1
ÇOÅDÇX
 41
0.800000
 72
     5
 11
36.056133
 21
28.993717
 31
0.0
  0
TEXT
  8
200
  6
CONTINUOUS
 10
28.724245
 20
33.372427
 30
0.0
 40
1.200000
  7
CSTEXT
  1
(Resist apertur part)
 41
0.666667
 72
     5
 11
42.668245
 21
33.372427
 31
0.0
  0
LINE
  8
200
  6
CONTINUOUS
 10
44.582122
 20
20.569316
 30
0.0
 11
47.214325
 21
24.329758
 31
0.0
  0
LINE
  8
200
  6
CONTINUOUS
 10
44.865267
 20
21.347634
 30
0.0
 11
44.582122
 21
20.569316
 31
0.0
  0
LINE
  8
200
  6
CONTINUOUS
 10
44.582122
 20
20.569316
 30
0.0
 11
45.216492
 21
21.101786
 31
0.0
  0
TEXT
  8
200
  6
CONTINUOUS
 10
49.714325
 20
24.329758
 30
0.0
 40
1.520000
  7
CSTEXT
  1
2Å~É”2.05
 41
0.800000
 72
     5
 11
57.192725
 21
24.329758
 31
0.0
  0
LINE
  8
200
  6
CONTINUOUS
 10
47.214325
 20
24.329758
 30
0.0
 11
57.192725
 21
24.329758
 31
0.0
  0
LINE
  8
200
  6
CONTINUOUS
 10
28.283133
 20
19.677254
 30
0.0
 11
17.297781
 21
19.677254
 31
0.0
  0
LINE
  8
200
  6
CONTINUOUS
 10
24.396078
 20
19.927254
 30
0.0
 11
17.297781
 21
19.927254
 31
0.0
  0
LINE
  8
200
  6
CONTINUOUS
 10
18.097781
 20
19.802254
 30
0.0
 11
18.097781
 21
19.677254
 31
0.0
  0
LINE
  8
200
  6
CONTINUOUS
 10
18.097781
 20
19.677254
 30
0.0
 11
18.097781
 21
12.313254
 31
0.0
  0
LINE
  8
200
  6
CONTINUOUS
 10
18.312141
 20
18.877254
 30
0.0
 11
18.097781
 21
19.677254
 31
0.0
  0
LINE
  8
200
  6
CONTINUOUS
 10
18.097781
 20
19.677254
 30
0.0
 11
17.883422
 21
18.877254
 31
0.0
  0
LINE
  8
200
  6
CONTINUOUS
 10
18.097781
 20
19.802254
 30
0.0
 11
18.097781
 21
19.927254
 31
0.0
  0
LINE
  8
200
  6
CONTINUOUS
 10
18.097781
 20
19.927254
 30
0.0
 11
18.097781
 21
22.027254
 31
0.0
  0
CIRCLE
  8
200
  6
CONTINUOUS
 10
18.097781
 20
19.927254
 30
0.0
 40
0.120000
  0
TEXT
  8
200
  6
CONTINUOUS
 10
18.097781
 20
12.313254
 30
0.0
 40
1.520000
  7
CSTEXT
  1
ÇOÅDÇQÇT
 50
90.0
 41
0.800000
 72
     5
 11
18.097781
 21
17.177254
 31
0.0
  0
LINE
  8
200
  6
CONTINUOUS
 10
24.396078
 20
19.927254
 30
0.0
 11
17.297781
 21
19.927254
 31
0.0
  0
LINE
  8
200
  6
CONTINUOUS
 10
28.283133
 20
20.177254
 30
0.0
 11
17.297781
 21
20.177254
 31
0.0
  0
LINE
  8
200
  6
CONTINUOUS
 10
18.097781
 20
20.052254
 30
0.0
 11
18.097781
 21
19.927254
 31
0.0
  0
LINE
  8
200
  6
CONTINUOUS
 10
18.097781
 20
19.927254
 30
0.0
 11
18.097781
 21
17.827254
 31
0.0
  0
CIRCLE
  8
200
  6
CONTINUOUS
 10
18.097781
 20
19.927254
 30
0.0
 40
0.120000
  0
LINE
  8
200
  6
CONTINUOUS
 10
18.097781
 20
20.052254
 30
0.0
 11
18.097781
 21
20.177254
 31
0.0
  0
LINE
  8
200
  6
CONTINUOUS
 10
18.097781
 20
20.177254
 30
0.0
 11
18.097781
 21
27.541254
 31
0.0
  0
LINE
  8
200
  6
CONTINUOUS
 10
17.883422
 20
20.977254
 30
0.0
 11
18.097781
 21
20.177254
 31
0.0
  0
LINE
  8
200
  6
CONTINUOUS
 10
18.097781
 20
20.177254
 30
0.0
 11
18.312141
 21
20.977254
 31
0.0
  0
TEXT
  8
200
  6
CONTINUOUS
 10
18.097781
 20
22.677254
 30
0.0
 40
1.520000
  7
CSTEXT
  1
ÇOÅDÇQÇT
 50
90.0
 41
0.800000
 72
     5
 11
18.097781
 21
27.541254
 31
0.0
  0
LINE
  8
200
  6
CONTINUOUS
 10
25.733133
 20
22.427254
 30
0.0
 11
9.451648
 21
22.427254
 31
0.0
  0
LINE
  8
200
  6
CONTINUOUS
 10
24.422305
 20
17.927254
 30
0.0
 11
9.451648
 21
17.927254
 31
0.0
  0
LINE
  8
200
  6
CONTINUOUS
 10
10.251648
 20
20.177254
 30
0.0
 11
10.251648
 21
22.427254
 31
0.0
  0
LINE
  8
200
  6
CONTINUOUS
 10
10.037289
 20
21.627254
 30
0.0
 11
10.251648
 21
22.427254
 31
0.0
  0
LINE
  8
200
  6
CONTINUOUS
 10
10.251648
 20
22.427254
 30
0.0
 11
10.466008
 21
21.627254
 31
0.0
  0
LINE
  8
200
  6
CONTINUOUS
 10
10.251648
 20
20.177254
 30
0.0
 11
10.251648
 21
17.927254
 31
0.0
  0
LINE
  8
200
  6
CONTINUOUS
 10
10.466008
 20
18.727254
 30
0.0
 11
10.251648
 21
17.927254
 31
0.0
  0
LINE
  8
200
  6
CONTINUOUS
 10
10.251648
 20
17.927254
 30
0.0
 11
10.037289
 21
18.727254
 31
0.0
  0
TEXT
  8
200
  6
CONTINUOUS
 10
10.251648
 20
18.353254
 30
0.0
 40
1.520000
  7
CSTEXT
  1
ÇSÅDÇT
 50
90.0
 41
0.800000
 72
     5
 11
10.251648
 21
22.001254
 31
0.0
  0
LINE
  8
200
  6
CONTINUOUS
 10
25.733133
 20
22.427254
 30
0.0
 11
7.372759
 21
22.427254
 31
0.0
  0
LINE
  8
200
  6
CONTINUOUS
 10
25.733133
 20
2.427254
 30
0.0
 11
7.372759
 21
2.427254
 31
0.0
  0
LINE
  8
200
  6
CONTINUOUS
 10
8.172759
 20
12.427254
 30
0.0
 11
8.172759
 21
22.427254
 31
0.0
  0
LINE
  8
200
  6
CONTINUOUS
 10
7.958399
 20
21.627254
 30
0.0
 11
8.172759
 21
22.427254
 31
0.0
  0
LINE
  8
200
  6
CONTINUOUS
 10
8.172759
 20
22.427254
 30
0.0
 11
8.387118
 21
21.627254
 31
0.0
  0
LINE
  8
200
  6
CONTINUOUS
 10
8.172759
 20
12.427254
 30
0.0
 11
8.172759
 21
2.427254
 31
0.0
  0
LINE
  8
200
  6
CONTINUOUS
 10
8.387118
 20
3.227254
 30
0.0
 11
8.172759
 21
2.427254
 31
0.0
  0
LINE
  8
200
  6
CONTINUOUS
 10
8.172759
 20
2.427254
 30
0.0
 11
7.958399
 21
3.227254
 31
0.0
  0
TEXT
  8
200
  6
CONTINUOUS
 10
8.172759
 20
11.211254
 30
0.0
 40
1.520000
  7
CSTEXT
  1
ÇQÇO
 50
90.0
 41
0.800000
 72
     5
 11
8.172759
 21
13.643254
 31
0.0
  0
ARC
  8
5
 62
     4
  6
DASHED
 10
29.233133
 20
21.327254
 30
0.0
 40
0.300000
 50
19.471221
 51
160.528779
  0
ARC
  8
5
 62
     4
  6
DASHED
 10
29.083133
 20
18.302254
 30
0.0
 40
0.075000
 50
180.0
 51
270.0
  0
LINE
  8
5
 62
     4
  6
DASHED
 10
29.083133
 20
18.227254
 30
0.0
 11
29.833133
 21
18.227254
 31
0.0
  0
ARC
  8
5
 62
     4
  6
DASHED
 10
29.833133
 20
18.302254
 30
0.0
 40
0.075000
 50
270.0
 51
360.0
  0
LINE
  8
5
 62
     4
  6
DASHED
 10
29.908133
 20
18.427254
 30
0.0
 11
29.908133
 21
18.302254
 31
0.0
  0
LINE
  8
5
 10
29.008133
 20
18.427254
 30
0.0
 11
29.008133
 21
19.602254
 31
0.0
  0
LINE
  8
200
  6
CONTINUOUS
 10
28.283133
 20
19.677254
 30
0.0
 11
13.609428
 21
19.677254
 31
0.0
  0
LINE
  8
200
  6
CONTINUOUS
 10
28.283133
 20
18.227254
 30
0.0
 11
13.609428
 21
18.227254
 31
0.0
  0
LINE
  8
200
  6
CONTINUOUS
 10
14.409428
 20
18.952254
 30
0.0
 11
14.409428
 21
19.677254
 31
0.0
  0
LINE
  8
200
  6
CONTINUOUS
 10
14.409428
 20
19.677254
 30
0.0
 11
14.409428
 21
21.777254
 31
0.0
  0
LINE
  8
200
  6
CONTINUOUS
 10
14.195069
 20
20.477254
 30
0.0
 11
14.409428
 21
19.677254
 31
0.0
  0
LINE
  8
200
  6
CONTINUOUS
 10
14.409428
 20
19.677254
 30
0.0
 11
14.623788
 21
20.477254
 31
0.0
  0
LINE
  8
200
  6
CONTINUOUS
 10
14.409428
 20
18.952254
 30
0.0
 11
14.409428
 21
18.227254
 31
0.0
  0
LINE
  8
200
  6
CONTINUOUS
 10
14.409428
 20
18.227254
 30
0.0
 11
14.409428
 21
10.863254
 31
0.0
  0
LINE
  8
200
  6
CONTINUOUS
 10
14.623788
 20
17.427254
 30
0.0
 11
14.409428
 21
18.227254
 31
0.0
  0
LINE
  8
200
  6
CONTINUOUS
 10
14.409428
 20
18.227254
 30
0.0
 11
14.195069
 21
17.427254
 31
0.0
  0
TEXT
  8
200
  6
CONTINUOUS
 10
14.409428
 20
10.863254
 30
0.0
 40
1.520000
  7
CSTEXT
  1
ÇPÅDÇSÇT
 50
90.0
 41
0.800000
 72
     5
 11
14.409428
 21
15.727254
 31
0.0
  0
LINE
  8
200
  6
CONTINUOUS
 10
28.283133
 20
20.177254
 30
0.0
 11
15.084770
 21
20.177254
 31
0.0
  0
LINE
  8
200
  6
CONTINUOUS
 10
28.433133
 20
21.627254
 30
0.0
 11
15.084770
 21
21.627254
 31
0.0
  0
LINE
  8
200
  6
CONTINUOUS
 10
15.884770
 20
20.902254
 30
0.0
 11
15.884770
 21
20.177254
 31
0.0
  0
LINE
  8
200
  6
CONTINUOUS
 10
15.884770
 20
20.177254
 30
0.0
 11
15.884770
 21
18.077254
 31
0.0
  0
LINE
  8
200
  6
CONTINUOUS
 10
16.099129
 20
19.377254
 30
0.0
 11
15.884770
 21
20.177254
 31
0.0
  0
LINE
  8
200
  6
CONTINUOUS
 10
15.884770
 20
20.177254
 30
0.0
 11
15.670410
 21
19.377254
 31
0.0
  0
LINE
  8
200
  6
CONTINUOUS
 10
15.884770
 20
20.902254
 30
0.0
 11
15.884770
 21
21.627254
 31
0.0
  0
LINE
  8
200
  6
CONTINUOUS
 10
15.884770
 20
21.627254
 30
0.0
 11
15.884770
 21
28.991254
 31
0.0
  0
LINE
  8
200
  6
CONTINUOUS
 10
15.670410
 20
22.427254
 30
0.0
 11
15.884770
 21
21.627254
 31
0.0
  0
LINE
  8
200
  6
CONTINUOUS
 10
15.884770
 20
21.627254
 30
0.0
 11
16.099129
 21
22.427254
 31
0.0
  0
TEXT
  8
200
  6
CONTINUOUS
 10
15.884770
 20
24.127254
 30
0.0
 40
1.520000
  7
CSTEXT
  1
ÇPÅDÇSÇT
 50
90.0
 41
0.800000
 72
     5
 11
15.884770
 21
28.991254
 31
0.0
  0
LINE
  8
200
  6
CONTINUOUS
 10
42.058133
 20
21.928824
 30
0.0
 11
42.058133
 21
32.028743
 31
0.0
  0
LINE
  8
200
  6
CONTINUOUS
 10
41.608133
 20
21.928824
 30
0.0
 11
41.608133
 21
32.028743
 31
0.0
  0
LINE
  8
200
  6
CONTINUOUS
 10
41.833133
 20
31.228743
 30
0.0
 11
42.058133
 21
31.228743
 31
0.0
  0
LINE
  8
200
  6
CONTINUOUS
 10
42.058133
 20
31.228743
 30
0.0
 11
51.631553
 21
31.228743
 31
0.0
  0
LINE
  8
200
  6
CONTINUOUS
 10
42.858133
 20
31.443102
 30
0.0
 11
42.058133
 21
31.228743
 31
0.0
  0
LINE
  8
200
  6
CONTINUOUS
 10
42.058133
 20
31.228743
 30
0.0
 11
42.858133
 21
31.014383
 31
0.0
  0
LINE
  8
200
  6
CONTINUOUS
 10
41.833133
 20
31.228743
 30
0.0
 11
41.608133
 21
31.228743
 31
0.0
  0
LINE
  8
200
  6
CONTINUOUS
 10
41.608133
 20
31.228743
 30
0.0
 11
39.508133
 21
31.228743
 31
0.0
  0
LINE
  8
200
  6
CONTINUOUS
 10
40.808133
 20
31.014383
 30
0.0
 11
41.608133
 21
31.228743
 31
0.0
  0
LINE
  8
200
  6
CONTINUOUS
 10
41.608133
 20
31.228743
 30
0.0
 11
40.808133
 21
31.443102
 31
0.0
  0
TEXT
  8
200
  6
CONTINUOUS
 10
46.767553
 20
31.228743
 30
0.0
 40
1.520000
  7
CSTEXT
  1
ÇOÅDÇSÇT
 41
0.800000
 72
     5
 11
51.631553
 21
31.228743
 31
0.0
  0
TEXT
  8
200
  6
CONTINUOUS
 10
13.748583
 20
22.867958
 30
0.0
 40
1.200000
  7
CSTEXT
  1
(Resist apertur part)
 50
90.0
 41
0.666667
 72
     5
 11
13.748583
 21
36.811958
 31
0.0
  0
LINE
  8
200
  6
CONTINUOUS
 10
42.058133
 20
20.402254
 30
0.0
 11
42.058133
 21
29.793717
 31
0.0
  0
LINE
  8
200
  6
CONTINUOUS
 10
41.158133
 20
20.402254
 30
0.0
 11
41.158133
 21
29.793717
 31
0.0
  0
LINE
  8
200
  6
CONTINUOUS
 10
41.608133
 20
28.993717
 30
0.0
 11
42.058133
 21
28.993717
 31
0.0
  0
LINE
  8
200
  6
CONTINUOUS
 10
42.058133
 20
28.993717
 30
0.0
 11
52.619775
 21
28.993717
 31
0.0
  0
LINE
  8
200
  6
CONTINUOUS
 10
42.858133
 20
29.208077
 30
0.0
 11
42.058133
 21
28.993717
 31
0.0
  0
LINE
  8
200
  6
CONTINUOUS
 10
42.058133
 20
28.993717
 30
0.0
 11
42.858133
 21
28.779358
 31
0.0
  0
LINE
  8
200
  6
CONTINUOUS
 10
41.608133
 20
28.993717
 30
0.0
 11
41.158133
 21
28.993717
 31
0.0
  0
LINE
  8
200
  6
CONTINUOUS
 10
41.158133
 20
28.993717
 30
0.0
 11
39.058133
 21
28.993717
 31
0.0
  0
LINE
  8
200
  6
CONTINUOUS
 10
40.358133
 20
28.779358
 30
0.0
 11
41.158133
 21
28.993717
 31
0.0
  0
LINE
  8
200
  6
CONTINUOUS
 10
41.158133
 20
28.993717
 30
0.0
 11
40.358133
 21
29.208077
 31
0.0
  0
TEXT
  8
200
  6
CONTINUOUS
 10
47.962495
 20
28.993717
 30
0.0
 40
1.520000
  7
CSTEXT
  1
ÇOÅDÇX
 41
0.800000
 72
     5
 11
51.610495
 21
28.993717
 31
0.0
  0
TEXT
  8
200
  6
CONTINUOUS
 10
46.953215
 20
28.993717
 30
0.0
 40
1.520000
  7
CSTEXT
  1
(
 41
0.800000
 72
     5
 11
47.962495
 21
28.993717
 31
0.0
  0
TEXT
  8
200
  6
CONTINUOUS
 10
51.610495
 20
28.993717
 30
0.0
 40
1.520000
  7
CSTEXT
  1
)
 41
0.800000
 72
     5
 11
52.619775
 21
28.993717
 31
0.0
  0
POINT
  8
200
 10
42.058133
 20
32.597080
 30
0.0
  0
LINE
  8
200
  6
CONTINUOUS
 10
31.699623
 20
2.817960
 30
0.0
 11
31.699623
 21
-12.733682
 31
0.0
  0
LINE
  8
200
  6
CONTINUOUS
 10
29.159623
 20
2.817960
 30
0.0
 11
29.159623
 21
-12.733682
 31
0.0
  0
LINE
  8
200
  6
CONTINUOUS
 10
30.429623
 20
-11.933682
 30
0.0
 11
31.699623
 21
-11.933682
 31
0.0
  0
LINE
  8
200
  6
CONTINUOUS
 10
31.699623
 20
-11.933682
 30
0.0
 11
38.030927
 21
-11.933682
 31
0.0
  0
LINE
  8
200
  6
CONTINUOUS
 10
32.499623
 20
-11.719323
 30
0.0
 11
31.699623
 21
-11.933682
 31
0.0
  0
LINE
  8
200
  6
CONTINUOUS
 10
31.699623
 20
-11.933682
 30
0.0
 11
32.499623
 21
-12.148041
 31
0.0
  0
LINE
  8
200
  6
CONTINUOUS
 10
30.429623
 20
-11.933682
 30
0.0
 11
29.159623
 21
-11.933682
 31
0.0
  0
LINE
  8
200
  6
CONTINUOUS
 10
29.159623
 20
-11.933682
 30
0.0
 11
27.059623
 21
-11.933682
 31
0.0
  0
LINE
  8
200
  6
CONTINUOUS
 10
28.359623
 20
-12.148041
 30
0.0
 11
29.159623
 21
-11.933682
 31
0.0
  0
LINE
  8
200
  6
CONTINUOUS
 10
29.159623
 20
-11.933682
 30
0.0
 11
28.359623
 21
-11.719323
 31
0.0
  0
TEXT
  8
200
  6
CONTINUOUS
 10
33.166927
 20
-11.933682
 30
0.0
 40
1.520000
  7
CSTEXT
  1
ÇQÅDÇTÇS
 41
0.800000
 72
     5
 11
38.030927
 21
-11.933682
 31
0.0
  0
LINE
  8
200
  6
CONTINUOUS
 10
29.159623
 20
2.817960
 30
0.0
 11
29.159623
 21
-15.979098
 31
0.0
  0
LINE
  8
200
  6
CONTINUOUS
 10
41.859623
 20
2.817960
 30
0.0
 11
41.859623
 21
-15.979098
 31
0.0
  0
LINE
  8
200
  6
CONTINUOUS
 10
35.509623
 20
-15.179098
 30
0.0
 11
29.159623
 21
-15.179098
 31
0.0
  0
LINE
  8
200
  6
CONTINUOUS
 10
29.959623
 20
-15.393457
 30
0.0
 11
29.159623
 21
-15.179098
 31
0.0
  0
LINE
  8
200
  6
CONTINUOUS
 10
29.159623
 20
-15.179098
 30
0.0
 11
29.959623
 21
-14.964739
 31
0.0
  0
LINE
  8
200
  6
CONTINUOUS
 10
35.509623
 20
-15.179098
 30
0.0
 11
41.859623
 21
-15.179098
 31
0.0
  0
LINE
  8
200
  6
CONTINUOUS
 10
41.059623
 20
-14.964739
 30
0.0
 11
41.859623
 21
-15.179098
 31
0.0
  0
LINE
  8
200
  6
CONTINUOUS
 10
41.859623
 20
-15.179098
 30
0.0
 11
41.059623
 21
-15.393457
 31
0.0
  0
TEXT
  8
200
  6
CONTINUOUS
 10
29.441783
 20
-15.179098
 30
0.0
 40
1.520000
  7
CSTEXT
  1
ÇPÇQÅDÇV
 41
0.800000
 72
     5
 11
34.305783
 21
-15.179098
 31
0.0
  0
TEXT
  8
200
  6
CONTINUOUS
 10
34.305783
 20
-15.179098
 30
0.0
 40
1.520000
  7
CSTEXT
  1
=5Å~2.54
 41
0.800000
 72
     5
 11
41.577463
 21
-15.179098
 31
0.0
  0
LINE
  8
200
  6
CONTINUOUS
 10
27.433133
 20
4.440084
 30
0.0
 11
19.992133
 21
4.440084
 31
0.0
  0
LINE
  8
200
  6
CONTINUOUS
 10
27.433133
 20
14.600084
 30
0.0
 11
19.992133
 21
14.600084
 31
0.0
  0
LINE
  8
200
  6
CONTINUOUS
 10
20.792133
 20
9.520084
 30
0.0
 11
20.792133
 21
4.440084
 31
0.0
  0
LINE
  8
200
  6
CONTINUOUS
 10
21.006492
 20
5.240084
 30
0.0
 11
20.792133
 21
4.440084
 31
0.0
  0
LINE
  8
200
  6
CONTINUOUS
 10
20.792133
 20
4.440084
 30
0.0
 11
20.577773
 21
5.240084
 31
0.0
  0
LINE
  8
200
  6
CONTINUOUS
 10
20.792133
 20
9.520084
 30
0.0
 11
20.792133
 21
14.600084
 31
0.0
  0
LINE
  8
200
  6
CONTINUOUS
 10
20.577773
 20
13.800084
 30
0.0
 11
20.792133
 21
14.600084
 31
0.0
  0
LINE
  8
200
  6
CONTINUOUS
 10
20.792133
 20
14.600084
 30
0.0
 11
21.006492
 21
13.800084
 31
0.0
  0
TEXT
  8
200
  6
CONTINUOUS
 10
20.792133
 20
4.688884
 30
0.0
 40
1.520000
  7
CSTEXT
  1
ÇPÇOÅDÇPÇU
 50
90.0
 41
0.578947
 72
     5
 11
20.792133
 21
9.088884
 31
0.0
  0
TEXT
  8
200
  6
CONTINUOUS
 10
20.792133
 20
9.088884
 30
0.0
 40
1.520000
  7
CSTEXT
  1
=4Å~2.54
 50
90.0
 41
0.578947
 72
     5
 11
20.792133
 21
14.351284
 31
0.0
  0
LINE
  8
200
  6
CONTINUOUS
 10
27.433133
 20
4.440084
 30
0.0
 11
22.405954
 21
4.440084
 31
0.0
  0
LINE
  8
200
  6
CONTINUOUS
 10
27.433133
 20
6.980084
 30
0.0
 11
22.405954
 21
6.980084
 31
0.0
  0
LINE
  8
200
  6
CONTINUOUS
 10
23.205954
 20
5.710084
 30
0.0
 11
23.205954
 21
4.440084
 31
0.0
  0
LINE
  8
200
  6
CONTINUOUS
 10
23.205954
 20
4.440084
 30
0.0
 11
23.205954
 21
2.340084
 31
0.0
  0
LINE
  8
200
  6
CONTINUOUS
 10
23.420314
 20
3.640084
 30
0.0
 11
23.205954
 21
4.440084
 31
0.0
  0
LINE
  8
200
  6
CONTINUOUS
 10
23.205954
 20
4.440084
 30
0.0
 11
22.991595
 21
3.640084
 31
0.0
  0
LINE
  8
200
  6
CONTINUOUS
 10
23.205954
 20
5.710084
 30
0.0
 11
23.205954
 21
6.980084
 31
0.0
  0
LINE
  8
200
  6
CONTINUOUS
 10
23.205954
 20
6.980084
 30
0.0
 11
23.205954
 21
13.535420
 31
0.0
  0
LINE
  8
200
  6
CONTINUOUS
 10
22.991595
 20
7.780084
 30
0.0
 11
23.205954
 21
6.980084
 31
0.0
  0
LINE
  8
200
  6
CONTINUOUS
 10
23.205954
 20
6.980084
 30
0.0
 11
23.420314
 21
7.780084
 31
0.0
  0
TEXT
  8
200
  6
CONTINUOUS
 10
23.205954
 20
8.671420
 30
0.0
 40
1.520000
  7
CSTEXT
  1
ÇQÅDÇTÇS
 50
90.0
 41
0.800000
 72
     5
 11
23.205954
 21
13.535420
 31
0.0
  0
LINE
  8
200
  6
CONTINUOUS
 10
45.167767
 20
11.151535
 30
0.0
 11
47.300204
 21
14.557068
 31
0.0
  0
LINE
  8
200
  6
CONTINUOUS
 10
45.410655
 20
11.943340
 30
0.0
 11
45.167767
 21
11.151535
 31
0.0
  0
LINE
  8
200
  6
CONTINUOUS
 10
45.167767
 20
11.151535
 30
0.0
 11
45.774016
 21
11.715815
 31
0.0
  0
TEXT
  8
200
  6
CONTINUOUS
 10
49.800204
 20
14.557068
 30
0.0
 40
1.200000
  7
CSTEXT
  1
SILK-SCREENÅ@PRINTING
 41
0.800000
 72
     5
 11
65.899404
 21
14.557068
 31
0.0
  0
LINE
  8
200
  6
CONTINUOUS
 10
47.300204
 20
14.557068
 30
0.0
 11
65.899404
 21
14.557068
 31
0.0
  0
TEXT
  8
200
  6
CONTINUOUS
 10
49.537066
 20
12.829152
 30
0.0
 40
1.200000
  7
CSTEXT
  1
ColorÅFWhite
 41
0.800000
 72
     5
 11
58.465066
 21
12.829152
 31
0.0
  0
TEXT
  8
200
  6
CONTINUOUS
 10
49.616321
 20
11.108230
 30
0.0
 40
1.200000
  7
CSTEXT
  1
Right side only
 41
0.800000
 72
     5
 11
61.568321
 21
11.108230
 31
0.0
  0
LINE
  8
200
  6
CONTINUOUS
 10
42.144685
 20
4.029305
 30
0.0
 11
45.638673
 21
-0.077104
 31
0.0
  0
LINE
  8
200
  6
CONTINUOUS
 10
42.826368
 20
3.558924
 30
0.0
 11
42.144685
 21
4.029305
 31
0.0
  0
LINE
  8
200
  6
CONTINUOUS
 10
42.144685
 20
4.029305
 30
0.0
 11
42.499849
 21
3.281101
 31
0.0
  0
TEXT
  8
200
  6
CONTINUOUS
 10
48.138673
 20
-0.077104
 30
0.0
 40
1.520000
  7
CSTEXT
  1
30Å~É”1
 41
0.800000
 72
     5
 11
53.598513
 21
-0.077104
 31
0.0
  0
LINE
  8
200
  6
CONTINUOUS
 10
45.638673
 20
-0.077104
 30
0.0
 11
53.598513
 21
-0.077104
 31
0.0
  0
POINT
  8
200
 10
29.908133
 20
29.617471
 30
0.0
  0
LINE
  8
200
  6
CONTINUOUS
 10
29.008133
 20
17.627254
 30
0.0
 11
29.008133
 21
-3.016973
 31
0.0
  0
LINE
  8
200
  6
CONTINUOUS
 10
29.908133
 20
17.627254
 30
0.0
 11
29.908133
 21
-3.016973
 31
0.0
  0
LINE
  8
200
  6
CONTINUOUS
 10
29.458133
 20
-2.216973
 30
0.0
 11
29.008133
 21
-2.216973
 31
0.0
  0
LINE
  8
200
  6
CONTINUOUS
 10
29.008133
 20
-2.216973
 30
0.0
 11
26.908133
 21
-2.216973
 31
0.0
  0
CIRCLE
  8
200
  6
CONTINUOUS
 10
29.008133
 20
-2.216973
 30
0.0
 40
0.120000
  0
LINE
  8
200
  6
CONTINUOUS
 10
29.458133
 20
-2.216973
 30
0.0
 11
29.908133
 21
-2.216973
 31
0.0
  0
LINE
  8
200
  6
CONTINUOUS
 10
29.908133
 20
-2.216973
 30
0.0
 11
36.230895
 21
-2.216973
 31
0.0
  0
LINE
  8
200
  6
CONTINUOUS
 10
30.708133
 20
-2.002613
 30
0.0
 11
29.908133
 21
-2.216973
 31
0.0
  0
LINE
  8
200
  6
CONTINUOUS
 10
29.908133
 20
-2.216973
 30
0.0
 11
30.708133
 21
-2.431332
 31
0.0
  0
TEXT
  8
200
  6
CONTINUOUS
 10
32.582895
 20
-2.216973
 30
0.0
 40
1.520000
  7
CSTEXT
  1
ÇOÅDÇX
 41
0.800000
 72
     5
 11
36.230895
 21
-2.216973
 31
0.0
  0
LINE
  8
200
  6
CONTINUOUS
 10
29.908133
 20
17.627254
 30
0.0
 11
29.908133
 21
-6.010783
 31
0.0
  0
LINE
  8
200
  6
CONTINUOUS
 10
30.358133
 20
17.925684
 30
0.0
 11
30.358133
 21
-6.010783
 31
0.0
  0
LINE
  8
200
  6
CONTINUOUS
 10
30.133133
 20
-5.210783
 30
0.0
 11
29.908133
 21
-5.210783
 31
0.0
  0
LINE
  8
200
  6
CONTINUOUS
 10
29.908133
 20
-5.210783
 30
0.0
 11
22.544133
 21
-5.210783
 31
0.0
  0
LINE
  8
200
  6
CONTINUOUS
 10
29.108133
 20
-5.425142
 30
0.0
 11
29.908133
 21
-5.210783
 31
0.0
  0
LINE
  8
200
  6
CONTINUOUS
 10
29.908133
 20
-5.210783
 30
0.0
 11
29.108133
 21
-4.996423
 31
0.0
  0
LINE
  8
200
  6
CONTINUOUS
 10
30.133133
 20
-5.210783
 30
0.0
 11
30.358133
 21
-5.210783
 31
0.0
  0
LINE
  8
200
  6
CONTINUOUS
 10
30.358133
 20
-5.210783
 30
0.0
 11
32.458133
 21
-5.210783
 31
0.0
  0
CIRCLE
  8
200
  6
CONTINUOUS
 10
30.358133
 20
-5.210783
 30
0.0
 40
0.120000
  0
TEXT
  8
200
  6
CONTINUOUS
 10
22.544133
 20
-5.210783
 30
0.0
 40
1.520000
  7
CSTEXT
  1
ÇOÅDÇSÇT
 41
0.800000
 72
     5
 11
27.408133
 21
-5.210783
 31
0.0
  0
LINE
  8
200
  6
CONTINUOUS
 10
30.358133
 20
17.925684
 30
0.0
 11
30.358133
 21
-6.010783
 31
0.0
  0
LINE
  8
200
  6
CONTINUOUS
 10
30.808133
 20
17.925684
 30
0.0
 11
30.808133
 21
-6.010783
 31
0.0
  0
LINE
  8
200
  6
CONTINUOUS
 10
30.583133
 20
-5.210783
 30
0.0
 11
30.358133
 21
-5.210783
 31
0.0
  0
LINE
  8
200
  6
CONTINUOUS
 10
30.358133
 20
-5.210783
 30
0.0
 11
28.258133
 21
-5.210783
 31
0.0
  0
CIRCLE
  8
200
  6
CONTINUOUS
 10
30.358133
 20
-5.210783
 30
0.0
 40
0.120000
  0
LINE
  8
200
  6
CONTINUOUS
 10
30.583133
 20
-5.210783
 30
0.0
 11
30.808133
 21
-5.210783
 31
0.0
  0
LINE
  8
200
  6
CONTINUOUS
 10
30.808133
 20
-5.210783
 30
0.0
 11
38.172133
 21
-5.210783
 31
0.0
  0
LINE
  8
200
  6
CONTINUOUS
 10
31.608133
 20
-4.996423
 30
0.0
 11
30.808133
 21
-5.210783
 31
0.0
  0
LINE
  8
200
  6
CONTINUOUS
 10
30.808133
 20
-5.210783
 30
0.0
 11
31.608133
 21
-5.425142
 31
0.0
  0
TEXT
  8
200
  6
CONTINUOUS
 10
33.308133
 20
-5.210783
 30
0.0
 40
1.520000
  7
CSTEXT
  1
ÇOÅDÇSÇT
 41
0.800000
 72
     5
 11
38.172133
 21
-5.210783
 31
0.0
  0
LINE
  8
200
  6
CONTINUOUS
 10
41.158133
 20
17.627254
 30
0.0
 11
41.158133
 21
-3.016973
 31
0.0
  0
LINE
  8
200
  6
CONTINUOUS
 10
42.058133
 20
17.627254
 30
0.0
 11
42.058133
 21
-3.016973
 31
0.0
  0
LINE
  8
200
  6
CONTINUOUS
 10
41.608133
 20
-2.216973
 30
0.0
 11
41.158133
 21
-2.216973
 31
0.0
  0
LINE
  8
200
  6
CONTINUOUS
 10
41.158133
 20
-2.216973
 30
0.0
 11
39.058133
 21
-2.216973
 31
0.0
  0
LINE
  8
200
  6
CONTINUOUS
 10
40.358133
 20
-2.431332
 30
0.0
 11
41.158133
 21
-2.216973
 31
0.0
  0
LINE
  8
200
  6
CONTINUOUS
 10
41.158133
 20
-2.216973
 30
0.0
 11
40.358133
 21
-2.002613
 31
0.0
  0
LINE
  8
200
  6
CONTINUOUS
 10
41.608133
 20
-2.216973
 30
0.0
 11
42.058133
 21
-2.216973
 31
0.0
  0
LINE
  8
200
  6
CONTINUOUS
 10
42.058133
 20
-2.216973
 30
0.0
 11
48.206133
 21
-2.216973
 31
0.0
  0
LINE
  8
200
  6
CONTINUOUS
 10
42.858133
 20
-2.002613
 30
0.0
 11
42.058133
 21
-2.216973
 31
0.0
  0
LINE
  8
200
  6
CONTINUOUS
 10
42.058133
 20
-2.216973
 30
0.0
 11
42.858133
 21
-2.431332
 31
0.0
  0
TEXT
  8
200
  6
CONTINUOUS
 10
44.558133
 20
-2.216973
 30
0.0
 40
1.520000
  7
CSTEXT
  1
ÇOÅDÇX
 41
0.800000
 72
     5
 11
48.206133
 21
-2.216973
 31
0.0
  0
LINE
  8
200
  6
CONTINUOUS
 10
30.358133
 20
17.925684
 30
0.0
 11
30.358133
 21
-10.454459
 31
0.0
  0
LINE
  8
200
  6
CONTINUOUS
 10
40.258133
 20
17.925684
 30
0.0
 11
40.258133
 21
-10.454459
 31
0.0
  0
LINE
  8
200
  6
CONTINUOUS
 10
35.308133
 20
-9.654459
 30
0.0
 11
30.358133
 21
-9.654459
 31
0.0
  0
LINE
  8
200
  6
CONTINUOUS
 10
31.158133
 20
-9.868818
 30
0.0
 11
30.358133
 21
-9.654459
 31
0.0
  0
LINE
  8
200
  6
CONTINUOUS
 10
30.358133
 20
-9.654459
 30
0.0
 11
31.158133
 21
-9.440099
 31
0.0
  0
LINE
  8
200
  6
CONTINUOUS
 10
35.308133
 20
-9.654459
 30
0.0
 11
40.258133
 21
-9.654459
 31
0.0
  0
LINE
  8
200
  6
CONTINUOUS
 10
39.458133
 20
-9.440099
 30
0.0
 11
40.258133
 21
-9.654459
 31
0.0
  0
LINE
  8
200
  6
CONTINUOUS
 10
40.258133
 20
-9.654459
 30
0.0
 11
39.458133
 21
-9.868818
 31
0.0
  0
TEXT
  8
200
  6
CONTINUOUS
 10
32.044469
 20
-9.654459
 30
0.0
 40
1.520000
  7
CSTEXT
  1
ÇXÅDÇX
 41
0.578947
 72
     5
 11
34.684469
 21
-9.654459
 31
0.0
  0
TEXT
  8
200
  6
CONTINUOUS
 10
34.684469
 20
-9.654459
 30
0.0
 40
1.520000
  7
CSTEXT
  1
=11Å~0.9
 41
0.578947
 72
     5
 11
39.946869
 21
-9.654459
 31
0.0
  0
LINE
  8
200
  6
CONTINUOUS
 10
40.708133
 20
17.925684
 30
0.0
 11
40.708133
 21
-8.156416
 31
0.0
  0
LINE
  8
200
  6
CONTINUOUS
 10
40.258133
 20
17.925684
 30
0.0
 11
40.258133
 21
-8.156416
 31
0.0
  0
LINE
  8
200
  6
CONTINUOUS
 10
40.483133
 20
-7.356416
 30
0.0
 11
40.708133
 21
-7.356416
 31
0.0
  0
LINE
  8
200
  6
CONTINUOUS
 10
40.708133
 20
-7.356416
 30
0.0
 11
42.808133
 21
-7.356416
 31
0.0
  0
CIRCLE
  8
200
  6
CONTINUOUS
 10
40.708133
 20
-7.356416
 30
0.0
 40
0.120000
  0
LINE
  8
200
  6
CONTINUOUS
 10
40.483133
 20
-7.356416
 30
0.0
 11
40.258133
 21
-7.356416
 31
0.0
  0
LINE
  8
200
  6
CONTINUOUS
 10
40.258133
 20
-7.356416
 30
0.0
 11
32.894133
 21
-7.356416
 31
0.0
  0
LINE
  8
200
  6
CONTINUOUS
 10
39.458133
 20
-7.570776
 30
0.0
 11
40.258133
 21
-7.356416
 31
0.0
  0
LINE
  8
200
  6
CONTINUOUS
 10
40.258133
 20
-7.356416
 30
0.0
 11
39.458133
 21
-7.142057
 31
0.0
  0
TEXT
  8
200
  6
CONTINUOUS
 10
32.894133
 20
-7.356416
 30
0.0
 40
1.520000
  7
CSTEXT
  1
ÇOÅDÇSÇT
 41
0.800000
 72
     5
 11
37.758133
 21
-7.356416
 31
0.0
  0
LINE
  8
200
  6
CONTINUOUS
 10
41.158133
 20
17.627254
 30
0.0
 11
41.158133
 21
-8.156416
 31
0.0
  0
LINE
  8
200
  6
CONTINUOUS
 10
40.708133
 20
17.925684
 30
0.0
 11
40.708133
 21
-8.156416
 31
0.0
  0
LINE
  8
200
  6
CONTINUOUS
 10
40.933133
 20
-7.356416
 30
0.0
 11
41.158133
 21
-7.356416
 31
0.0
  0
LINE
  8
200
  6
CONTINUOUS
 10
41.158133
 20
-7.356416
 30
0.0
 11
48.522133
 21
-7.356416
 31
0.0
  0
LINE
  8
200
  6
CONTINUOUS
 10
41.958133
 20
-7.142057
 30
0.0
 11
41.158133
 21
-7.356416
 31
0.0
  0
LINE
  8
200
  6
CONTINUOUS
 10
41.158133
 20
-7.356416
 30
0.0
 11
41.958133
 21
-7.570776
 31
0.0
  0
LINE
  8
200
  6
CONTINUOUS
 10
40.933133
 20
-7.356416
 30
0.0
 11
40.708133
 21
-7.356416
 31
0.0
  0
LINE
  8
200
  6
CONTINUOUS
 10
40.708133
 20
-7.356416
 30
0.0
 11
38.608133
 21
-7.356416
 31
0.0
  0
CIRCLE
  8
200
  6
CONTINUOUS
 10
40.708133
 20
-7.356416
 30
0.0
 40
0.120000
  0
TEXT
  8
200
  6
CONTINUOUS
 10
43.658133
 20
-7.356416
 30
0.0
 40
1.520000
  7
CSTEXT
  1
ÇOÅDÇSÇT
 41
0.800000
 72
     5
 11
48.522133
 21
-7.356416
 31
0.0
  0
POINT
  8
200
 10
35.509623
 20
-4.430439
 30
0.0
  0
POINT
  8
200
 10
35.509623
 20
-4.430439
 30
0.0
  0
LINE
  8
200
  6
CONTINUOUS
 10
29.008133
 20
17.627254
 30
0.0
 11
29.008133
 21
-3.016973
 31
0.0
  0
LINE
  8
200
  6
CONTINUOUS
 10
27.283133
 20
17.435192
 30
0.0
 11
27.283133
 21
-3.016973
 31
0.0
  0
LINE
  8
200
  6
CONTINUOUS
 10
28.145633
 20
-2.216973
 30
0.0
 11
29.008133
 21
-2.216973
 31
0.0
  0
LINE
  8
200
  6
CONTINUOUS
 10
29.008133
 20
-2.216973
 30
0.0
 11
31.108133
 21
-2.216973
 31
0.0
  0
CIRCLE
  8
200
  6
CONTINUOUS
 10
29.008133
 20
-2.216973
 30
0.0
 40
0.120000
  0
LINE
  8
200
  6
CONTINUOUS
 10
28.145633
 20
-2.216973
 30
0.0
 11
27.283133
 21
-2.216973
 31
0.0
  0
LINE
  8
200
  6
CONTINUOUS
 10
27.283133
 20
-2.216973
 30
0.0
 11
18.703133
 21
-2.216973
 31
0.0
  0
LINE
  8
200
  6
CONTINUOUS
 10
26.483133
 20
-2.431332
 30
0.0
 11
27.283133
 21
-2.216973
 31
0.0
  0
LINE
  8
200
  6
CONTINUOUS
 10
27.283133
 20
-2.216973
 30
0.0
 11
26.483133
 21
-2.002613
 31
0.0
  0
TEXT
  8
200
  6
CONTINUOUS
 10
18.703133
 20
-2.216973
 30
0.0
 40
1.520000
  7
CSTEXT
  1
ÇPÅDÇVÇQÇT
 41
0.800000
 72
     5
 11
24.783133
 21
-2.216973
 31
0.0
  0
ARC
  8
200
  6
CONTINUOUS
 10
45.533133
 20
17.927254
 30
0.0
 40
0.500000
 50
361.673247
 51
476.593469
  0
LINE
  8
200
  6
CONTINUOUS
 10
45.533133
 20
17.927254
 30
0.0
 11
45.986581
 21
18.137932
 31
0.0
  0
LINE
  8
200
  6
CONTINUOUS
 10
45.986581
 20
18.137932
 30
0.0
 11
54.870528
 21
22.265535
 31
0.0
  0
LINE
  8
200
  6
CONTINUOUS
 10
46.621776
 20
18.669418
 30
0.0
 11
45.986581
 21
18.137932
 31
0.0
  0
LINE
  8
200
  6
CONTINUOUS
 10
45.986581
 20
18.137932
 30
0.0
 11
46.802419
 21
18.280615
 31
0.0
  0
TEXT
  8
200
  6
CONTINUOUS
 10
48.253820
 20
19.191322
 30
0.0
 40
1.520000
  7
CSTEXT
  1
ÇQÅ~
 50
24.920222
 41
0.800000
 72
     5
 11
50.459389
 21
20.216060
 31
0.0
  0
TEXT
  8
200
  6
CONTINUOUS
 10
50.459389
 20
20.216060
 30
0.0
 40
1.520000
  7
CSTEXT
  1
ÇqÇOÅDÇT
 50
24.920222
 41
0.800000
 72
     5
 11
54.870528
 21
22.265535
 31
0.0
  0
ENDSEC
  0
EOF
