G04 #@! TF.GenerationSoftware,KiCad,Pcbnew,8.0.2-1*
G04 #@! TF.CreationDate,2024-07-25T16:39:03+09:00*
G04 #@! TF.ProjectId,leafony-lora-abz_Panelized_Ver1.2,6c656166-6f6e-4792-9d6c-6f72612d6162,rev?*
G04 #@! TF.SameCoordinates,PX4a62f80PY7829b80*
G04 #@! TF.FileFunction,Profile,NP*
%FSLAX46Y46*%
G04 Gerber Fmt 4.6, Leading zero omitted, Abs format (unit mm)*
G04 Created by KiCad (PCBNEW 8.0.2-1) date 2024-07-25 16:39:03*
%MOMM*%
%LPD*%
G01*
G04 APERTURE LIST*
G04 #@! TA.AperFunction,Profile*
%ADD10C,0.150000*%
G04 #@! TD*
G04 APERTURE END LIST*
D10*
X8000000Y39000000D02*
X6000000Y39000000D01*
X29000000Y36000000D02*
G75*
G02*
X30000000Y37000000I1000000J0D01*
G01*
X29000000Y66000000D02*
X29000000Y47000000D01*
X74000000Y46000000D02*
G75*
G02*
X73000000Y47000000I0J1000000D01*
G01*
X26000000Y10000000D02*
X30000000Y10000000D01*
X52000000Y12000000D02*
G75*
G02*
X51000000Y13000000I0J1000000D01*
G01*
X73000000Y36000000D02*
X73000000Y33000000D01*
X93000000Y32000000D02*
X93000000Y13000000D01*
X74000000Y12000000D02*
G75*
G02*
X74000000Y10000000I0J-1000000D01*
G01*
X74000000Y46000000D02*
G75*
G02*
X74000000Y44000000I0J-1000000D01*
G01*
X70000000Y10000000D02*
X74000000Y10000000D01*
X73000000Y36000000D02*
G75*
G02*
X74000000Y37000000I1000000J0D01*
G01*
X70000000Y10000000D02*
G75*
G02*
X70000000Y12000000I0J1000000D01*
G01*
X94000000Y73000000D02*
G75*
G02*
X95000000Y72000000I0J-1000000D01*
G01*
X5000000Y72000000D02*
G75*
G02*
X6000000Y73000000I1000000J0D01*
G01*
X0Y3000000D02*
X0Y80000000D01*
X71000000Y32000000D02*
G75*
G02*
X71000000Y33000000I0J500000D01*
G01*
X29000000Y36000000D02*
X29000000Y33000000D01*
X92000000Y37000000D02*
G75*
G02*
X92000000Y39000000I0J1000000D01*
G01*
X73000000Y33000000D02*
G75*
G02*
X73000000Y32000000I0J-500000D01*
G01*
X48000000Y71000000D02*
G75*
G02*
X49000000Y70000000I0J-1000000D01*
G01*
X26000000Y71000000D02*
G75*
G02*
X26000000Y73000000I0J1000000D01*
G01*
X93000000Y70000000D02*
X93000000Y67000000D01*
X94000000Y73000000D02*
X92000000Y73000000D01*
X94000000Y39000000D02*
G75*
G02*
X95000000Y38000000I0J-1000000D01*
G01*
X93000000Y36000000D02*
X93000000Y33000000D01*
X48000000Y37000000D02*
G75*
G02*
X48000000Y39000000I0J1000000D01*
G01*
X93000000Y66000000D02*
G75*
G02*
X93000000Y67000000I0J500000D01*
G01*
X8000000Y46000000D02*
G75*
G02*
X8000000Y44000000I0J-1000000D01*
G01*
X100000000Y80000000D02*
X100000000Y3000000D01*
X92000000Y37000000D02*
G75*
G02*
X93000000Y36000000I0J-1000000D01*
G01*
X6000000Y10000000D02*
X8000000Y10000000D01*
X74000000Y73000000D02*
G75*
G02*
X74000000Y71000000I0J-1000000D01*
G01*
X26000000Y44000000D02*
X30000000Y44000000D01*
X70000000Y37000000D02*
G75*
G02*
X70000000Y39000000I0J1000000D01*
G01*
X73000000Y70000000D02*
X73000000Y67000000D01*
X7000000Y36000000D02*
G75*
G02*
X8000000Y37000000I1000000J0D01*
G01*
X7000000Y33000000D02*
G75*
G02*
X7000000Y32000000I0J-500000D01*
G01*
X71000000Y32000000D02*
X71000000Y13000000D01*
X0Y80000000D02*
G75*
G02*
X3000000Y83000000I3000000J0D01*
G01*
X95000000Y11000000D02*
X95000000Y38000000D01*
X70000000Y71000000D02*
G75*
G02*
X71000000Y70000000I0J-1000000D01*
G01*
X51000000Y67000000D02*
G75*
G02*
X51000000Y66000000I0J-500000D01*
G01*
X8000000Y46000000D02*
G75*
G02*
X7000000Y47000000I0J1000000D01*
G01*
X93000000Y13000000D02*
G75*
G02*
X92000000Y12000000I-1000000J0D01*
G01*
X100000000Y3000000D02*
G75*
G02*
X97000000Y0I-3000000J0D01*
G01*
X70000000Y71000000D02*
G75*
G02*
X70000000Y73000000I0J1000000D01*
G01*
X48000000Y37000000D02*
G75*
G02*
X49000000Y36000000I0J-1000000D01*
G01*
X6000000Y44000000D02*
X8000000Y44000000D01*
X74000000Y12000000D02*
G75*
G02*
X73000000Y13000000I0J1000000D01*
G01*
X92000000Y10000000D02*
X94000000Y10000000D01*
X51000000Y70000000D02*
X51000000Y67000000D01*
X52000000Y73000000D02*
X48000000Y73000000D01*
X51000000Y32000000D02*
X51000000Y13000000D01*
X8000000Y73000000D02*
X6000000Y73000000D01*
X52000000Y73000000D02*
G75*
G02*
X52000000Y71000000I0J-1000000D01*
G01*
X52000000Y46000000D02*
G75*
G02*
X51000000Y47000000I0J1000000D01*
G01*
X7000000Y66000000D02*
X7000000Y47000000D01*
X8000000Y39000000D02*
G75*
G02*
X8000000Y37000000I0J-1000000D01*
G01*
X29000000Y32000000D02*
X29000000Y13000000D01*
X29000000Y67000000D02*
G75*
G02*
X29000000Y66000000I0J-500000D01*
G01*
X94000000Y39000000D02*
X92000000Y39000000D01*
X48000000Y44000000D02*
G75*
G02*
X48000000Y46000000I0J1000000D01*
G01*
X70000000Y44000000D02*
G75*
G02*
X70000000Y46000000I0J1000000D01*
G01*
X73000000Y66000000D02*
X73000000Y47000000D01*
X51000000Y36000000D02*
X51000000Y33000000D01*
X48000000Y71000000D02*
G75*
G02*
X48000000Y73000000I0J1000000D01*
G01*
X30000000Y12000000D02*
G75*
G02*
X29000000Y13000000I0J1000000D01*
G01*
X95000000Y45000000D02*
G75*
G02*
X94000000Y44000000I-1000000J0D01*
G01*
X27000000Y32000000D02*
G75*
G02*
X27000000Y33000000I0J500000D01*
G01*
X49000000Y70000000D02*
X49000000Y67000000D01*
X73000000Y70000000D02*
G75*
G02*
X74000000Y71000000I1000000J0D01*
G01*
X73000000Y32000000D02*
X73000000Y13000000D01*
X51000000Y66000000D02*
X51000000Y47000000D01*
X26000000Y10000000D02*
G75*
G02*
X26000000Y12000000I0J1000000D01*
G01*
X30000000Y73000000D02*
G75*
G02*
X30000000Y71000000I0J-1000000D01*
G01*
X49000000Y32000000D02*
G75*
G02*
X49000000Y33000000I0J500000D01*
G01*
X92000000Y10000000D02*
G75*
G02*
X92000000Y12000000I0J1000000D01*
G01*
X30000000Y73000000D02*
X26000000Y73000000D01*
X97000000Y83000000D02*
G75*
G02*
X100000000Y80000000I0J-3000000D01*
G01*
X49000000Y66000000D02*
X49000000Y47000000D01*
X51000000Y36000000D02*
G75*
G02*
X52000000Y37000000I1000000J0D01*
G01*
X49000000Y32000000D02*
X49000000Y13000000D01*
X70000000Y37000000D02*
G75*
G02*
X71000000Y36000000I0J-1000000D01*
G01*
X7000000Y70000000D02*
G75*
G02*
X8000000Y71000000I1000000J0D01*
G01*
X74000000Y39000000D02*
G75*
G02*
X74000000Y37000000I0J-1000000D01*
G01*
X27000000Y66000000D02*
G75*
G02*
X27000000Y67000000I0J500000D01*
G01*
X49000000Y36000000D02*
X49000000Y33000000D01*
X51000000Y33000000D02*
G75*
G02*
X51000000Y32000000I0J-500000D01*
G01*
X93000000Y66000000D02*
X93000000Y47000000D01*
X92000000Y44000000D02*
G75*
G02*
X92000000Y46000000I0J1000000D01*
G01*
X8000000Y12000000D02*
G75*
G02*
X7000000Y13000000I0J1000000D01*
G01*
X6000000Y44000000D02*
G75*
G02*
X5000000Y45000000I0J1000000D01*
G01*
X71000000Y47000000D02*
G75*
G02*
X70000000Y46000000I-1000000J0D01*
G01*
X27000000Y66000000D02*
X27000000Y47000000D01*
X29000000Y33000000D02*
G75*
G02*
X29000000Y32000000I0J-500000D01*
G01*
X73000000Y67000000D02*
G75*
G02*
X73000000Y66000000I0J-500000D01*
G01*
X6000000Y10000000D02*
G75*
G02*
X5000000Y11000000I0J1000000D01*
G01*
X29000000Y70000000D02*
X29000000Y67000000D01*
X3000000Y83000000D02*
X97000000Y83000000D01*
X7000000Y67000000D02*
G75*
G02*
X7000000Y66000000I0J-500000D01*
G01*
X71000000Y70000000D02*
X71000000Y67000000D01*
X48000000Y10000000D02*
G75*
G02*
X48000000Y12000000I0J1000000D01*
G01*
X5000000Y38000000D02*
G75*
G02*
X6000000Y39000000I1000000J0D01*
G01*
X30000000Y39000000D02*
G75*
G02*
X30000000Y37000000I0J-1000000D01*
G01*
X52000000Y12000000D02*
G75*
G02*
X52000000Y10000000I0J-1000000D01*
G01*
X97000000Y0D02*
X3000000Y0D01*
X70000000Y44000000D02*
X74000000Y44000000D01*
X30000000Y46000000D02*
G75*
G02*
X29000000Y47000000I0J1000000D01*
G01*
X3000000Y0D02*
G75*
G02*
X0Y3000000I0J3000000D01*
G01*
X52000000Y46000000D02*
G75*
G02*
X52000000Y44000000I0J-1000000D01*
G01*
X49000000Y47000000D02*
G75*
G02*
X48000000Y46000000I-1000000J0D01*
G01*
X27000000Y47000000D02*
G75*
G02*
X26000000Y46000000I-1000000J0D01*
G01*
X95000000Y45000000D02*
X95000000Y72000000D01*
X26000000Y37000000D02*
G75*
G02*
X27000000Y36000000I0J-1000000D01*
G01*
X8000000Y73000000D02*
G75*
G02*
X8000000Y71000000I0J-1000000D01*
G01*
X26000000Y44000000D02*
G75*
G02*
X26000000Y46000000I0J1000000D01*
G01*
X5000000Y72000000D02*
X5000000Y45000000D01*
X49000000Y13000000D02*
G75*
G02*
X48000000Y12000000I-1000000J0D01*
G01*
X27000000Y32000000D02*
X27000000Y13000000D01*
X49000000Y66000000D02*
G75*
G02*
X49000000Y67000000I0J500000D01*
G01*
X92000000Y44000000D02*
X94000000Y44000000D01*
X71000000Y13000000D02*
G75*
G02*
X70000000Y12000000I-1000000J0D01*
G01*
X74000000Y39000000D02*
X70000000Y39000000D01*
X71000000Y66000000D02*
G75*
G02*
X71000000Y67000000I0J500000D01*
G01*
X5000000Y38000000D02*
X5000000Y11000000D01*
X92000000Y71000000D02*
G75*
G02*
X92000000Y73000000I0J1000000D01*
G01*
X30000000Y39000000D02*
X26000000Y39000000D01*
X48000000Y10000000D02*
X52000000Y10000000D01*
X26000000Y71000000D02*
G75*
G02*
X27000000Y70000000I0J-1000000D01*
G01*
X7000000Y36000000D02*
X7000000Y33000000D01*
X93000000Y32000000D02*
G75*
G02*
X93000000Y33000000I0J500000D01*
G01*
X7000000Y32000000D02*
X7000000Y13000000D01*
X26000000Y37000000D02*
G75*
G02*
X26000000Y39000000I0J1000000D01*
G01*
X7000000Y70000000D02*
X7000000Y67000000D01*
X27000000Y36000000D02*
X27000000Y33000000D01*
X93000000Y47000000D02*
G75*
G02*
X92000000Y46000000I-1000000J0D01*
G01*
X52000000Y39000000D02*
G75*
G02*
X52000000Y37000000I0J-1000000D01*
G01*
X95000000Y11000000D02*
G75*
G02*
X94000000Y10000000I-1000000J0D01*
G01*
X74000000Y73000000D02*
X70000000Y73000000D01*
X27000000Y70000000D02*
X27000000Y67000000D01*
X71000000Y66000000D02*
X71000000Y47000000D01*
X8000000Y12000000D02*
G75*
G02*
X8000000Y10000000I0J-1000000D01*
G01*
X52000000Y39000000D02*
X48000000Y39000000D01*
X30000000Y12000000D02*
G75*
G02*
X30000000Y10000000I0J-1000000D01*
G01*
X48000000Y44000000D02*
X52000000Y44000000D01*
X92000000Y71000000D02*
G75*
G02*
X93000000Y70000000I0J-1000000D01*
G01*
X71000000Y36000000D02*
X71000000Y33000000D01*
X51000000Y70000000D02*
G75*
G02*
X52000000Y71000000I1000000J0D01*
G01*
X29000000Y70000000D02*
G75*
G02*
X30000000Y71000000I1000000J0D01*
G01*
X30000000Y46000000D02*
G75*
G02*
X30000000Y44000000I0J-1000000D01*
G01*
X27000000Y13000000D02*
G75*
G02*
X26000000Y12000000I-1000000J0D01*
G01*
M02*
