M48
; DRILL file {KiCad 8.0.2-1} date 2024-07-25T16:39:09+0900
; FORMAT={-:-/ absolute / inch / decimal}
; #@! TF.CreationDate,2024-07-25T16:39:09+09:00
; #@! TF.GenerationSoftware,Kicad,Pcbnew,8.0.2-1
; #@! TF.FileFunction,Plated,1,4,PTH
FMAT,2
INCH
; #@! TA.AperFunction,Plated,PTH,ViaDrill
T1C0.0079
; #@! TA.AperFunction,Plated,PTH,ViaDrill
T2C0.0118
; #@! TA.AperFunction,Plated,PTH,ViaDrill
T3C0.0197
%
G90
G05
T1
X0.3071Y2.3785
X0.3071Y2.3583
X0.3071Y2.3386
X0.3071Y2.3189
X0.3071Y1.0399
X0.3071Y1.0197
X0.3071Y1.0
X0.3071Y0.9803
X0.3189Y2.5748
X0.3189Y2.2644
X0.3189Y2.2441
X0.3189Y1.2362
X0.3189Y0.9258
X0.3189Y0.9055
X0.3228Y2.4691
X0.3228Y2.4488
X0.3228Y2.189
X0.3228Y2.1654
X0.3228Y2.0866
X0.3228Y2.0079
X0.3228Y1.9291
X0.3228Y1.8504
X0.3228Y1.1305
X0.3228Y1.1102
X0.3228Y0.8504
X0.3228Y0.8268
X0.3228Y0.748
X0.3228Y0.6693
X0.3228Y0.5906
X0.3228Y0.5118
X0.3425Y2.5748
X0.3425Y1.2362
X0.3543Y2.126
X0.3543Y2.0472
X0.3543Y1.9685
X0.3543Y1.8898
X0.3543Y0.7874
X0.3543Y0.7087
X0.3543Y0.6299
X0.3543Y0.5512
X0.3661Y2.5748
X0.3661Y1.2362
X0.3858Y2.0866
X0.3858Y2.0079
X0.3858Y1.9291
X0.3858Y1.8504
X0.3858Y0.748
X0.3858Y0.6693
X0.3858Y0.5906
X0.3858Y0.5118
X0.3898Y2.5748
X0.3898Y1.2362
X0.4055Y2.2598
X0.4055Y0.9213
X0.4094Y2.3307
X0.4094Y0.9921
X0.4173Y1.8898
X0.4173Y0.5512
X0.4488Y1.9291
X0.4488Y1.8504
X0.4488Y0.5906
X0.4488Y0.5118
X0.4567Y2.0709
X0.4567Y0.7323
X0.4764Y2.3957
X0.4764Y2.372
X0.4764Y2.2717
X0.4764Y2.248
X0.4764Y1.0571
X0.4764Y1.0335
X0.4764Y0.9331
X0.4764Y0.9094
X0.4803Y1.8898
X0.4803Y0.5512
X0.4823Y2.5866
X0.4823Y2.5664
X0.4823Y1.248
X0.4823Y1.2278
X0.5118Y1.9291
X0.5118Y1.8504
X0.5118Y0.5906
X0.5118Y0.5118
X0.5138Y2.0157
X0.5138Y0.6772
X0.5354Y2.0394
X0.5354Y0.7008
X0.5433Y1.8898
X0.5433Y0.5512
X0.5512Y2.3583
X0.5512Y2.2913
X0.5512Y2.2598
X0.5512Y2.1929
X0.5512Y2.1614
X0.5512Y1.0197
X0.5512Y0.9528
X0.5512Y0.9213
X0.5512Y0.8543
X0.5512Y0.8228
X0.5669Y2.374
X0.5669Y2.2756
X0.5669Y2.1772
X0.5669Y1.0354
X0.5669Y0.937
X0.5669Y0.8386
X0.5748Y1.9291
X0.5748Y1.8504
X0.5748Y0.5906
X0.5748Y0.5118
X0.5827Y2.3898
X0.5827Y2.3583
X0.5827Y2.2913
X0.5827Y2.2598
X0.5827Y2.1929
X0.5827Y2.1614
X0.5827Y1.0512
X0.5827Y1.0197
X0.5827Y0.9528
X0.5827Y0.9213
X0.5827Y0.8543
X0.5827Y0.8228
X0.5846Y2.5217
X0.5846Y1.1831
X0.5984Y2.0433
X0.5984Y0.7047
X0.6063Y1.8898
X0.6063Y0.5512
X0.6083Y2.5217
X0.6083Y1.1831
X0.622Y2.1102
X0.622Y2.0276
X0.622Y0.7717
X0.622Y0.689
X0.6299Y2.5827
X0.6299Y1.2441
X0.6378Y1.9291
X0.6378Y1.8504
X0.6378Y0.5906
X0.6378Y0.5118
X0.6496Y2.5079
X0.6496Y2.3898
X0.6496Y2.3583
X0.6496Y2.2913
X0.6496Y2.2598
X0.6496Y2.1929
X0.6496Y2.1614
X0.6496Y1.1693
X0.6496Y1.0512
X0.6496Y1.0197
X0.6496Y0.9528
X0.6496Y0.9213
X0.6496Y0.8543
X0.6496Y0.8228
X0.655Y2.5274
X0.655Y1.1888
X0.6654Y2.374
X0.6654Y2.2756
X0.6654Y2.1772
X0.6654Y1.0354
X0.6654Y0.937
X0.6654Y0.8386
X0.6693Y1.8898
X0.6693Y0.5512
X0.6732Y2.0354
X0.6732Y0.6969
X0.6751Y2.5272
X0.6751Y1.1887
X0.6811Y2.5079
X0.6811Y2.3898
X0.6811Y2.3583
X0.6811Y2.2913
X0.6811Y2.2598
X0.6811Y2.1929
X0.6811Y2.1614
X0.6811Y1.1693
X0.6811Y1.0512
X0.6811Y1.0197
X0.6811Y0.9528
X0.6811Y0.9213
X0.6811Y0.8543
X0.6811Y0.8228
X0.6929Y2.1102
X0.6929Y2.0354
X0.6929Y0.7717
X0.6929Y0.6969
X0.7047Y2.5079
X0.7047Y1.1693
X0.7126Y1.9882
X0.7126Y1.9606
X0.7126Y1.9331
X0.7126Y1.9055
X0.7126Y1.878
X0.7126Y1.8504
X0.7126Y0.6496
X0.7126Y0.622
X0.7126Y0.5945
X0.7126Y0.5669
X0.7126Y0.5394
X0.7126Y0.5118
X0.7323Y2.1181
X0.7323Y0.7795
X0.7461Y2.5295
X0.7461Y2.5113
X0.7461Y1.1909
X0.7461Y1.1727
X0.748Y2.3898
X0.748Y2.3583
X0.748Y2.2913
X0.748Y2.2598
X0.748Y2.1929
X0.748Y2.1614
X0.748Y2.0315
X0.748Y1.0512
X0.748Y1.0197
X0.748Y0.9528
X0.748Y0.9213
X0.748Y0.8543
X0.748Y0.8228
X0.748Y0.6929
X0.7638Y2.374
X0.7638Y2.2756
X0.7638Y2.1772
X0.7638Y1.0354
X0.7638Y0.937
X0.7638Y0.8386
X0.7677Y2.0315
X0.7677Y0.6929
X0.7697Y2.5118
X0.7697Y1.1732
X0.7795Y2.3898
X0.7795Y2.3583
X0.7795Y2.2913
X0.7795Y2.2598
X0.7795Y2.1929
X0.7795Y2.1614
X0.7795Y1.0512
X0.7795Y1.0197
X0.7795Y0.9528
X0.7795Y0.9213
X0.7795Y0.8543
X0.7795Y0.8228
X0.8031Y2.0394
X0.8031Y0.7008
X0.8071Y2.5157
X0.8071Y1.1772
X0.811Y1.9252
X0.811Y0.5866
X0.8268Y2.5906
X0.8268Y1.252
X0.8337Y2.3189
X0.8337Y0.9803
X0.8346Y1.9252
X0.8346Y0.5866
X0.8366Y2.5118
X0.8366Y1.1732
X0.8396Y2.1313
X0.8396Y0.7927
X0.8533Y2.375
X0.8533Y1.0364
X0.8543Y2.2756
X0.8543Y2.1654
X0.8543Y0.937
X0.8543Y0.8268
X0.8583Y2.4055
X0.8583Y1.0669
X0.8622Y2.0315
X0.8622Y0.6929
X0.8661Y2.5906
X0.8661Y1.252
X0.872Y2.5079
X0.872Y2.4902
X0.872Y1.1693
X0.872Y1.1516
X0.8858Y2.0669
X0.8858Y0.7283
X0.8898Y2.0315
X0.8898Y0.6929
X0.8917Y2.4724
X0.8917Y1.1339
X0.8937Y1.878
X0.8937Y1.8504
X0.8937Y0.5394
X0.8937Y0.5118
X0.9134Y2.5453
X0.9134Y2.5236
X0.9134Y2.0748
X0.9134Y2.0551
X0.9134Y2.0315
X0.9134Y2.0079
X0.9134Y1.9843
X0.9134Y1.9606
X0.9134Y1.2067
X0.9134Y1.185
X0.9134Y0.7362
X0.9134Y0.7165
X0.9134Y0.6929
X0.9134Y0.6693
X0.9134Y0.6457
X0.9134Y0.622
X0.9173Y2.4291
X0.9173Y1.0906
X0.9201Y1.8961
X0.9201Y0.5575
X0.9291Y1.8504
X0.9291Y0.5118
X0.9331Y2.1535
X0.9331Y0.815
X0.937Y2.4016
X0.937Y2.374
X0.937Y2.3538
X0.937Y1.063
X0.937Y1.0354
X0.937Y1.0152
X0.9449Y2.2559
X0.9449Y1.9055
X0.9449Y0.9173
X0.9449Y0.5669
X0.9502Y2.1403
X0.9502Y0.8017
X0.9528Y1.878
X0.9528Y0.5394
X0.9567Y2.3538
X0.9567Y1.0152
X0.9573Y2.374
X0.9573Y1.0354
X0.9606Y1.9213
X0.9606Y0.5827
X0.9646Y2.122
X0.9646Y0.7835
X0.9724Y1.9409
X0.9724Y0.6024
X0.9764Y2.3189
X0.9764Y2.0591
X0.9764Y2.0321
X0.9764Y2.0039
X0.9764Y0.9803
X0.9764Y0.7205
X0.9764Y0.6935
X0.9764Y0.6654
X0.9803Y2.2047
X0.9803Y2.1845
X0.9803Y0.8661
X0.9803Y0.8459
X0.9843Y1.8898
X0.9843Y0.5512
X0.9882Y2.2402
X0.9882Y0.9016
X0.9921Y1.8504
X0.9921Y0.5118
X1.0Y1.9252
X1.0Y0.5866
X1.0118Y2.1024
X1.0118Y2.0827
X1.0118Y2.0315
X1.0118Y1.9843
X1.0118Y1.9601
X1.0118Y0.7638
X1.0118Y0.7441
X1.0118Y0.6929
X1.0118Y0.6457
X1.0118Y0.6215
X1.0157Y2.2402
X1.0157Y2.2199
X1.0157Y2.1996
X1.0157Y2.1794
X1.0157Y0.9016
X1.0157Y0.8813
X1.0157Y0.8611
X1.0157Y0.8408
X1.0236Y1.8898
X1.0236Y0.5512
X1.0315Y2.5709
X1.0315Y2.5315
X1.0315Y2.4921
X1.0315Y2.4528
X1.0315Y1.2323
X1.0315Y1.1929
X1.0315Y1.1535
X1.0315Y1.1142
X1.1732Y2.3785
X1.1732Y2.3583
X1.1732Y2.3386
X1.1732Y2.3189
X1.1732Y1.0399
X1.1732Y1.0197
X1.1732Y1.0
X1.1732Y0.9803
X1.185Y2.5748
X1.185Y2.2644
X1.185Y2.2441
X1.185Y1.2362
X1.185Y0.9258
X1.185Y0.9055
X1.189Y2.4691
X1.189Y2.4488
X1.189Y2.189
X1.189Y2.1654
X1.189Y2.0866
X1.189Y2.0079
X1.189Y1.9291
X1.189Y1.8504
X1.189Y1.1305
X1.189Y1.1102
X1.189Y0.8504
X1.189Y0.8268
X1.189Y0.748
X1.189Y0.6693
X1.189Y0.5906
X1.189Y0.5118
X1.2087Y2.5748
X1.2087Y1.2362
X1.2205Y2.126
X1.2205Y2.0472
X1.2205Y1.9685
X1.2205Y1.8898
X1.2205Y0.7874
X1.2205Y0.7087
X1.2205Y0.6299
X1.2205Y0.5512
X1.2323Y2.5748
X1.2323Y1.2362
X1.252Y2.0866
X1.252Y2.0079
X1.252Y1.9291
X1.252Y1.8504
X1.252Y0.748
X1.252Y0.6693
X1.252Y0.5906
X1.252Y0.5118
X1.2559Y2.5748
X1.2559Y1.2362
X1.2717Y2.2598
X1.2717Y0.9213
X1.2756Y2.3307
X1.2756Y0.9921
X1.2835Y1.8898
X1.2835Y0.5512
X1.315Y1.9291
X1.315Y1.8504
X1.315Y0.5906
X1.315Y0.5118
X1.3228Y2.0709
X1.3228Y0.7323
X1.3425Y2.3957
X1.3425Y2.372
X1.3425Y2.2717
X1.3425Y2.248
X1.3425Y1.0571
X1.3425Y1.0335
X1.3425Y0.9331
X1.3425Y0.9094
X1.3465Y1.8898
X1.3465Y0.5512
X1.3484Y2.5866
X1.3484Y2.5664
X1.3484Y1.248
X1.3484Y1.2278
X1.378Y1.9291
X1.378Y1.8504
X1.378Y0.5906
X1.378Y0.5118
X1.3799Y2.0157
X1.3799Y0.6772
X1.4016Y2.0394
X1.4016Y0.7008
X1.4094Y1.8898
X1.4094Y0.5512
X1.4173Y2.3583
X1.4173Y2.2913
X1.4173Y2.2598
X1.4173Y2.1929
X1.4173Y2.1614
X1.4173Y1.0197
X1.4173Y0.9528
X1.4173Y0.9213
X1.4173Y0.8543
X1.4173Y0.8228
X1.4331Y2.374
X1.4331Y2.2756
X1.4331Y2.1772
X1.4331Y1.0354
X1.4331Y0.937
X1.4331Y0.8386
X1.4409Y1.9291
X1.4409Y1.8504
X1.4409Y0.5906
X1.4409Y0.5118
X1.4488Y2.3898
X1.4488Y2.3583
X1.4488Y2.2913
X1.4488Y2.2598
X1.4488Y2.1929
X1.4488Y2.1614
X1.4488Y1.0512
X1.4488Y1.0197
X1.4488Y0.9528
X1.4488Y0.9213
X1.4488Y0.8543
X1.4488Y0.8228
X1.4508Y2.5217
X1.4508Y1.1831
X1.4646Y2.0433
X1.4646Y0.7047
X1.4724Y1.8898
X1.4724Y0.5512
X1.4744Y2.5217
X1.4744Y1.1831
X1.4882Y2.1102
X1.4882Y2.0276
X1.4882Y0.7717
X1.4882Y0.689
X1.4961Y2.5827
X1.4961Y1.2441
X1.5039Y1.9291
X1.5039Y1.8504
X1.5039Y0.5906
X1.5039Y0.5118
X1.5157Y2.5079
X1.5157Y2.3898
X1.5157Y2.3583
X1.5157Y2.2913
X1.5157Y2.2598
X1.5157Y2.1929
X1.5157Y2.1614
X1.5157Y1.1693
X1.5157Y1.0512
X1.5157Y1.0197
X1.5157Y0.9528
X1.5157Y0.9213
X1.5157Y0.8543
X1.5157Y0.8228
X1.5211Y2.5274
X1.5211Y1.1888
X1.5315Y2.374
X1.5315Y2.2756
X1.5315Y2.1772
X1.5315Y1.0354
X1.5315Y0.937
X1.5315Y0.8386
X1.5354Y1.8898
X1.5354Y0.5512
X1.5394Y2.0354
X1.5394Y0.6969
X1.5413Y2.5272
X1.5413Y1.1887
X1.5472Y2.5079
X1.5472Y2.3898
X1.5472Y2.3583
X1.5472Y2.2913
X1.5472Y2.2598
X1.5472Y2.1929
X1.5472Y2.1614
X1.5472Y1.1693
X1.5472Y1.0512
X1.5472Y1.0197
X1.5472Y0.9528
X1.5472Y0.9213
X1.5472Y0.8543
X1.5472Y0.8228
X1.5591Y2.1102
X1.5591Y2.0354
X1.5591Y0.7717
X1.5591Y0.6969
X1.5709Y2.5079
X1.5709Y1.1693
X1.5787Y1.9882
X1.5787Y1.9606
X1.5787Y1.9331
X1.5787Y1.9055
X1.5787Y1.878
X1.5787Y1.8504
X1.5787Y0.6496
X1.5787Y0.622
X1.5787Y0.5945
X1.5787Y0.5669
X1.5787Y0.5394
X1.5787Y0.5118
X1.5984Y2.1181
X1.5984Y0.7795
X1.6122Y2.5295
X1.6122Y2.5113
X1.6122Y1.1909
X1.6122Y1.1727
X1.6142Y2.3898
X1.6142Y2.3583
X1.6142Y2.2913
X1.6142Y2.2598
X1.6142Y2.1929
X1.6142Y2.1614
X1.6142Y2.0315
X1.6142Y1.0512
X1.6142Y1.0197
X1.6142Y0.9528
X1.6142Y0.9213
X1.6142Y0.8543
X1.6142Y0.8228
X1.6142Y0.6929
X1.6299Y2.374
X1.6299Y2.2756
X1.6299Y2.1772
X1.6299Y1.0354
X1.6299Y0.937
X1.6299Y0.8386
X1.6339Y2.0315
X1.6339Y0.6929
X1.6358Y2.5118
X1.6358Y1.1732
X1.6457Y2.3898
X1.6457Y2.3583
X1.6457Y2.2913
X1.6457Y2.2598
X1.6457Y2.1929
X1.6457Y2.1614
X1.6457Y1.0512
X1.6457Y1.0197
X1.6457Y0.9528
X1.6457Y0.9213
X1.6457Y0.8543
X1.6457Y0.8228
X1.6693Y2.0394
X1.6693Y0.7008
X1.6732Y2.5157
X1.6732Y1.1772
X1.6772Y1.9252
X1.6772Y0.5866
X1.6929Y2.5906
X1.6929Y1.252
X1.6998Y2.3189
X1.6998Y0.9803
X1.7008Y1.9252
X1.7008Y0.5866
X1.7028Y2.5118
X1.7028Y1.1732
X1.7057Y2.1313
X1.7057Y0.7927
X1.7195Y2.375
X1.7195Y1.0364
X1.7205Y2.2756
X1.7205Y2.1654
X1.7205Y0.937
X1.7205Y0.8268
X1.7244Y2.4055
X1.7244Y1.0669
X1.7283Y2.0315
X1.7283Y0.6929
X1.7323Y2.5906
X1.7323Y1.252
X1.7382Y2.5079
X1.7382Y2.4902
X1.7382Y1.1693
X1.7382Y1.1516
X1.752Y2.0669
X1.752Y0.7283
X1.7559Y2.0315
X1.7559Y0.6929
X1.7579Y2.4724
X1.7579Y1.1339
X1.7598Y1.878
X1.7598Y1.8504
X1.7598Y0.5394
X1.7598Y0.5118
X1.7795Y2.5453
X1.7795Y2.5236
X1.7795Y2.0748
X1.7795Y2.0551
X1.7795Y2.0315
X1.7795Y2.0079
X1.7795Y1.9843
X1.7795Y1.9606
X1.7795Y1.2067
X1.7795Y1.185
X1.7795Y0.7362
X1.7795Y0.7165
X1.7795Y0.6929
X1.7795Y0.6693
X1.7795Y0.6457
X1.7795Y0.622
X1.7835Y2.4291
X1.7835Y1.0906
X1.7862Y1.8961
X1.7862Y0.5575
X1.7953Y1.8504
X1.7953Y0.5118
X1.7992Y2.1535
X1.7992Y0.815
X1.8031Y2.4016
X1.8031Y2.374
X1.8031Y2.3538
X1.8031Y1.063
X1.8031Y1.0354
X1.8031Y1.0152
X1.811Y2.2559
X1.811Y1.9055
X1.811Y0.9173
X1.811Y0.5669
X1.8164Y2.1403
X1.8164Y0.8017
X1.8189Y1.878
X1.8189Y0.5394
X1.8228Y2.3538
X1.8228Y1.0152
X1.8234Y2.374
X1.8234Y1.0354
X1.8268Y1.9213
X1.8268Y0.5827
X1.8307Y2.122
X1.8307Y0.7835
X1.8386Y1.9409
X1.8386Y0.6024
X1.8425Y2.3189
X1.8425Y2.0591
X1.8425Y2.0321
X1.8425Y2.0039
X1.8425Y0.9803
X1.8425Y0.7205
X1.8425Y0.6935
X1.8425Y0.6654
X1.8465Y2.2047
X1.8465Y2.1845
X1.8465Y0.8661
X1.8465Y0.8459
X1.8504Y1.8898
X1.8504Y0.5512
X1.8543Y2.2402
X1.8543Y0.9016
X1.8583Y1.8504
X1.8583Y0.5118
X1.8661Y1.9252
X1.8661Y0.5866
X1.878Y2.1024
X1.878Y2.0827
X1.878Y2.0315
X1.878Y1.9843
X1.878Y1.9601
X1.878Y0.7638
X1.878Y0.7441
X1.878Y0.6929
X1.878Y0.6457
X1.878Y0.6215
X1.8819Y2.2402
X1.8819Y2.2199
X1.8819Y2.1996
X1.8819Y2.1794
X1.8819Y0.9016
X1.8819Y0.8813
X1.8819Y0.8611
X1.8819Y0.8408
X1.8898Y1.8898
X1.8898Y0.5512
X1.8976Y2.5709
X1.8976Y2.5315
X1.8976Y2.4921
X1.8976Y2.4528
X1.8976Y1.2323
X1.8976Y1.1929
X1.8976Y1.1535
X1.8976Y1.1142
X2.0394Y2.3785
X2.0394Y2.3583
X2.0394Y2.3386
X2.0394Y2.3189
X2.0394Y1.0399
X2.0394Y1.0197
X2.0394Y1.0
X2.0394Y0.9803
X2.0512Y2.5748
X2.0512Y2.2644
X2.0512Y2.2441
X2.0512Y1.2362
X2.0512Y0.9258
X2.0512Y0.9055
X2.0551Y2.4691
X2.0551Y2.4488
X2.0551Y2.189
X2.0551Y2.1654
X2.0551Y2.0866
X2.0551Y2.0079
X2.0551Y1.9291
X2.0551Y1.8504
X2.0551Y1.1305
X2.0551Y1.1102
X2.0551Y0.8504
X2.0551Y0.8268
X2.0551Y0.748
X2.0551Y0.6693
X2.0551Y0.5906
X2.0551Y0.5118
X2.0748Y2.5748
X2.0748Y1.2362
X2.0866Y2.126
X2.0866Y2.0472
X2.0866Y1.9685
X2.0866Y1.8898
X2.0866Y0.7874
X2.0866Y0.7087
X2.0866Y0.6299
X2.0866Y0.5512
X2.0984Y2.5748
X2.0984Y1.2362
X2.1181Y2.0866
X2.1181Y2.0079
X2.1181Y1.9291
X2.1181Y1.8504
X2.1181Y0.748
X2.1181Y0.6693
X2.1181Y0.5906
X2.1181Y0.5118
X2.122Y2.5748
X2.122Y1.2362
X2.1378Y2.2598
X2.1378Y0.9213
X2.1417Y2.3307
X2.1417Y0.9921
X2.1496Y1.8898
X2.1496Y0.5512
X2.1811Y1.9291
X2.1811Y1.8504
X2.1811Y0.5906
X2.1811Y0.5118
X2.189Y2.0709
X2.189Y0.7323
X2.2087Y2.3957
X2.2087Y2.372
X2.2087Y2.2717
X2.2087Y2.248
X2.2087Y1.0571
X2.2087Y1.0335
X2.2087Y0.9331
X2.2087Y0.9094
X2.2126Y1.8898
X2.2126Y0.5512
X2.2146Y2.5866
X2.2146Y2.5664
X2.2146Y1.248
X2.2146Y1.2278
X2.2441Y1.9291
X2.2441Y1.8504
X2.2441Y0.5906
X2.2441Y0.5118
X2.2461Y2.0157
X2.2461Y0.6772
X2.2677Y2.0394
X2.2677Y0.7008
X2.2756Y1.8898
X2.2756Y0.5512
X2.2835Y2.3583
X2.2835Y2.2913
X2.2835Y2.2598
X2.2835Y2.1929
X2.2835Y2.1614
X2.2835Y1.0197
X2.2835Y0.9528
X2.2835Y0.9213
X2.2835Y0.8543
X2.2835Y0.8228
X2.2992Y2.374
X2.2992Y2.2756
X2.2992Y2.1772
X2.2992Y1.0354
X2.2992Y0.937
X2.2992Y0.8386
X2.3071Y1.9291
X2.3071Y1.8504
X2.3071Y0.5906
X2.3071Y0.5118
X2.315Y2.3898
X2.315Y2.3583
X2.315Y2.2913
X2.315Y2.2598
X2.315Y2.1929
X2.315Y2.1614
X2.315Y1.0512
X2.315Y1.0197
X2.315Y0.9528
X2.315Y0.9213
X2.315Y0.8543
X2.315Y0.8228
X2.3169Y2.5217
X2.3169Y1.1831
X2.3307Y2.0433
X2.3307Y0.7047
X2.3386Y1.8898
X2.3386Y0.5512
X2.3406Y2.5217
X2.3406Y1.1831
X2.3543Y2.1102
X2.3543Y2.0276
X2.3543Y0.7717
X2.3543Y0.689
X2.3622Y2.5827
X2.3622Y1.2441
X2.3701Y1.9291
X2.3701Y1.8504
X2.3701Y0.5906
X2.3701Y0.5118
X2.3819Y2.5079
X2.3819Y2.3898
X2.3819Y2.3583
X2.3819Y2.2913
X2.3819Y2.2598
X2.3819Y2.1929
X2.3819Y2.1614
X2.3819Y1.1693
X2.3819Y1.0512
X2.3819Y1.0197
X2.3819Y0.9528
X2.3819Y0.9213
X2.3819Y0.8543
X2.3819Y0.8228
X2.3873Y2.5274
X2.3873Y1.1888
X2.3976Y2.374
X2.3976Y2.2756
X2.3976Y2.1772
X2.3976Y1.0354
X2.3976Y0.937
X2.3976Y0.8386
X2.4016Y1.8898
X2.4016Y0.5512
X2.4055Y2.0354
X2.4055Y0.6969
X2.4074Y2.5272
X2.4074Y1.1887
X2.4134Y2.5079
X2.4134Y2.3898
X2.4134Y2.3583
X2.4134Y2.2913
X2.4134Y2.2598
X2.4134Y2.1929
X2.4134Y2.1614
X2.4134Y1.1693
X2.4134Y1.0512
X2.4134Y1.0197
X2.4134Y0.9528
X2.4134Y0.9213
X2.4134Y0.8543
X2.4134Y0.8228
X2.4252Y2.1102
X2.4252Y2.0354
X2.4252Y0.7717
X2.4252Y0.6969
X2.437Y2.5079
X2.437Y1.1693
X2.4449Y1.9882
X2.4449Y1.9606
X2.4449Y1.9331
X2.4449Y1.9055
X2.4449Y1.878
X2.4449Y1.8504
X2.4449Y0.6496
X2.4449Y0.622
X2.4449Y0.5945
X2.4449Y0.5669
X2.4449Y0.5394
X2.4449Y0.5118
X2.4646Y2.1181
X2.4646Y0.7795
X2.4783Y2.5295
X2.4783Y2.5113
X2.4783Y1.1909
X2.4783Y1.1727
X2.4803Y2.3898
X2.4803Y2.3583
X2.4803Y2.2913
X2.4803Y2.2598
X2.4803Y2.1929
X2.4803Y2.1614
X2.4803Y2.0315
X2.4803Y1.0512
X2.4803Y1.0197
X2.4803Y0.9528
X2.4803Y0.9213
X2.4803Y0.8543
X2.4803Y0.8228
X2.4803Y0.6929
X2.4961Y2.374
X2.4961Y2.2756
X2.4961Y2.1772
X2.4961Y1.0354
X2.4961Y0.937
X2.4961Y0.8386
X2.5Y2.0315
X2.5Y0.6929
X2.502Y2.5118
X2.502Y1.1732
X2.5118Y2.3898
X2.5118Y2.3583
X2.5118Y2.2913
X2.5118Y2.2598
X2.5118Y2.1929
X2.5118Y2.1614
X2.5118Y1.0512
X2.5118Y1.0197
X2.5118Y0.9528
X2.5118Y0.9213
X2.5118Y0.8543
X2.5118Y0.8228
X2.5354Y2.0394
X2.5354Y0.7008
X2.5394Y2.5157
X2.5394Y1.1772
X2.5433Y1.9252
X2.5433Y0.5866
X2.5591Y2.5906
X2.5591Y1.252
X2.5659Y2.3189
X2.5659Y0.9803
X2.5669Y1.9252
X2.5669Y0.5866
X2.5689Y2.5118
X2.5689Y1.1732
X2.5719Y2.1313
X2.5719Y0.7927
X2.5856Y2.375
X2.5856Y1.0364
X2.5866Y2.2756
X2.5866Y2.1654
X2.5866Y0.937
X2.5866Y0.8268
X2.5906Y2.4055
X2.5906Y1.0669
X2.5945Y2.0315
X2.5945Y0.6929
X2.5984Y2.5906
X2.5984Y1.252
X2.6043Y2.5079
X2.6043Y2.4902
X2.6043Y1.1693
X2.6043Y1.1516
X2.6181Y2.0669
X2.6181Y0.7283
X2.622Y2.0315
X2.622Y0.6929
X2.624Y2.4724
X2.624Y1.1339
X2.626Y1.878
X2.626Y1.8504
X2.626Y0.5394
X2.626Y0.5118
X2.6457Y2.5453
X2.6457Y2.5236
X2.6457Y2.0748
X2.6457Y2.0551
X2.6457Y2.0315
X2.6457Y2.0079
X2.6457Y1.9843
X2.6457Y1.9606
X2.6457Y1.2067
X2.6457Y1.185
X2.6457Y0.7362
X2.6457Y0.7165
X2.6457Y0.6929
X2.6457Y0.6693
X2.6457Y0.6457
X2.6457Y0.622
X2.6496Y2.4291
X2.6496Y1.0906
X2.6524Y1.8961
X2.6524Y0.5575
X2.6614Y1.8504
X2.6614Y0.5118
X2.6654Y2.1535
X2.6654Y0.815
X2.6693Y2.4016
X2.6693Y2.374
X2.6693Y2.3538
X2.6693Y1.063
X2.6693Y1.0354
X2.6693Y1.0152
X2.6772Y2.2559
X2.6772Y1.9055
X2.6772Y0.9173
X2.6772Y0.5669
X2.6825Y2.1403
X2.6825Y0.8017
X2.685Y1.878
X2.685Y0.5394
X2.689Y2.3538
X2.689Y1.0152
X2.6895Y2.374
X2.6895Y1.0354
X2.6929Y1.9213
X2.6929Y0.5827
X2.6969Y2.122
X2.6969Y0.7835
X2.7047Y1.9409
X2.7047Y0.6024
X2.7087Y2.3189
X2.7087Y2.0591
X2.7087Y2.0321
X2.7087Y2.0039
X2.7087Y0.9803
X2.7087Y0.7205
X2.7087Y0.6935
X2.7087Y0.6654
X2.7126Y2.2047
X2.7126Y2.1845
X2.7126Y0.8661
X2.7126Y0.8459
X2.7165Y1.8898
X2.7165Y0.5512
X2.7205Y2.2402
X2.7205Y0.9016
X2.7244Y1.8504
X2.7244Y0.5118
X2.7323Y1.9252
X2.7323Y0.5866
X2.7441Y2.1024
X2.7441Y2.0827
X2.7441Y2.0315
X2.7441Y1.9843
X2.7441Y1.9601
X2.7441Y0.7638
X2.7441Y0.7441
X2.7441Y0.6929
X2.7441Y0.6457
X2.7441Y0.6215
X2.748Y2.2402
X2.748Y2.2199
X2.748Y2.1996
X2.748Y2.1794
X2.748Y0.9016
X2.748Y0.8813
X2.748Y0.8611
X2.748Y0.8408
X2.7559Y1.8898
X2.7559Y0.5512
X2.7638Y2.5709
X2.7638Y2.5315
X2.7638Y2.4921
X2.7638Y2.4528
X2.7638Y1.2323
X2.7638Y1.1929
X2.7638Y1.1535
X2.7638Y1.1142
X2.9055Y2.3785
X2.9055Y2.3583
X2.9055Y2.3386
X2.9055Y2.3189
X2.9055Y1.0399
X2.9055Y1.0197
X2.9055Y1.0
X2.9055Y0.9803
X2.9173Y2.5748
X2.9173Y2.2644
X2.9173Y2.2441
X2.9173Y1.2362
X2.9173Y0.9258
X2.9173Y0.9055
X2.9213Y2.4691
X2.9213Y2.4488
X2.9213Y2.189
X2.9213Y2.1654
X2.9213Y2.0866
X2.9213Y2.0079
X2.9213Y1.9291
X2.9213Y1.8504
X2.9213Y1.1305
X2.9213Y1.1102
X2.9213Y0.8504
X2.9213Y0.8268
X2.9213Y0.748
X2.9213Y0.6693
X2.9213Y0.5906
X2.9213Y0.5118
X2.9409Y2.5748
X2.9409Y1.2362
X2.9528Y2.126
X2.9528Y2.0472
X2.9528Y1.9685
X2.9528Y1.8898
X2.9528Y0.7874
X2.9528Y0.7087
X2.9528Y0.6299
X2.9528Y0.5512
X2.9646Y2.5748
X2.9646Y1.2362
X2.9843Y2.0866
X2.9843Y2.0079
X2.9843Y1.9291
X2.9843Y1.8504
X2.9843Y0.748
X2.9843Y0.6693
X2.9843Y0.5906
X2.9843Y0.5118
X2.9882Y2.5748
X2.9882Y1.2362
X3.0039Y2.2598
X3.0039Y0.9213
X3.0079Y2.3307
X3.0079Y0.9921
X3.0157Y1.8898
X3.0157Y0.5512
X3.0472Y1.9291
X3.0472Y1.8504
X3.0472Y0.5906
X3.0472Y0.5118
X3.0551Y2.0709
X3.0551Y0.7323
X3.0748Y2.3957
X3.0748Y2.372
X3.0748Y2.2717
X3.0748Y2.248
X3.0748Y1.0571
X3.0748Y1.0335
X3.0748Y0.9331
X3.0748Y0.9094
X3.0787Y1.8898
X3.0787Y0.5512
X3.0807Y2.5866
X3.0807Y2.5664
X3.0807Y1.248
X3.0807Y1.2278
X3.1102Y1.9291
X3.1102Y1.8504
X3.1102Y0.5906
X3.1102Y0.5118
X3.1122Y2.0157
X3.1122Y0.6772
X3.1339Y2.0394
X3.1339Y0.7008
X3.1417Y1.8898
X3.1417Y0.5512
X3.1496Y2.3583
X3.1496Y2.2913
X3.1496Y2.2598
X3.1496Y2.1929
X3.1496Y2.1614
X3.1496Y1.0197
X3.1496Y0.9528
X3.1496Y0.9213
X3.1496Y0.8543
X3.1496Y0.8228
X3.1654Y2.374
X3.1654Y2.2756
X3.1654Y2.1772
X3.1654Y1.0354
X3.1654Y0.937
X3.1654Y0.8386
X3.1732Y1.9291
X3.1732Y1.8504
X3.1732Y0.5906
X3.1732Y0.5118
X3.1811Y2.3898
X3.1811Y2.3583
X3.1811Y2.2913
X3.1811Y2.2598
X3.1811Y2.1929
X3.1811Y2.1614
X3.1811Y1.0512
X3.1811Y1.0197
X3.1811Y0.9528
X3.1811Y0.9213
X3.1811Y0.8543
X3.1811Y0.8228
X3.1831Y2.5217
X3.1831Y1.1831
X3.1969Y2.0433
X3.1969Y0.7047
X3.2047Y1.8898
X3.2047Y0.5512
X3.2067Y2.5217
X3.2067Y1.1831
X3.2205Y2.1102
X3.2205Y2.0276
X3.2205Y0.7717
X3.2205Y0.689
X3.2283Y2.5827
X3.2283Y1.2441
X3.2362Y1.9291
X3.2362Y1.8504
X3.2362Y0.5906
X3.2362Y0.5118
X3.248Y2.5079
X3.248Y2.3898
X3.248Y2.3583
X3.248Y2.2913
X3.248Y2.2598
X3.248Y2.1929
X3.248Y2.1614
X3.248Y1.1693
X3.248Y1.0512
X3.248Y1.0197
X3.248Y0.9528
X3.248Y0.9213
X3.248Y0.8543
X3.248Y0.8228
X3.2534Y2.5274
X3.2534Y1.1888
X3.2638Y2.374
X3.2638Y2.2756
X3.2638Y2.1772
X3.2638Y1.0354
X3.2638Y0.937
X3.2638Y0.8386
X3.2677Y1.8898
X3.2677Y0.5512
X3.2717Y2.0354
X3.2717Y0.6969
X3.2736Y2.5272
X3.2736Y1.1887
X3.2795Y2.5079
X3.2795Y2.3898
X3.2795Y2.3583
X3.2795Y2.2913
X3.2795Y2.2598
X3.2795Y2.1929
X3.2795Y2.1614
X3.2795Y1.1693
X3.2795Y1.0512
X3.2795Y1.0197
X3.2795Y0.9528
X3.2795Y0.9213
X3.2795Y0.8543
X3.2795Y0.8228
X3.2913Y2.1102
X3.2913Y2.0354
X3.2913Y0.7717
X3.2913Y0.6969
X3.3031Y2.5079
X3.3031Y1.1693
X3.311Y1.9882
X3.311Y1.9606
X3.311Y1.9331
X3.311Y1.9055
X3.311Y1.878
X3.311Y1.8504
X3.311Y0.6496
X3.311Y0.622
X3.311Y0.5945
X3.311Y0.5669
X3.311Y0.5394
X3.311Y0.5118
X3.3307Y2.1181
X3.3307Y0.7795
X3.3445Y2.5295
X3.3445Y2.5113
X3.3445Y1.1909
X3.3445Y1.1727
X3.3465Y2.3898
X3.3465Y2.3583
X3.3465Y2.2913
X3.3465Y2.2598
X3.3465Y2.1929
X3.3465Y2.1614
X3.3465Y2.0315
X3.3465Y1.0512
X3.3465Y1.0197
X3.3465Y0.9528
X3.3465Y0.9213
X3.3465Y0.8543
X3.3465Y0.8228
X3.3465Y0.6929
X3.3622Y2.374
X3.3622Y2.2756
X3.3622Y2.1772
X3.3622Y1.0354
X3.3622Y0.937
X3.3622Y0.8386
X3.3661Y2.0315
X3.3661Y0.6929
X3.3681Y2.5118
X3.3681Y1.1732
X3.378Y2.3898
X3.378Y2.3583
X3.378Y2.2913
X3.378Y2.2598
X3.378Y2.1929
X3.378Y2.1614
X3.378Y1.0512
X3.378Y1.0197
X3.378Y0.9528
X3.378Y0.9213
X3.378Y0.8543
X3.378Y0.8228
X3.4016Y2.0394
X3.4016Y0.7008
X3.4055Y2.5157
X3.4055Y1.1772
X3.4094Y1.9252
X3.4094Y0.5866
X3.4252Y2.5906
X3.4252Y1.252
X3.4321Y2.3189
X3.4321Y0.9803
X3.4331Y1.9252
X3.4331Y0.5866
X3.435Y2.5118
X3.435Y1.1732
X3.438Y2.1313
X3.438Y0.7927
X3.4518Y2.375
X3.4518Y1.0364
X3.4528Y2.2756
X3.4528Y2.1654
X3.4528Y0.937
X3.4528Y0.8268
X3.4567Y2.4055
X3.4567Y1.0669
X3.4606Y2.0315
X3.4606Y0.6929
X3.4646Y2.5906
X3.4646Y1.252
X3.4705Y2.5079
X3.4705Y2.4902
X3.4705Y1.1693
X3.4705Y1.1516
X3.4843Y2.0669
X3.4843Y0.7283
X3.4882Y2.0315
X3.4882Y0.6929
X3.4902Y2.4724
X3.4902Y1.1339
X3.4921Y1.878
X3.4921Y1.8504
X3.4921Y0.5394
X3.4921Y0.5118
X3.5118Y2.5453
X3.5118Y2.5236
X3.5118Y2.0748
X3.5118Y2.0551
X3.5118Y2.0315
X3.5118Y2.0079
X3.5118Y1.9843
X3.5118Y1.9606
X3.5118Y1.2067
X3.5118Y1.185
X3.5118Y0.7362
X3.5118Y0.7165
X3.5118Y0.6929
X3.5118Y0.6693
X3.5118Y0.6457
X3.5118Y0.622
X3.5157Y2.4291
X3.5157Y1.0906
X3.5185Y1.8961
X3.5185Y0.5575
X3.5276Y1.8504
X3.5276Y0.5118
X3.5315Y2.1535
X3.5315Y0.815
X3.5354Y2.4016
X3.5354Y2.374
X3.5354Y2.3538
X3.5354Y1.063
X3.5354Y1.0354
X3.5354Y1.0152
X3.5433Y2.2559
X3.5433Y1.9055
X3.5433Y0.9173
X3.5433Y0.5669
X3.5487Y2.1403
X3.5487Y0.8017
X3.5512Y1.878
X3.5512Y0.5394
X3.5551Y2.3538
X3.5551Y1.0152
X3.5557Y2.374
X3.5557Y1.0354
X3.5591Y1.9213
X3.5591Y0.5827
X3.563Y2.122
X3.563Y0.7835
X3.5709Y1.9409
X3.5709Y0.6024
X3.5748Y2.3189
X3.5748Y2.0591
X3.5748Y2.0321
X3.5748Y2.0039
X3.5748Y0.9803
X3.5748Y0.7205
X3.5748Y0.6935
X3.5748Y0.6654
X3.5787Y2.2047
X3.5787Y2.1845
X3.5787Y0.8661
X3.5787Y0.8459
X3.5827Y1.8898
X3.5827Y0.5512
X3.5866Y2.2402
X3.5866Y0.9016
X3.5906Y1.8504
X3.5906Y0.5118
X3.5984Y1.9252
X3.5984Y0.5866
X3.6102Y2.1024
X3.6102Y2.0827
X3.6102Y2.0315
X3.6102Y1.9843
X3.6102Y1.9601
X3.6102Y0.7638
X3.6102Y0.7441
X3.6102Y0.6929
X3.6102Y0.6457
X3.6102Y0.6215
X3.6142Y2.2402
X3.6142Y2.2199
X3.6142Y2.1996
X3.6142Y2.1794
X3.6142Y0.9016
X3.6142Y0.8813
X3.6142Y0.8611
X3.6142Y0.8408
X3.622Y1.8898
X3.622Y0.5512
X3.6299Y2.5709
X3.6299Y2.5315
X3.6299Y2.4921
X3.6299Y2.4528
X3.6299Y1.2323
X3.6299Y1.1929
X3.6299Y1.1535
X3.6299Y1.1142
T2
X0.4213Y2.752
X0.4213Y1.4134
X0.437Y2.6417
X0.437Y1.3031
X0.4567Y2.752
X0.4567Y1.4134
X0.4744Y2.6417
X0.4744Y1.3031
X0.4921Y2.752
X0.4921Y1.4134
X0.5098Y2.6417
X0.5098Y1.3031
X0.5276Y2.752
X0.5276Y1.4134
X0.5453Y2.6417
X0.5453Y1.3031
X0.563Y2.752
X0.563Y1.4134
X0.5807Y2.6417
X0.5807Y1.3031
X0.5984Y2.752
X0.5984Y1.4134
X0.6161Y2.6417
X0.6161Y1.3031
X0.6339Y2.752
X0.6339Y1.4134
X0.6516Y2.6417
X0.6516Y1.3031
X0.6693Y2.752
X0.6693Y1.4134
X0.687Y2.6417
X0.687Y1.3031
X0.7047Y2.752
X0.7047Y1.4134
X0.7224Y2.6417
X0.7224Y1.3031
X0.7402Y2.752
X0.7402Y1.4134
X0.7579Y2.6417
X0.7579Y1.3031
X0.7756Y2.752
X0.7756Y1.4134
X0.7933Y2.6417
X0.7933Y1.3031
X0.811Y2.752
X0.811Y1.4134
X0.8287Y2.6417
X0.8287Y1.3031
X0.8465Y2.752
X0.8465Y1.4134
X0.8642Y2.6417
X0.8642Y1.3031
X0.8819Y2.752
X0.8819Y1.4134
X0.9016Y2.6417
X0.9016Y1.3031
X0.9173Y2.752
X0.9173Y1.4134
X1.2874Y2.752
X1.2874Y1.4134
X1.3031Y2.6417
X1.3031Y1.3031
X1.3228Y2.752
X1.3228Y1.4134
X1.3406Y2.6417
X1.3406Y1.3031
X1.3583Y2.752
X1.3583Y1.4134
X1.376Y2.6417
X1.376Y1.3031
X1.3937Y2.752
X1.3937Y1.4134
X1.4114Y2.6417
X1.4114Y1.3031
X1.4291Y2.752
X1.4291Y1.4134
X1.4469Y2.6417
X1.4469Y1.3031
X1.4646Y2.752
X1.4646Y1.4134
X1.4823Y2.6417
X1.4823Y1.3031
X1.5Y2.752
X1.5Y1.4134
X1.5177Y2.6417
X1.5177Y1.3031
X1.5354Y2.752
X1.5354Y1.4134
X1.5531Y2.6417
X1.5531Y1.3031
X1.5709Y2.752
X1.5709Y1.4134
X1.5886Y2.6417
X1.5886Y1.3031
X1.6063Y2.752
X1.6063Y1.4134
X1.624Y2.6417
X1.624Y1.3031
X1.6417Y2.752
X1.6417Y1.4134
X1.6594Y2.6417
X1.6594Y1.3031
X1.6772Y2.752
X1.6772Y1.4134
X1.6949Y2.6417
X1.6949Y1.3031
X1.7126Y2.752
X1.7126Y1.4134
X1.7303Y2.6417
X1.7303Y1.3031
X1.748Y2.752
X1.748Y1.4134
X1.7677Y2.6417
X1.7677Y1.3031
X1.7835Y2.752
X1.7835Y1.4134
X2.1535Y2.752
X2.1535Y1.4134
X2.1693Y2.6417
X2.1693Y1.3031
X2.189Y2.752
X2.189Y1.4134
X2.2067Y2.6417
X2.2067Y1.3031
X2.2244Y2.752
X2.2244Y1.4134
X2.2421Y2.6417
X2.2421Y1.3031
X2.2598Y2.752
X2.2598Y1.4134
X2.2776Y2.6417
X2.2776Y1.3031
X2.2953Y2.752
X2.2953Y1.4134
X2.313Y2.6417
X2.313Y1.3031
X2.3307Y2.752
X2.3307Y1.4134
X2.3484Y2.6417
X2.3484Y1.3031
X2.3661Y2.752
X2.3661Y1.4134
X2.3839Y2.6417
X2.3839Y1.3031
X2.4016Y2.752
X2.4016Y1.4134
X2.4193Y2.6417
X2.4193Y1.3031
X2.437Y2.752
X2.437Y1.4134
X2.4547Y2.6417
X2.4547Y1.3031
X2.4724Y2.752
X2.4724Y1.4134
X2.4902Y2.6417
X2.4902Y1.3031
X2.5079Y2.752
X2.5079Y1.4134
X2.5256Y2.6417
X2.5256Y1.3031
X2.5433Y2.752
X2.5433Y1.4134
X2.561Y2.6417
X2.561Y1.3031
X2.5787Y2.752
X2.5787Y1.4134
X2.5965Y2.6417
X2.5965Y1.3031
X2.6142Y2.752
X2.6142Y1.4134
X2.6339Y2.6417
X2.6339Y1.3031
X2.6496Y2.752
X2.6496Y1.4134
X3.0197Y2.752
X3.0197Y1.4134
X3.0354Y2.6417
X3.0354Y1.3031
X3.0551Y2.752
X3.0551Y1.4134
X3.0728Y2.6417
X3.0728Y1.3031
X3.0906Y2.752
X3.0906Y1.4134
X3.1083Y2.6417
X3.1083Y1.3031
X3.126Y2.752
X3.126Y1.4134
X3.1437Y2.6417
X3.1437Y1.3031
X3.1614Y2.752
X3.1614Y1.4134
X3.1791Y2.6417
X3.1791Y1.3031
X3.1969Y2.752
X3.1969Y1.4134
X3.2146Y2.6417
X3.2146Y1.3031
X3.2323Y2.752
X3.2323Y1.4134
X3.25Y2.6417
X3.25Y1.3031
X3.2677Y2.752
X3.2677Y1.4134
X3.2854Y2.6417
X3.2854Y1.3031
X3.3031Y2.752
X3.3031Y1.4134
X3.3209Y2.6417
X3.3209Y1.3031
X3.3386Y2.752
X3.3386Y1.4134
X3.3563Y2.6417
X3.3563Y1.3031
X3.374Y2.752
X3.374Y1.4134
X3.3917Y2.6417
X3.3917Y1.3031
X3.4094Y2.752
X3.4094Y1.4134
X3.4272Y2.6417
X3.4272Y1.3031
X3.4449Y2.752
X3.4449Y1.4134
X3.4626Y2.6417
X3.4626Y1.3031
X3.4803Y2.752
X3.4803Y1.4134
X3.5Y2.6417
X3.5Y1.3031
X3.5157Y2.752
X3.5157Y1.4134
T3
X0.748Y3.0709
X1.2598Y0.1969
X2.6772Y0.1969
X3.189Y3.0709
M30
